<svg viewBox="0 0 33 32" fill="none" xmlns="http://www.w3.org/2000/svg">
  <path
    d="M19.3343 24.0014L19.643 23.9991C21.0375 23.9991 21.7701 24.5772 22.6739 25.9468L23.1239 26.6419C23.4748 27.1614 23.6937 27.3789 23.9696 27.4926C24.4641 27.6964 24.8739 27.5962 26.379 26.8715L26.8399 26.6472C27.7812 26.1851 28.4236 25.9205 29.1494 25.739C29.6086 25.6242 30.074 25.9034 30.1888 26.3627C30.3036 26.8219 30.0244 27.2873 29.5651 27.4021C29.114 27.5149 28.6818 27.6767 28.1163 27.9373L26.7921 28.5743C25.0002 29.4205 24.3926 29.5211 23.3163 29.0776C22.602 28.7831 22.1957 28.3572 21.6013 27.4483L21.3788 27.101C20.6909 26.017 20.3447 25.7134 19.643 25.7134L19.4616 25.7177C18.9666 25.7477 18.6461 25.9745 16.5107 27.5592C14.5196 29.0368 13.0011 29.7426 11.07 29.7426C8.71579 29.7426 6.49751 29.3101 4.42176 28.4455L7.71584 27.6839C8.7946 27.9135 9.91229 28.0283 11.07 28.0283C12.545 28.0283 13.7677 27.46 15.4891 26.1825L16.8149 25.2043C18.2679 24.1483 18.5911 24.0175 19.3343 24.0014ZM26.5311 3.68153C28.4438 5.59425 28.4438 8.69533 26.5312 10.6081L25.3477 11.7917C26.6642 13.3934 26.6168 15.091 25.3928 16.3186L21.963 19.7484C21.6281 20.083 21.0854 20.0827 20.7509 19.7478C20.4163 19.4129 20.4165 18.8702 20.7514 18.5356L24.1788 15.1082C24.7332 14.5523 24.7972 13.862 24.1332 13.007L12.0253 25.1147C11.6845 25.4555 11.2548 25.6937 10.7852 25.802L3.83569 27.4058C3.21848 27.5482 2.66533 26.995 2.80776 26.3778L4.4115 19.4283C4.51986 18.9587 4.758 18.5291 5.09876 18.1883L19.6047 3.68164C21.5173 1.76892 24.6183 1.76887 26.5311 3.68153Z"
    fill="currentColor" />
</svg>