<svg xmlns="http://www.w3.org/2000/svg" width="27" height="26" viewBox="0 0 27 26" fill="none">
    <path fill-rule="evenodd" clip-rule="evenodd" d="M2.40381 1.90381C0.5 3.80761 0.5 6.87174 0.5 13C0.5 19.1283 0.5 22.1924 2.40381 24.0962C4.30761 26 7.37174 26 13.5 26C19.6283 26 22.6924 26 24.5962 24.0962C26.5 22.1924 26.5 19.1283 26.5 13C26.5 6.87174 26.5 3.80761 24.5962 1.90381C22.6924 0 19.6283 0 13.5 0C7.37174 0 4.30761 0 2.40381 1.90381ZM17.4571 4.98039C17.0666 4.58987 16.4334 4.58987 16.0429 4.98039C15.6524 5.37092 15.6524 6.00408 16.0429 6.39461L17.5858 7.9375H7C6.44772 7.9375 6 8.38522 6 8.9375C6 9.48978 6.44772 9.9375 7 9.9375H17.5858L16.0429 11.4804C15.6524 11.8709 15.6524 12.5041 16.0429 12.8946C16.4334 13.2851 17.0666 13.2851 17.4571 12.8946L20.7071 9.64461C21.0976 9.25408 21.0976 8.62092 20.7071 8.23039L17.4571 4.98039ZM10.9571 14.5196C11.3476 14.1291 11.3476 13.4959 10.9571 13.1054C10.5666 12.7149 9.93342 12.7149 9.54289 13.1054L6.29289 16.3554C5.90237 16.7459 5.90237 17.3791 6.29289 17.7696L9.54289 21.0196C9.93342 21.4101 10.5666 21.4101 10.9571 21.0196C11.3476 20.6291 11.3476 19.9959 10.9571 19.6054L9.41421 18.0625H20C20.5523 18.0625 21 17.6148 21 17.0625C21 16.5102 20.5523 16.0625 20 16.0625H9.41421L10.9571 14.5196Z" fill="currentColor"/>
</svg>