<svg viewBox="0 0 33 32" fill="none" xmlns="http://www.w3.org/2000/svg">
  <path fill-rule="evenodd" clip-rule="evenodd"
    d="M28.0013 4.01886C28.0013 2.90005 27.095 2 25.9825 2H6.02511C4.9063 2 4 2.9063 4 4.01886L4.00012 28.0015C4.00012 29.1078 4.89392 30.0016 6.00023 30.0016H26.0012C27.1075 30.0016 28.0013 29.1078 28.0013 28.0015V4.01886ZM23.4011 24.0012H8.60038C8.26911 24.0012 8.00035 24.2262 8.00035 24.5013V25.5013C8.00035 25.7763 8.26911 26.0013 8.60038 26.0013H23.4011C23.7324 26.0013 24.0011 25.7763 24.0011 25.5013V24.5013C24.0011 24.2262 23.7324 24.0012 23.4011 24.0012ZM22.9414 9.85651C23.4144 9.39233 23.4216 8.63256 22.9574 8.15953C22.4932 7.68649 21.7334 7.67931 21.2604 8.14349L13.9483 15.3188L11.7414 13.1532C11.2683 12.689 10.5086 12.6962 10.0444 13.1692C9.58019 13.6422 9.58737 14.402 10.0604 14.8662L13.1078 17.8565C13.5745 18.3145 14.322 18.3145 14.7887 17.8565L22.9414 9.85651Z"
    fill="currentColor" />
</svg>