<svg viewBox="0 0 22 31" fill="none" xmlns="http://www.w3.org/2000/svg">
  <path
    d="M12.8474 1.91556L12.8405 6.87073L8.17682 6.86422L8.18373 1.90904C8.11426 1.4178 7.86991 0.9681 7.49556 0.642508C7.12121 0.316917 6.64197 0.137285 6.14584 0.136592C5.6497 0.135899 5.16997 0.314194 4.79471 0.638738C4.41945 0.963283 4.17385 1.4123 4.103 1.90335L4.09608 6.85852L2.20145 6.85588C1.93041 6.84384 1.65983 6.88826 1.40687 6.98632C1.15391 7.08438 0.92408 7.23394 0.731971 7.42551C0.539861 7.61709 0.389662 7.84649 0.290896 8.09918C0.19213 8.35187 0.146955 8.62233 0.158236 8.8934L0.152131 13.2656C0.125231 14.6133 0.368372 15.9527 0.867227 17.2049C1.36608 18.4571 2.11055 19.5967 3.05677 20.5567C4.49604 22.0533 6.39127 23.0298 8.4453 23.3333L8.43858 28.1428C8.42654 28.4138 8.47096 28.6844 8.56902 28.9373C8.66708 29.1903 8.81664 29.4201 9.00822 29.6122C9.19979 29.8043 9.4292 29.9545 9.68189 30.0533C9.93458 30.1521 10.205 30.1973 10.4761 30.186C10.7471 30.198 11.0177 30.1536 11.2707 30.0555C11.5237 29.9575 11.7535 29.8079 11.9456 29.6163C12.1377 29.4248 12.2879 29.1954 12.3867 28.9427C12.4854 28.69 12.5306 28.4195 12.5193 28.1484L12.5258 23.4848C14.6796 23.1359 16.6693 22.119 18.2138 20.5779C20.1458 18.6422 21.2473 16.0297 21.2845 13.2951L21.2906 8.92291C21.2969 8.37924 21.0881 7.85511 20.7097 7.46469C20.5291 7.26062 20.3034 7.10148 20.0506 6.99993C19.7977 6.89837 19.5247 6.8572 19.2531 6.87969L16.9212 6.87643L16.9282 1.92125C16.8587 1.43001 16.6143 0.980311 16.24 0.65472C15.8656 0.329128 15.3864 0.149495 14.8903 0.148802C14.3941 0.148109 13.9144 0.326404 13.5391 0.650949C13.1639 0.975493 12.9183 1.42451 12.8474 1.91556Z"
    fill="currentColor" />
</svg>