<svg viewBox="0 0 33 32" fill="none" xmlns="http://www.w3.org/2000/svg">
  <path fill-rule="evenodd" clip-rule="evenodd"
    d="M5.83325 25.0825V6.6665C5.83325 4.45736 7.62411 2.6665 9.83325 2.6665H23.1666C25.3757 2.6665 27.1666 4.45737 27.1666 6.6665V25.0825C27.1666 27.648 24.4667 29.3166 22.1721 28.1693C21.9469 28.0566 21.71 27.969 21.4657 27.908L17.4701 26.909C16.8331 26.7498 16.1667 26.7498 15.5298 26.909L11.5341 27.908C11.2898 27.969 11.053 28.0566 10.8277 28.1693C8.5331 29.3166 5.83325 27.648 5.83325 25.0825ZM11.1666 7.99984C10.4302 7.99984 9.83325 8.59679 9.83325 9.33317C9.83325 10.0696 10.4302 10.6665 11.1666 10.6665H21.8333C22.5696 10.6665 23.1666 10.0696 23.1666 9.33317C23.1666 8.59679 22.5696 7.99984 21.8333 7.99984H11.1666ZM9.83325 15.9998C9.83325 15.2635 10.4302 14.6665 11.1666 14.6665H21.8333C22.5696 14.6665 23.1666 15.2635 23.1666 15.9998C23.1666 16.7362 22.5696 17.3332 21.8333 17.3332H11.1666C10.4302 17.3332 9.83325 16.7362 9.83325 15.9998ZM11.1666 21.3332C10.4302 21.3332 9.83325 21.9301 9.83325 22.6665C9.83325 23.4029 10.4302 23.9998 11.1666 23.9998H14.7221C15.4585 23.9998 16.0555 23.4029 16.0555 22.6665C16.0555 21.9301 15.4585 21.3332 14.7221 21.3332H11.1666ZM18.2777 21.3332C17.5413 21.3332 16.9444 21.9301 16.9444 22.6665C16.9444 23.4029 17.5413 23.9998 18.2777 23.9998H21.8333C22.5696 23.9998 23.1666 23.4029 23.1666 22.6665C23.1666 21.9301 22.5696 21.3332 21.8333 21.3332H18.2777Z"
    fill="currentColor" />
</svg>