<svg viewBox="0 0 32 32" fill="none" xmlns="http://www.w3.org/2000/svg">
  <path fill-rule="evenodd" clip-rule="evenodd"
    d="M28.0004 22.0011V4.01886C28.0004 2.90005 27.0941 2 25.9815 2H6.02414C4.90532 2 3.99902 2.9063 3.99902 4.01886V24.0012H3.99915V28.0015C3.99915 29.1078 4.89295 30.0016 5.99926 30.0016H26.0003C27.1066 30.0016 28.0004 29.1078 28.0004 28.0015V24.0012V22.0011ZM23.4001 24.0012H22H9.99948H8.5994C8.26813 24.0012 7.99937 24.2262 7.99937 24.5013V25.5013C7.99937 25.7763 8.26813 26.0013 8.5994 26.0013H23.4001C23.7314 26.0013 24.0001 25.7763 24.0001 25.5013V24.5013C24.0001 24.2262 23.7314 24.0012 23.4001 24.0012ZM11.8839 7.11612C11.3957 6.62796 10.6043 6.62796 10.1161 7.11612C9.62796 7.60427 9.62796 8.39573 10.1161 8.88388L14.2322 13L10.1161 17.1161C9.62796 17.6043 9.62796 18.3957 10.1161 18.8839C10.6043 19.372 11.3957 19.372 11.8839 18.8839L16 14.7678L20.1161 18.8839C20.6043 19.372 21.3957 19.372 21.8839 18.8839C22.372 18.3957 22.372 17.6043 21.8839 17.1161L17.7678 13L21.8839 8.88388C22.372 8.39573 22.372 7.60427 21.8839 7.11612C21.3957 6.62796 20.6043 6.62796 20.1161 7.11612L16 11.2322L11.8839 7.11612Z"
    fill="currentColor" />
</svg>