<svg version="1.0" xmlns="http://www.w3.org/2000/svg"
 width="40.000000pt" height="40.000000pt" viewBox="0 0 40.000000 40.000000"
 preserveAspectRatio="xMidYMid meet">

<g transform="translate(0.000000,40.000000) scale(0.100000,-0.100000)"
fill="#000000" stroke="none">
<path d="M108 374 c-37 -19 -35 -24 7 -24 28 0 35 4 35 20 0 24 -6 24 -42 4z"/>
<path d="M250 370 c0 -17 7 -20 38 -20 l37 1 -24 19 c-30 26 -51 25 -51 0z"/>
<path d="M50 276 c0 -18 -6 -25 -22 -28 -20 -3 -23 -9 -23 -48 0 -39 3 -45 22
-48 19 -3 22 -11 25 -50 2 -36 7 -48 21 -50 11 -2 27 -12 38 -23 25 -25 39
-24 39 1 0 17 7 20 50 20 43 0 50 -3 50 -20 0 -25 14 -26 39 -1 11 11 27 21
38 23 14 2 19 14 21 50 3 39 6 47 25 50 19 3 22 9 22 48 0 39 -3 45 -22 48
-17 3 -23 10 -23 28 l0 24 -150 0 -150 0 0 -24z m100 -76 l0 -50 50 0 50 0 0
50 c0 47 2 50 25 50 20 0 25 -5 25 -25 0 -20 5 -25 25 -25 20 0 25 -5 25 -25
0 -20 -5 -25 -25 -25 -23 0 -25 -3 -25 -50 0 -47 -2 -50 -25 -50 -20 0 -25 5
-25 25 0 23 -3 25 -50 25 -47 0 -50 -2 -50 -25 0 -20 -5 -25 -25 -25 -23 0
-25 3 -25 50 0 47 -2 50 -25 50 -20 0 -25 5 -25 25 0 20 5 25 25 25 20 0 25 5
25 25 0 20 5 25 25 25 23 0 25 -3 25 -50z"/>
</g>
</svg>
