<svg xmlns="http://www.w3.org/2000/svg" width="64" height="64" viewBox="0 0 64 64" fill="none">
  <path d="M32 64C49.6731 64 64 49.6731 64 32C64 14.3269 49.6731 0 32 0C14.3269 0 0 14.3269 0 32C0 49.6731 14.3269 64 32 64Z" fill="currentColor"/>
  <path d="M18.6108 34.6288L26.4953 42.6732C27.3142 43.5083 28.448 43.94 29.603 43.8562C30.758 43.7725 31.8206 43.1817 32.5155 42.2369L46.8799 26.2457C47.4836 25.5736 47.3861 24.5295 46.6683 23.9808L42.7147 20.9587C42.0847 20.4771 41.1927 20.5493 40.6484 21.126L29.9883 32.4188C29.3852 33.0578 28.3718 33.0674 27.7566 32.4399L24.2986 28.9123C23.6914 28.2928 22.6938 28.293 22.0868 28.9127L18.6105 32.4615C18.0207 33.0636 18.0208 34.0269 18.6108 34.6288Z" fill="white"/>
</svg>