<svg width="321" height="320" viewBox="0 0 321 320" fill="none" xmlns="http://www.w3.org/2000/svg">
  <path
    d="M43.5166 58H279.517V230.339C279.517 232.105 278.674 233.8 277.173 235.049C275.673 236.298 273.638 237 271.517 237H51.5166C49.3949 237 47.36 236.298 45.8597 235.049C44.3595 233.8 43.5166 232.105 43.5166 230.339V58Z"
    fill="url(#paint0_linear_286_1398)" />
  <path
    d="M43.5166 58H279.517V34C279.517 31.8783 278.674 29.8434 277.173 28.3431C275.673 26.8428 273.638 26 271.517 26H51.5166C49.3949 26 47.36 26.8428 45.8597 28.3431C44.3595 29.8434 43.5166 31.8783 43.5166 34V58Z"
    fill="#737373" />
  <path
    d="M92.5166 42C92.5166 41.2089 92.7512 40.4355 93.1907 39.7777C93.6303 39.1199 94.2549 38.6073 94.9858 38.3045C95.7167 38.0018 96.521 37.9225 97.2969 38.0769C98.0729 38.2312 98.7856 38.6122 99.345 39.1716C99.9044 39.731 100.285 40.4437 100.44 41.2197C100.594 41.9956 100.515 42.7999 100.212 43.5308C99.9093 44.2617 99.3967 44.8863 98.7389 45.3259C98.0811 45.7654 97.3077 46 96.5166 46C95.4557 46 94.4383 45.5786 93.6882 44.8284C92.938 44.0783 92.5166 43.0609 92.5166 42ZM76.5166 42C76.5166 41.2089 76.7512 40.4355 77.1907 39.7777C77.6303 39.1199 78.2549 38.6073 78.9858 38.3045C79.7167 38.0018 80.521 37.9225 81.2969 38.0769C82.0729 38.2312 82.7856 38.6122 83.345 39.1716C83.9044 39.731 84.2854 40.4437 84.4398 41.2197C84.5941 41.9956 84.5148 42.7999 84.2121 43.5308C83.9093 44.2617 83.3967 44.8863 82.7389 45.3259C82.0811 45.7654 81.3077 46 80.5166 46C79.4557 46 78.4383 45.5786 77.6882 44.8284C76.938 44.0783 76.5166 43.0609 76.5166 42ZM60.5166 42C60.5166 41.2089 60.7512 40.4355 61.1907 39.7777C61.6303 39.1199 62.2549 38.6073 62.9858 38.3045C63.7167 38.0018 64.521 37.9225 65.2969 38.0769C66.0729 38.2312 66.7856 38.6122 67.345 39.1716C67.9044 39.731 68.2854 40.4437 68.4398 41.2197C68.5941 41.9956 68.5148 42.7999 68.2121 43.5308C67.9093 44.2617 67.3967 44.8863 66.7389 45.3259C66.0811 45.7654 65.3077 46 64.5166 46C63.4557 46 62.4383 45.5786 61.6882 44.8284C60.938 44.0783 60.5166 43.0609 60.5166 42Z"
    fill="#424242" />
  <path opacity="0.37"
    d="M182.827 268.38C197.567 268.38 209.517 256.43 209.517 241.69C209.517 226.95 197.567 215 182.827 215C168.086 215 156.137 226.95 156.137 241.69C156.137 246.414 157.364 250.851 159.517 254.7L136.038 272.5C133.009 269.706 128.962 268 124.517 268C122.959 268 121.45 268.21 120.017 268.602L104.017 220.401C126.606 211.142 142.517 188.934 142.517 163.01C142.517 128.768 114.758 101.01 80.5166 101.01C46.2749 101.01 18.5166 128.768 18.5166 163.01C18.5166 197.251 46.2749 225.01 80.5166 225.01C86.7766 225.01 92.82 224.082 98.5166 222.356L114.87 271C110.428 274.067 107.517 279.193 107.517 285C107.517 294.389 115.128 302 124.517 302C133.905 302 141.517 294.389 141.517 285C141.517 282.505 140.979 280.135 140.013 278L163.517 260.115C168.377 265.207 175.231 268.38 182.827 268.38Z"
    fill="#737373" />
  <path
    d="M165.517 84C165.517 90.0751 160.592 95 154.517 95C148.441 95 143.517 90.0751 143.517 84C143.517 77.9249 148.441 73 154.517 73C160.592 73 165.517 77.9249 165.517 84Z"
    fill="#424242" />
  <path
    d="M165.517 115C165.517 121.075 160.592 126 154.517 126C148.441 126 143.517 121.075 143.517 115C143.517 108.925 148.441 104 154.517 104C160.592 104 165.517 108.925 165.517 115Z"
    fill="#424242" />
  <path
    d="M197.517 84C197.517 90.0751 192.592 95 186.517 95C180.441 95 175.517 90.0751 175.517 84C175.517 77.9249 180.441 73 186.517 73C192.592 73 197.517 77.9249 197.517 84Z"
    fill="#424242" />
  <path
    d="M197.517 115C197.517 121.075 192.592 126 186.517 126C180.441 126 175.517 121.075 175.517 115C175.517 108.925 180.441 104 186.517 104C192.592 104 197.517 108.925 197.517 115Z"
    fill="#424242" />
  <path
    d="M229.517 84C229.517 90.0751 224.592 95 218.517 95C212.441 95 207.517 90.0751 207.517 84C207.517 77.9249 212.441 73 218.517 73C224.592 73 229.517 77.9249 229.517 84Z"
    fill="#424242" />
  <path
    d="M261.517 84C261.517 90.0751 256.592 95 250.517 95C244.441 95 239.517 90.0751 239.517 84C239.517 77.9249 244.441 73 250.517 73C256.592 73 261.517 77.9249 261.517 84Z"
    fill="#424242" />
  <path
    d="M69.5166 217.007C103.758 217.007 131.517 189.248 131.517 155.007C131.517 120.765 103.758 93.0068 69.5166 93.0068C35.2749 93.0068 7.5166 120.765 7.5166 155.007C7.5166 189.248 35.2749 217.007 69.5166 217.007Z"
    fill="url(#paint1_linear_286_1398)" />
  <path
    d="M113.517 293.997C122.905 293.997 130.517 286.386 130.517 276.997C130.517 267.608 122.905 259.997 113.517 259.997C104.128 259.997 96.5166 267.608 96.5166 276.997C96.5166 286.386 104.128 293.997 113.517 293.997Z"
    fill="url(#paint2_linear_286_1398)" />
  <path opacity="0.5"
    d="M46.2601 162.802L60.8505 177.688C62.437 179.306 64.6337 180.142 66.8715 179.98C69.1094 179.818 71.1681 178.673 72.5145 176.843L96.1915 144.632C97.4826 142.876 97.1296 140.409 95.3978 139.085L89.3663 134.475C87.588 133.116 85.0404 133.48 83.7145 135.283L68.2637 156.298C66.8032 158.285 63.9106 158.49 62.1846 156.729L57.3087 151.755C55.74 150.155 53.1629 150.155 51.5948 151.756L46.2593 157.203C44.7356 158.758 44.736 161.247 46.2601 162.802Z"
    fill="#0A7147" />
  <path
    d="M43.5742 160.102L58.8505 175.688C60.437 177.306 62.6337 178.142 64.8715 177.98C67.1094 177.818 69.1681 176.673 70.5145 174.843L94.7728 141.842C95.7411 140.524 95.4764 138.674 94.1775 137.681L86.5569 131.856C85.2231 130.837 83.3124 131.11 82.318 132.463L65.5671 155.246C64.4717 156.736 62.3023 156.889 61.0078 155.569L54.5944 149.026C53.4178 147.826 51.485 147.826 50.3089 149.027L43.5736 155.903C42.4309 157.069 42.4311 158.936 43.5742 160.102Z"
    fill="url(#paint3_linear_286_1398)" />
  <path d="M84.0166 137L71.541 153.5" stroke="white" stroke-width="3" stroke-linecap="round" />
  <path d="M51.5166 152L46.5166 157" stroke="white" stroke-width="3" stroke-linecap="round" />
  <path
    d="M171.827 260.377C186.567 260.377 198.517 248.428 198.517 233.687C198.517 218.947 186.567 206.997 171.827 206.997C157.086 206.997 145.137 218.947 145.137 233.687C145.137 248.428 157.086 260.377 171.827 260.377Z"
    fill="url(#paint4_linear_286_1398)" />
  <path
    d="M171.517 252C181.458 252 189.517 243.941 189.517 234C189.517 224.059 181.458 216 171.517 216C161.575 216 153.517 224.059 153.517 234C153.517 243.941 161.575 252 171.517 252Z"
    fill="#01B86C" />
  <path
    d="M171.517 244C177.039 244 181.517 239.523 181.517 234C181.517 228.477 177.039 224 171.517 224C165.994 224 161.517 228.477 161.517 234C161.517 239.523 165.994 244 171.517 244Z"
    fill="#0ADD84" />
  <path
    d="M169.806 232.36C171.028 228.633 188.325 192.547 188.833 190.828C189.341 189.109 192.707 184.78 194.433 182.971C196.159 181.162 281.027 96.0367 283.971 93.1707C286.915 90.3047 295.171 89.9467 299.64 94.2927C304.109 98.6387 308.586 103.119 311.951 106.64C315.316 110.161 317.324 118.94 313.07 123.477C308.816 128.014 227.621 208.955 224.652 212.153C221.866 215.152 218.416 217.459 214.579 218.888C210.847 220.324 177.373 236.126 174.287 236.848C171.201 237.57 168.583 236.087 169.806 232.36Z"
    fill="url(#paint5_linear_286_1398)" />
  <path
    d="M169.806 232.36C168.583 236.087 171.201 237.57 174.287 236.848C175.765 236.502 184.207 232.7 193.017 228.673L178.017 214.201C174.031 222.735 170.347 230.712 169.806 232.36Z"
    fill="#292929" />
  <path
    d="M224.652 212.153C227.28 209.323 291.166 145.612 308.782 127.843L278.861 98.2666C259.976 117.153 195.93 181.402 194.433 182.971L224.652 212.153Z"
    fill="url(#paint6_linear_286_1398)" />
  <path
    d="M25.0166 125.5C25.3772 124.916 25.8206 124.242 26.3448 123.5M57.0166 102.5C46.499 104.457 38.1875 110.502 32.5166 116.199"
    stroke="#0ADD84" stroke-width="6" stroke-linecap="round" />
  <path
    d="M100.517 272C100.618 271.797 100.743 271.563 100.89 271.304M109.517 264C106.559 264.681 104.221 266.783 102.626 268.765"
    stroke="#0ADD84" stroke-width="2" stroke-linecap="round" />
  <path d="M279.517 107L272.767 113.75M233.517 153L266.017 120.5" stroke="#0ADD84" stroke-width="6"
    stroke-linecap="round" />
  <defs>
    <linearGradient id="paint0_linear_286_1398" x1="75" y1="252" x2="154.826" y2="23.9549"
      gradientUnits="userSpaceOnUse">
      <stop stop-color="#424242" />
      <stop offset="1" stop-color="#525252" />
    </linearGradient>
    <linearGradient id="paint1_linear_286_1398" x1="102.517" y1="243" x2="47.9632" y2="114.735"
      gradientUnits="userSpaceOnUse">
      <stop stop-color="#01B86C" />
      <stop offset="0.322807" stop-color="#058751" />
      <stop offset="1" stop-color="#01B86C" />
    </linearGradient>
    <linearGradient id="paint2_linear_286_1398" x1="122.565" y1="301.124" x2="107.607" y2="265.955"
      gradientUnits="userSpaceOnUse">
      <stop stop-color="#01B86C" />
      <stop offset="0.322807" stop-color="#058751" />
      <stop offset="1" stop-color="#01B86C" />
    </linearGradient>
    <linearGradient id="paint3_linear_286_1398" x1="55.0614" y1="193.051" x2="74.1963" y2="111.93"
      gradientUnits="userSpaceOnUse">
      <stop stop-color="#B2FFDD" />
      <stop offset="1" stop-color="#FAFAFA" />
    </linearGradient>
    <linearGradient id="paint4_linear_286_1398" x1="186.033" y1="271.567" x2="162.548" y2="216.351"
      gradientUnits="userSpaceOnUse">
      <stop stop-color="#01B86C" />
      <stop offset="0.322807" stop-color="#058751" />
      <stop offset="1" stop-color="#01B86C" />
    </linearGradient>
    <linearGradient id="paint5_linear_286_1398" x1="256.017" y1="203.5" x2="208.017" y2="150"
      gradientUnits="userSpaceOnUse">
      <stop stop-color="#0B5C3C" />
      <stop offset="1" stop-color="#0A7147" />
    </linearGradient>
    <linearGradient id="paint6_linear_286_1398" x1="282.039" y1="236.026" x2="232.076" y2="118.077"
      gradientUnits="userSpaceOnUse">
      <stop stop-color="#01B86C" />
      <stop offset="0.322807" stop-color="#058751" />
      <stop offset="1" stop-color="#01B86C" />
    </linearGradient>
  </defs>
</svg>