<svg width="321" height="320" viewBox="0 0 321 320" fill="none" xmlns="http://www.w3.org/2000/svg">
<path d="M43.5 58H279.5V230.339C279.5 232.105 278.657 233.8 277.157 235.049C275.657 236.298 273.622 237 271.5 237H51.5C49.3783 237 47.3434 236.298 45.8431 235.049C44.3429 233.8 43.5 232.105 43.5 230.339V58Z" fill="url(#paint0_linear_10566_33374)"/>
<path d="M43.5 58H279.5V34C279.5 31.8783 278.657 29.8434 277.157 28.3431C275.657 26.8428 273.622 26 271.5 26H51.5C49.3783 26 47.3434 26.8428 45.8431 28.3431C44.3428 29.8434 43.5 31.8783 43.5 34V58Z" fill="#737373"/>
<path d="M92.5 42C92.5 41.2089 92.7346 40.4355 93.1741 39.7777C93.6137 39.1199 94.2383 38.6073 94.9692 38.3045C95.7001 38.0018 96.5044 37.9225 97.2803 38.0769C98.0563 38.2312 98.769 38.6122 99.3284 39.1716C99.8878 39.731 100.269 40.4437 100.423 41.2197C100.577 41.9956 100.498 42.7999 100.195 43.5308C99.8927 44.2617 99.3801 44.8863 98.7223 45.3259C98.0645 45.7654 97.2911 46 96.5 46C95.4391 46 94.4217 45.5786 93.6716 44.8284C92.9214 44.0783 92.5 43.0609 92.5 42ZM76.5 42C76.5 41.2089 76.7346 40.4355 77.1741 39.7777C77.6137 39.1199 78.2383 38.6073 78.9692 38.3045C79.7001 38.0018 80.5044 37.9225 81.2803 38.0769C82.0563 38.2312 82.769 38.6122 83.3284 39.1716C83.8878 39.731 84.2688 40.4437 84.4232 41.2197C84.5775 41.9956 84.4982 42.7999 84.1955 43.5308C83.8927 44.2617 83.3801 44.8863 82.7223 45.3259C82.0645 45.7654 81.2911 46 80.5 46C79.4391 46 78.4217 45.5786 77.6716 44.8284C76.9214 44.0783 76.5 43.0609 76.5 42ZM60.5 42C60.5 41.2089 60.7346 40.4355 61.1741 39.7777C61.6137 39.1199 62.2383 38.6073 62.9692 38.3045C63.7001 38.0018 64.5044 37.9225 65.2803 38.0769C66.0563 38.2312 66.769 38.6122 67.3284 39.1716C67.8878 39.731 68.2688 40.4437 68.4232 41.2197C68.5775 41.9956 68.4982 42.7999 68.1955 43.5308C67.8927 44.2617 67.3801 44.8863 66.7223 45.3259C66.0645 45.7654 65.2911 46 64.5 46C63.4391 46 62.4217 45.5786 61.6716 44.8284C60.9214 44.0783 60.5 43.0609 60.5 42Z" fill="#424242"/>
<path opacity="0.37" d="M182.81 268.38C197.55 268.38 209.5 256.43 209.5 241.69C209.5 226.95 197.55 215 182.81 215C168.07 215 156.12 226.95 156.12 241.69C156.12 246.414 157.347 250.851 159.5 254.7L136.022 272.5C132.993 269.706 128.946 268 124.5 268C122.942 268 121.433 268.21 120 268.602L104 220.401C126.589 211.142 142.5 188.934 142.5 163.01C142.5 128.768 114.742 101.01 80.5 101.01C46.2583 101.01 18.5 128.768 18.5 163.01C18.5 197.251 46.2583 225.01 80.5 225.01C86.76 225.01 92.8034 224.082 98.5 222.356L114.854 271C110.411 274.067 107.5 279.193 107.5 285C107.5 294.389 115.111 302 124.5 302C133.889 302 141.5 294.389 141.5 285C141.5 282.505 140.962 280.135 139.997 278L163.5 260.115C168.36 265.207 175.215 268.38 182.81 268.38Z" fill="#737373"/>
<path d="M165.5 84C165.5 90.0751 160.575 95 154.5 95C148.425 95 143.5 90.0751 143.5 84C143.5 77.9249 148.425 73 154.5 73C160.575 73 165.5 77.9249 165.5 84Z" fill="#424242"/>
<path d="M165.5 115C165.5 121.075 160.575 126 154.5 126C148.425 126 143.5 121.075 143.5 115C143.5 108.925 148.425 104 154.5 104C160.575 104 165.5 108.925 165.5 115Z" fill="#424242"/>
<path d="M197.5 84C197.5 90.0751 192.575 95 186.5 95C180.425 95 175.5 90.0751 175.5 84C175.5 77.9249 180.425 73 186.5 73C192.575 73 197.5 77.9249 197.5 84Z" fill="#424242"/>
<path d="M197.5 115C197.5 121.075 192.575 126 186.5 126C180.425 126 175.5 121.075 175.5 115C175.5 108.925 180.425 104 186.5 104C192.575 104 197.5 108.925 197.5 115Z" fill="#424242"/>
<path d="M229.5 84C229.5 90.0751 224.575 95 218.5 95C212.425 95 207.5 90.0751 207.5 84C207.5 77.9249 212.425 73 218.5 73C224.575 73 229.5 77.9249 229.5 84Z" fill="#424242"/>
<path d="M261.5 84C261.5 90.0751 256.575 95 250.5 95C244.425 95 239.5 90.0751 239.5 84C239.5 77.9249 244.425 73 250.5 73C256.575 73 261.5 77.9249 261.5 84Z" fill="#424242"/>
<path d="M69.5 217.007C103.742 217.007 131.5 189.248 131.5 155.007C131.5 120.765 103.742 93.0068 69.5 93.0068C35.2583 93.0068 7.5 120.765 7.5 155.007C7.5 189.248 35.2583 217.007 69.5 217.007Z" fill="url(#paint1_linear_10566_33374)"/>
<path d="M113.5 293.997C122.889 293.997 130.5 286.386 130.5 276.997C130.5 267.608 122.889 259.997 113.5 259.997C104.111 259.997 96.5 267.608 96.5 276.997C96.5 286.386 104.111 293.997 113.5 293.997Z" fill="url(#paint2_linear_10566_33374)"/>
<path opacity="0.5" d="M46.2435 162.802L60.8339 177.688C62.4204 179.306 64.6171 180.142 66.8549 179.98C69.0928 179.818 71.1515 178.673 72.4979 176.843L96.1749 144.632C97.466 142.876 97.113 140.409 95.3812 139.085L89.3497 134.475C87.5714 133.116 85.0238 133.48 83.6979 135.283L68.2471 156.298C66.7866 158.285 63.894 158.49 62.168 156.729L57.2921 151.755C55.7234 150.155 53.1463 150.155 51.5782 151.756L46.2427 157.203C44.719 158.758 44.7194 161.247 46.2435 162.802Z" fill="#154A82"/>
<path d="M43.5576 160.102L58.8339 175.688C60.4204 177.306 62.6171 178.142 64.8549 177.98C67.0928 177.818 69.1515 176.673 70.4979 174.843L94.7562 141.842C95.7245 140.524 95.4598 138.674 94.1609 137.681L86.5403 131.856C85.2065 130.837 83.2958 131.11 82.3014 132.463L65.5505 155.246C64.4551 156.736 62.2857 156.889 60.9912 155.569L54.5778 149.026C53.4012 147.826 51.4684 147.826 50.2923 149.027L43.557 155.903C42.4143 157.069 42.4145 158.936 43.5576 160.102Z" fill="url(#paint3_linear_10566_33374)"/>
<path d="M84 137L71.5244 153.5" stroke="white" stroke-width="3" stroke-linecap="round"/>
<path d="M51.5 152L46.5 157" stroke="white" stroke-width="3" stroke-linecap="round"/>
<path d="M171.81 260.377C186.551 260.377 198.5 248.428 198.5 233.687C198.5 218.947 186.551 206.997 171.81 206.997C157.07 206.997 145.12 218.947 145.12 233.687C145.12 248.428 157.07 260.377 171.81 260.377Z" fill="url(#paint4_linear_10566_33374)"/>
<path d="M171.5 252C181.441 252 189.5 243.941 189.5 234C189.5 224.059 181.441 216 171.5 216C161.559 216 153.5 224.059 153.5 234C153.5 243.941 161.559 252 171.5 252Z" fill="#4381C0"/>
<path d="M171.5 244C177.023 244 181.5 239.523 181.5 234C181.5 228.477 177.023 224 171.5 224C165.977 224 161.5 228.477 161.5 234C161.5 239.523 165.977 244 171.5 244Z" fill="#8AC0F6"/>
<path d="M169.79 232.36C171.012 228.633 188.309 192.547 188.817 190.828C189.325 189.109 192.691 184.78 194.417 182.971C196.143 181.162 281.011 96.0367 283.955 93.1707C286.899 90.3047 295.155 89.9467 299.624 94.2927C304.093 98.6387 308.57 103.119 311.935 106.64C315.3 110.161 317.308 118.94 313.054 123.477C308.8 128.014 227.605 208.955 224.636 212.153C221.849 215.152 218.4 217.459 214.563 218.888C210.831 220.324 177.357 236.126 174.271 236.848C171.185 237.57 168.567 236.087 169.79 232.36Z" fill="url(#paint5_linear_10566_33374)"/>
<path d="M169.79 232.36C168.567 236.087 171.185 237.57 174.271 236.848C175.748 236.502 184.191 232.7 193 228.673L178 214.201C174.014 222.735 170.33 230.712 169.79 232.36Z" fill="#292929"/>
<path d="M224.636 212.153C227.263 209.323 291.149 145.612 308.765 127.843L278.844 98.2666C259.959 117.153 195.914 181.402 194.417 182.971L224.636 212.153Z" fill="url(#paint6_linear_10566_33374)"/>
<path d="M25 125.5C25.3606 124.916 25.804 124.242 26.3282 123.5M57 102.5C46.4824 104.457 38.1709 110.502 32.5 116.199" stroke="#45A2EB" stroke-width="6" stroke-linecap="round"/>
<path d="M100.5 272C100.601 271.797 100.726 271.563 100.874 271.304M109.5 264C106.542 264.681 104.204 266.783 102.609 268.765" stroke="#45A2EB" stroke-width="2" stroke-linecap="round"/>
<path d="M279.5 107L272.75 113.75M233.5 153L266 120.5" stroke="#45A2EB" stroke-width="6" stroke-linecap="round"/>
<defs>
<linearGradient id="paint0_linear_10566_33374" x1="74.9834" y1="252" x2="154.81" y2="23.9549" gradientUnits="userSpaceOnUse">
<stop stop-color="#424242"/>
<stop offset="1" stop-color="#525252"/>
</linearGradient>
<linearGradient id="paint1_linear_10566_33374" x1="102.5" y1="243" x2="47.9466" y2="114.735" gradientUnits="userSpaceOnUse">
<stop stop-color="#0D7ED6"/>
<stop offset="0.322807" stop-color="#0E5790"/>
<stop offset="1" stop-color="#0D7ED6"/>
</linearGradient>
<linearGradient id="paint2_linear_10566_33374" x1="122.548" y1="301.124" x2="107.59" y2="265.955" gradientUnits="userSpaceOnUse">
<stop stop-color="#0D7ED6"/>
<stop offset="0.322807" stop-color="#0E5790"/>
<stop offset="1" stop-color="#0D7ED6"/>
</linearGradient>
<linearGradient id="paint3_linear_10566_33374" x1="55.0448" y1="193.051" x2="74.1797" y2="111.93" gradientUnits="userSpaceOnUse">
<stop stop-color="#E6EFF9"/>
<stop offset="1" stop-color="#FAFAFA"/>
</linearGradient>
<linearGradient id="paint4_linear_10566_33374" x1="186.016" y1="271.567" x2="162.532" y2="216.351" gradientUnits="userSpaceOnUse">
<stop stop-color="#0D7ED6"/>
<stop offset="0.322807" stop-color="#0E5790"/>
<stop offset="1" stop-color="#0D7ED6"/>
</linearGradient>
<linearGradient id="paint5_linear_10566_33374" x1="162.059" y1="284.575" x2="272.69" y2="79.6809" gradientUnits="userSpaceOnUse">
<stop stop-color="#1A486B"/>
<stop offset="1" stop-color="#0E5790"/>
</linearGradient>
<linearGradient id="paint6_linear_10566_33374" x1="282.022" y1="236.026" x2="232.06" y2="118.077" gradientUnits="userSpaceOnUse">
<stop stop-color="#0D7ED6"/>
<stop offset="0.322807" stop-color="#0E5790"/>
<stop offset="1" stop-color="#0D7ED6"/>
</linearGradient>
</defs>
</svg>
