<svg width="320" height="320" viewBox="0 0 320 320" fill="none" xmlns="http://www.w3.org/2000/svg">
<path d="M43.0166 58H279.017V230.339C279.017 232.105 278.174 233.8 276.673 235.049C275.173 236.298 273.138 237 271.017 237H51.0166C48.8949 237 46.86 236.298 45.3597 235.049C43.8595 233.8 43.0166 232.105 43.0166 230.339V58Z" fill="url(#paint0_linear_286_1398)"/>
<path d="M43.0166 58H279.017V34C279.017 31.8783 278.174 29.8434 276.673 28.3431C275.173 26.8428 273.138 26 271.017 26H51.0166C48.8949 26 46.86 26.8428 45.3597 28.3431C43.8595 29.8434 43.0166 31.8783 43.0166 34V58Z" fill="#737373"/>
<path d="M92.0166 42C92.0166 41.2089 92.2512 40.4355 92.6907 39.7777C93.1303 39.1199 93.7549 38.6073 94.4858 38.3045C95.2167 38.0018 96.021 37.9225 96.7969 38.0769C97.5729 38.2312 98.2856 38.6122 98.845 39.1716C99.4044 39.731 99.7854 40.4437 99.9398 41.2197C100.094 41.9956 100.015 42.7999 99.7121 43.5308C99.4093 44.2617 98.8967 44.8863 98.2389 45.3259C97.5811 45.7654 96.8077 46 96.0166 46C94.9557 46 93.9383 45.5786 93.1882 44.8284C92.438 44.0783 92.0166 43.0609 92.0166 42ZM76.0166 42C76.0166 41.2089 76.2512 40.4355 76.6907 39.7777C77.1303 39.1199 77.7549 38.6073 78.4858 38.3045C79.2167 38.0018 80.021 37.9225 80.7969 38.0769C81.5729 38.2312 82.2856 38.6122 82.845 39.1716C83.4044 39.731 83.7854 40.4437 83.9398 41.2197C84.0941 41.9956 84.0148 42.7999 83.7121 43.5308C83.4093 44.2617 82.8967 44.8863 82.2389 45.3259C81.5811 45.7654 80.8077 46 80.0166 46C78.9557 46 77.9383 45.5786 77.1882 44.8284C76.438 44.0783 76.0166 43.0609 76.0166 42ZM60.0166 42C60.0166 41.2089 60.2512 40.4355 60.6907 39.7777C61.1303 39.1199 61.7549 38.6073 62.4858 38.3045C63.2167 38.0018 64.021 37.9225 64.7969 38.0769C65.5729 38.2312 66.2856 38.6122 66.845 39.1716C67.4044 39.731 67.7854 40.4437 67.9398 41.2197C68.0941 41.9956 68.0148 42.7999 67.7121 43.5308C67.4093 44.2617 66.8967 44.8863 66.2389 45.3259C65.5811 45.7654 64.8077 46 64.0166 46C62.9557 46 61.9383 45.5786 61.1882 44.8284C60.438 44.0783 60.0166 43.0609 60.0166 42Z" fill="#424242"/>
<path opacity="0.37" d="M182.327 268.38C197.067 268.38 209.017 256.43 209.017 241.69C209.017 226.95 197.067 215 182.327 215C167.586 215 155.637 226.95 155.637 241.69C155.637 246.414 156.864 250.851 159.017 254.7L135.538 272.5C132.509 269.706 128.462 268 124.017 268C122.459 268 120.95 268.21 119.517 268.602L103.517 220.401C126.106 211.142 142.017 188.934 142.017 163.01C142.017 128.768 114.258 101.01 80.0166 101.01C45.7749 101.01 18.0166 128.768 18.0166 163.01C18.0166 197.251 45.7749 225.01 80.0166 225.01C86.2766 225.01 92.32 224.082 98.0166 222.356L114.37 271C109.928 274.067 107.017 279.193 107.017 285C107.017 294.389 114.628 302 124.017 302C133.405 302 141.017 294.389 141.017 285C141.017 282.505 140.479 280.135 139.513 278L163.017 260.115C167.877 265.207 174.731 268.38 182.327 268.38Z" fill="#737373"/>
<path d="M165.017 84C165.017 90.0751 160.092 95 154.017 95C147.941 95 143.017 90.0751 143.017 84C143.017 77.9249 147.941 73 154.017 73C160.092 73 165.017 77.9249 165.017 84Z" fill="#424242"/>
<path d="M165.017 115C165.017 121.075 160.092 126 154.017 126C147.941 126 143.017 121.075 143.017 115C143.017 108.925 147.941 104 154.017 104C160.092 104 165.017 108.925 165.017 115Z" fill="#424242"/>
<path d="M197.017 84C197.017 90.0751 192.092 95 186.017 95C179.941 95 175.017 90.0751 175.017 84C175.017 77.9249 179.941 73 186.017 73C192.092 73 197.017 77.9249 197.017 84Z" fill="#424242"/>
<path d="M197.017 115C197.017 121.075 192.092 126 186.017 126C179.941 126 175.017 121.075 175.017 115C175.017 108.925 179.941 104 186.017 104C192.092 104 197.017 108.925 197.017 115Z" fill="#424242"/>
<path d="M229.017 84C229.017 90.0751 224.092 95 218.017 95C211.941 95 207.017 90.0751 207.017 84C207.017 77.9249 211.941 73 218.017 73C224.092 73 229.017 77.9249 229.017 84Z" fill="#424242"/>
<path d="M261.017 84C261.017 90.0751 256.092 95 250.017 95C243.941 95 239.017 90.0751 239.017 84C239.017 77.9249 243.941 73 250.017 73C256.092 73 261.017 77.9249 261.017 84Z" fill="#424242"/>
<path d="M69.0166 217.007C103.258 217.007 131.017 189.248 131.017 155.007C131.017 120.765 103.258 93.0068 69.0166 93.0068C34.7749 93.0068 7.0166 120.765 7.0166 155.007C7.0166 189.248 34.7749 217.007 69.0166 217.007Z" fill="url(#paint1_linear_286_1398)"/>
<path d="M113.017 293.997C122.405 293.997 130.017 286.386 130.017 276.997C130.017 267.608 122.405 259.997 113.017 259.997C103.628 259.997 96.0166 267.608 96.0166 276.997C96.0166 286.386 103.628 293.997 113.017 293.997Z" fill="url(#paint2_linear_286_1398)"/>
<path opacity="0.5" d="M45.7601 162.802L60.3505 177.688C61.937 179.306 64.1337 180.142 66.3715 179.98C68.6094 179.818 70.6681 178.673 72.0145 176.843L95.6915 144.632C96.9826 142.876 96.6296 140.409 94.8978 139.085L88.8663 134.475C87.088 133.116 84.5404 133.48 83.2145 135.283L67.7637 156.298C66.3032 158.285 63.4106 158.49 61.6846 156.729L56.8087 151.755C55.24 150.155 52.6629 150.155 51.0948 151.756L45.7593 157.203C44.2356 158.758 44.236 161.247 45.7601 162.802Z" fill="#0A7147"/>
<path d="M43.0742 160.102L58.3505 175.688C59.937 177.306 62.1337 178.142 64.3715 177.98C66.6094 177.818 68.6681 176.673 70.0145 174.843L94.2728 141.842C95.2411 140.524 94.9764 138.674 93.6775 137.681L86.0569 131.856C84.7231 130.837 82.8124 131.11 81.818 132.463L65.0671 155.246C63.9717 156.736 61.8023 156.889 60.5078 155.569L54.0944 149.026C52.9178 147.826 50.985 147.826 49.8089 149.027L43.0736 155.903C41.9309 157.069 41.9311 158.936 43.0742 160.102Z" fill="url(#paint3_linear_286_1398)"/>
<path d="M83.5166 137L71.041 153.5" stroke="white" stroke-width="3" stroke-linecap="round"/>
<path d="M51.0166 152L46.0166 157" stroke="white" stroke-width="3" stroke-linecap="round"/>
<path d="M171.327 260.377C186.067 260.377 198.017 248.428 198.017 233.687C198.017 218.947 186.067 206.997 171.327 206.997C156.586 206.997 144.637 218.947 144.637 233.687C144.637 248.428 156.586 260.377 171.327 260.377Z" fill="url(#paint4_linear_286_1398)"/>
<path d="M171.017 252C180.958 252 189.017 243.941 189.017 234C189.017 224.059 180.958 216 171.017 216C161.075 216 153.017 224.059 153.017 234C153.017 243.941 161.075 252 171.017 252Z" fill="#01B86C"/>
<path d="M171.017 244C176.539 244 181.017 239.523 181.017 234C181.017 228.477 176.539 224 171.017 224C165.494 224 161.017 228.477 161.017 234C161.017 239.523 165.494 244 171.017 244Z" fill="#0ADD84"/>
<path d="M169.306 232.36C170.528 228.633 187.825 192.547 188.333 190.828C188.841 189.109 192.207 184.78 193.933 182.971C195.659 181.162 280.527 96.0367 283.471 93.1707C286.415 90.3047 294.671 89.9467 299.14 94.2927C303.609 98.6387 308.086 103.119 311.451 106.64C314.816 110.161 316.824 118.94 312.57 123.477C308.316 128.014 227.121 208.955 224.152 212.153C221.366 215.152 217.916 217.459 214.079 218.888C210.347 220.324 176.873 236.126 173.787 236.848C170.701 237.57 168.083 236.087 169.306 232.36Z" fill="url(#paint5_linear_286_1398)"/>
<path d="M169.306 232.36C168.083 236.087 170.701 237.57 173.787 236.848C175.265 236.502 183.707 232.7 192.517 228.673L177.517 214.201C173.531 222.735 169.847 230.712 169.306 232.36Z" fill="#292929"/>
<path d="M224.152 212.153C226.78 209.323 290.666 145.612 308.282 127.843L278.361 98.2666C259.476 117.153 195.43 181.402 193.933 182.971L224.152 212.153Z" fill="url(#paint6_linear_286_1398)"/>
<path d="M24.5166 125.5C24.8772 124.916 25.3206 124.242 25.8448 123.5M56.5166 102.5C45.999 104.457 37.6875 110.502 32.0166 116.199" stroke="#0ADD84" stroke-width="6" stroke-linecap="round"/>
<path d="M100.017 272C100.118 271.797 100.243 271.563 100.39 271.304M109.017 264C106.059 264.681 103.721 266.783 102.126 268.765" stroke="#0ADD84" stroke-width="2" stroke-linecap="round"/>
<path d="M279.017 107L272.267 113.75M233.017 153L265.517 120.5" stroke="#0ADD84" stroke-width="6" stroke-linecap="round"/>
<defs>
<linearGradient id="paint0_linear_286_1398" x1="74.5" y1="252" x2="154.326" y2="23.9549" gradientUnits="userSpaceOnUse">
<stop stop-color="#424242"/>
<stop offset="1" stop-color="#525252"/>
</linearGradient>
<linearGradient id="paint1_linear_286_1398" x1="102.017" y1="243" x2="47.4632" y2="114.735" gradientUnits="userSpaceOnUse">
<stop stop-color="#01B86C"/>
<stop offset="0.322807" stop-color="#058751"/>
<stop offset="1" stop-color="#01B86C"/>
</linearGradient>
<linearGradient id="paint2_linear_286_1398" x1="122.065" y1="301.124" x2="107.107" y2="265.955" gradientUnits="userSpaceOnUse">
<stop stop-color="#01B86C"/>
<stop offset="0.322807" stop-color="#058751"/>
<stop offset="1" stop-color="#01B86C"/>
</linearGradient>
<linearGradient id="paint3_linear_286_1398" x1="54.5614" y1="193.051" x2="73.6963" y2="111.93" gradientUnits="userSpaceOnUse">
<stop stop-color="#B2FFDD"/>
<stop offset="1" stop-color="#FAFAFA"/>
</linearGradient>
<linearGradient id="paint4_linear_286_1398" x1="185.533" y1="271.567" x2="162.048" y2="216.351" gradientUnits="userSpaceOnUse">
<stop stop-color="#01B86C"/>
<stop offset="0.322807" stop-color="#058751"/>
<stop offset="1" stop-color="#01B86C"/>
</linearGradient>
<linearGradient id="paint5_linear_286_1398" x1="255.517" y1="203.5" x2="207.517" y2="150" gradientUnits="userSpaceOnUse">
<stop stop-color="#0B5C3C"/>
<stop offset="1" stop-color="#0A7147"/>
</linearGradient>
<linearGradient id="paint6_linear_286_1398" x1="281.539" y1="236.026" x2="231.576" y2="118.077" gradientUnits="userSpaceOnUse">
<stop stop-color="#01B86C"/>
<stop offset="0.322807" stop-color="#058751"/>
<stop offset="1" stop-color="#01B86C"/>
</linearGradient>
</defs>
</svg>
