<svg width="69" height="68" viewBox="0 0 69 68" fill="none" xmlns="http://www.w3.org/2000/svg">
<rect x="1.5" y="1" width="66" height="66" rx="33" fill="currentColor"/>
<g clip-path="url(#clip0_2211_12139)">
<path fill-rule="evenodd" clip-rule="evenodd" d="M18.5 34C18.5 25.1654 25.6654 18 34.5 18C43.3346 18 50.5 25.1654 50.5 34C50.5 36.7684 49.7997 39.374 48.5539 41.6458C47.6746 43.258 45.5086 43.2987 44.2547 41.9634L34.5244 31.6305L24.729 41.9552C23.4669 43.2824 21.3092 43.2336 20.4298 41.6295C19.2003 39.3578 18.5 36.7603 18.5 34ZM47.7397 34C47.7397 26.688 41.812 20.7603 34.5 20.7603C27.188 20.7603 21.2603 26.688 21.2603 34C21.2603 35.4738 21.4964 36.5567 21.9443 37.6397C22.3188 38.5517 23.5565 38.5842 24.0939 37.7618L34.5244 21.5827L44.898 37.7863C45.4272 38.6168 46.673 38.5842 47.0476 37.6723C47.4954 36.5812 47.7397 35.4819 47.7397 34Z" fill="white"/>
<path fill-rule="evenodd" clip-rule="evenodd" d="M31.3896 39.2356L34.5245 36.0193L37.6187 39.2356H31.3896Z" fill="white"/>
<path d="M24.5254 46.515C27.2613 48.6972 30.73 50 34.4999 50C38.2699 50 41.7386 48.6972 44.4745 46.515L39.8577 41.6132H29.1422L24.5254 46.515Z" fill="white"/>
</g>
<rect x="1.5" y="1" width="66" height="66" rx="33"/>
<defs>
<clipPath id="clip0_2211_12139">
<rect width="32" height="32" fill="white" transform="translate(18.5 18)"/>
</clipPath>
</defs>
</svg>
