<svg width="320" height="320" viewBox="0 0 320 320" fill="none" xmlns="http://www.w3.org/2000/svg">
<path d="M43 58H279V230.339C279 232.105 278.157 233.8 276.657 235.049C275.157 236.298 273.122 237 271 237H51C48.8783 237 46.8434 236.298 45.3431 235.049C43.8429 233.8 43 232.105 43 230.339V58Z" fill="url(#paint0_linear_286_1286)"/>
<path d="M43 58H279V34C279 31.8783 278.157 29.8434 276.657 28.3431C275.157 26.8428 273.122 26 271 26H51C48.8783 26 46.8434 26.8428 45.3431 28.3431C43.8428 29.8434 43 31.8783 43 34V58Z" fill="#B2FFDD"/>
<path d="M92 42C92 41.2089 92.2346 40.4355 92.6741 39.7777C93.1137 39.1199 93.7383 38.6073 94.4692 38.3045C95.2001 38.0018 96.0044 37.9225 96.7803 38.0769C97.5563 38.2312 98.269 38.6122 98.8284 39.1716C99.3878 39.731 99.7688 40.4437 99.9232 41.2197C100.077 41.9956 99.9982 42.7999 99.6955 43.5308C99.3927 44.2617 98.8801 44.8863 98.2223 45.3259C97.5645 45.7654 96.7911 46 96 46C94.9391 46 93.9217 45.5786 93.1716 44.8284C92.4214 44.0783 92 43.0609 92 42ZM76 42C76 41.2089 76.2346 40.4355 76.6741 39.7777C77.1137 39.1199 77.7383 38.6073 78.4692 38.3045C79.2001 38.0018 80.0044 37.9225 80.7803 38.0769C81.5563 38.2312 82.269 38.6122 82.8284 39.1716C83.3878 39.731 83.7688 40.4437 83.9232 41.2197C84.0775 41.9956 83.9982 42.7999 83.6955 43.5308C83.3927 44.2617 82.8801 44.8863 82.2223 45.3259C81.5645 45.7654 80.7911 46 80 46C78.9391 46 77.9217 45.5786 77.1716 44.8284C76.4214 44.0783 76 43.0609 76 42ZM60 42C60 41.2089 60.2346 40.4355 60.6741 39.7777C61.1137 39.1199 61.7383 38.6073 62.4692 38.3045C63.2001 38.0018 64.0044 37.9225 64.7803 38.0769C65.5563 38.2312 66.269 38.6122 66.8284 39.1716C67.3878 39.731 67.7688 40.4437 67.9232 41.2197C68.0775 41.9956 67.9982 42.7999 67.6955 43.5308C67.3927 44.2617 66.8801 44.8863 66.2223 45.3259C65.5645 45.7654 64.7911 46 64 46C62.9391 46 61.9217 45.5786 61.1716 44.8284C60.4214 44.0783 60 43.0609 60 42Z" fill="#34F4A2"/>
<path opacity="0.37" d="M182.31 268.38C197.05 268.38 209 256.43 209 241.69C209 226.95 197.05 215 182.31 215C167.57 215 155.62 226.95 155.62 241.69C155.62 246.414 156.847 250.851 159 254.7L135.522 272.5C132.493 269.706 128.446 268 124 268C122.442 268 120.933 268.21 119.5 268.602L103.5 220.401C126.089 211.142 142 188.934 142 163.01C142 128.768 114.242 101.01 80 101.01C45.7583 101.01 18 128.768 18 163.01C18 197.251 45.7583 225.01 80 225.01C86.26 225.01 92.3034 224.082 98 222.356L114.354 271C109.911 274.067 107 279.193 107 285C107 294.389 114.611 302 124 302C133.389 302 141 294.389 141 285C141 282.505 140.462 280.135 139.497 278L163 260.115C167.86 265.207 174.715 268.38 182.31 268.38Z" fill="#02A863"/>
<path d="M165 84C165 90.0751 160.075 95 154 95C147.925 95 143 90.0751 143 84C143 77.9249 147.925 73 154 73C160.075 73 165 77.9249 165 84Z" fill="#B2FFDD"/>
<path d="M165 115C165 121.075 160.075 126 154 126C147.925 126 143 121.075 143 115C143 108.925 147.925 104 154 104C160.075 104 165 108.925 165 115Z" fill="#B2FFDD"/>
<path d="M197 84C197 90.0751 192.075 95 186 95C179.925 95 175 90.0751 175 84C175 77.9249 179.925 73 186 73C192.075 73 197 77.9249 197 84Z" fill="#B2FFDD"/>
<path d="M197 115C197 121.075 192.075 126 186 126C179.925 126 175 121.075 175 115C175 108.925 179.925 104 186 104C192.075 104 197 108.925 197 115Z" fill="#B2FFDD"/>
<path d="M229 84C229 90.0751 224.075 95 218 95C211.925 95 207 90.0751 207 84C207 77.9249 211.925 73 218 73C224.075 73 229 77.9249 229 84Z" fill="#B2FFDD"/>
<path d="M261 84C261 90.0751 256.075 95 250 95C243.925 95 239 90.0751 239 84C239 77.9249 243.925 73 250 73C256.075 73 261 77.9249 261 84Z" fill="#B2FFDD"/>
<path d="M69 217.007C103.242 217.007 131 189.248 131 155.007C131 120.765 103.242 93.0068 69 93.0068C34.7583 93.0068 7 120.765 7 155.007C7 189.248 34.7583 217.007 69 217.007Z" fill="url(#paint1_linear_286_1286)"/>
<path d="M113 293.997C122.389 293.997 130 286.386 130 276.997C130 267.608 122.389 259.997 113 259.997C103.611 259.997 96 267.608 96 276.997C96 286.386 103.611 293.997 113 293.997Z" fill="url(#paint2_linear_286_1286)"/>
<path opacity="0.5" d="M45.7435 162.802L60.3339 177.688C61.9204 179.306 64.1171 180.142 66.3549 179.98C68.5928 179.818 70.6515 178.673 71.9979 176.843L95.6749 144.632C96.966 142.876 96.613 140.409 94.8812 139.085L88.8497 134.475C87.0714 133.116 84.5238 133.48 83.1979 135.283L67.7471 156.298C66.2866 158.285 63.394 158.49 61.668 156.729L56.7921 151.755C55.2234 150.155 52.6463 150.155 51.0782 151.756L45.7427 157.203C44.219 158.758 44.2194 161.247 45.7435 162.802Z" fill="#0A7147"/>
<path d="M43.0576 160.102L58.3339 175.688C59.9204 177.306 62.1171 178.142 64.3549 177.98C66.5928 177.818 68.6515 176.673 69.9979 174.843L94.2562 141.842C95.2245 140.524 94.9598 138.674 93.6609 137.681L86.0403 131.856C84.7065 130.837 82.7958 131.11 81.8014 132.463L65.0505 155.246C63.9551 156.736 61.7857 156.889 60.4912 155.569L54.0778 149.026C52.9012 147.826 50.9684 147.826 49.7923 149.027L43.057 155.903C41.9143 157.069 41.9145 158.936 43.0576 160.102Z" fill="url(#paint3_linear_286_1286)"/>
<path d="M83.5 137L71.0244 153.5" stroke="white" stroke-width="3" stroke-linecap="round"/>
<path d="M51 152L46 157" stroke="white" stroke-width="3" stroke-linecap="round"/>
<path d="M171.31 260.377C186.051 260.377 198 248.428 198 233.687C198 218.947 186.051 206.997 171.31 206.997C156.57 206.997 144.62 218.947 144.62 233.687C144.62 248.428 156.57 260.377 171.31 260.377Z" fill="url(#paint4_linear_286_1286)"/>
<path d="M171 252C180.941 252 189 243.941 189 234C189 224.059 180.941 216 171 216C161.059 216 153 224.059 153 234C153 243.941 161.059 252 171 252Z" fill="#01B86C"/>
<path d="M171 244C176.523 244 181 239.523 181 234C181 228.477 176.523 224 171 224C165.477 224 161 228.477 161 234C161 239.523 165.477 244 171 244Z" fill="#0ADD84"/>
<path d="M169.29 232.36C170.512 228.633 187.809 192.547 188.317 190.828C188.825 189.109 192.191 184.78 193.917 182.971C195.643 181.162 280.511 96.0367 283.455 93.1707C286.399 90.3047 294.655 89.9467 299.124 94.2927C303.593 98.6387 308.07 103.119 311.435 106.64C314.8 110.161 316.808 118.94 312.554 123.477C308.3 128.014 227.105 208.955 224.136 212.153C221.349 215.152 217.9 217.459 214.063 218.888C210.331 220.324 176.857 236.126 173.771 236.848C170.685 237.57 168.067 236.087 169.29 232.36Z" fill="url(#paint5_linear_286_1286)"/>
<path d="M169.29 232.36C168.067 236.087 170.685 237.57 173.771 236.848C175.248 236.502 183.691 232.7 192.5 228.673L177.5 214.201C173.514 222.735 169.83 230.712 169.29 232.36Z" fill="#292929"/>
<path d="M224.136 212.153C226.763 209.323 290.649 145.612 308.265 127.843L278.344 98.2666C259.459 117.153 195.414 181.402 193.917 182.971L224.136 212.153Z" fill="url(#paint6_linear_286_1286)"/>
<path d="M24.5 125.5C24.8606 124.916 25.304 124.242 25.8282 123.5M56.5 102.5C45.9824 104.457 37.6709 110.502 32 116.199" stroke="#0ADD84" stroke-width="6" stroke-linecap="round"/>
<path d="M100 272C100.101 271.797 100.226 271.563 100.374 271.304M109 264C106.042 264.681 103.704 266.783 102.109 268.765" stroke="#0ADD84" stroke-width="2" stroke-linecap="round"/>
<path d="M279 107L272.25 113.75M233 153L265.5 120.5" stroke="#0ADD84" stroke-width="6" stroke-linecap="round"/>
<defs>
<linearGradient id="paint0_linear_286_1286" x1="31" y1="295.296" x2="144.769" y2="17.452" gradientUnits="userSpaceOnUse">
<stop stop-color="#B2FFDD"/>
<stop offset="1" stop-color="#EEFFF7"/>
</linearGradient>
<linearGradient id="paint1_linear_286_1286" x1="102" y1="243" x2="47.4466" y2="114.735" gradientUnits="userSpaceOnUse">
<stop stop-color="#01B86C"/>
<stop offset="0.322807" stop-color="#058751"/>
<stop offset="1" stop-color="#01B86C"/>
</linearGradient>
<linearGradient id="paint2_linear_286_1286" x1="122.048" y1="301.124" x2="107.09" y2="265.955" gradientUnits="userSpaceOnUse">
<stop stop-color="#01B86C"/>
<stop offset="0.322807" stop-color="#058751"/>
<stop offset="1" stop-color="#01B86C"/>
</linearGradient>
<linearGradient id="paint3_linear_286_1286" x1="54.5448" y1="193.051" x2="73.6797" y2="111.93" gradientUnits="userSpaceOnUse">
<stop stop-color="#B2FFDD"/>
<stop offset="1" stop-color="#FAFAFA"/>
</linearGradient>
<linearGradient id="paint4_linear_286_1286" x1="185.516" y1="271.567" x2="162.032" y2="216.351" gradientUnits="userSpaceOnUse">
<stop stop-color="#01B86C"/>
<stop offset="0.322807" stop-color="#058751"/>
<stop offset="1" stop-color="#01B86C"/>
</linearGradient>
<linearGradient id="paint5_linear_286_1286" x1="255.5" y1="203.5" x2="207.5" y2="150" gradientUnits="userSpaceOnUse">
<stop stop-color="#0B5C3C"/>
<stop offset="1" stop-color="#0A7147"/>
</linearGradient>
<linearGradient id="paint6_linear_286_1286" x1="281.522" y1="236.026" x2="231.56" y2="118.077" gradientUnits="userSpaceOnUse">
<stop stop-color="#01B86C"/>
<stop offset="0.322807" stop-color="#058751"/>
<stop offset="1" stop-color="#01B86C"/>
</linearGradient>
</defs>
</svg>
