<svg width="120" height="120" viewBox="0 0 120 120" fill="none" xmlns="http://www.w3.org/2000/svg">
  <path
    d="M112.5 11.25H7.5C5.42893 11.25 3.75 12.9289 3.75 15V105C3.75 107.071 5.42893 108.75 7.5 108.75H112.5C114.571 108.75 116.25 107.071 116.25 105V15C116.25 12.9289 114.571 11.25 112.5 11.25Z"
    fill="url(#paint0_linear_10566_33316)" />
  <path
    d="M112.5 11.25H7.5C6.50544 11.25 5.55161 11.6451 4.84835 12.3483C4.14509 13.0516 3.75 14.0054 3.75 15V33.75H116.25V15C116.25 14.0054 115.855 13.0516 115.152 12.3483C114.448 11.6451 113.495 11.25 112.5 11.25Z"
    fill="#737373" />
  <path
    d="M33.5 20.875C33.5 20.3806 33.6466 19.8972 33.9213 19.4861C34.196 19.075 34.5865 18.7545 35.0433 18.5653C35.5001 18.3761 36.0028 18.3266 36.4877 18.423C36.9727 18.5195 37.4181 18.7576 37.7678 19.1072C38.1174 19.4569 38.3555 19.9023 38.452 20.3873C38.5484 20.8722 38.4989 21.3749 38.3097 21.8317C38.1205 22.2885 37.8001 22.679 37.3889 22.9537C36.9778 23.2284 36.4945 23.375 36 23.375C35.337 23.375 34.7011 23.1116 34.2322 22.6428C33.7634 22.1739 33.5 21.538 33.5 20.875ZM23.5 20.875C23.5 20.3806 23.6466 19.8972 23.9213 19.4861C24.196 19.075 24.5865 18.7545 25.0433 18.5653C25.5001 18.3761 26.0028 18.3266 26.4877 18.423C26.9727 18.5195 27.4181 18.7576 27.7678 19.1072C28.1174 19.4569 28.3555 19.9023 28.452 20.3873C28.5484 20.8722 28.4989 21.3749 28.3097 21.8317C28.1205 22.2885 27.8001 22.679 27.3889 22.9537C26.9778 23.2284 26.4945 23.375 26 23.375C25.337 23.375 24.7011 23.1116 24.2322 22.6428C23.7634 22.1739 23.5 21.538 23.5 20.875ZM13.5 20.875C13.5 20.3806 13.6466 19.8972 13.9213 19.4861C14.196 19.075 14.5865 18.7545 15.0433 18.5653C15.5001 18.3761 16.0028 18.3266 16.4877 18.423C16.9727 18.5195 17.4181 18.7576 17.7678 19.1072C18.1174 19.4569 18.3555 19.9023 18.452 20.3873C18.5484 20.8722 18.4989 21.3749 18.3097 21.8317C18.1205 22.2885 17.8001 22.679 17.3889 22.9537C16.9778 23.2284 16.4945 23.375 16 23.375C15.337 23.375 14.7011 23.1116 14.2322 22.6428C13.7634 22.1739 13.5 21.538 13.5 20.875Z"
    fill="#424242" />
  <path
    d="M60 119.25C76.5685 119.25 90 105.819 90 89.25C90 72.6815 76.5685 59.25 60 59.25C43.4315 59.25 30 72.6815 30 89.25C30 105.819 43.4315 119.25 60 119.25Z"
    fill="url(#paint1_linear_10566_33316)" />
  <path
    d="M59.9998 112.335C72.8865 112.335 83.3332 101.888 83.3332 89.0013C83.3332 76.1147 72.8865 65.668 59.9998 65.668C47.1132 65.668 36.6665 76.1147 36.6665 89.0013C36.6665 101.888 47.1132 112.335 59.9998 112.335Z"
    fill="url(#paint2_linear_10566_33316)" />
  <path d="M60 75V89L69.3333 93.6667" stroke="#0D7ED6" stroke-width="4.67391" stroke-linecap="round"
    stroke-linejoin="round" />
  <defs>
    <linearGradient id="paint0_linear_10566_33316" x1="18.758" y1="116.92" x2="66.837" y2="-3.28381"
      gradientUnits="userSpaceOnUse">
      <stop stop-color="#424242" />
      <stop offset="1" stop-color="#525252" />
    </linearGradient>
    <linearGradient id="paint1_linear_10566_33316" x1="80.3792" y1="127.454" x2="29.7975" y2="71.6264"
      gradientUnits="userSpaceOnUse">
      <stop stop-color="#0D7ED6" />
      <stop offset="0.322807" stop-color="#0E5790" />
      <stop offset="1" stop-color="#0D7ED6" />
    </linearGradient>
    <linearGradient id="paint2_linear_10566_33316" x1="34.2936" y1="127.533" x2="69.6508" y2="62.0397"
      gradientUnits="userSpaceOnUse">
      <stop stop-color="#1A486B" />
      <stop offset="1" stop-color="#0E5790" />
    </linearGradient>
  </defs>
</svg>