<svg width="121" height="120" viewBox="0 0 121 120" fill="none" xmlns="http://www.w3.org/2000/svg">
<path d="M113 11.25H8C5.92893 11.25 4.25 12.9289 4.25 15V105C4.25 107.071 5.92893 108.75 8 108.75H113C115.071 108.75 116.75 107.071 116.75 105V15C116.75 12.9289 115.071 11.25 113 11.25Z" fill="#4A4A4A"/>
<path d="M113 11.25H8C7.00544 11.25 6.05161 11.6451 5.34835 12.3483C4.64509 13.0516 4.25 14.0054 4.25 15V33.75H116.75V15C116.75 14.0054 116.355 13.0516 115.652 12.3483C114.948 11.6451 113.995 11.25 113 11.25Z" fill="#737373"/>
<path d="M34 20.875C34 20.3806 34.1466 19.8972 34.4213 19.4861C34.696 19.075 35.0865 18.7545 35.5433 18.5653C36.0001 18.3761 36.5028 18.3266 36.9877 18.423C37.4727 18.5195 37.9181 18.7576 38.2678 19.1072C38.6174 19.4569 38.8555 19.9023 38.952 20.3873C39.0484 20.8722 38.9989 21.3749 38.8097 21.8317C38.6205 22.2885 38.3001 22.679 37.8889 22.9537C37.4778 23.2284 36.9945 23.375 36.5 23.375C35.837 23.375 35.2011 23.1116 34.7322 22.6428C34.2634 22.1739 34 21.538 34 20.875ZM24 20.875C24 20.3806 24.1466 19.8972 24.4213 19.4861C24.696 19.075 25.0865 18.7545 25.5433 18.5653C26.0001 18.3761 26.5028 18.3266 26.9877 18.423C27.4727 18.5195 27.9181 18.7576 28.2678 19.1072C28.6174 19.4569 28.8555 19.9023 28.952 20.3873C29.0484 20.8722 28.9989 21.3749 28.8097 21.8317C28.6205 22.2885 28.3001 22.679 27.8889 22.9537C27.4778 23.2284 26.9945 23.375 26.5 23.375C25.837 23.375 25.2011 23.1116 24.7322 22.6428C24.2634 22.1739 24 21.538 24 20.875ZM14 20.875C14 20.3806 14.1466 19.8972 14.4213 19.4861C14.696 19.075 15.0865 18.7545 15.5433 18.5653C16.0001 18.3761 16.5028 18.3266 16.9877 18.423C17.4727 18.5195 17.9181 18.7576 18.2678 19.1072C18.6174 19.4569 18.8555 19.9023 18.952 20.3873C19.0484 20.8722 18.9989 21.3749 18.8097 21.8317C18.6205 22.2885 18.3001 22.679 17.8889 22.9537C17.4778 23.2284 16.9945 23.375 16.5 23.375C15.837 23.375 15.2011 23.1116 14.7322 22.6428C14.2634 22.1739 14 21.538 14 20.875Z" fill="#424242"/>
<path d="M60.5 119.25C77.0685 119.25 90.5 105.819 90.5 89.25C90.5 72.6815 77.0685 59.25 60.5 59.25C43.9315 59.25 30.5 72.6815 30.5 89.25C30.5 105.819 43.9315 119.25 60.5 119.25Z" fill="url(#paint0_linear_502_4092)"/>
<path d="M60.5 112.333C73.3866 112.333 83.8333 101.887 83.8333 89.0001C83.8333 76.1134 73.3866 65.6667 60.5 65.6667C47.6133 65.6667 37.1666 76.1134 37.1666 89.0001C37.1666 101.887 47.6133 112.333 60.5 112.333Z" fill="url(#paint1_linear_502_4092)"/>
<path d="M60.5 75V89L69.8333 93.6667" stroke="#058751" stroke-width="4.66667" stroke-linecap="round" stroke-linejoin="round"/>
<defs>
<linearGradient id="paint0_linear_502_4092" x1="80.8792" y1="127.454" x2="30.2975" y2="71.6264" gradientUnits="userSpaceOnUse">
<stop stop-color="#01B86C"/>
<stop offset="0.322807" stop-color="#058751"/>
<stop offset="1" stop-color="#01B86C"/>
</linearGradient>
<linearGradient id="paint1_linear_502_4092" x1="34.7937" y1="127.532" x2="70.1509" y2="62.0384" gradientUnits="userSpaceOnUse">
<stop stop-color="#B2FFDD"/>
<stop offset="1" stop-color="#EEFFF7"/>
</linearGradient>
</defs>
</svg>
