<svg xmlns="http://www.w3.org/2000/svg" width="18" height="18" viewBox="0 0 18 18" fill="none">
  <path d="M2.69922 6.8248C2.69922 5.98473 2.69922 5.56469 2.85181 5.24382C2.98603 4.96158 3.20021 4.73211 3.46363 4.58829C3.76311 4.4248 4.15515 4.4248 4.93922 4.4248H10.6092C11.3933 4.4248 11.7853 4.4248 12.0848 4.58829C12.3482 4.73211 12.5624 4.96158 12.6966 5.24382C12.8492 5.56469 12.8492 5.98473 12.8492 6.8248V12.8998C12.8492 13.7399 12.8492 14.1599 12.6966 14.4808C12.5624 14.763 12.3482 14.9925 12.0848 15.1363C11.7853 15.2998 11.3933 15.2998 10.6092 15.2998H4.93922C4.15515 15.2998 3.76311 15.2998 3.46363 15.1363C3.20021 14.9925 2.98603 14.763 2.85181 14.4808C2.69922 14.1599 2.69922 13.7399 2.69922 12.8998V6.8248Z" stroke="currentColor" stroke-width="1.5" stroke-linecap="round" stroke-linejoin="round"/>
  <path d="M7 1H11.97C13.5381 1 14.3222 1 14.9212 1.32698C15.448 1.6146 15.8764 2.07354 16.1448 2.63803C16.45 3.27976 16.45 4.11984 16.45 5.8V11.125" stroke="currentColor" stroke-width="1.5" stroke-linecap="round" stroke-linejoin="round"/>
</svg>