<svg width="20" height="20" viewBox="0 0 20 20" fill="none" xmlns="http://www.w3.org/2000/svg">
<g id="currency-dollar-circle" clip-path="url(#clip0_7472_55618)">
<path id="Icon" d="M7.08268 12.2225C7.08268 13.2964 7.95324 14.167 9.02713 14.167H10.8327C11.9833 14.167 12.916 13.2343 12.916 12.0837C12.916 10.9331 11.9833 10.0003 10.8327 10.0003H9.16602C8.01542 10.0003 7.08268 9.06759 7.08268 7.91699C7.08268 6.7664 8.01542 5.83366 9.16602 5.83366H10.9716C12.0455 5.83366 12.916 6.70422 12.916 7.7781M9.99935 4.58366V5.83366M9.99935 14.167V15.417M18.3327 10.0003C18.3327 14.6027 14.6017 18.3337 9.99935 18.3337C5.39698 18.3337 1.66602 14.6027 1.66602 10.0003C1.66602 5.39795 5.39698 1.66699 9.99935 1.66699C14.6017 1.66699 18.3327 5.39795 18.3327 10.0003Z" stroke="currentColor" stroke-width="1.5" stroke-linecap="round" stroke-linejoin="round"/>
</g>
<defs>
<clipPath id="clip0_7472_55618">
<rect width="20" height="20" fill="white"/>
</clipPath>
</defs>
</svg>
