<svg xmlns="http://www.w3.org/2000/svg" width="20" height="20" viewBox="0 0 20 20" fill="none">
  <path d="M10.0003 1.66602C5.40033 1.66602 1.66699 5.39935 1.66699 9.99935C1.66699 14.5993 5.40033 18.3327 10.0003 18.3327C14.6003 18.3327 18.3337 14.5993 18.3337 9.99935C18.3337 5.39935 14.6003 1.66602 10.0003 1.66602Z" fill="white"/>
  <path d="M10.0003 1.66602C5.40533 1.66602 1.66699 5.40435 1.66699 9.99935C1.66699 14.5943 5.40533 18.3327 10.0003 18.3327C14.5953 18.3327 18.3337 14.5943 18.3337 9.99935C18.3337 5.40435 14.5953 1.66602 10.0003 1.66602ZM13.5062 12.3268L12.3278 13.5052L10.0003 11.1777L7.67283 13.5052L6.49449 12.3268L8.82199 9.99935L6.49449 7.67185L7.67283 6.49352L10.0003 8.82102L12.3278 6.49352L13.5062 7.67185L11.1787 9.99935L13.5062 12.3268Z" fill="#D92D20"/>
</svg>