<svg viewBox="0 0 15 15" fill="none" xmlns="http://www.w3.org/2000/svg">
  <path
    d="M13.7498 7.49976C13.7498 10.446 13.7498 11.9191 12.8342 12.8341C11.9198 13.7498 10.4461 13.7498 7.49982 13.7498C4.55357 13.7498 3.08044 13.7498 2.16482 12.8341C1.24982 11.9198 1.24982 10.446 1.24982 7.49976C1.24982 4.55351 1.24982 3.08038 2.16482 2.16476C3.08107 1.24976 4.55357 1.24976 7.49982 1.24976"
    stroke="#737373" stroke-width="1.17188" stroke-linecap="round" />
  <path
    d="M1.24982 7.81226L2.34482 6.85414C2.61928 6.61418 2.97466 6.48747 3.33902 6.49966C3.70338 6.51184 4.0495 6.66201 4.30732 6.91976L6.98857 9.60102C7.19664 9.80904 7.47142 9.937 7.76454 9.96238C8.05767 9.98776 8.35035 9.90893 8.59107 9.73977L8.77795 9.60852C9.1252 9.36463 9.5449 9.24575 9.96846 9.27129C10.392 9.29683 10.7944 9.46529 11.1098 9.74914L13.1248 11.5623M13.7498 1.24976L9.99983 4.99976M9.99983 1.24976L13.7498 4.99976"
    stroke="#737373" stroke-width="1.17188" stroke-linecap="round" />
  <path
    d="M3.04654 7.03125L1.87466 7.96875V8.4375L2.10904 11.7188L3.28092 12.8906L7.73405 13.125H11.484L12.8903 11.9531L11.2497 10.5469L10.0778 9.84375L7.96842 10.5469L5.62467 8.90625L3.04654 7.03125Z"
    fill="#737373" stroke="#737373" stroke-width="0.937501" />
</svg>