<svg viewBox="0 0 15 15" fill="none" xmlns="http://www.w3.org/2000/svg">
  <path
    d="M13.7499 7.49976C13.7499 10.446 13.7499 11.9191 12.8343 12.8341C11.9199 13.7498 10.4461 13.7498 7.49988 13.7498C4.55363 13.7498 3.0805 13.7498 2.16488 12.8341C1.24988 11.9198 1.24988 10.446 1.24988 7.49976C1.24988 4.55351 1.24988 3.08038 2.16488 2.16476C3.08113 1.24976 4.55363 1.24976 7.49988 1.24976"
    stroke="#B7B7B7" stroke-width="1.17188" stroke-linecap="round" />
  <path
    d="M1.24988 7.81226L2.34488 6.85414C2.61934 6.61418 2.97472 6.48747 3.33908 6.49966C3.70344 6.51184 4.04956 6.66201 4.30738 6.91976L6.98863 9.60102C7.1967 9.80904 7.47148 9.937 7.7646 9.96238C8.05773 9.98776 8.35041 9.90893 8.59114 9.73977L8.77801 9.60852C9.12526 9.36463 9.54496 9.24575 9.96853 9.27129C10.3921 9.29683 10.7945 9.46529 11.1099 9.74914L13.1249 11.5623M13.7499 1.24976L9.99989 4.99976M9.99989 1.24976L13.7499 4.99976"
    stroke="#B7B7B7" stroke-width="1.17188" stroke-linecap="round" />
  <path
    d="M3.04663 7.03125L1.87476 7.96875V8.4375L2.10913 11.7188L3.28101 12.8906L7.73414 13.125H11.4841L12.8904 11.9531L11.2498 10.5469L10.0779 9.84375L7.96851 10.5469L5.62476 8.90625L3.04663 7.03125Z"
    fill="#B7B7B7" stroke="#B7B7B7" stroke-width="0.937501" />
</svg>