<svg width="113" height="109" viewBox="0 0 113 109" fill="none" xmlns="http://www.w3.org/2000/svg">
<path d="M109 0.25H4C1.92893 0.25 0.25 1.92893 0.25 4V94C0.25 96.0711 1.92893 97.75 4 97.75H109C111.071 97.75 112.75 96.0711 112.75 94V4C112.75 1.92893 111.071 0.25 109 0.25Z" fill="#4A4A4A"/>
<path d="M109 0.25H4C3.00544 0.25 2.05161 0.645088 1.34835 1.34835C0.645088 2.05161 0.25 3.00544 0.25 4V22.75H112.75V4C112.75 3.00544 112.355 2.05161 111.652 1.34835C110.948 0.645088 109.995 0.25 109 0.25Z" fill="#737373"/>
<path d="M30 9.875C30 9.38055 30.1466 8.8972 30.4213 8.48607C30.696 8.07495 31.0865 7.75454 31.5433 7.56532C32.0001 7.3761 32.5028 7.32657 32.9877 7.42303C33.4727 7.51949 33.9181 7.7576 34.2678 8.10724C34.6174 8.45687 34.8555 8.90234 34.952 9.3873C35.0484 9.87225 34.9989 10.3749 34.8097 10.8317C34.6205 11.2885 34.3001 11.679 33.8889 11.9537C33.4778 12.2284 32.9945 12.375 32.5 12.375C31.837 12.375 31.2011 12.1116 30.7322 11.6428C30.2634 11.1739 30 10.538 30 9.875ZM20 9.875C20 9.38055 20.1466 8.8972 20.4213 8.48607C20.696 8.07495 21.0865 7.75454 21.5433 7.56532C22.0001 7.3761 22.5028 7.32657 22.9877 7.42303C23.4727 7.51949 23.9181 7.7576 24.2678 8.10724C24.6174 8.45687 24.8555 8.90234 24.952 9.3873C25.0484 9.87225 24.9989 10.3749 24.8097 10.8317C24.6205 11.2885 24.3001 11.679 23.8889 11.9537C23.4778 12.2284 22.9945 12.375 22.5 12.375C21.837 12.375 21.2011 12.1116 20.7322 11.6428C20.2634 11.1739 20 10.538 20 9.875ZM10 9.875C10 9.38055 10.1466 8.8972 10.4213 8.48607C10.696 8.07495 11.0865 7.75454 11.5433 7.56532C12.0001 7.3761 12.5028 7.32657 12.9877 7.42303C13.4727 7.51949 13.9181 7.7576 14.2678 8.10724C14.6174 8.45687 14.8555 8.90234 14.952 9.3873C15.0484 9.87225 14.9989 10.3749 14.8097 10.8317C14.6205 11.2885 14.3001 11.679 13.8889 11.9537C13.4778 12.2284 12.9945 12.375 12.5 12.375C11.837 12.375 11.2011 12.1116 10.7322 11.6428C10.2634 11.1739 10 10.538 10 9.875Z" fill="#424242"/>
<path d="M56.5 108.25C73.0685 108.25 86.5 94.8185 86.5 78.25C86.5 61.6815 73.0685 48.25 56.5 48.25C39.9315 48.25 26.5 61.6815 26.5 78.25C26.5 94.8185 39.9315 108.25 56.5 108.25Z" fill="url(#paint0_linear_9912_31090)"/>
<path d="M56.4998 101.335C69.3865 101.335 79.8332 90.888 79.8332 78.0013C79.8332 65.1147 69.3865 54.668 56.4998 54.668C43.6132 54.668 33.1665 65.1147 33.1665 78.0013C33.1665 90.888 43.6132 101.335 56.4998 101.335Z" fill="url(#paint1_linear_9912_31090)"/>
<path d="M56.5417 65V77.5417M56.5417 77.5417V90.0833M56.5417 77.5417H69.0833M56.5417 77.5417H44" stroke="#059459" stroke-width="4.67391" stroke-linecap="round" stroke-linejoin="round"/>
<defs>
<linearGradient id="paint0_linear_9912_31090" x1="76.8792" y1="116.454" x2="26.2975" y2="60.6264" gradientUnits="userSpaceOnUse">
<stop stop-color="#01B86C"/>
<stop offset="0.322807" stop-color="#058751"/>
<stop offset="1" stop-color="#01B86C"/>
</linearGradient>
<linearGradient id="paint1_linear_9912_31090" x1="30.7936" y1="116.533" x2="66.1508" y2="51.0397" gradientUnits="userSpaceOnUse">
<stop stop-color="#B2FFDD"/>
<stop offset="1" stop-color="#EEFFF7"/>
</linearGradient>
</defs>
</svg>
