<svg width="114" height="109" viewBox="0 0 114 109" fill="none" xmlns="http://www.w3.org/2000/svg">
  <path
    d="M109.5 0.25H4.5C2.42893 0.25 0.75 1.92893 0.75 4V94C0.75 96.0711 2.42893 97.75 4.5 97.75H109.5C111.571 97.75 113.25 96.0711 113.25 94V4C113.25 1.92893 111.571 0.25 109.5 0.25Z"
    fill="url(#paint0_linear_10566_29927)" />
  <path
    d="M109.5 0.25H4.5C3.50544 0.25 2.55161 0.645088 1.84835 1.34835C1.14509 2.05161 0.75 3.00544 0.75 4V22.75H113.25V4C113.25 3.00544 112.855 2.05161 112.152 1.34835C111.448 0.645088 110.495 0.25 109.5 0.25Z"
    fill="#E6EFF9" />
  <path
    d="M30.5 9.875C30.5 9.38055 30.6466 8.8972 30.9213 8.48607C31.196 8.07495 31.5865 7.75454 32.0433 7.56532C32.5001 7.3761 33.0028 7.32657 33.4877 7.42303C33.9727 7.51949 34.4181 7.7576 34.7678 8.10724C35.1174 8.45687 35.3555 8.90234 35.452 9.3873C35.5484 9.87225 35.4989 10.3749 35.3097 10.8317C35.1205 11.2885 34.8001 11.679 34.3889 11.9537C33.9778 12.2284 33.4945 12.375 33 12.375C32.337 12.375 31.7011 12.1116 31.2322 11.6428C30.7634 11.1739 30.5 10.538 30.5 9.875ZM20.5 9.875C20.5 9.38055 20.6466 8.8972 20.9213 8.48607C21.196 8.07495 21.5865 7.75454 22.0433 7.56532C22.5001 7.3761 23.0028 7.32657 23.4877 7.42303C23.9727 7.51949 24.4181 7.7576 24.7678 8.10724C25.1174 8.45687 25.3555 8.90234 25.452 9.3873C25.5484 9.87225 25.4989 10.3749 25.3097 10.8317C25.1205 11.2885 24.8001 11.679 24.3889 11.9537C23.9778 12.2284 23.4945 12.375 23 12.375C22.337 12.375 21.7011 12.1116 21.2322 11.6428C20.7634 11.1739 20.5 10.538 20.5 9.875ZM10.5 9.875C10.5 9.38055 10.6466 8.8972 10.9213 8.48607C11.196 8.07495 11.5865 7.75454 12.0433 7.56532C12.5001 7.3761 13.0028 7.32657 13.4877 7.42303C13.9727 7.51949 14.4181 7.7576 14.7678 8.10724C15.1174 8.45687 15.3555 8.90234 15.452 9.3873C15.5484 9.87225 15.4989 10.3749 15.3097 10.8317C15.1205 11.2885 14.8001 11.679 14.3889 11.9537C13.9778 12.2284 13.4945 12.375 13 12.375C12.337 12.375 11.7011 12.1116 11.2322 11.6428C10.7634 11.1739 10.5 10.538 10.5 9.875Z"
    fill="#8AC0F6" />
  <path
    d="M57 108.25C73.5685 108.25 87 94.8185 87 78.25C87 61.6815 73.5685 48.25 57 48.25C40.4315 48.25 27 61.6815 27 78.25C27 94.8185 40.4315 108.25 57 108.25Z"
    fill="url(#paint1_linear_10566_29927)" />
  <path
    d="M56.9998 101.335C69.8865 101.335 80.3332 90.888 80.3332 78.0013C80.3332 65.1147 69.8865 54.668 56.9998 54.668C44.1132 54.668 33.6665 65.1147 33.6665 78.0013C33.6665 90.888 44.1132 101.335 56.9998 101.335Z"
    fill="url(#paint2_linear_10566_29927)" />
  <path d="M56.9999 65.4583V77.9999M56.9999 77.9999V90.5416M56.9999 77.9999H69.5416M56.9999 77.9999H44.4583"
    stroke="#235B95" stroke-width="4.67391" stroke-linecap="round" stroke-linejoin="round" />
  <defs>
    <linearGradient id="paint0_linear_10566_29927" x1="-4.97034" y1="129.503" x2="62.8614" y2="-15.4737"
      gradientUnits="userSpaceOnUse">
      <stop stop-color="#B6D7F8" />
      <stop offset="1" stop-color="#E6EFF9" />
    </linearGradient>
    <linearGradient id="paint1_linear_10566_29927" x1="77.3792" y1="116.454" x2="26.7975" y2="60.6264"
      gradientUnits="userSpaceOnUse">
      <stop stop-color="#235B95" />
      <stop offset="0.322807" stop-color="#154A82" />
      <stop offset="1" stop-color="#235B95" />
    </linearGradient>
    <linearGradient id="paint2_linear_10566_29927" x1="31.2936" y1="116.533" x2="66.6508" y2="51.0397"
      gradientUnits="userSpaceOnUse">
      <stop stop-color="#B6D7F8" />
      <stop offset="1" stop-color="#E6EFF9" />
    </linearGradient>
  </defs>
</svg>