<svg width="321" height="320" viewBox="0 0 321 320" fill="none" xmlns="http://www.w3.org/2000/svg">
  <path
    d="M43.5 36H279.5V208.339C279.5 210.105 278.657 211.8 277.157 213.049C275.657 214.298 273.622 215 271.5 215H51.5C49.3783 215 47.3434 214.298 45.8431 213.049C44.3429 211.8 43.5 210.105 43.5 208.339V36Z"
    fill="url(#paint0_linear_10566_29675)" />
  <path
    d="M124.5 74C124.5 80.0751 119.575 85 113.5 85C107.425 85 102.5 80.0751 102.5 74C102.5 67.9249 107.425 63 113.5 63C119.575 63 124.5 67.9249 124.5 74Z"
    fill="#B6D7F8" />
  <path
    d="M156.5 74C156.5 80.0751 151.575 85 145.5 85C139.425 85 134.5 80.0751 134.5 74C134.5 67.9249 139.425 63 145.5 63C151.575 63 156.5 67.9249 156.5 74Z"
    fill="#B6D7F8" />
  <path
    d="M188.5 74C188.5 80.0751 183.575 85 177.5 85C171.425 85 166.5 80.0751 166.5 74C166.5 67.9249 171.425 63 177.5 63C183.575 63 188.5 67.9249 188.5 74Z"
    fill="#B6D7F8" />
  <path
    d="M220.5 74C220.5 80.0751 215.575 85 209.5 85C203.425 85 198.5 80.0751 198.5 74C198.5 67.9249 203.425 63 209.5 63C215.575 63 220.5 67.9249 220.5 74Z"
    fill="#B6D7F8" />
  <path
    d="M43.5 51H279.5V27C279.5 24.8783 278.657 22.8434 277.157 21.3431C275.657 19.8428 273.622 19 271.5 19H51.5C49.3783 19 47.3434 19.8428 45.8431 21.3431C44.3428 22.8434 43.5 24.8783 43.5 27V51Z"
    fill="#B6D7F8" />
  <path
    d="M92.5 35C92.5 34.2089 92.7346 33.4355 93.1741 32.7777C93.6137 32.1199 94.2383 31.6073 94.9692 31.3045C95.7001 31.0018 96.5044 30.9225 97.2803 31.0769C98.0563 31.2312 98.769 31.6122 99.3284 32.1716C99.8878 32.731 100.269 33.4437 100.423 34.2197C100.577 34.9956 100.498 35.7999 100.195 36.5308C99.8927 37.2617 99.3801 37.8863 98.7223 38.3259C98.0645 38.7654 97.2911 39 96.5 39C95.4391 39 94.4217 38.5786 93.6716 37.8284C92.9214 37.0783 92.5 36.0609 92.5 35ZM76.5 35C76.5 34.2089 76.7346 33.4355 77.1741 32.7777C77.6137 32.1199 78.2383 31.6073 78.9692 31.3045C79.7001 31.0018 80.5044 30.9225 81.2803 31.0769C82.0563 31.2312 82.769 31.6122 83.3284 32.1716C83.8878 32.731 84.2688 33.4437 84.4232 34.2197C84.5775 34.9956 84.4982 35.7999 84.1955 36.5308C83.8927 37.2617 83.3801 37.8863 82.7223 38.3259C82.0645 38.7654 81.2911 39 80.5 39C79.4391 39 78.4217 38.5786 77.6716 37.8284C76.9214 37.0783 76.5 36.0609 76.5 35ZM60.5 35C60.5 34.2089 60.7346 33.4355 61.1741 32.7777C61.6137 32.1199 62.2383 31.6073 62.9692 31.3045C63.7001 31.0018 64.5044 30.9225 65.2803 31.0769C66.0563 31.2312 66.769 31.6122 67.3284 32.1716C67.8878 32.731 68.2688 33.4437 68.4232 34.2197C68.5775 34.9956 68.4982 35.7999 68.1955 36.5308C67.8927 37.2617 67.3801 37.8863 66.7223 38.3259C66.0645 38.7654 65.2911 39 64.5 39C63.4391 39 62.4217 38.5786 61.6716 37.8284C60.9214 37.0783 60.5 36.0609 60.5 35Z"
    fill="#5CA4EC" />
  <path
    d="M174.142 211.795V198.104C174.142 192.706 169.751 188.314 164.353 188.314C158.955 188.314 154.563 192.706 154.563 198.104V210.465C154.563 225.36 149.076 239.662 139.111 250.734L125.371 266C124.217 267.282 124.321 269.258 125.604 270.412C126.886 271.567 128.861 271.463 130.016 270.18L143.755 254.914C154.754 242.692 160.812 226.907 160.812 210.465V198.104C160.812 196.152 162.4 194.563 164.353 194.563C166.305 194.563 167.894 196.152 167.894 198.104V211.795C167.894 230.125 161.103 247.69 148.772 261.254L135.38 275.986C134.219 277.262 134.313 279.239 135.59 280.399C136.189 280.944 136.941 281.212 137.69 281.212C138.54 281.212 139.387 280.867 140.003 280.189L153.396 265.457C166.774 250.741 174.142 231.683 174.142 211.795Z"
    fill="#E5E5E5" />
  <path
    d="M187.473 198.104C187.473 185.355 177.102 174.983 164.353 174.983C151.604 174.983 141.233 185.355 141.233 198.104V210.464C141.233 222.062 136.96 233.195 129.202 241.815L119.435 252.668C118.28 253.951 118.385 255.927 119.667 257.081C120.95 258.236 122.925 258.131 124.08 256.849L133.847 245.996C142.64 236.226 147.482 223.608 147.482 210.464V198.104C147.482 188.801 155.05 181.232 164.353 181.232C173.656 181.232 181.225 188.801 181.225 198.104V211.794C181.225 233.447 173.203 254.197 158.637 270.22L147.337 282.651C146.176 283.927 146.27 285.904 147.547 287.064C148.146 287.609 148.897 287.877 149.647 287.877C150.497 287.877 151.344 287.532 151.96 286.854L163.26 274.424C178.874 257.248 187.473 235.006 187.473 211.794V198.104Z"
    fill="#E5E5E5" />
  <path
    d="M200.804 198.102C200.804 198.102 200.804 198.102 200.804 198.102C200.804 178.003 184.453 161.651 164.353 161.651C144.254 161.651 127.903 178.003 127.903 198.102V210.463C127.903 218.761 124.845 226.728 119.294 232.896L110.499 242.668C109.345 243.951 109.449 245.926 110.732 247.081C112.014 248.235 113.99 248.13 115.144 246.849L123.939 237.076C130.525 229.759 134.151 220.307 134.151 210.463V198.102C134.151 181.448 147.7 167.9 164.353 167.9C181.007 167.9 194.556 181.448 194.556 198.102V211.793C194.556 236.77 185.302 260.704 168.501 279.186L165.373 282.626C164.213 283.903 164.307 285.879 165.584 287.039C166.182 287.583 166.935 287.852 167.684 287.852C168.534 287.852 169.38 287.507 169.997 286.829L173.124 283.389C190.973 263.754 200.804 238.328 200.804 211.793V198.102C200.804 198.102 200.804 198.102 200.804 198.102Z"
    fill="#E5E5E5" />
  <path
    d="M114.572 198.103C114.572 199.829 115.971 201.227 117.696 201.227C119.422 201.227 120.821 199.829 120.821 198.103C120.821 187.582 124.64 177.419 131.576 169.486C138.448 161.627 147.879 156.487 158.132 155.014C159.84 154.768 161.025 153.185 160.78 151.477C160.535 149.769 158.949 148.585 157.243 148.829C145.512 150.514 134.726 156.39 126.872 165.374C118.94 174.446 114.572 186.069 114.572 198.103Z"
    fill="#E5E5E5" />
  <path
    d="M120.821 210.465C120.821 208.739 119.422 207.341 117.697 207.341C115.972 207.341 114.573 208.739 114.573 210.465C114.573 215.465 112.731 220.264 109.387 223.98L101.564 232.673C100.409 233.955 100.514 235.93 101.796 237.085C102.394 237.623 103.14 237.887 103.885 237.887C104.74 237.887 105.592 237.538 106.209 236.853L114.032 228.16C118.41 223.295 120.821 217.011 120.821 210.465Z"
    fill="#E5E5E5" />
  <path
    d="M208.002 238.356C206.332 237.921 204.626 238.919 204.188 240.587C203.035 244.994 201.6 249.376 199.923 253.609C199.287 255.213 200.072 257.029 201.677 257.664C202.054 257.814 202.443 257.885 202.827 257.885C204.07 257.885 205.246 257.137 205.732 255.91C207.502 251.443 209.017 246.82 210.234 242.169C210.67 240.5 209.671 238.793 208.002 238.356Z"
    fill="#E5E5E5" />
  <path
    d="M197.603 161.082C196.319 159.928 194.344 160.034 193.191 161.317C192.037 162.6 192.142 164.575 193.425 165.729C202.615 173.991 207.886 185.79 207.886 198.103V211.794C207.886 216.99 207.528 222.226 206.821 227.357C206.585 229.066 207.78 230.643 209.489 230.878C209.634 230.898 209.777 230.908 209.92 230.908C211.456 230.908 212.795 229.774 213.011 228.209C213.756 222.796 214.134 217.273 214.134 211.793V198.103C214.135 184.021 208.109 170.527 197.603 161.082Z"
    fill="#E5E5E5" />
  <path
    d="M182.997 158.768C183.431 158.975 183.888 159.072 184.338 159.072C185.506 159.072 186.626 158.415 187.161 157.29C187.903 155.733 187.241 153.868 185.684 153.127C181.182 150.983 176.398 149.537 171.463 148.829C169.753 148.585 168.172 149.769 167.927 151.477C167.681 153.184 168.867 154.768 170.575 155.014C174.886 155.633 179.065 156.896 182.997 158.768Z"
    fill="#E5E5E5" />
  <path
    d="M164.353 134.991C163.184 134.991 162.002 135.024 160.838 135.088C159.115 135.183 157.796 136.657 157.891 138.379C157.986 140.102 159.458 141.429 161.182 141.327C162.232 141.269 163.298 141.239 164.353 141.239C195.707 141.239 221.216 166.748 221.216 198.103V211.793C221.216 213.519 222.615 214.917 224.34 214.917C226.066 214.917 227.464 213.519 227.464 211.793V198.103C227.465 163.303 199.153 134.991 164.353 134.991Z"
    fill="#E5E5E5" />
  <path
    d="M130.193 151.945C130.808 151.945 131.43 151.764 131.974 151.386C137.172 147.771 142.881 145.073 148.942 143.363C150.603 142.895 151.57 141.169 151.102 139.508C150.634 137.848 148.907 136.882 147.247 137.349C140.515 139.247 134.176 142.243 128.406 146.255C126.99 147.24 126.64 149.187 127.625 150.604C128.232 151.478 129.204 151.945 130.193 151.945Z"
    fill="#E5E5E5" />
  <path
    d="M107.49 210.464V198.104C107.49 183.569 112.994 169.727 122.989 159.126C124.172 157.871 124.114 155.894 122.859 154.71C121.603 153.526 119.626 153.584 118.442 154.84C107.35 166.604 101.241 181.969 101.241 198.104V210.464C101.241 212.165 100.615 213.798 99.4775 215.061L95.625 219.342C94.4707 220.624 94.5748 222.6 95.8575 223.754C96.4544 224.292 97.2018 224.556 97.9466 224.556C98.8014 224.556 99.6529 224.208 100.27 223.522L104.122 219.242C106.294 216.828 107.49 213.711 107.49 210.464Z"
    fill="#E5E5E5" />
  <path
    d="M236.828 173.777C233.402 163.593 227.956 154.393 220.642 146.432C219.474 145.161 217.498 145.077 216.227 146.245C214.957 147.412 214.873 149.388 216.04 150.659C222.758 157.972 227.76 166.42 230.906 175.769C231.345 177.074 232.563 177.898 233.867 177.898C234.197 177.898 234.533 177.845 234.864 177.734C236.499 177.184 237.379 175.412 236.828 173.777Z"
    fill="#E5E5E5" />
  <path
    d="M189.045 125.751C187.413 125.193 185.636 126.063 185.077 127.696C184.519 129.328 185.389 131.105 187.022 131.663C193.911 134.02 200.38 137.435 206.247 141.815C206.808 142.233 207.463 142.435 208.113 142.435C209.066 142.435 210.006 142.001 210.62 141.179C211.652 139.796 211.367 137.838 209.985 136.806C203.596 132.039 196.55 128.319 189.045 125.751Z"
    fill="#E5E5E5" />
  <path
    d="M115.808 147.451C128.95 134.85 146.191 127.91 164.353 127.91C167.726 127.91 171.117 128.153 174.433 128.631C176.142 128.88 177.725 127.693 177.972 125.985C178.218 124.277 177.034 122.693 175.326 122.447C171.715 121.926 168.023 121.661 164.353 121.661C144.571 121.661 125.795 129.218 111.483 142.941C97.2161 156.62 88.8724 174.978 87.9893 194.631C87.9118 196.355 89.2465 197.816 90.9699 197.893C91.0178 197.895 91.0653 197.896 91.1128 197.896C92.7737 197.896 94.1563 196.588 94.2317 194.912C95.042 176.869 102.705 160.014 115.808 147.451Z"
    fill="#E5E5E5" />
  <path
    d="M164.353 108.33C157.366 108.33 150.404 109.14 143.66 110.737C141.981 111.134 140.942 112.818 141.34 114.497C141.737 116.176 143.421 117.215 145.1 116.817C151.373 115.332 157.85 114.579 164.353 114.579C187.263 114.579 208.649 123.706 224.57 140.28C225.183 140.918 226.002 141.24 226.823 141.24C227.602 141.24 228.382 140.951 228.988 140.369C230.232 139.173 230.272 137.195 229.076 135.951C220.781 127.316 211.037 120.523 200.115 115.762C188.802 110.83 176.77 108.33 164.353 108.33Z"
    fill="#E5E5E5" />
  <path
    d="M94.1731 147.241C94.7446 147.689 95.4233 147.906 96.0973 147.906C97.025 147.906 97.9431 147.494 98.5593 146.708C107.464 135.334 119.186 126.413 132.459 120.908C134.053 120.247 134.81 118.419 134.149 116.825C133.487 115.231 131.659 114.474 130.066 115.136C115.802 121.052 103.205 130.637 93.6395 142.855C92.5755 144.214 92.8146 146.178 94.1731 147.241Z"
    fill="#E5E5E5" />
  <path
    d="M121.032 111.132C121.488 111.132 121.951 111.032 122.388 110.82C135.543 104.469 149.662 101.249 164.354 101.249C172.01 101.249 179.635 102.149 187.016 103.926C188.693 104.328 190.381 103.297 190.785 101.619C191.188 99.9415 190.156 98.2539 188.478 97.8502C180.618 95.959 172.502 95 164.354 95C148.714 95 133.681 98.4293 119.672 105.193C118.118 105.944 117.467 107.811 118.217 109.365C118.755 110.481 119.871 111.132 121.032 111.132Z"
    fill="#E5E5E5" />
  <path
    d="M200.075 108.075C203.296 109.357 206.484 110.832 209.551 112.457C210.017 112.704 210.517 112.821 211.011 112.821C212.13 112.821 213.213 112.218 213.774 111.159C214.582 109.635 214.001 107.744 212.476 106.936C209.211 105.206 205.817 103.635 202.387 102.269C200.783 101.631 198.966 102.413 198.328 104.016C197.69 105.619 198.472 107.436 200.075 108.075Z"
    fill="#E5E5E5" />
  <g clip-path="url(#clip0_10566_29675)">
    <path
      d="M174.143 211.795V198.104C174.143 192.706 169.752 188.314 164.354 188.314C158.956 188.314 154.564 192.706 154.564 198.104V210.465C154.564 225.36 149.077 239.662 139.112 250.734L125.372 266C124.218 267.282 124.322 269.258 125.605 270.412C126.887 271.567 128.862 271.463 130.017 270.18L143.756 254.914C154.755 242.692 160.813 226.907 160.813 210.465V198.104C160.813 196.152 162.401 194.563 164.354 194.563C166.306 194.563 167.895 196.152 167.895 198.104V211.795C167.895 230.125 161.104 247.69 148.773 261.254L135.381 275.986C134.22 277.262 134.314 279.239 135.591 280.399C136.19 280.944 136.942 281.212 137.691 281.212C138.541 281.212 139.388 280.867 140.004 280.189L153.396 265.457C166.775 250.741 174.143 231.683 174.143 211.795Z"
      fill="url(#paint1_linear_10566_29675)" />
    <path
      d="M187.473 198.105C187.473 185.356 177.102 174.984 164.353 174.984C151.604 174.984 141.233 185.356 141.233 198.105V210.465C141.233 222.062 136.96 233.196 129.202 241.816L119.435 252.669C118.28 253.952 118.385 255.928 119.667 257.082C120.95 258.237 122.925 258.132 124.08 256.85L133.847 245.997C142.64 236.227 147.482 223.609 147.482 210.465V198.105C147.482 188.801 155.05 181.233 164.353 181.233C173.656 181.233 181.225 188.801 181.225 198.105V211.795C181.225 233.448 173.203 254.198 158.637 270.221L147.337 282.652C146.176 283.928 146.27 285.905 147.547 287.065C148.146 287.61 148.897 287.878 149.647 287.878C150.497 287.878 151.344 287.533 151.96 286.855L163.26 274.424C178.874 257.249 187.473 235.007 187.473 211.795V198.105Z"
      fill="url(#paint2_linear_10566_29675)" />
    <path
      d="M200.804 198.102C200.804 178.003 184.453 161.651 164.353 161.651C144.254 161.651 127.903 178.003 127.903 198.102V210.463C127.903 218.761 124.845 226.728 119.294 232.896L110.499 242.668C109.345 243.951 109.449 245.926 110.732 247.081C112.014 248.235 113.99 248.13 115.144 246.849L123.939 237.076C130.525 229.759 134.151 220.307 134.151 210.463V198.102C134.151 181.448 147.7 167.9 164.353 167.9C181.007 167.9 194.556 181.448 194.556 198.102V211.793C194.556 236.77 185.302 260.704 168.501 279.186L165.373 282.626C164.213 283.903 164.307 285.879 165.584 287.039C166.182 287.583 166.935 287.852 167.684 287.852C168.534 287.852 169.38 287.507 169.997 286.829L173.124 283.389C190.973 263.754 200.804 238.328 200.804 211.793V198.102H200.804Z"
      fill="url(#paint3_linear_10566_29675)" />
    <path
      d="M114.572 198.103C114.572 199.829 115.971 201.227 117.697 201.227C119.422 201.227 120.821 199.829 120.821 198.103C120.821 187.582 124.641 177.419 131.577 169.486C138.448 161.626 147.879 156.487 158.132 155.014C159.84 154.768 161.026 153.184 160.78 151.477C160.535 149.769 158.95 148.585 157.243 148.829C145.512 150.514 134.726 156.39 126.872 165.374C118.941 174.445 114.572 186.069 114.572 198.103Z"
      fill="url(#paint4_linear_10566_29675)" />
    <path
      d="M120.821 210.465C120.821 208.739 119.422 207.341 117.697 207.341C115.972 207.341 114.573 208.739 114.573 210.465C114.573 215.465 112.731 220.264 109.387 223.98L101.564 232.673C100.409 233.955 100.514 235.93 101.796 237.085C102.394 237.623 103.14 237.887 103.885 237.887C104.74 237.887 105.592 237.538 106.209 236.853L114.032 228.16C118.41 223.295 120.821 217.011 120.821 210.465Z"
      fill="url(#paint5_linear_10566_29675)" />
    <path
      d="M197.603 161.082C196.319 159.928 194.344 160.034 193.191 161.317C192.037 162.6 192.142 164.575 193.425 165.729C202.615 173.991 207.886 185.79 207.886 198.103V211.794C207.886 216.99 207.528 222.226 206.821 227.357C206.585 229.066 207.78 230.643 209.489 230.878C209.634 230.898 209.777 230.908 209.92 230.908C211.456 230.908 212.795 229.774 213.011 228.209C213.756 222.796 214.134 217.273 214.134 211.793V198.103C214.135 184.021 208.109 170.527 197.603 161.082Z"
      fill="url(#paint6_linear_10566_29675)" />
    <path
      d="M182.996 158.768C183.43 158.975 183.887 159.072 184.337 159.072C185.505 159.072 186.625 158.415 187.16 157.29C187.902 155.733 187.24 153.868 185.683 153.127C181.181 150.983 176.397 149.537 171.462 148.829C169.752 148.585 168.171 149.769 167.926 151.477C167.68 153.184 168.866 154.768 170.574 155.014C174.885 155.633 179.064 156.896 182.996 158.768Z"
      fill="url(#paint7_linear_10566_29675)" />
    <path
      d="M164.354 134.991C163.185 134.991 162.003 135.024 160.839 135.088C159.116 135.183 157.797 136.657 157.892 138.379C157.987 140.102 159.459 141.429 161.183 141.327C162.233 141.269 163.299 141.239 164.354 141.239C195.708 141.239 221.217 166.748 221.217 198.103V211.793C221.217 213.519 222.616 214.917 224.341 214.917C226.067 214.917 227.465 213.519 227.465 211.793V198.103C227.466 163.303 199.154 134.991 164.354 134.991Z"
      fill="url(#paint8_linear_10566_29675)" />
    <path
      d="M130.192 151.944C130.807 151.944 131.429 151.763 131.973 151.385C137.171 147.77 142.88 145.072 148.941 143.362C150.602 142.894 151.569 141.168 151.101 139.507C150.633 137.847 148.906 136.881 147.246 137.348C140.514 139.246 134.175 142.242 128.405 146.254C126.989 147.239 126.639 149.186 127.624 150.603C128.231 151.477 129.203 151.944 130.192 151.944Z"
      fill="url(#paint9_linear_10566_29675)" />
    <path
      d="M107.49 210.464V198.104C107.49 183.569 112.994 169.727 122.989 159.126C124.172 157.871 124.114 155.894 122.859 154.71C121.603 153.526 119.626 153.584 118.442 154.84C107.35 166.604 101.241 181.969 101.241 198.104V210.464C101.241 212.165 100.615 213.798 99.4775 215.061L95.625 219.342C94.4707 220.624 94.5748 222.6 95.8575 223.754C96.4544 224.292 97.2018 224.556 97.9466 224.556C98.8014 224.556 99.6529 224.208 100.27 223.522L104.122 219.242C106.294 216.828 107.49 213.711 107.49 210.464Z"
      fill="url(#paint10_linear_10566_29675)" />
    <path
      d="M236.829 173.777C233.402 163.593 227.956 154.393 220.642 146.432C219.474 145.161 217.498 145.077 216.228 146.245C214.957 147.412 214.873 149.389 216.041 150.66C222.759 157.972 227.761 166.421 230.907 175.769C231.346 177.075 232.563 177.898 233.867 177.898C234.198 177.898 234.534 177.845 234.864 177.734C236.499 177.184 237.379 175.412 236.829 173.777Z"
      fill="url(#paint11_linear_10566_29675)" />
    <path
      d="M189.045 125.751C187.413 125.193 185.636 126.063 185.077 127.696C184.519 129.328 185.389 131.105 187.022 131.663C193.911 134.02 200.38 137.435 206.247 141.815C206.808 142.233 207.463 142.435 208.113 142.435C209.066 142.435 210.006 142.001 210.62 141.179C211.652 139.796 211.367 137.838 209.985 136.806C203.596 132.039 196.55 128.319 189.045 125.751Z"
      fill="url(#paint12_linear_10566_29675)" />
    <path
      d="M115.808 147.451C128.951 134.85 146.191 127.91 164.354 127.91C167.726 127.91 171.118 128.153 174.433 128.631C176.142 128.88 177.725 127.693 177.972 125.985C178.219 124.277 177.034 122.693 175.326 122.447C171.715 121.926 168.024 121.661 164.354 121.661C144.571 121.661 125.795 129.219 111.483 142.941C97.2164 156.62 88.8727 174.978 87.9895 194.632C87.9121 196.355 89.2468 197.816 90.9702 197.893C91.0181 197.895 91.0656 197.896 91.1131 197.896C92.774 197.896 94.1566 196.588 94.232 194.912C95.0422 176.869 102.705 160.014 115.808 147.451Z"
      fill="url(#paint13_linear_10566_29675)" />
    <path
      d="M164.353 108.33C157.366 108.33 150.404 109.14 143.66 110.737C141.981 111.134 140.942 112.818 141.34 114.497C141.737 116.176 143.421 117.215 145.1 116.817C151.373 115.332 157.85 114.579 164.353 114.579C187.263 114.579 208.649 123.706 224.57 140.28C225.183 140.918 226.002 141.24 226.823 141.24C227.602 141.24 228.382 140.951 228.988 140.369C230.232 139.173 230.272 137.195 229.076 135.951C220.781 127.316 211.037 120.523 200.115 115.762C188.802 110.83 176.77 108.33 164.353 108.33Z"
      fill="url(#paint14_linear_10566_29675)" />
    <path
      d="M94.1729 147.241C94.7444 147.689 95.423 147.906 96.097 147.906C97.0248 147.906 97.9429 147.495 98.559 146.708C107.463 135.334 119.186 126.413 132.459 120.908C134.053 120.247 134.809 118.419 134.148 116.825C133.487 115.231 131.658 114.474 130.065 115.136C115.801 121.052 103.205 130.637 93.6392 142.855C92.5753 144.214 92.8144 146.178 94.1729 147.241Z"
      fill="url(#paint15_linear_10566_29675)" />
    <path
      d="M121.032 111.132C121.488 111.132 121.951 111.032 122.388 110.82C135.543 104.469 149.662 101.249 164.354 101.249C172.01 101.249 179.635 102.149 187.016 103.926C188.693 104.328 190.381 103.297 190.785 101.619C191.188 99.9415 190.156 98.2539 188.478 97.8502C180.618 95.959 172.502 95 164.354 95C148.714 95 133.681 98.4293 119.672 105.193C118.118 105.944 117.467 107.811 118.217 109.365C118.755 110.481 119.871 111.132 121.032 111.132Z"
      fill="url(#paint16_linear_10566_29675)" />
    <path
      d="M200.075 108.074C203.296 109.356 206.484 110.831 209.551 112.456C210.017 112.703 210.517 112.82 211.011 112.82C212.13 112.82 213.213 112.217 213.774 111.158C214.582 109.634 214.001 107.743 212.476 106.935C209.211 105.205 205.817 103.634 202.387 102.269C200.783 101.63 198.966 102.412 198.328 104.015C197.69 105.618 198.472 107.435 200.075 108.074Z"
      fill="url(#paint17_linear_10566_29675)" />
  </g>
  <path d="M59.5 215.5H260" stroke="#235B95" stroke-width="4" stroke-linecap="round" />
  <path
    d="M296.06 161.605C300.476 160.211 302.451 159.668 304.484 158.7C304.484 155.407 307.68 144.872 307.68 136.04C307.68 125.001 303.032 114.253 285.311 92.7553C271.134 75.5574 238.249 76.4869 224.305 78.811C223.143 81.716 222.097 87.5262 221.4 89.8502C220.529 92.7553 221.11 102.342 232.149 102.342H250.741C260.909 102.342 281.825 106.409 281.825 134.298V151.728C281.825 161.896 290.54 163.348 296.06 161.605Z"
    fill="#154A82" />
  <path
    d="M29.0004 229.395C24.5847 230.789 22.6095 231.331 20.576 232.3C20.576 235.592 17.3802 246.128 17.3802 254.959C17.3802 265.998 22.0285 276.747 39.7493 298.244C53.926 315.442 86.8112 314.513 100.755 312.189C101.917 309.283 102.963 303.473 103.66 301.149C104.532 298.244 103.951 288.658 92.9116 288.658H74.3192C64.1515 288.658 43.2352 284.59 43.2352 256.702V239.272C43.2352 229.104 34.52 227.651 29.0004 229.395Z"
    fill="#154A82" />
  <path
    d="M28.9993 161.605C24.5835 160.211 22.6083 159.668 20.5748 158.7C20.5748 155.407 17.3789 144.872 17.3789 136.04C17.3789 125.001 22.0273 114.253 39.7484 92.7553C53.9252 75.5574 86.8109 76.4869 100.755 78.811C101.917 81.716 102.963 87.5262 103.66 89.8502C104.532 92.7553 103.951 102.342 92.9114 102.342H74.3188C64.1509 102.342 43.2343 106.409 43.2343 134.298V151.728C43.2343 161.896 34.519 163.348 28.9993 161.605Z"
    fill="#154A82" />
  <path
    d="M296.061 229.395C300.477 230.789 302.452 231.331 304.486 232.3C304.486 235.592 307.682 246.128 307.682 254.959C307.682 265.998 303.033 276.747 285.312 298.244C271.135 315.442 238.25 314.513 224.305 312.189C223.143 309.283 222.097 303.473 221.4 301.149C220.529 298.244 221.11 288.658 232.149 288.658H250.742C260.91 288.658 281.826 284.59 281.826 256.702V239.272C281.826 229.104 290.541 227.651 296.061 229.395Z"
    fill="#154A82" />
  <path
    d="M311.165 127.615V148.531C311.165 163.638 289.667 162.476 289.667 148.531V127.615C289.667 109.894 279.209 93.9164 254.516 93.9164H234.181C220.237 93.9164 219.365 73 234.181 73H254.516C289.377 73 311.165 96.8214 311.165 127.615Z"
    fill="url(#paint18_linear_10566_29675)" />
  <path
    d="M13.8963 263.385L13.8963 242.469C13.8963 227.362 35.3937 228.524 35.3937 242.469V263.385C35.3937 281.106 45.8519 297.084 70.5448 297.084L90.8802 297.084C104.824 297.084 105.696 318 90.8802 318H70.5448C35.6842 318 13.8963 294.179 13.8963 263.385Z"
    fill="url(#paint19_linear_10566_29675)" />
  <path
    d="M13.8945 127.615V148.531C13.8945 163.638 35.3922 162.476 35.3922 148.531V127.615C35.3922 109.894 45.8506 93.9164 70.5439 93.9164H90.8796C104.824 93.9164 105.695 73 90.8796 73H70.5439C35.6827 73 13.8945 96.8214 13.8945 127.615Z"
    fill="url(#paint20_linear_10566_29675)" />
  <path
    d="M311.167 263.385V242.469C311.167 227.362 289.669 228.524 289.669 242.469V263.385C289.669 281.106 279.211 297.084 254.517 297.084H234.182C220.237 297.084 219.366 318 234.182 318H254.517C289.378 318 311.167 294.179 311.167 263.385Z"
    fill="url(#paint21_linear_10566_29675)" />
  <path d="M92.5 80H71" stroke="#B6D7F8" stroke-width="8" stroke-linecap="round" />
  <path d="M242.5 80H236" stroke="#B6D7F8" stroke-width="8" stroke-linecap="round" />
  <defs>
    <linearGradient id="paint0_linear_10566_29675" x1="31.5" y1="273.296" x2="145.269" y2="-4.548"
      gradientUnits="userSpaceOnUse">
      <stop stop-color="#B6D7F8" />
      <stop offset="1" stop-color="#E6EFF9" />
    </linearGradient>
    <linearGradient id="paint1_linear_10566_29675" x1="201.703" y1="219.971" x2="133.665" y2="228.696"
      gradientUnits="userSpaceOnUse">
      <stop stop-color="#4381C0" />
      <stop offset="0.322807" stop-color="#235B95" />
      <stop offset="1" stop-color="#4381C0" />
    </linearGradient>
    <linearGradient id="paint2_linear_10566_29675" x1="225.745" y1="213.454" x2="131.727" y2="227.231"
      gradientUnits="userSpaceOnUse">
      <stop stop-color="#4381C0" />
      <stop offset="0.322807" stop-color="#235B95" />
      <stop offset="1" stop-color="#4381C0" />
    </linearGradient>
    <linearGradient id="paint3_linear_10566_29675" x1="251.455" y1="204.656" x2="128.069" y2="226.062"
      gradientUnits="userSpaceOnUse">
      <stop stop-color="#4381C0" />
      <stop offset="0.322807" stop-color="#235B95" />
      <stop offset="1" stop-color="#4381C0" />
    </linearGradient>
    <linearGradient id="paint4_linear_10566_29675" x1="186.519" y1="166.663" x2="124.785" y2="179.747"
      gradientUnits="userSpaceOnUse">
      <stop stop-color="#4381C0" />
      <stop offset="0.322807" stop-color="#235B95" />
      <stop offset="1" stop-color="#4381C0" />
    </linearGradient>
    <linearGradient id="paint5_linear_10566_29675" x1="131.973" y1="217.75" x2="104.669" y2="222.059"
      gradientUnits="userSpaceOnUse">
      <stop stop-color="#4381C0" />
      <stop offset="0.322807" stop-color="#235B95" />
      <stop offset="1" stop-color="#4381C0" />
    </linearGradient>
    <linearGradient id="paint6_linear_10566_29675" x1="226.223" y1="184.348" x2="196.053" y2="186.58"
      gradientUnits="userSpaceOnUse">
      <stop stop-color="#4381C0" />
      <stop offset="0.322807" stop-color="#235B95" />
      <stop offset="1" stop-color="#4381C0" />
    </linearGradient>
    <linearGradient id="paint7_linear_10566_29675" x1="198.345" y1="152.298" x2="175.771" y2="162.631"
      gradientUnits="userSpaceOnUse">
      <stop stop-color="#4381C0" />
      <stop offset="0.322807" stop-color="#235B95" />
      <stop offset="1" stop-color="#4381C0" />
    </linearGradient>
    <linearGradient id="paint8_linear_10566_29675" x1="266.147" y1="162.227" x2="173.151" y2="181.682"
      gradientUnits="userSpaceOnUse">
      <stop stop-color="#4381C0" />
      <stop offset="0.322807" stop-color="#235B95" />
      <stop offset="1" stop-color="#4381C0" />
    </linearGradient>
    <linearGradient id="paint9_linear_10566_29675" x1="164.647" y1="142.244" x2="135.488" y2="153.747"
      gradientUnits="userSpaceOnUse">
      <stop stop-color="#4381C0" />
      <stop offset="0.322807" stop-color="#235B95" />
      <stop offset="1" stop-color="#4381C0" />
    </linearGradient>
    <linearGradient id="paint10_linear_10566_29675" x1="139.972" y1="177.95" x2="99.8814" y2="181.904"
      gradientUnits="userSpaceOnUse">
      <stop stop-color="#4381C0" />
      <stop offset="0.322807" stop-color="#235B95" />
      <stop offset="1" stop-color="#4381C0" />
    </linearGradient>
    <linearGradient id="paint11_linear_10566_29675" x1="249.099" y1="156.488" x2="219.489" y2="161.259"
      gradientUnits="userSpaceOnUse">
      <stop stop-color="#4381C0" />
      <stop offset="0.322807" stop-color="#235B95" />
      <stop offset="1" stop-color="#4381C0" />
    </linearGradient>
    <linearGradient id="paint12_linear_10566_29675" x1="225.88" y1="131.325" x2="193.684" y2="143.414"
      gradientUnits="userSpaceOnUse">
      <stop stop-color="#4381C0" />
      <stop offset="0.322807" stop-color="#235B95" />
      <stop offset="1" stop-color="#4381C0" />
    </linearGradient>
    <linearGradient id="paint13_linear_10566_29675" x1="228.05" y1="147.64" x2="111.827" y2="180.619"
      gradientUnits="userSpaceOnUse">
      <stop stop-color="#4381C0" />
      <stop offset="0.322807" stop-color="#235B95" />
      <stop offset="1" stop-color="#4381C0" />
    </linearGradient>
    <linearGradient id="paint14_linear_10566_29675" x1="279.256" y1="119.545" x2="192.087" y2="175.999"
      gradientUnits="userSpaceOnUse">
      <stop stop-color="#4381C0" />
      <stop offset="0.322807" stop-color="#235B95" />
      <stop offset="1" stop-color="#4381C0" />
    </linearGradient>
    <linearGradient id="paint15_linear_10566_29675" x1="157.411" y1="126.145" x2="104.451" y2="142.112"
      gradientUnits="userSpaceOnUse">
      <stop stop-color="#4381C0" />
      <stop offset="0.322807" stop-color="#235B95" />
      <stop offset="1" stop-color="#4381C0" />
    </linearGradient>
    <linearGradient id="paint16_linear_10566_29675" x1="231.437" y1="100.497" x2="184.774" y2="151.217"
      gradientUnits="userSpaceOnUse">
      <stop stop-color="#4381C0" />
      <stop offset="0.322807" stop-color="#235B95" />
      <stop offset="1" stop-color="#4381C0" />
    </linearGradient>
    <linearGradient id="paint17_linear_10566_29675" x1="223.051" y1="105.717" x2="203.221" y2="112.809"
      gradientUnits="userSpaceOnUse">
      <stop stop-color="#4381C0" />
      <stop offset="0.322807" stop-color="#235B95" />
      <stop offset="1" stop-color="#4381C0" />
    </linearGradient>
    <linearGradient id="paint18_linear_10566_29675" x1="263.5" y1="351.5" x2="64.5" y2="85"
      gradientUnits="userSpaceOnUse">
      <stop stop-color="#4381C0" />
      <stop offset="0.322807" stop-color="#235B95" />
      <stop offset="1" stop-color="#4381C0" />
    </linearGradient>
    <linearGradient id="paint19_linear_10566_29675" x1="263.5" y1="351.5" x2="64.5" y2="85"
      gradientUnits="userSpaceOnUse">
      <stop stop-color="#4381C0" />
      <stop offset="0.322807" stop-color="#235B95" />
      <stop offset="1" stop-color="#4381C0" />
    </linearGradient>
    <linearGradient id="paint20_linear_10566_29675" x1="263.5" y1="351.5" x2="64.5" y2="85"
      gradientUnits="userSpaceOnUse">
      <stop stop-color="#4381C0" />
      <stop offset="0.322807" stop-color="#235B95" />
      <stop offset="1" stop-color="#4381C0" />
    </linearGradient>
    <linearGradient id="paint21_linear_10566_29675" x1="263.5" y1="351.5" x2="64.5" y2="85"
      gradientUnits="userSpaceOnUse">
      <stop stop-color="#4381C0" />
      <stop offset="0.322807" stop-color="#235B95" />
      <stop offset="1" stop-color="#4381C0" />
    </linearGradient>
    <clipPath id="clip0_10566_29675">
      <rect width="150" height="120" fill="white" transform="translate(87.5 95)" />
    </clipPath>
  </defs>
</svg>