<svg width="320" height="320" viewBox="0 0 320 320" fill="none" xmlns="http://www.w3.org/2000/svg">
<path d="M43 36H279V208.339C279 210.105 278.157 211.8 276.657 213.049C275.157 214.298 273.122 215 271 215H51C48.8783 215 46.8434 214.298 45.3431 213.049C43.8429 211.8 43 210.105 43 208.339V36Z" fill="url(#paint0_linear_286_1424)"/>
<path d="M124 74C124 80.0751 119.075 85 113 85C106.925 85 102 80.0751 102 74C102 67.9249 106.925 63 113 63C119.075 63 124 67.9249 124 74Z" fill="#424242"/>
<path d="M156 74C156 80.0751 151.075 85 145 85C138.925 85 134 80.0751 134 74C134 67.9249 138.925 63 145 63C151.075 63 156 67.9249 156 74Z" fill="#424242"/>
<path d="M188 74C188 80.0751 183.075 85 177 85C170.925 85 166 80.0751 166 74C166 67.9249 170.925 63 177 63C183.075 63 188 67.9249 188 74Z" fill="#424242"/>
<path d="M220 74C220 80.0751 215.075 85 209 85C202.925 85 198 80.0751 198 74C198 67.9249 202.925 63 209 63C215.075 63 220 67.9249 220 74Z" fill="#424242"/>
<path d="M43 51H279V27C279 24.8783 278.157 22.8434 276.657 21.3431C275.157 19.8428 273.122 19 271 19H51C48.8783 19 46.8434 19.8428 45.3431 21.3431C43.8428 22.8434 43 24.8783 43 27V51Z" fill="#737373"/>
<path d="M92 35C92 34.2089 92.2346 33.4355 92.6741 32.7777C93.1137 32.1199 93.7383 31.6073 94.4692 31.3045C95.2001 31.0018 96.0044 30.9225 96.7803 31.0769C97.5563 31.2312 98.269 31.6122 98.8284 32.1716C99.3878 32.731 99.7688 33.4437 99.9232 34.2197C100.077 34.9956 99.9982 35.7999 99.6955 36.5308C99.3927 37.2617 98.8801 37.8863 98.2223 38.3259C97.5645 38.7654 96.7911 39 96 39C94.9391 39 93.9217 38.5786 93.1716 37.8284C92.4214 37.0783 92 36.0609 92 35ZM76 35C76 34.2089 76.2346 33.4355 76.6741 32.7777C77.1137 32.1199 77.7383 31.6073 78.4692 31.3045C79.2001 31.0018 80.0044 30.9225 80.7803 31.0769C81.5563 31.2312 82.269 31.6122 82.8284 32.1716C83.3878 32.731 83.7688 33.4437 83.9232 34.2197C84.0775 34.9956 83.9982 35.7999 83.6955 36.5308C83.3927 37.2617 82.8801 37.8863 82.2223 38.3259C81.5645 38.7654 80.7911 39 80 39C78.9391 39 77.9217 38.5786 77.1716 37.8284C76.4214 37.0783 76 36.0609 76 35ZM60 35C60 34.2089 60.2346 33.4355 60.6741 32.7777C61.1137 32.1199 61.7383 31.6073 62.4692 31.3045C63.2001 31.0018 64.0044 30.9225 64.7803 31.0769C65.5563 31.2312 66.269 31.6122 66.8284 32.1716C67.3878 32.731 67.7688 33.4437 67.9232 34.2197C68.0775 34.9956 67.9982 35.7999 67.6955 36.5308C67.3927 37.2617 66.8801 37.8863 66.2223 38.3259C65.5645 38.7654 64.7911 39 64 39C62.9391 39 61.9217 38.5786 61.1716 37.8284C60.4214 37.0783 60 36.0609 60 35Z" fill="#424242"/>
<path d="M173.642 211.795V198.104C173.642 192.706 169.251 188.314 163.853 188.314C158.455 188.314 154.063 192.706 154.063 198.104V210.465C154.063 225.36 148.576 239.662 138.611 250.734L124.871 266C123.717 267.282 123.821 269.258 125.104 270.412C126.386 271.567 128.361 271.463 129.516 270.18L143.255 254.914C154.254 242.692 160.312 226.907 160.312 210.465V198.104C160.312 196.152 161.9 194.563 163.853 194.563C165.805 194.563 167.394 196.152 167.394 198.104V211.795C167.394 230.125 160.603 247.69 148.272 261.254L134.88 275.986C133.719 277.262 133.813 279.239 135.09 280.399C135.689 280.944 136.441 281.212 137.19 281.212C138.04 281.212 138.887 280.867 139.503 280.189L152.896 265.457C166.274 250.741 173.642 231.683 173.642 211.795Z" fill="#525252"/>
<path d="M186.973 198.104C186.973 185.355 176.602 174.983 163.853 174.983C151.104 174.983 140.733 185.355 140.733 198.104V210.464C140.733 222.062 136.46 233.195 128.702 241.815L118.935 252.668C117.78 253.951 117.885 255.927 119.167 257.081C120.45 258.236 122.425 258.131 123.58 256.849L133.347 245.996C142.14 236.226 146.982 223.608 146.982 210.464V198.104C146.982 188.801 154.55 181.232 163.853 181.232C173.156 181.232 180.725 188.801 180.725 198.104V211.794C180.725 233.447 172.703 254.197 158.137 270.22L146.837 282.651C145.676 283.927 145.77 285.904 147.047 287.064C147.646 287.609 148.397 287.877 149.147 287.877C149.997 287.877 150.844 287.532 151.46 286.854L162.76 274.424C178.374 257.248 186.973 235.006 186.973 211.794V198.104Z" fill="#525252"/>
<path d="M200.304 198.102C200.304 198.102 200.304 198.102 200.304 198.102C200.304 178.003 183.953 161.651 163.853 161.651C143.754 161.651 127.403 178.003 127.403 198.102V210.463C127.403 218.761 124.345 226.728 118.794 232.896L109.999 242.668C108.845 243.951 108.949 245.926 110.232 247.081C111.514 248.235 113.49 248.13 114.644 246.849L123.439 237.076C130.025 229.759 133.651 220.307 133.651 210.463V198.102C133.651 181.448 147.2 167.9 163.853 167.9C180.507 167.9 194.056 181.448 194.056 198.102V211.793C194.056 236.77 184.802 260.704 168.001 279.186L164.873 282.626C163.713 283.903 163.807 285.879 165.084 287.039C165.682 287.583 166.435 287.852 167.184 287.852C168.034 287.852 168.88 287.507 169.497 286.829L172.624 283.389C190.473 263.754 200.304 238.328 200.304 211.793V198.102C200.304 198.102 200.304 198.102 200.304 198.102Z" fill="#525252"/>
<path d="M114.072 198.103C114.072 199.829 115.471 201.227 117.196 201.227C118.922 201.227 120.321 199.829 120.321 198.103C120.321 187.582 124.14 177.419 131.076 169.486C137.948 161.627 147.379 156.487 157.632 155.014C159.34 154.768 160.525 153.185 160.28 151.477C160.035 149.769 158.449 148.585 156.743 148.829C145.012 150.514 134.226 156.39 126.372 165.374C118.44 174.446 114.072 186.069 114.072 198.103Z" fill="#525252"/>
<path d="M120.321 210.465C120.321 208.739 118.922 207.341 117.197 207.341C115.472 207.341 114.073 208.739 114.073 210.465C114.073 215.465 112.231 220.264 108.887 223.98L101.064 232.673C99.9094 233.955 100.014 235.93 101.296 237.085C101.894 237.623 102.64 237.887 103.385 237.887C104.24 237.887 105.092 237.538 105.709 236.853L113.532 228.16C117.91 223.295 120.321 217.011 120.321 210.465Z" fill="#525252"/>
<path d="M207.502 238.356C205.832 237.921 204.126 238.919 203.688 240.587C202.535 244.994 201.1 249.376 199.423 253.609C198.787 255.213 199.572 257.029 201.177 257.664C201.554 257.814 201.943 257.885 202.327 257.885C203.57 257.885 204.746 257.137 205.232 255.91C207.002 251.443 208.517 246.82 209.734 242.169C210.17 240.5 209.171 238.793 207.502 238.356Z" fill="#525252"/>
<path d="M197.103 161.082C195.819 159.928 193.844 160.034 192.691 161.317C191.537 162.6 191.642 164.575 192.925 165.729C202.115 173.991 207.386 185.79 207.386 198.103V211.794C207.386 216.99 207.028 222.226 206.321 227.357C206.085 229.066 207.28 230.643 208.989 230.878C209.134 230.898 209.277 230.908 209.42 230.908C210.956 230.908 212.295 229.774 212.511 228.209C213.256 222.796 213.634 217.273 213.634 211.793V198.103C213.635 184.021 207.609 170.527 197.103 161.082Z" fill="#525252"/>
<path d="M182.497 158.768C182.931 158.975 183.388 159.072 183.838 159.072C185.006 159.072 186.126 158.415 186.661 157.29C187.403 155.733 186.741 153.868 185.184 153.127C180.682 150.983 175.898 149.537 170.963 148.829C169.253 148.585 167.672 149.769 167.427 151.477C167.181 153.184 168.367 154.768 170.075 155.014C174.386 155.633 178.565 156.896 182.497 158.768Z" fill="#525252"/>
<path d="M163.853 134.991C162.684 134.991 161.502 135.024 160.338 135.088C158.615 135.183 157.296 136.657 157.391 138.379C157.486 140.102 158.958 141.429 160.682 141.327C161.732 141.269 162.798 141.239 163.853 141.239C195.207 141.239 220.716 166.748 220.716 198.103V211.793C220.716 213.519 222.115 214.917 223.84 214.917C225.566 214.917 226.964 213.519 226.964 211.793V198.103C226.965 163.303 198.653 134.991 163.853 134.991Z" fill="#525252"/>
<path d="M129.693 151.945C130.308 151.945 130.93 151.764 131.474 151.386C136.672 147.771 142.381 145.073 148.442 143.363C150.103 142.895 151.07 141.169 150.602 139.508C150.134 137.848 148.407 136.882 146.747 137.349C140.015 139.247 133.676 142.243 127.906 146.255C126.49 147.24 126.14 149.187 127.125 150.604C127.732 151.478 128.704 151.945 129.693 151.945Z" fill="#525252"/>
<path d="M106.99 210.464V198.103C106.99 183.569 112.494 169.727 122.489 159.126C123.672 157.871 123.614 155.894 122.359 154.71C121.103 153.526 119.126 153.584 117.942 154.84C106.85 166.604 100.741 181.969 100.741 198.103V210.464C100.741 212.165 100.115 213.798 98.9775 215.061L95.125 219.342C93.9707 220.624 94.0748 222.6 95.3575 223.754C95.9544 224.292 96.7018 224.556 97.4466 224.556C98.3014 224.556 99.1529 224.208 99.7699 223.522L103.622 219.242C105.794 216.828 106.99 213.711 106.99 210.464Z" fill="#525252"/>
<path d="M236.328 173.777C232.902 163.593 227.456 154.393 220.142 146.432C218.974 145.161 216.998 145.077 215.727 146.245C214.457 147.412 214.373 149.388 215.54 150.659C222.258 157.972 227.26 166.42 230.406 175.769C230.845 177.074 232.063 177.898 233.367 177.898C233.697 177.898 234.033 177.845 234.364 177.734C235.999 177.184 236.879 175.412 236.328 173.777Z" fill="#525252"/>
<path d="M188.545 125.751C186.913 125.193 185.136 126.063 184.577 127.696C184.019 129.328 184.889 131.105 186.522 131.663C193.411 134.02 199.88 137.435 205.747 141.815C206.308 142.233 206.963 142.435 207.613 142.435C208.566 142.435 209.506 142.001 210.12 141.179C211.152 139.796 210.867 137.838 209.485 136.806C203.096 132.039 196.05 128.319 188.545 125.751Z" fill="#525252"/>
<path d="M115.308 147.451C128.45 134.85 145.691 127.91 163.853 127.91C167.226 127.91 170.617 128.153 173.933 128.631C175.642 128.88 177.225 127.693 177.472 125.985C177.718 124.277 176.534 122.693 174.826 122.447C171.215 121.926 167.523 121.661 163.853 121.661C144.071 121.661 125.295 129.218 110.983 142.941C96.7161 156.62 88.3724 174.978 87.4893 194.631C87.4118 196.355 88.7465 197.816 90.4699 197.893C90.5178 197.895 90.5653 197.896 90.6128 197.896C92.2737 197.896 93.6563 196.588 93.7317 194.912C94.542 176.869 102.205 160.014 115.308 147.451Z" fill="#525252"/>
<path d="M163.853 108.33C156.866 108.33 149.904 109.14 143.16 110.737C141.481 111.134 140.442 112.818 140.84 114.497C141.237 116.176 142.921 117.215 144.6 116.817C150.873 115.332 157.35 114.579 163.853 114.579C186.763 114.579 208.149 123.706 224.07 140.28C224.683 140.918 225.502 141.24 226.323 141.24C227.102 141.24 227.882 140.951 228.488 140.369C229.732 139.173 229.772 137.195 228.576 135.951C220.281 127.316 210.537 120.523 199.615 115.762C188.302 110.83 176.27 108.33 163.853 108.33Z" fill="#525252"/>
<path d="M93.6731 147.241C94.2446 147.689 94.9233 147.906 95.5973 147.906C96.525 147.906 97.4431 147.495 98.0593 146.708C106.964 135.334 118.686 126.413 131.959 120.908C133.553 120.247 134.31 118.419 133.649 116.825C132.987 115.231 131.159 114.474 129.566 115.136C115.302 121.052 102.705 130.637 93.1395 142.855C92.0755 144.214 92.3146 146.178 93.6731 147.241Z" fill="#525252"/>
<path d="M120.532 111.132C120.988 111.132 121.451 111.032 121.888 110.82C135.043 104.469 149.162 101.249 163.854 101.249C171.51 101.249 179.135 102.149 186.516 103.926C188.193 104.328 189.881 103.297 190.285 101.619C190.688 99.9415 189.656 98.2539 187.978 97.8502C180.118 95.959 172.002 95 163.854 95C148.214 95 133.181 98.4293 119.172 105.193C117.618 105.944 116.967 107.811 117.717 109.365C118.255 110.481 119.371 111.132 120.532 111.132Z" fill="#525252"/>
<path d="M199.575 108.075C202.796 109.357 205.984 110.832 209.051 112.457C209.517 112.704 210.017 112.821 210.511 112.821C211.63 112.821 212.713 112.218 213.274 111.159C214.082 109.635 213.501 107.744 211.976 106.936C208.711 105.206 205.317 103.635 201.887 102.269C200.283 101.631 198.466 102.413 197.828 104.016C197.19 105.619 197.972 107.436 199.575 108.075Z" fill="#525252"/>
<g clip-path="url(#clip0_286_1424)">
<path d="M173.643 211.795V198.104C173.643 192.706 169.252 188.314 163.854 188.314C158.456 188.314 154.064 192.706 154.064 198.104V210.465C154.064 225.36 148.577 239.662 138.612 250.734L124.872 266C123.718 267.282 123.822 269.258 125.105 270.412C126.387 271.567 128.362 271.463 129.517 270.18L143.256 254.914C154.255 242.692 160.313 226.907 160.313 210.465V198.104C160.313 196.152 161.901 194.563 163.854 194.563C165.806 194.563 167.395 196.152 167.395 198.104V211.795C167.395 230.125 160.604 247.69 148.273 261.254L134.881 275.986C133.72 277.262 133.814 279.239 135.091 280.399C135.69 280.944 136.442 281.212 137.191 281.212C138.041 281.212 138.888 280.867 139.504 280.189L152.896 265.457C166.275 250.741 173.643 231.683 173.643 211.795Z" fill="url(#paint1_linear_286_1424)"/>
<path d="M186.973 198.105C186.973 185.356 176.602 174.984 163.853 174.984C151.104 174.984 140.733 185.356 140.733 198.105V210.465C140.733 222.062 136.46 233.196 128.702 241.816L118.935 252.669C117.78 253.952 117.885 255.928 119.167 257.082C120.45 258.237 122.425 258.132 123.58 256.85L133.347 245.997C142.14 236.227 146.982 223.609 146.982 210.465V198.105C146.982 188.801 154.55 181.233 163.853 181.233C173.156 181.233 180.725 188.801 180.725 198.105V211.795C180.725 233.448 172.703 254.198 158.137 270.221L146.837 282.652C145.676 283.928 145.77 285.905 147.047 287.065C147.646 287.61 148.397 287.878 149.147 287.878C149.997 287.878 150.844 287.533 151.46 286.855L162.76 274.424C178.374 257.249 186.973 235.007 186.973 211.795V198.105Z" fill="url(#paint2_linear_286_1424)"/>
<path d="M200.304 198.102C200.304 178.003 183.953 161.651 163.853 161.651C143.754 161.651 127.403 178.003 127.403 198.102V210.463C127.403 218.761 124.345 226.728 118.794 232.896L109.999 242.668C108.845 243.951 108.949 245.926 110.232 247.081C111.514 248.235 113.49 248.13 114.644 246.849L123.439 237.076C130.025 229.759 133.651 220.307 133.651 210.463V198.102C133.651 181.448 147.2 167.9 163.853 167.9C180.507 167.9 194.056 181.448 194.056 198.102V211.793C194.056 236.77 184.802 260.704 168.001 279.186L164.873 282.626C163.713 283.903 163.807 285.879 165.084 287.039C165.682 287.583 166.435 287.852 167.184 287.852C168.034 287.852 168.88 287.507 169.497 286.829L172.624 283.389C190.473 263.754 200.304 238.328 200.304 211.793V198.102H200.304Z" fill="url(#paint3_linear_286_1424)"/>
<path d="M114.072 198.103C114.072 199.829 115.471 201.227 117.197 201.227C118.922 201.227 120.321 199.829 120.321 198.103C120.321 187.582 124.141 177.419 131.077 169.486C137.948 161.626 147.379 156.487 157.632 155.014C159.34 154.768 160.526 153.184 160.28 151.477C160.035 149.769 158.45 148.585 156.743 148.829C145.012 150.514 134.226 156.39 126.372 165.374C118.441 174.445 114.072 186.069 114.072 198.103Z" fill="url(#paint4_linear_286_1424)"/>
<path d="M120.321 210.465C120.321 208.739 118.922 207.341 117.197 207.341C115.472 207.341 114.073 208.739 114.073 210.465C114.073 215.465 112.231 220.264 108.887 223.98L101.064 232.673C99.9094 233.955 100.014 235.931 101.296 237.085C101.894 237.623 102.64 237.887 103.385 237.887C104.24 237.887 105.092 237.538 105.709 236.853L113.532 228.16C117.91 223.295 120.321 217.011 120.321 210.465Z" fill="url(#paint5_linear_286_1424)"/>
<path d="M197.103 161.082C195.819 159.928 193.844 160.034 192.691 161.317C191.537 162.6 191.642 164.575 192.925 165.729C202.115 173.991 207.386 185.79 207.386 198.103V211.794C207.386 216.99 207.028 222.226 206.321 227.357C206.085 229.066 207.28 230.643 208.989 230.878C209.134 230.898 209.277 230.908 209.42 230.908C210.956 230.908 212.295 229.774 212.511 228.209C213.256 222.796 213.634 217.273 213.634 211.793V198.103C213.635 184.021 207.609 170.527 197.103 161.082Z" fill="url(#paint6_linear_286_1424)"/>
<path d="M182.496 158.768C182.93 158.975 183.387 159.072 183.837 159.072C185.005 159.072 186.125 158.415 186.66 157.29C187.402 155.733 186.74 153.868 185.183 153.127C180.681 150.983 175.897 149.537 170.962 148.829C169.252 148.585 167.671 149.769 167.426 151.477C167.18 153.184 168.366 154.768 170.074 155.014C174.385 155.633 178.564 156.896 182.496 158.768Z" fill="url(#paint7_linear_286_1424)"/>
<path d="M163.854 134.991C162.685 134.991 161.503 135.024 160.339 135.088C158.616 135.183 157.297 136.657 157.392 138.379C157.487 140.102 158.959 141.429 160.683 141.327C161.733 141.269 162.799 141.239 163.854 141.239C195.208 141.239 220.717 166.748 220.717 198.103V211.793C220.717 213.519 222.116 214.917 223.841 214.917C225.567 214.917 226.965 213.519 226.965 211.793V198.103C226.966 163.303 198.654 134.991 163.854 134.991Z" fill="url(#paint8_linear_286_1424)"/>
<path d="M129.692 151.944C130.307 151.944 130.929 151.763 131.473 151.385C136.671 147.77 142.38 145.072 148.441 143.362C150.102 142.894 151.069 141.168 150.601 139.507C150.133 137.847 148.406 136.881 146.746 137.348C140.014 139.246 133.675 142.242 127.905 146.254C126.489 147.239 126.139 149.186 127.124 150.603C127.731 151.477 128.703 151.944 129.692 151.944Z" fill="url(#paint9_linear_286_1424)"/>
<path d="M106.99 210.464V198.103C106.99 183.569 112.494 169.727 122.489 159.126C123.672 157.871 123.614 155.894 122.359 154.71C121.103 153.526 119.126 153.584 117.942 154.84C106.85 166.604 100.741 181.969 100.741 198.103V210.464C100.741 212.165 100.115 213.798 98.9775 215.061L95.125 219.342C93.9707 220.624 94.0748 222.6 95.3575 223.754C95.9544 224.292 96.7018 224.556 97.4466 224.556C98.3014 224.556 99.1529 224.208 99.7699 223.522L103.622 219.242C105.794 216.828 106.99 213.711 106.99 210.464Z" fill="url(#paint10_linear_286_1424)"/>
<path d="M236.329 173.777C232.902 163.593 227.456 154.393 220.142 146.432C218.974 145.161 216.998 145.077 215.728 146.245C214.457 147.412 214.373 149.389 215.541 150.66C222.259 157.972 227.261 166.421 230.407 175.769C230.846 177.075 232.063 177.898 233.367 177.898C233.698 177.898 234.034 177.845 234.364 177.734C235.999 177.184 236.879 175.412 236.329 173.777Z" fill="url(#paint11_linear_286_1424)"/>
<path d="M188.545 125.751C186.913 125.193 185.136 126.063 184.577 127.696C184.019 129.328 184.889 131.105 186.522 131.663C193.411 134.02 199.88 137.435 205.747 141.815C206.308 142.233 206.963 142.435 207.613 142.435C208.566 142.435 209.506 142.001 210.12 141.179C211.152 139.796 210.867 137.838 209.485 136.806C203.096 132.039 196.05 128.319 188.545 125.751Z" fill="url(#paint12_linear_286_1424)"/>
<path d="M115.308 147.451C128.451 134.85 145.691 127.91 163.854 127.91C167.226 127.91 170.618 128.153 173.933 128.631C175.642 128.88 177.225 127.693 177.472 125.985C177.719 124.277 176.534 122.693 174.826 122.447C171.215 121.926 167.524 121.661 163.854 121.661C144.071 121.661 125.295 129.218 110.983 142.941C96.7164 156.62 88.3727 174.978 87.4895 194.632C87.4121 196.355 88.7468 197.816 90.4702 197.893C90.5181 197.895 90.5656 197.896 90.6131 197.896C92.274 197.896 93.6566 196.588 93.732 194.912C94.5422 176.869 102.205 160.014 115.308 147.451Z" fill="url(#paint13_linear_286_1424)"/>
<path d="M163.853 108.33C156.866 108.33 149.904 109.14 143.16 110.737C141.481 111.134 140.442 112.818 140.84 114.497C141.237 116.176 142.921 117.215 144.6 116.817C150.873 115.332 157.35 114.579 163.853 114.579C186.763 114.579 208.149 123.706 224.07 140.28C224.683 140.918 225.502 141.24 226.323 141.24C227.102 141.24 227.882 140.951 228.488 140.369C229.732 139.173 229.772 137.195 228.576 135.951C220.281 127.316 210.537 120.523 199.615 115.762C188.302 110.83 176.27 108.33 163.853 108.33Z" fill="url(#paint14_linear_286_1424)"/>
<path d="M93.6729 147.241C94.2444 147.689 94.923 147.906 95.597 147.906C96.5248 147.906 97.4429 147.495 98.059 146.708C106.963 135.334 118.686 126.413 131.959 120.908C133.553 120.247 134.309 118.419 133.648 116.825C132.987 115.231 131.158 114.474 129.565 115.136C115.301 121.052 102.705 130.637 93.1392 142.855C92.0753 144.214 92.3144 146.178 93.6729 147.241Z" fill="url(#paint15_linear_286_1424)"/>
<path d="M120.532 111.132C120.988 111.132 121.451 111.032 121.888 110.82C135.043 104.469 149.162 101.249 163.854 101.249C171.51 101.249 179.135 102.149 186.516 103.926C188.193 104.328 189.881 103.297 190.285 101.619C190.688 99.9415 189.656 98.2539 187.978 97.8502C180.118 95.959 172.002 95 163.854 95C148.214 95 133.181 98.4293 119.172 105.193C117.618 105.944 116.967 107.811 117.717 109.365C118.255 110.481 119.371 111.132 120.532 111.132Z" fill="url(#paint16_linear_286_1424)"/>
<path d="M199.575 108.074C202.796 109.356 205.984 110.831 209.051 112.456C209.517 112.703 210.017 112.82 210.511 112.82C211.63 112.82 212.713 112.217 213.274 111.158C214.082 109.634 213.501 107.743 211.976 106.935C208.711 105.205 205.317 103.634 201.887 102.269C200.283 101.63 198.466 102.412 197.828 104.015C197.19 105.618 197.972 107.435 199.575 108.074Z" fill="url(#paint17_linear_286_1424)"/>
</g>
<path d="M59 215.5H259.5" stroke="#04975A" stroke-width="4" stroke-linecap="round"/>
<path d="M295.56 161.605C299.976 160.211 301.951 159.668 303.984 158.7C303.984 155.407 307.18 144.872 307.18 136.04C307.18 125.001 302.532 114.253 284.811 92.7554C270.634 75.5575 237.749 76.487 223.805 78.811C222.643 81.7161 221.597 87.5263 220.9 89.8503C220.029 92.7554 220.61 102.342 231.649 102.342H250.241C260.409 102.342 281.325 106.409 281.325 134.298V151.728C281.325 161.896 290.04 163.348 295.56 161.605Z" fill="#0A7147"/>
<path d="M28.5004 229.395C24.0847 230.789 22.1095 231.331 20.076 232.3C20.076 235.592 16.8802 246.128 16.8802 254.959C16.8802 265.998 21.5285 276.747 39.2493 298.244C53.426 315.442 86.3112 314.513 100.255 312.189C101.417 309.284 102.463 303.473 103.16 301.149C104.032 298.244 103.451 288.658 92.4116 288.658H73.8192C63.6515 288.658 42.7352 284.59 42.7352 256.702V239.272C42.7352 229.104 34.02 227.652 28.5004 229.395Z" fill="#0A7147"/>
<path d="M28.4993 161.605C24.0835 160.211 22.1083 159.668 20.0748 158.7C20.0748 155.407 16.8789 144.872 16.8789 136.04C16.8789 125.001 21.5273 114.253 39.2484 92.7554C53.4252 75.5575 86.3109 76.487 100.255 78.811C101.417 81.7161 102.463 87.5263 103.16 89.8503C104.032 92.7554 103.451 102.342 92.4114 102.342H73.8188C63.6509 102.342 42.7343 106.409 42.7343 134.298V151.728C42.7343 161.896 34.019 163.348 28.4993 161.605Z" fill="#0A7147"/>
<path d="M295.561 229.395C299.977 230.789 301.952 231.331 303.986 232.3C303.986 235.592 307.182 246.128 307.182 254.959C307.182 265.998 302.533 276.747 284.812 298.244C270.635 315.442 237.75 314.513 223.805 312.189C222.643 309.284 221.597 303.473 220.9 301.149C220.029 298.244 220.61 288.658 231.649 288.658H250.242C260.41 288.658 281.326 284.591 281.326 256.702V239.272C281.326 229.104 290.041 227.652 295.561 229.395Z" fill="#0A7147"/>
<path d="M310.665 127.615V148.531C310.665 163.638 289.167 162.476 289.167 148.531V127.615C289.167 109.894 278.709 93.9164 254.016 93.9164H233.681C219.737 93.9164 218.865 73 233.681 73H254.016C288.877 73 310.665 96.8214 310.665 127.615Z" fill="url(#paint18_linear_286_1424)"/>
<path d="M13.3963 263.385L13.3963 242.469C13.3963 227.362 34.8937 228.524 34.8937 242.469V263.385C34.8937 281.106 45.3519 297.084 70.0448 297.084L90.3802 297.084C104.324 297.084 105.196 318 90.3802 318H70.0448C35.1842 318 13.3963 294.179 13.3963 263.385Z" fill="url(#paint19_linear_286_1424)"/>
<path d="M13.3945 127.615V148.531C13.3945 163.638 34.8922 162.476 34.8922 148.531V127.615C34.8922 109.894 45.3506 93.9164 70.0439 93.9164H90.3796C104.324 93.9164 105.195 73 90.3796 73H70.0439C35.1827 73 13.3945 96.8214 13.3945 127.615Z" fill="url(#paint20_linear_286_1424)"/>
<path d="M310.667 263.385V242.469C310.667 227.362 289.169 228.524 289.169 242.469V263.385C289.169 281.106 278.711 297.084 254.017 297.084H233.682C219.737 297.084 218.866 318 233.682 318H254.017C288.878 318 310.667 294.179 310.667 263.385Z" fill="url(#paint21_linear_286_1424)"/>
<path d="M92 80H70.5" stroke="#0ADD84" stroke-width="8" stroke-linecap="round"/>
<path d="M242 80H235.5" stroke="#0ADD84" stroke-width="8" stroke-linecap="round"/>
<defs>
<linearGradient id="paint0_linear_286_1424" x1="74.4834" y1="230" x2="154.31" y2="1.95494" gradientUnits="userSpaceOnUse">
<stop stop-color="#424242"/>
<stop offset="1" stop-color="#525252"/>
</linearGradient>
<linearGradient id="paint1_linear_286_1424" x1="201.203" y1="219.971" x2="133.165" y2="228.696" gradientUnits="userSpaceOnUse">
<stop stop-color="#01B86C"/>
<stop offset="0.322807" stop-color="#058751"/>
<stop offset="1" stop-color="#01B86C"/>
</linearGradient>
<linearGradient id="paint2_linear_286_1424" x1="225.245" y1="213.454" x2="131.227" y2="227.231" gradientUnits="userSpaceOnUse">
<stop stop-color="#01B86C"/>
<stop offset="0.322807" stop-color="#058751"/>
<stop offset="1" stop-color="#01B86C"/>
</linearGradient>
<linearGradient id="paint3_linear_286_1424" x1="250.955" y1="204.656" x2="127.569" y2="226.062" gradientUnits="userSpaceOnUse">
<stop stop-color="#01B86C"/>
<stop offset="0.322807" stop-color="#058751"/>
<stop offset="1" stop-color="#01B86C"/>
</linearGradient>
<linearGradient id="paint4_linear_286_1424" x1="186.019" y1="166.663" x2="124.285" y2="179.747" gradientUnits="userSpaceOnUse">
<stop stop-color="#01B86C"/>
<stop offset="0.322807" stop-color="#058751"/>
<stop offset="1" stop-color="#01B86C"/>
</linearGradient>
<linearGradient id="paint5_linear_286_1424" x1="131.473" y1="217.75" x2="104.169" y2="222.059" gradientUnits="userSpaceOnUse">
<stop stop-color="#01B86C"/>
<stop offset="0.322807" stop-color="#058751"/>
<stop offset="1" stop-color="#01B86C"/>
</linearGradient>
<linearGradient id="paint6_linear_286_1424" x1="225.723" y1="184.348" x2="195.553" y2="186.58" gradientUnits="userSpaceOnUse">
<stop stop-color="#01B86C"/>
<stop offset="0.322807" stop-color="#058751"/>
<stop offset="1" stop-color="#01B86C"/>
</linearGradient>
<linearGradient id="paint7_linear_286_1424" x1="197.845" y1="152.298" x2="175.271" y2="162.631" gradientUnits="userSpaceOnUse">
<stop stop-color="#01B86C"/>
<stop offset="0.322807" stop-color="#058751"/>
<stop offset="1" stop-color="#01B86C"/>
</linearGradient>
<linearGradient id="paint8_linear_286_1424" x1="265.647" y1="162.227" x2="172.651" y2="181.682" gradientUnits="userSpaceOnUse">
<stop stop-color="#01B86C"/>
<stop offset="0.322807" stop-color="#058751"/>
<stop offset="1" stop-color="#01B86C"/>
</linearGradient>
<linearGradient id="paint9_linear_286_1424" x1="164.147" y1="142.244" x2="134.988" y2="153.747" gradientUnits="userSpaceOnUse">
<stop stop-color="#01B86C"/>
<stop offset="0.322807" stop-color="#058751"/>
<stop offset="1" stop-color="#01B86C"/>
</linearGradient>
<linearGradient id="paint10_linear_286_1424" x1="139.472" y1="177.95" x2="99.3814" y2="181.904" gradientUnits="userSpaceOnUse">
<stop stop-color="#01B86C"/>
<stop offset="0.322807" stop-color="#058751"/>
<stop offset="1" stop-color="#01B86C"/>
</linearGradient>
<linearGradient id="paint11_linear_286_1424" x1="248.599" y1="156.488" x2="218.989" y2="161.259" gradientUnits="userSpaceOnUse">
<stop stop-color="#01B86C"/>
<stop offset="0.322807" stop-color="#058751"/>
<stop offset="1" stop-color="#01B86C"/>
</linearGradient>
<linearGradient id="paint12_linear_286_1424" x1="225.38" y1="131.325" x2="193.184" y2="143.414" gradientUnits="userSpaceOnUse">
<stop stop-color="#01B86C"/>
<stop offset="0.322807" stop-color="#058751"/>
<stop offset="1" stop-color="#01B86C"/>
</linearGradient>
<linearGradient id="paint13_linear_286_1424" x1="227.55" y1="147.639" x2="111.327" y2="180.619" gradientUnits="userSpaceOnUse">
<stop stop-color="#01B86C"/>
<stop offset="0.322807" stop-color="#058751"/>
<stop offset="1" stop-color="#01B86C"/>
</linearGradient>
<linearGradient id="paint14_linear_286_1424" x1="278.756" y1="119.545" x2="191.587" y2="175.999" gradientUnits="userSpaceOnUse">
<stop stop-color="#01B86C"/>
<stop offset="0.322807" stop-color="#058751"/>
<stop offset="1" stop-color="#01B86C"/>
</linearGradient>
<linearGradient id="paint15_linear_286_1424" x1="156.911" y1="126.145" x2="103.951" y2="142.112" gradientUnits="userSpaceOnUse">
<stop stop-color="#01B86C"/>
<stop offset="0.322807" stop-color="#058751"/>
<stop offset="1" stop-color="#01B86C"/>
</linearGradient>
<linearGradient id="paint16_linear_286_1424" x1="230.937" y1="100.497" x2="184.274" y2="151.217" gradientUnits="userSpaceOnUse">
<stop stop-color="#01B86C"/>
<stop offset="0.322807" stop-color="#058751"/>
<stop offset="1" stop-color="#01B86C"/>
</linearGradient>
<linearGradient id="paint17_linear_286_1424" x1="222.551" y1="105.717" x2="202.721" y2="112.809" gradientUnits="userSpaceOnUse">
<stop stop-color="#01B86C"/>
<stop offset="0.322807" stop-color="#058751"/>
<stop offset="1" stop-color="#01B86C"/>
</linearGradient>
<linearGradient id="paint18_linear_286_1424" x1="263" y1="351.5" x2="64" y2="85" gradientUnits="userSpaceOnUse">
<stop stop-color="#01B86C"/>
<stop offset="0.322807" stop-color="#058751"/>
<stop offset="1" stop-color="#01B86C"/>
</linearGradient>
<linearGradient id="paint19_linear_286_1424" x1="263" y1="351.5" x2="64" y2="85" gradientUnits="userSpaceOnUse">
<stop stop-color="#01B86C"/>
<stop offset="0.322807" stop-color="#058751"/>
<stop offset="1" stop-color="#01B86C"/>
</linearGradient>
<linearGradient id="paint20_linear_286_1424" x1="263" y1="351.5" x2="64" y2="85" gradientUnits="userSpaceOnUse">
<stop stop-color="#01B86C"/>
<stop offset="0.322807" stop-color="#058751"/>
<stop offset="1" stop-color="#01B86C"/>
</linearGradient>
<linearGradient id="paint21_linear_286_1424" x1="263" y1="351.5" x2="64" y2="85" gradientUnits="userSpaceOnUse">
<stop stop-color="#01B86C"/>
<stop offset="0.322807" stop-color="#058751"/>
<stop offset="1" stop-color="#01B86C"/>
</linearGradient>
<clipPath id="clip0_286_1424">
<rect width="150" height="120" fill="white" transform="translate(87 95)"/>
</clipPath>
</defs>
</svg>
