<svg xmlns="http://www.w3.org/2000/svg" width="18" height="17" viewBox="0 0 18 17" fill="none">
    <path d="M7.9987 14.6663C11.6806 14.6663 14.6654 11.6816 14.6654 7.99967C14.6654 4.31778 11.6806 1.33301 7.9987 1.33301C4.3168 1.33301 1.33203 4.31778 1.33203 7.99967C1.33203 11.6816 4.3168 14.6663 7.9987 14.6663Z" stroke="currentColor" stroke-width="1.5" stroke-linecap="round" stroke-linejoin="round"/>
    <path d="M1.33203 8H14.6654" stroke="currentColor" stroke-width="1.5" stroke-linecap="round" stroke-linejoin="round"/>
    <path d="M7.9987 1.33301C9.66622 3.15858 10.6139 5.5277 10.6654 7.99967C10.6139 10.4717 9.66622 12.8408 7.9987 14.6663C6.33118 12.8408 5.38353 10.4717 5.33203 7.99967C5.38353 5.5277 6.33118 3.15858 7.9987 1.33301Z" stroke="currentColor" stroke-width="1.5" stroke-linecap="round" stroke-linejoin="round"/>
    <circle cx="12.8906" cy="12" r="4" fill="currentColor" stroke="white" stroke-width="1.5"/>
</svg>