<svg width="21" height="20" viewBox="0 0 21 20" fill="none" xmlns="http://www.w3.org/2000/svg">
<path d="M3 8.80384C3 8.32521 3 8.0859 3.06169 7.86551C3.11633 7.67029 3.20614 7.48667 3.32669 7.32368C3.46278 7.13968 3.65168 6.99275 4.02949 6.6989L9.68141 2.30297C9.97418 2.07526 10.1206 1.9614 10.2822 1.91763C10.4248 1.87902 10.5752 1.87902 10.7178 1.91763C10.8794 1.9614 11.0258 2.07526 11.3186 2.30297L16.9705 6.6989C17.3483 6.99275 17.5372 7.13968 17.6733 7.32368C17.7939 7.48667 17.8837 7.67029 17.9383 7.86551C18 8.0859 18 8.32521 18 8.80384V14.833C18 15.7664 18 16.2331 17.8183 16.5896C17.6586 16.9032 17.4036 17.1582 17.09 17.318C16.7335 17.4996 16.2668 17.4996 15.3333 17.4996H5.66667C4.73325 17.4996 4.26654 17.4996 3.91002 17.318C3.59641 17.1582 3.34144 16.9032 3.18166 16.5896C3 16.2331 3 15.7664 3 14.833V8.80384Z" fill="currentColor" stroke="currentColor" stroke-linecap="round" stroke-linejoin="round"/>
<path id="home-line" d="M7.16602 14.167H13.8327" stroke="white" stroke-width="1.5" stroke-linecap="round" stroke-linejoin="round"/>
</svg>
