<svg xmlns="http://www.w3.org/2000/svg" width="24" height="24" viewBox="0 0 24 24" fill="none">
  <path fill-rule="evenodd" clip-rule="evenodd" d="M21.7071 2.29289C22.0976 2.68342 22.0976 3.31658 21.7071 3.70711L21.1642 4.24999L22.789 5.87475C23.57 6.6558 23.57 7.92213 22.789 8.70317L20.3126 11.1796C19.5315 11.9606 18.2652 11.9606 17.4842 11.1796L15.8594 9.55482L12.7489 12.6653C13.5356 13.7403 14 15.0659 14 16.5C14 20.0899 11.0899 23 7.5 23C3.91015 23 1 20.0899 1 16.5C1 12.9101 3.91015 10 7.5 10C8.9341 10 10.2597 10.4644 11.3347 11.2511L20.2929 2.29289C20.6834 1.90237 21.3166 1.90237 21.7071 2.29289ZM17.2736 8.14061L18.8984 9.76537L21.3748 7.28896L19.75 5.6642L17.2736 8.14061ZM7.5 12C5.01472 12 3 14.0147 3 16.5C3 18.9853 5.01472 21 7.5 21C9.98528 21 12 18.9853 12 16.5C12 14.0147 9.98528 12 7.5 12Z" fill="currentColor"/>
</svg>