<svg width="210" height="120" viewBox="0 0 210 120" fill="none" xmlns="http://www.w3.org/2000/svg">
<path d="M0.386719 19.5218V42.3507C0.386719 48.5641 5.42365 53.6011 11.637 53.6011H51.8908C53.3722 53.6011 54.8389 53.3085 56.2069 52.7402L163.25 8.27148H11.637C5.42366 8.27148 0.386719 13.3084 0.386719 19.5218Z" fill="url(#paint0_linear_368_1768)"/>
<path d="M45.0684 23.6095V39.557C45.0684 42.6636 47.5868 45.1821 50.6935 45.1821H74.3966L139.937 17.9844H50.6935C47.5868 17.9844 45.0684 20.5028 45.0684 23.6095Z" fill="url(#paint1_linear_368_1768)"/>
<path d="M9.74387 84.5765C8.15189 80.7524 9.96139 76.3618 13.7855 74.7698L171.265 9.21115C182.821 4.40037 196.089 9.86849 200.9 21.4245C205.71 32.9806 200.242 46.2485 188.686 51.0593L31.2069 116.618C27.3828 118.21 22.9922 116.4 21.4002 112.576L9.74387 84.5765Z" fill="url(#paint2_linear_368_1768)"/>
<g clip-path="url(#clip0_368_1768)">
<path d="M91.72 79.0787L92.3231 80.5112L102.192 76.3567L99.4721 69.8958L98.0343 70.5011L100.151 75.5295L91.72 79.0787ZM82.7439 57.7565L83.347 59.189L91.778 55.6398L93.895 60.6684L95.3328 60.0631L92.6128 53.6019L82.7439 57.7565ZM82.32 70.9816L80.9186 67.6528L83.1744 66.7031C84.2741 66.2402 84.8226 66.4391 85.2425 67.4365L85.4908 68.0264C85.9225 69.0517 85.6896 69.5631 84.5758 70.032L82.32 70.9816ZM86.1491 70.064C87.0659 69.3639 87.3826 68.106 86.9037 66.9685C86.6022 66.2522 86.0483 65.7246 85.2937 65.4303C84.3451 65.0689 83.3065 65.1259 82.1365 65.6185L78.9644 66.9538L83.1036 76.7861L84.5136 76.1925L82.864 72.2738L84.9788 71.3835C86.0642 70.9266 86.6907 71.1919 87.1638 72.3159L88.1513 74.6616L89.5891 74.0563L88.6962 71.9353C88.0458 70.3902 87.431 69.9546 86.232 70.2609L86.1491 70.064ZM74.4143 75.3843L78.7568 73.5562L78.2128 72.264L73.8704 74.0921L72.6286 71.1423L77.3938 69.1362L76.8498 67.844L70.6464 70.4555L74.7855 80.2878L81.2005 77.5873L80.6566 76.2951L75.6798 78.3902L74.4143 75.3843ZM69.9098 77.8925L70.1936 78.5666C70.7909 79.9853 70.4644 80.6686 69.1534 81.2205L68.8433 81.351C67.5318 81.9031 66.72 81.7486 65.8981 79.7962L64.7864 77.1554C63.9586 75.1891 64.4497 74.5025 65.7608 73.9506L66.0426 73.832C67.3256 73.2919 67.9355 73.5974 68.5053 74.9119L70.0561 74.259C69.0993 72.3799 67.2879 71.7041 65.3422 72.5232C64.3978 72.9208 63.7324 73.5482 63.3767 74.3591C62.8374 75.5619 62.9352 77.1743 63.763 79.1407C64.5613 81.0369 65.5758 82.2635 66.8162 82.7662C67.6508 83.0929 68.5988 83.0576 69.4023 82.7193C70.2482 82.3632 70.8819 81.6994 70.969 80.8031L71.1661 80.7201L71.5564 81.6472L72.8534 81.1012L70.7189 76.0307L66.8982 77.6391L67.4421 78.9313L69.9098 77.8925ZM55.4706 78.3654L57.0075 77.7183C58.4598 77.107 59.4031 77.1397 60.231 79.1063L61.319 81.6907C62.1468 83.657 61.511 84.3549 60.0587 84.9663L58.5218 85.6133L55.4706 78.3654ZM60.7294 86.2055C63.4224 85.0718 63.5658 82.6138 62.3537 79.7344C61.1237 76.8127 59.2125 75.2693 56.5619 76.3851L53.5165 77.6672L57.6557 87.4995L60.7294 86.2055ZM49.0369 86.0676L53.3793 84.2395L52.8353 82.9473L48.4929 84.7754L47.2511 81.8256L52.0163 79.8195L51.4723 78.5273L45.2687 81.1389L49.4079 90.9712L55.8231 88.2706L55.2791 86.9784L50.3023 89.0735L49.0369 86.0676ZM38.389 84.0351L36.951 84.6404L41.0902 94.4727L47.5756 91.7426L47.0316 90.4504L41.9842 92.5752L38.389 84.0351ZM31.207 98.6337L33.927 105.095L43.796 100.94L43.1928 99.5075L34.7618 103.057L32.6449 98.0284L31.207 98.6337ZM24.3477 82.3398L27.0677 88.8011L28.5056 88.1958L26.3887 83.1671L34.8198 79.6178L34.2167 78.1852L24.3477 82.3398Z" fill="#525252"/>
</g>
<ellipse cx="21.7002" cy="30.79" rx="15.1455" ry="15.1455" fill="url(#paint3_linear_368_1768)"/>
<ellipse cx="21.7006" cy="30.7904" rx="12.9818" ry="12.9818" fill="url(#paint4_linear_368_1768)"/>
<ellipse cx="178.94" cy="30.7603" rx="17.3091" ry="17.3091" fill="#A3A3A3"/>
<ellipse cx="178.72" cy="30.54" rx="15.1455" ry="15.1455" fill="url(#paint5_linear_368_1768)"/>
<ellipse cx="178.564" cy="30.7904" rx="12.9818" ry="12.9818" fill="url(#paint6_linear_368_1768)"/>
<defs>
<linearGradient id="paint0_linear_368_1768" x1="66.6328" y1="66.8222" x2="66.6327" y2="10.9157" gradientUnits="userSpaceOnUse">
<stop stop-color="#01B86C"/>
<stop offset="0.322807" stop-color="#058751"/>
<stop offset="1" stop-color="#01B86C"/>
</linearGradient>
<linearGradient id="paint1_linear_368_1768" x1="101.292" y1="38.9371" x2="96.9529" y2="22.065" gradientUnits="userSpaceOnUse">
<stop stop-color="#0B5C3C"/>
<stop offset="1" stop-color="#0A7147"/>
</linearGradient>
<linearGradient id="paint2_linear_368_1768" x1="118.89" y1="33.2024" x2="151.916" y2="119.652" gradientUnits="userSpaceOnUse">
<stop stop-color="#E5E5E5"/>
<stop offset="1" stop-color="#A3A3A3"/>
</linearGradient>
<linearGradient id="paint3_linear_368_1768" x1="30.2195" y1="45.9354" x2="10.8378" y2="14.7815" gradientUnits="userSpaceOnUse">
<stop stop-color="#01B86C"/>
<stop offset="0.322807" stop-color="#058751"/>
<stop offset="1" stop-color="#01B86C"/>
</linearGradient>
<linearGradient id="paint4_linear_368_1768" x1="24.1061" y1="37.8106" x2="15.5706" y2="28.2957" gradientUnits="userSpaceOnUse">
<stop stop-color="#0B5C3C"/>
<stop offset="1" stop-color="#0A7147"/>
</linearGradient>
<linearGradient id="paint5_linear_368_1768" x1="187.239" y1="45.6854" x2="167.857" y2="14.5315" gradientUnits="userSpaceOnUse">
<stop stop-color="#01B86C"/>
<stop offset="0.322807" stop-color="#058751"/>
<stop offset="1" stop-color="#01B86C"/>
</linearGradient>
<linearGradient id="paint6_linear_368_1768" x1="180.969" y1="37.8106" x2="172.434" y2="28.2957" gradientUnits="userSpaceOnUse">
<stop stop-color="#0B5C3C"/>
<stop offset="1" stop-color="#0A7147"/>
</linearGradient>
<clipPath id="clip0_368_1768">
<rect width="74.0679" height="24.6893" fill="white" transform="matrix(0.921661 -0.387997 0.387998 0.92166 24.3477 82.3398)"/>
</clipPath>
</defs>
</svg>
