<svg xmlns="http://www.w3.org/2000/svg" width="14" height="14" viewBox="0 0 14 14" fill="none">
    <path fill-rule="evenodd" clip-rule="evenodd" d="M10.5 14.0002V10.5006H13.9995V11.3756C13.9995 12.8253 12.8246 14.0002 11.3749 14.0002H10.5ZM5.25 14.0002V10.5006H8.75034V14.0002H5.25ZM2.62546 14.0002C1.1757 14.0002 0 12.8253 0 11.3756V10.5006H3.50034V14.0002H2.62546ZM5.25 8.74972V0H11.375C12.8248 0 13.9997 1.17575 13.9997 2.62546V8.74972H5.25ZM0 8.74958V5.25H3.50034V8.74958H0ZM0 3.50039V2.62546C0 1.17575 1.1757 0 2.62546 0H3.50034V3.50039H0Z" fill="currentColor"/>
</svg>