<svg width="147" height="106" viewBox="0 0 147 106" fill="none" xmlns="http://www.w3.org/2000/svg">
  <path
    d="M94.798 0.5H50.9631C37.3741 0.5 25.8552 9.36292 21.8715 21.6236C21.4341 22.9695 20.2193 23.9466 18.8042 23.9466H3.5602C1.87118 23.9466 0.501953 25.3158 0.501953 27.0049C0.501953 28.6939 1.87118 30.0631 3.5602 30.0631H26.4971C28.1861 30.0631 29.5553 31.4323 29.5553 33.1214C29.5553 34.8104 28.1861 36.1796 26.4971 36.1796H17.832C16.143 36.1796 14.7738 37.5488 14.7738 39.2379C14.7738 40.9269 16.143 42.2961 17.832 42.2961C19.2396 42.2961 20.3806 43.4371 20.3806 44.8447V74.9175C20.3806 91.8077 34.0728 105.5 50.9631 105.5H94.798C108.889 105.5 120.754 95.97 124.3 83.0036C124.689 81.5817 125.937 80.5243 127.411 80.5243H143.73C145.419 80.5243 146.788 79.155 146.788 77.466C146.788 75.777 145.419 74.4078 143.73 74.4078H117.735C116.046 74.4078 114.677 73.0385 114.677 71.3495C114.677 69.6605 116.046 68.2913 117.735 68.2913H129.458C131.147 68.2913 132.516 66.922 132.516 65.233C132.516 63.544 131.147 62.1748 129.458 62.1748H128.439C126.75 62.1748 125.381 60.8055 125.381 59.1165V31.0825C125.381 14.1923 111.688 0.5 94.798 0.5Z"
    fill="url(#paint0_linear_10566_33307)" />
  <path
    d="M5.08933 39.2379C5.08933 37.5488 6.45855 36.1796 8.14758 36.1796H10.1864C11.8754 36.1796 13.2447 37.5488 13.2447 39.2379C13.2447 40.9269 11.8754 42.2961 10.1864 42.2961H8.14758C6.45855 42.2961 5.08933 40.9269 5.08933 39.2379Z"
    fill="url(#paint1_linear_10566_33307)" />
  <path
    d="M135.065 65.233C135.065 63.544 136.434 62.1748 138.123 62.1748H140.162C141.851 62.1748 143.22 63.544 143.22 65.233C143.22 66.922 141.851 68.2913 140.162 68.2913H138.123C136.434 68.2913 135.065 66.922 135.065 65.233Z"
    fill="url(#paint2_linear_10566_33307)" />
  <rect x="34.1426" y="13.7522" width="79.0048" height="79.0049" rx="22.9369" fill="url(#paint3_linear_10566_33307)" />
  <rect x="36.6943" y="16.3008" width="73.9077" height="73.9078" rx="21.4078" fill="url(#paint4_linear_10566_33307)" />
  <path
    d="M49.4142 62.4948C48.8512 62.4948 48.3948 62.9512 48.3948 63.5142V74.4027C48.3948 74.9657 48.8512 75.4221 49.4142 75.4221H66.9207C67.4837 75.4221 67.9401 74.9657 67.9401 74.4027V73.5747C67.9401 73.0117 67.4837 72.5553 66.9207 72.5553H52.262C51.699 72.5553 51.2426 72.0989 51.2426 71.5359V63.5142C51.2426 62.9512 50.7862 62.4948 50.2232 62.4948H49.4142ZM98.529 62.4948C97.966 62.4948 97.5096 62.9512 97.5096 63.5142V71.5359C97.5096 72.0989 97.0532 72.5553 96.4902 72.5553H81.8314C81.2684 72.5553 80.812 73.0117 80.812 73.5747V74.402C80.812 74.965 81.2684 75.4214 81.8314 75.4214H99.3379C99.9009 75.4214 100.357 74.965 100.357 74.402V63.5142C100.357 62.9512 99.9009 62.4948 99.3379 62.4948H98.529ZM68.9879 42.8221C68.4249 42.8221 67.9685 43.2785 67.9685 43.8415V61.4747C67.9685 62.0377 68.4249 62.4941 68.9879 62.4941H79.7926C80.3556 62.4941 80.812 62.0377 80.812 61.4747V60.9282C80.812 60.3652 80.3556 59.9087 79.7926 59.9087H71.8357C71.2727 59.9087 70.8163 59.4523 70.8163 58.8893V43.8415C70.8163 43.2785 70.3599 42.8221 69.7969 42.8221H68.9879ZM49.4142 29.8948C48.8512 29.8948 48.3948 30.3512 48.3948 30.9142V41.8027C48.3948 42.3657 48.8512 42.8221 49.4142 42.8221H50.2232C50.7862 42.8221 51.2426 42.3657 51.2426 41.8027V33.7804C51.2426 33.2174 51.699 32.761 52.262 32.761H66.9207C67.4837 32.761 67.9401 32.3046 67.9401 31.7416V30.9142C67.9401 30.3512 67.4837 29.8948 66.9207 29.8948H49.4142ZM81.8314 29.8948C81.2684 29.8948 80.812 30.3512 80.812 30.9142V31.7416C80.812 32.3046 81.2684 32.761 81.8314 32.761H96.4902C97.0532 32.761 97.5096 33.2174 97.5096 33.7804V41.8027C97.5096 42.3657 97.966 42.8221 98.529 42.8221H99.3379C99.9009 42.8221 100.357 42.3657 100.357 41.8027V30.9142C100.357 30.3512 99.9009 29.8948 99.3379 29.8948H81.8314Z"
    fill="url(#paint5_linear_10566_33307)" />
  <defs>
    <linearGradient id="paint0_linear_10566_33307" x1="48.7764" y1="136.125" x2="48.7764" y2="6.625"
      gradientUnits="userSpaceOnUse">
      <stop stop-color="#0D7ED6" />
      <stop offset="0.322807" stop-color="#0E5790" />
      <stop offset="1" stop-color="#0D7ED6" />
    </linearGradient>
    <linearGradient id="paint1_linear_10566_33307" x1="48.7764" y1="136.125" x2="48.7764" y2="6.625"
      gradientUnits="userSpaceOnUse">
      <stop stop-color="#0D7ED6" />
      <stop offset="0.322807" stop-color="#0E5790" />
      <stop offset="1" stop-color="#0D7ED6" />
    </linearGradient>
    <linearGradient id="paint2_linear_10566_33307" x1="48.7764" y1="136.125" x2="48.7764" y2="6.625"
      gradientUnits="userSpaceOnUse">
      <stop stop-color="#0D7ED6" />
      <stop offset="0.322807" stop-color="#0E5790" />
      <stop offset="1" stop-color="#0D7ED6" />
    </linearGradient>
    <linearGradient id="paint3_linear_10566_33307" x1="93.5757" y1="100.298" x2="47.3977" y2="9.6421"
      gradientUnits="userSpaceOnUse">
      <stop stop-color="#0E5790" />
      <stop offset="0.322807" stop-color="#0D7ED6" />
      <stop offset="1" stop-color="#0E5790" />
    </linearGradient>
    <linearGradient id="paint4_linear_10566_33307" x1="80.4957" y1="73.2383" x2="56.1985" y2="46.1532"
      gradientUnits="userSpaceOnUse">
      <stop stop-color="#1A486B" />
      <stop offset="1" stop-color="#0E5790" />
    </linearGradient>
    <linearGradient id="paint5_linear_10566_33307" x1="61.1915" y1="89.6976" x2="79.4045" y2="12.7873"
      gradientUnits="userSpaceOnUse">
      <stop stop-color="#E6EFF9" />
      <stop offset="1" stop-color="#FAFAFA" />
    </linearGradient>
  </defs>
</svg>