<svg width="147" height="106" viewBox="0 0 147 106" fill="none" xmlns="http://www.w3.org/2000/svg">
<path d="M94.298 0.5H50.4631C36.8741 0.5 25.3552 9.36292 21.3715 21.6236C20.9341 22.9695 19.7193 23.9466 18.3042 23.9466H3.0602C1.37118 23.9466 0.00195312 25.3158 0.00195312 27.0049C0.00195312 28.6939 1.37118 30.0631 3.0602 30.0631H25.9971C27.6861 30.0631 29.0553 31.4323 29.0553 33.1214C29.0553 34.8104 27.6861 36.1796 25.9971 36.1796H17.332C15.643 36.1796 14.2738 37.5488 14.2738 39.2379C14.2738 40.9269 15.643 42.2961 17.332 42.2961C18.7396 42.2961 19.8806 43.4371 19.8806 44.8447V74.9175C19.8806 91.8077 33.5728 105.5 50.4631 105.5H94.298C108.389 105.5 120.254 95.97 123.8 83.0036C124.189 81.5817 125.437 80.5243 126.911 80.5243H143.23C144.919 80.5243 146.288 79.155 146.288 77.466C146.288 75.777 144.919 74.4078 143.23 74.4078H117.235C115.546 74.4078 114.177 73.0385 114.177 71.3495C114.177 69.6605 115.546 68.2913 117.235 68.2913H128.958C130.647 68.2913 132.016 66.922 132.016 65.233C132.016 63.544 130.647 62.1748 128.958 62.1748H127.939C126.25 62.1748 124.881 60.8055 124.881 59.1165V31.0825C124.881 14.1923 111.188 0.5 94.298 0.5Z" fill="url(#paint0_linear_385_6113)"/>
<path d="M4.58933 39.2379C4.58933 37.5488 5.95856 36.1796 7.64758 36.1796H9.68641C11.3754 36.1796 12.7447 37.5488 12.7447 39.2379C12.7447 40.9269 11.3754 42.2961 9.68641 42.2961H7.64758C5.95856 42.2961 4.58933 40.9269 4.58933 39.2379Z" fill="url(#paint1_linear_385_6113)"/>
<path d="M134.565 65.233C134.565 63.544 135.934 62.1748 137.623 62.1748H139.662C141.351 62.1748 142.72 63.544 142.72 65.233C142.72 66.922 141.351 68.2913 139.662 68.2913H137.623C135.934 68.2913 134.565 66.922 134.565 65.233Z" fill="url(#paint2_linear_385_6113)"/>
<rect x="33.6426" y="13.752" width="79.0048" height="79.0049" rx="22.9369" fill="url(#paint3_linear_385_6113)"/>
<rect x="36.1934" y="16.3008" width="73.9077" height="73.9078" rx="21.4078" fill="url(#paint4_linear_385_6113)"/>
<path d="M48.9139 62.4945C48.3509 62.4945 47.8945 62.9509 47.8945 63.5139V74.4025C47.8945 74.9655 48.3509 75.4219 48.9139 75.4219H66.4204C66.9835 75.4219 67.4399 74.9655 67.4399 74.4025V73.5745C67.4399 73.0115 66.9835 72.5551 66.4204 72.5551H51.7617C51.1987 72.5551 50.7423 72.0987 50.7423 71.5357V63.5139C50.7423 62.9509 50.2859 62.4945 49.7229 62.4945H48.9139ZM98.0288 62.4945C97.4658 62.4945 97.0094 62.9509 97.0094 63.5139V71.5357C97.0094 72.0987 96.553 72.5551 95.99 72.5551H81.3311C80.7681 72.5551 80.3117 73.0115 80.3117 73.5745V74.4017C80.3117 74.9648 80.7681 75.4212 81.3311 75.4212H98.8376C99.4007 75.4212 99.8571 74.9648 99.8571 74.4017V63.5139C99.8571 62.9509 99.4006 62.4945 98.8376 62.4945H98.0288ZM68.4877 42.8219C67.9247 42.8219 67.4682 43.2783 67.4682 43.8413V61.4744C67.4682 62.0374 67.9247 62.4939 68.4877 62.4939H79.2923C79.8553 62.4939 80.3117 62.0374 80.3117 61.4744V60.9279C80.3117 60.3649 79.8553 59.9085 79.2923 59.9085H71.3355C70.7725 59.9085 70.316 59.4521 70.316 58.8891V43.8413C70.316 43.2783 69.8596 42.8219 69.2966 42.8219H68.4877ZM48.9139 29.8945C48.3509 29.8945 47.8945 30.3509 47.8945 30.9139V41.8025C47.8945 42.3655 48.3509 42.8219 48.9139 42.8219H49.7229C50.2859 42.8219 50.7423 42.3655 50.7423 41.8025V33.7802C50.7423 33.2172 51.1987 32.7608 51.7617 32.7608H66.4204C66.9835 32.7608 67.4399 32.3044 67.4399 31.7414V30.9139C67.4399 30.3509 66.9835 29.8945 66.4204 29.8945H48.9139ZM81.3311 29.8945C80.7681 29.8945 80.3117 30.3509 80.3117 30.9139V31.7414C80.3117 32.3044 80.7681 32.7608 81.3311 32.7608H95.99C96.553 32.7608 97.0094 33.2172 97.0094 33.7802V41.8025C97.0094 42.3655 97.4658 42.8219 98.0288 42.8219H98.8376C99.4006 42.8219 99.8571 42.3655 99.8571 41.8025V30.9139C99.8571 30.3509 99.4006 29.8945 98.8376 29.8945H81.3311Z" fill="url(#paint5_linear_385_6113)"/>
<defs>
<linearGradient id="paint0_linear_385_6113" x1="112.076" y1="127.51" x2="76.2592" y2="10.186" gradientUnits="userSpaceOnUse">
<stop stop-color="#01B86C"/>
<stop offset="0.322807" stop-color="#058751"/>
<stop offset="1" stop-color="#01B86C"/>
</linearGradient>
<linearGradient id="paint1_linear_385_6113" x1="140.936" y1="74.6626" x2="136.094" y2="61.4102" gradientUnits="userSpaceOnUse">
<stop stop-color="#01B86C"/>
<stop offset="0.322807" stop-color="#058751"/>
<stop offset="1" stop-color="#01B86C"/>
</linearGradient>
<linearGradient id="paint2_linear_385_6113" x1="140.936" y1="74.6626" x2="136.094" y2="61.4102" gradientUnits="userSpaceOnUse">
<stop stop-color="#01B86C"/>
<stop offset="0.322807" stop-color="#058751"/>
<stop offset="1" stop-color="#01B86C"/>
</linearGradient>
<linearGradient id="paint3_linear_385_6113" x1="93.0757" y1="100.298" x2="46.8977" y2="9.64186" gradientUnits="userSpaceOnUse">
<stop stop-color="#01B86C"/>
<stop offset="0.322807" stop-color="#058751"/>
<stop offset="1" stop-color="#01B86C"/>
</linearGradient>
<linearGradient id="paint4_linear_385_6113" x1="79.9947" y1="73.2383" x2="55.6975" y2="46.1532" gradientUnits="userSpaceOnUse">
<stop stop-color="#0B5C3C"/>
<stop offset="1" stop-color="#0A7147"/>
</linearGradient>
<linearGradient id="paint5_linear_385_6113" x1="60.6913" y1="89.6974" x2="78.9042" y2="12.7871" gradientUnits="userSpaceOnUse">
<stop stop-color="#B2FFDD"/>
<stop offset="1" stop-color="#FAFAFA"/>
</linearGradient>
</defs>
</svg>
