<svg width="305" height="110" viewBox="0 0 305 110" fill="none" xmlns="http://www.w3.org/2000/svg">
  <path
    d="M173.798 2.5H129.963C116.374 2.5 104.855 11.3629 100.871 23.6236C100.434 24.9695 99.2193 25.9466 97.8042 25.9466H82.5602C80.8712 25.9466 79.502 27.3158 79.502 29.0049C79.502 30.6939 80.8712 32.0631 82.5602 32.0631H105.497C107.186 32.0631 108.555 33.4323 108.555 35.1214C108.555 36.8104 107.186 38.1796 105.497 38.1796H96.832C95.143 38.1796 93.7738 39.5488 93.7738 41.2379C93.7738 42.9269 95.143 44.2961 96.832 44.2961C98.2396 44.2961 99.3806 45.4371 99.3806 46.8447V76.9175C99.3806 93.8077 113.073 107.5 129.963 107.5H173.798C187.889 107.5 199.754 97.97 203.3 85.0036C203.689 83.5817 204.937 82.5243 206.411 82.5243H222.73C224.419 82.5243 225.788 81.155 225.788 79.466C225.788 77.777 224.419 76.4078 222.73 76.4078H196.735C195.046 76.4078 193.677 75.0385 193.677 73.3495C193.677 71.6605 195.046 70.2913 196.735 70.2913H208.458C210.147 70.2913 211.516 68.922 211.516 67.233C211.516 65.544 210.147 64.1748 208.458 64.1748H207.439C205.75 64.1748 204.381 62.8055 204.381 61.1165V33.0825C204.381 16.1923 190.688 2.5 173.798 2.5Z"
    fill="url(#paint0_linear_10566_30055)" />
  <path
    d="M84.0893 41.2379C84.0893 39.5488 85.4586 38.1796 87.1476 38.1796H89.1864C90.8754 38.1796 92.2447 39.5488 92.2447 41.2379C92.2447 42.9269 90.8754 44.2961 89.1864 44.2961H87.1476C85.4586 44.2961 84.0893 42.9269 84.0893 41.2379Z"
    fill="url(#paint1_linear_10566_30055)" />
  <path
    d="M214.065 67.233C214.065 65.544 215.434 64.1748 217.123 64.1748H219.162C220.851 64.1748 222.22 65.544 222.22 67.233C222.22 68.922 220.851 70.2913 219.162 70.2913H217.123C215.434 70.2913 214.065 68.922 214.065 67.233Z"
    fill="url(#paint2_linear_10566_30055)" />
  <rect x="113.143" y="15.7522" width="79.0048" height="79.0049" rx="22.9369" fill="url(#paint3_linear_10566_30055)" />
  <rect x="115.694" y="18.3008" width="73.9077" height="73.9078" rx="21.4078" fill="url(#paint4_linear_10566_30055)" />
  <path
    d="M128.414 64.4948C127.851 64.4948 127.395 64.9512 127.395 65.5142V76.4027C127.395 76.9657 127.851 77.4221 128.414 77.4221H145.921C146.484 77.4221 146.94 76.9657 146.94 76.4027V75.5747C146.94 75.0117 146.484 74.5553 145.921 74.5553H131.262C130.699 74.5553 130.243 74.0989 130.243 73.5359V65.5142C130.243 64.9512 129.786 64.4948 129.223 64.4948H128.414ZM177.529 64.4948C176.966 64.4948 176.51 64.9512 176.51 65.5142V73.5359C176.51 74.0989 176.053 74.5553 175.49 74.5553H160.831C160.268 74.5553 159.812 75.0117 159.812 75.5747V76.402C159.812 76.965 160.268 77.4214 160.831 77.4214H178.338C178.901 77.4214 179.357 76.965 179.357 76.402V65.5142C179.357 64.9512 178.901 64.4948 178.338 64.4948H177.529ZM147.988 44.8221C147.425 44.8221 146.968 45.2785 146.968 45.8415V63.4747C146.968 64.0377 147.425 64.4941 147.988 64.4941H158.793C159.356 64.4941 159.812 64.0377 159.812 63.4747V62.9282C159.812 62.3652 159.356 61.9087 158.793 61.9087H150.836C150.273 61.9087 149.816 61.4523 149.816 60.8893V45.8415C149.816 45.2785 149.36 44.8221 148.797 44.8221H147.988ZM128.414 31.8948C127.851 31.8948 127.395 32.3512 127.395 32.9142V43.8027C127.395 44.3657 127.851 44.8221 128.414 44.8221H129.223C129.786 44.8221 130.243 44.3657 130.243 43.8027V35.7804C130.243 35.2174 130.699 34.761 131.262 34.761H145.921C146.484 34.761 146.94 34.3046 146.94 33.7416V32.9142C146.94 32.3512 146.484 31.8948 145.921 31.8948H128.414ZM160.831 31.8948C160.268 31.8948 159.812 32.3512 159.812 32.9142V33.7416C159.812 34.3046 160.268 34.761 160.831 34.761H175.49C176.053 34.761 176.51 35.2174 176.51 35.7804V43.8027C176.51 44.3657 176.966 44.8221 177.529 44.8221H178.338C178.901 44.8221 179.357 44.3657 179.357 43.8027V32.9142C179.357 32.3512 178.901 31.8948 178.338 31.8948H160.831Z"
    fill="url(#paint5_linear_10566_30055)" />
  <defs>
    <linearGradient id="paint0_linear_10566_30055" x1="191.576" y1="129.51" x2="155.759" y2="12.186"
      gradientUnits="userSpaceOnUse">
      <stop stop-color="#4381C0" />
      <stop offset="0.322807" stop-color="#235B95" />
      <stop offset="1" stop-color="#4381C0" />
    </linearGradient>
    <linearGradient id="paint1_linear_10566_30055" x1="220.436" y1="76.6626" x2="215.594" y2="63.4102"
      gradientUnits="userSpaceOnUse">
      <stop stop-color="#4381C0" />
      <stop offset="0.322807" stop-color="#235B95" />
      <stop offset="1" stop-color="#4381C0" />
    </linearGradient>
    <linearGradient id="paint2_linear_10566_30055" x1="220.436" y1="76.6626" x2="215.594" y2="63.4102"
      gradientUnits="userSpaceOnUse">
      <stop stop-color="#4381C0" />
      <stop offset="0.322807" stop-color="#235B95" />
      <stop offset="1" stop-color="#4381C0" />
    </linearGradient>
    <linearGradient id="paint3_linear_10566_30055" x1="172.576" y1="102.298" x2="126.398" y2="11.6421"
      gradientUnits="userSpaceOnUse">
      <stop stop-color="#235B95" />
      <stop offset="0.322807" stop-color="#4381C0" />
      <stop offset="1" stop-color="#235B95" />
    </linearGradient>
    <linearGradient id="paint4_linear_10566_30055" x1="159.496" y1="75.2383" x2="135.198" y2="48.1532"
      gradientUnits="userSpaceOnUse">
      <stop stop-color="#154A82" />
      <stop offset="1" stop-color="#235B95" />
    </linearGradient>
    <linearGradient id="paint5_linear_10566_30055" x1="140.192" y1="91.6976" x2="158.404" y2="14.7873"
      gradientUnits="userSpaceOnUse">
      <stop stop-color="#E6EFF9" />
      <stop offset="1" stop-color="#FAFAFA" />
    </linearGradient>
  </defs>
</svg>