<svg width="194" height="110" viewBox="0 0 194 110" fill="none" xmlns="http://www.w3.org/2000/svg">
  <path
    d="M0.299561 17.5828V38.6852C0.299561 44.4286 4.95556 49.0846 10.699 49.0846H47.9084C49.2777 49.0846 50.6335 48.8142 51.8981 48.2889L150.845 7.18335H10.699C4.95556 7.18335 0.299561 11.8394 0.299561 17.5828Z"
    fill="url(#paint0_linear_10566_29890)" />
  <path
    d="M172.694 49.0846H175.984C181.439 49.0846 185.863 44.6627 185.863 39.2079C185.863 39.2079 182.87 47.2889 172.694 49.0846Z"
    fill="url(#paint1_linear_10566_29890)" />
  <path
    d="M177.482 7.18335H176.884C176.884 7.18335 181.673 8.08123 185.863 15.5636C185.863 10.9353 182.111 7.18335 177.482 7.18335Z"
    fill="url(#paint2_linear_10566_29890)" />
  <path d="M29.9998 10H23.9998M13.9998 10H10.4998C6.63376 10 3.49976 13.134 3.49976 17V17" stroke="#B6D7F8"
    stroke-width="2" stroke-linecap="round" />
  <path
    d="M41.6028 21.3618V36.1032C41.6028 38.9749 43.9308 41.3029 46.8025 41.3029H68.7129L129.296 16.1621H46.8025C43.9308 16.1621 41.6028 18.4901 41.6028 21.3618Z"
    fill="url(#paint3_linear_10566_29890)" />
  <path
    d="M8.9492 77.7172C7.47762 74.1823 9.15027 70.1237 12.6852 68.6521L158.254 8.05168C168.936 3.60475 181.201 8.65931 185.648 19.3414C190.095 30.0234 185.04 42.2879 174.358 46.7348L28.789 107.335C25.2541 108.807 21.1955 107.134 19.724 103.599L8.9492 77.7172Z"
    fill="url(#paint4_linear_10566_29890)" />
  <g clip-path="url(#clip0_10566_29890)">
    <path
      d="M84.7243 72.6347L85.2817 73.9589L94.4042 70.1185L91.89 64.1463L90.5609 64.7058L92.5177 69.3539L84.7243 72.6347ZM76.427 52.925L76.9844 54.2493L84.7778 50.9684L86.7347 55.6168L88.0638 55.0573L85.5495 49.0847L76.427 52.925ZM76.0351 65.15L74.7397 62.0729L76.8249 61.1951C77.8415 60.7671 78.3485 60.951 78.7366 61.873L78.9662 62.4182C79.3652 63.366 79.1499 63.8388 78.1203 64.2722L76.0351 65.15ZM79.5746 64.3018C80.4221 63.6546 80.7148 62.4919 80.2722 61.4404C79.9935 60.7783 79.4815 60.2905 78.784 60.0185C77.9071 59.6844 76.947 59.7371 75.8656 60.1924L72.9334 61.4268L76.7595 70.5155L78.0629 69.9668L76.538 66.3444L78.4928 65.5215C79.4962 65.0991 80.0752 65.3444 80.5126 66.3833L81.4254 68.5516L82.7545 67.9921L81.9291 66.0315C81.3279 64.6032 80.7596 64.2006 79.6512 64.4837L79.5746 64.3018ZM68.7274 69.2196L72.7414 67.5298L72.2386 66.3354L68.2246 68.0252L67.0767 65.2985L71.4815 63.4441L70.9787 62.2497L65.2444 64.6637L69.0705 73.7523L75.0003 71.256L74.4975 70.0616L69.8971 71.9982L68.7274 69.2196ZM64.5636 71.5382L64.8259 72.1613C65.378 73.4727 65.0761 74.1043 63.8643 74.6144L63.5777 74.7351C62.3654 75.2455 61.615 75.1027 60.8552 73.2979L59.8276 70.8569C59.0624 69.0393 59.5164 68.4046 60.7283 67.8944L60.9888 67.7847C62.1747 67.2855 62.7386 67.5679 63.2652 68.783L64.6988 68.1795C63.8143 66.4425 62.1399 65.8178 60.3414 66.5749C59.4684 66.9425 58.8533 67.5225 58.5245 68.272C58.0261 69.3838 58.1165 70.8743 58.8816 72.6919C59.6196 74.4448 60.5573 75.5786 61.7039 76.0433C62.4754 76.3453 63.3517 76.3126 64.0944 75.9999C64.8764 75.6708 65.4622 75.0572 65.5426 74.2287L65.7248 74.152L66.0856 75.0089L67.2845 74.5042L65.3114 69.8172L61.7797 71.304L62.2825 72.4984L64.5636 71.5382ZM51.2164 71.9753L52.6371 71.3772C53.9795 70.8121 54.8515 70.8423 55.6168 72.6602L56.6225 75.0491C57.3876 76.8667 56.8 77.5118 55.4575 78.0769L54.0368 78.675L51.2164 71.9753ZM56.0775 79.2225C58.5668 78.1745 58.6994 75.9024 57.5789 73.2407C56.4419 70.5401 54.6753 69.1134 52.2251 70.1448L49.4101 71.3299L53.2362 80.4186L56.0775 79.2225ZM45.2692 79.095L49.2833 77.4052L48.7804 76.2107L44.7664 77.9005L43.6185 75.1738L48.0233 73.3195L47.5205 72.125L41.7861 74.5391L45.6122 83.6277L51.5422 81.1313L51.0393 79.9369L46.439 81.8735L45.2692 79.095ZM35.4266 77.2162L34.0974 77.7758L37.9236 86.8645L43.9185 84.3408L43.4156 83.1463L38.7499 85.1104L35.4266 77.2162ZM28.7878 90.7107L31.3022 96.6833L40.4248 92.8429L39.8672 91.5184L32.0738 94.7993L30.117 90.1512L28.7878 90.7107ZM22.4473 75.6492L24.9616 81.6218L26.2908 81.0622L24.3339 76.4139L32.1274 73.133L31.5699 71.8088L22.4473 75.6492Z"
      fill="#525252" />
  </g>
  <ellipse cx="20" cy="27.9998" rx="14" ry="14" fill="url(#paint5_linear_10566_29890)" />
  <ellipse cx="20" cy="27.9998" rx="12" ry="12" fill="url(#paint6_linear_10566_29890)" />
  <ellipse cx="165.348" cy="27.9714" rx="16" ry="16" fill="#A3A3A3" />
  <ellipse cx="165.144" cy="27.7673" rx="14" ry="14" fill="url(#paint7_linear_10566_29890)" />
  <ellipse cx="165" cy="27.9998" rx="12" ry="12" fill="url(#paint8_linear_10566_29890)" />
  <defs>
    <linearGradient id="paint0_linear_10566_29890" x1="61.5354" y1="61.3058" x2="61.5354" y2="9.62759"
      gradientUnits="userSpaceOnUse">
      <stop stop-color="#4381C0" />
      <stop offset="0.322807" stop-color="#235B95" />
      <stop offset="1" stop-color="#4381C0" />
    </linearGradient>
    <linearGradient id="paint1_linear_10566_29890" x1="61.5354" y1="61.3058" x2="61.5354" y2="9.62759"
      gradientUnits="userSpaceOnUse">
      <stop stop-color="#4381C0" />
      <stop offset="0.322807" stop-color="#235B95" />
      <stop offset="1" stop-color="#4381C0" />
    </linearGradient>
    <linearGradient id="paint2_linear_10566_29890" x1="61.5354" y1="61.3058" x2="61.5354" y2="9.62759"
      gradientUnits="userSpaceOnUse">
      <stop stop-color="#4381C0" />
      <stop offset="0.322807" stop-color="#235B95" />
      <stop offset="1" stop-color="#4381C0" />
    </linearGradient>
    <linearGradient id="paint3_linear_10566_29890" x1="93.5743" y1="35.5302" x2="89.5633" y2="19.9341"
      gradientUnits="userSpaceOnUse">
      <stop stop-color="#154A82" />
      <stop offset="1" stop-color="#235B95" />
    </linearGradient>
    <linearGradient id="paint4_linear_10566_29890" x1="109.841" y1="30.2285" x2="140.369" y2="110.14"
      gradientUnits="userSpaceOnUse">
      <stop stop-color="#E5E5E5" />
      <stop offset="1" stop-color="#A3A3A3" />
    </linearGradient>
    <linearGradient id="paint5_linear_10566_29890" x1="27.0637" y1="44.6725" x2="10.6978" y2="12.5431"
      gradientUnits="userSpaceOnUse">
      <stop stop-color="#235B95" />
      <stop offset="0.322807" stop-color="#4381C0" />
      <stop offset="1" stop-color="#235B95" />
    </linearGradient>
    <linearGradient id="paint6_linear_10566_29890" x1="22.2236" y1="34.489" x2="14.3336" y2="25.6937"
      gradientUnits="userSpaceOnUse">
      <stop stop-color="#154A82" />
      <stop offset="1" stop-color="#235B95" />
    </linearGradient>
    <linearGradient id="paint7_linear_10566_29890" x1="172.208" y1="44.4401" x2="155.842" y2="12.3107"
      gradientUnits="userSpaceOnUse">
      <stop stop-color="#235B95" />
      <stop offset="0.322807" stop-color="#4381C0" />
      <stop offset="1" stop-color="#235B95" />
    </linearGradient>
    <linearGradient id="paint8_linear_10566_29890" x1="167.223" y1="34.489" x2="159.333" y2="25.6937"
      gradientUnits="userSpaceOnUse">
      <stop stop-color="#154A82" />
      <stop offset="1" stop-color="#235B95" />
    </linearGradient>
    <clipPath id="clip0_10566_29890">
      <rect width="68.4661" height="22.822" fill="white"
        transform="matrix(0.921661 -0.387997 0.387998 0.92166 22.4473 75.6492)" />
    </clipPath>
  </defs>
</svg>