<svg xmlns="http://www.w3.org/2000/svg" width="20" height="20" viewBox="0 0 20 20" fill="none">
  <path d="M15.8333 9.16675H4.16667C3.24619 9.16675 2.5 9.91294 2.5 10.8334V16.6667C2.5 17.5872 3.24619 18.3334 4.16667 18.3334H15.8333C16.7538 18.3334 17.5 17.5872 17.5 16.6667V10.8334C17.5 9.91294 16.7538 9.16675 15.8333 9.16675Z" stroke="currentColor" stroke-width="1.5" stroke-linecap="round" stroke-linejoin="round"/>
  <path d="M5.83331 9.16663V5.83329C5.83331 4.72822 6.2723 3.66842 7.0537 2.88701C7.8351 2.10561 8.89491 1.66663 9.99998 1.66663C11.105 1.66663 12.1649 2.10561 12.9463 2.88701C13.7277 3.66842 14.1666 4.72822 14.1666 5.83329V9.16663" stroke="currentColor" stroke-width="1.5" stroke-linecap="round" stroke-linejoin="round"/>
</svg>