<svg xmlns="http://www.w3.org/2000/svg" width="190" height="190" viewBox="0 0 190 190" fill="none">
<path d="M177.756 17.7334H12.2445C8.97987 17.7334 6.33337 19.9582 6.33337 22.7026V141.964C6.33337 144.709 8.97987 146.933 12.2445 146.933H177.756C181.02 146.933 183.667 144.709 183.667 141.964V22.7026C183.667 19.9582 181.02 17.7334 177.756 17.7334Z" fill="url(#paint0_linear_517_4222)"/>
<path d="M178.125 17.8125H11.875C10.3003 17.8125 8.79005 18.4381 7.67655 19.5516C6.56306 20.6651 5.9375 22.1753 5.9375 23.75V53.4375H184.062V23.75C184.062 22.1753 183.437 20.6651 182.323 19.5516C181.21 18.4381 179.7 17.8125 178.125 17.8125Z" fill="#B2FFDD"/>
<path d="M53.0417 33.0521C53.0417 32.2692 53.2738 31.5039 53.7088 30.8529C54.1437 30.202 54.7619 29.6947 55.4852 29.3951C56.2085 29.0955 57.0044 29.0171 57.7722 29.1698C58.54 29.3225 59.2454 29.6995 59.799 30.2531C60.3525 30.8067 60.7296 31.512 60.8823 32.2799C61.035 33.0477 60.9566 33.8436 60.657 34.5669C60.3574 35.2902 59.8501 35.9084 59.1991 36.3433C58.5482 36.7783 57.7829 37.0104 57 37.0104C55.9502 37.0104 54.9434 36.5934 54.201 35.8511C53.4587 35.1087 53.0417 34.1019 53.0417 33.0521ZM37.2083 33.0521C37.2083 32.2692 37.4405 31.5039 37.8754 30.8529C38.3104 30.202 38.9286 29.6947 39.6518 29.3951C40.3751 29.0955 41.171 29.0171 41.9389 29.1698C42.7067 29.3225 43.412 29.6995 43.9656 30.2531C44.5192 30.8067 44.8962 31.512 45.049 32.2799C45.2017 33.0477 45.1233 33.8436 44.8237 34.5669C44.5241 35.2902 44.0167 35.9084 43.3658 36.3433C42.7149 36.7783 41.9495 37.0104 41.1667 37.0104C40.1168 37.0104 39.11 36.5934 38.3677 35.8511C37.6254 35.1087 37.2083 34.1019 37.2083 33.0521ZM21.375 33.0521C21.375 32.2692 21.6072 31.5039 22.0421 30.8529C22.4771 30.202 23.0952 29.6947 23.8185 29.3951C24.5418 29.0955 25.3377 29.0171 26.1055 29.1698C26.8734 29.3225 27.5787 29.6995 28.1323 30.2531C28.6859 30.8067 29.0629 31.512 29.2156 32.2799C29.3684 33.0477 29.2899 33.8436 28.9903 34.5669C28.6907 35.2902 28.1834 35.9084 27.5325 36.3433C26.8815 36.7783 26.1162 37.0104 25.3333 37.0104C24.2835 37.0104 23.2767 36.5934 22.5344 35.8511C21.792 35.1087 21.375 34.1019 21.375 33.0521Z" fill="#34F4A2"/>
<path d="M116.989 122.903H72.5543C71.0812 122.903 69.6684 122.285 68.6268 121.186C67.5852 120.086 67 118.595 67 117.04V105.314C67 97.5397 69.9259 90.0835 75.1341 84.586C80.3422 79.0885 87.406 76 94.7715 76C102.137 76 109.201 79.0885 114.409 84.586C119.617 90.0835 122.543 97.5397 122.543 105.314V117.04C122.543 118.595 121.958 120.086 120.916 121.186C119.875 122.285 118.462 122.903 116.989 122.903ZM78.1086 115.273H111.434L111.434 105.314C111.434 100.65 109.679 96.1758 106.554 92.8773C103.429 89.5788 99.1908 87.7257 94.7715 87.7257C90.3522 87.7257 86.1139 89.5788 82.989 92.8773C79.8641 96.1758 78.1086 100.65 78.1086 105.314L78.1086 115.273Z" fill="#27EB98"/>
<path d="M128.906 115.13H60.7774C57.6418 115.13 55.1 117.672 55.1 120.807V166.226C55.1 169.362 57.6418 171.904 60.7774 171.904H128.906C132.041 171.904 134.583 169.362 134.583 166.226V120.807C134.583 117.672 132.041 115.13 128.906 115.13Z" fill="#01B86C"/>
<path d="M94.8416 149.196C101.113 149.196 106.196 144.112 106.196 137.841C106.196 131.57 101.113 126.486 94.8416 126.486C88.5705 126.486 83.4868 131.57 83.4868 137.841C83.4868 144.112 88.5705 149.196 94.8416 149.196Z" fill="#0B5C3C"/>
<path d="M89.1642 154.872V143.518H100.519V154.872C100.519 156.378 99.9208 157.822 98.8561 158.887C97.7914 159.952 96.3473 160.55 94.8416 160.55C93.3358 160.55 91.8918 159.952 90.827 158.887C89.7623 157.822 89.1642 156.378 89.1642 154.872Z" fill="#0B5C3C"/>
<defs>
<linearGradient id="paint0_linear_517_4222" x1="-2.68358" y1="189.011" x2="77.0812" y2="-13.7845" gradientUnits="userSpaceOnUse">
<stop stop-color="#B2FFDD"/>
<stop offset="1" stop-color="#EEFFF7"/>
</linearGradient>
</defs>
</svg>