<svg width="190" height="190" viewBox="0 0 190 190" fill="none" xmlns="http://www.w3.org/2000/svg">
  <path
    d="M177.755 17.7334H12.2444C8.97975 17.7334 6.33325 19.9582 6.33325 22.7026V141.964C6.33325 144.709 8.97975 146.933 12.2444 146.933H177.755C181.02 146.933 183.667 144.709 183.667 141.964V22.7026C183.667 19.9582 181.02 17.7334 177.755 17.7334Z"
    fill="url(#paint0_linear_10566_33337)" />
  <path
    d="M178.125 17.8125H11.875C10.3003 17.8125 8.79005 18.4381 7.67655 19.5516C6.56306 20.6651 5.9375 22.1753 5.9375 23.75V53.4375H184.062V23.75C184.062 22.1753 183.437 20.6651 182.323 19.5516C181.21 18.4381 179.7 17.8125 178.125 17.8125Z"
    fill="#737373" />
  <path
    d="M53.0417 33.0521C53.0417 32.2692 53.2738 31.5039 53.7088 30.8529C54.1437 30.202 54.7619 29.6947 55.4852 29.3951C56.2085 29.0955 57.0044 29.0171 57.7722 29.1698C58.54 29.3225 59.2454 29.6995 59.799 30.2531C60.3525 30.8067 60.7296 31.512 60.8823 32.2799C61.035 33.0477 60.9566 33.8436 60.657 34.5669C60.3574 35.2902 59.8501 35.9084 59.1991 36.3433C58.5482 36.7783 57.7829 37.0104 57 37.0104C55.9502 37.0104 54.9434 36.5934 54.201 35.8511C53.4587 35.1087 53.0417 34.1019 53.0417 33.0521ZM37.2083 33.0521C37.2083 32.2692 37.4405 31.5039 37.8754 30.8529C38.3104 30.202 38.9286 29.6947 39.6518 29.3951C40.3751 29.0955 41.171 29.0171 41.9389 29.1698C42.7067 29.3225 43.412 29.6995 43.9656 30.2531C44.5192 30.8067 44.8962 31.512 45.049 32.2799C45.2017 33.0477 45.1233 33.8436 44.8237 34.5669C44.5241 35.2902 44.0167 35.9084 43.3658 36.3433C42.7149 36.7783 41.9495 37.0104 41.1667 37.0104C40.1168 37.0104 39.11 36.5934 38.3677 35.8511C37.6254 35.1087 37.2083 34.1019 37.2083 33.0521ZM21.375 33.0521C21.375 32.2692 21.6072 31.5039 22.0421 30.8529C22.4771 30.202 23.0952 29.6947 23.8185 29.3951C24.5418 29.0955 25.3377 29.0171 26.1055 29.1698C26.8734 29.3225 27.5787 29.6995 28.1323 30.2531C28.6859 30.8067 29.0629 31.512 29.2156 32.2799C29.3684 33.0477 29.2899 33.8436 28.9903 34.5669C28.6907 35.2902 28.1834 35.9084 27.5325 36.3433C26.8815 36.7783 26.1162 37.0104 25.3333 37.0104C24.2835 37.0104 23.2767 36.5934 22.5344 35.8511C21.792 35.1087 21.375 34.1019 21.375 33.0521Z"
    fill="#424242" />
  <path
    d="M116.989 122.903H72.5545C71.0814 122.903 69.6687 122.285 68.6271 121.186C67.5854 120.086 67.0002 118.595 67.0002 117.04V105.315C67.0002 97.5399 69.9262 90.0837 75.1343 84.5862C80.3425 79.0887 87.4063 76.0002 94.7717 76.0002C102.137 76.0002 109.201 79.0887 114.409 84.5862C119.617 90.0837 122.543 97.5399 122.543 105.315V117.04C122.543 118.595 121.958 120.086 120.916 121.186C119.875 122.285 118.462 122.903 116.989 122.903ZM78.1088 115.273H111.435L111.435 105.315C111.435 100.65 109.679 96.1761 106.554 92.8776C103.429 89.5791 99.191 87.726 94.7717 87.726C90.3525 87.726 86.1142 89.5791 82.9893 92.8776C79.8644 96.1761 78.1088 100.65 78.1088 105.315L78.1088 115.273Z"
    fill="#45A2EB" />
  <path
    d="M128.906 115.131H60.7775C57.6419 115.131 55.1001 117.672 55.1001 120.808V166.227C55.1001 169.363 57.6419 171.904 60.7775 171.904H128.906C132.042 171.904 134.583 169.363 134.583 166.227V120.808C134.583 117.672 132.042 115.131 128.906 115.131Z"
    fill="#0D7ED6" />
  <path
    d="M94.8416 149.196C101.113 149.196 106.196 144.112 106.196 137.841C106.196 131.57 101.113 126.486 94.8416 126.486C88.5705 126.486 83.4868 131.57 83.4868 137.841C83.4868 144.112 88.5705 149.196 94.8416 149.196Z"
    fill="#0E5790" />
  <path
    d="M89.1642 154.873V143.518H100.519V154.873C100.519 156.379 99.9209 157.823 98.8561 158.887C97.7914 159.952 96.3474 160.55 94.8416 160.55C93.3359 160.55 91.8918 159.952 90.8271 158.887C89.7624 157.823 89.1642 156.379 89.1642 154.873Z"
    fill="#0E5790" />
  <defs>
    <linearGradient id="paint0_linear_10566_33337" x1="29.9903" y1="157.76" x2="85.8072" y2="-8.24053"
      gradientUnits="userSpaceOnUse">
      <stop stop-color="#424242" />
      <stop offset="1" stop-color="#525252" />
    </linearGradient>
  </defs>
</svg>