<svg xmlns="http://www.w3.org/2000/svg" width="24" height="24" viewBox="0 0 24 24" fill="none">
    <path d="M12 5.37987C15.656 5.37987 18.6198 8.34313 18.6198 11.9984C18.6198 12.7392 18.4977 13.2887 18.2738 13.8341C18.0865 14.29 17.4636 14.3063 17.199 13.8911L12.0122 5.79098L6.79695 13.8789C6.52824 14.29 5.90941 14.2737 5.72214 13.8178C5.49822 13.2765 5.38015 12.7351 5.38015 11.9984C5.38015 8.34313 8.34402 5.37987 12 5.37987Z" fill="currentColor"/>
    <path fill-rule="evenodd" clip-rule="evenodd" d="M1.75736 1.75736C0 3.51472 0 6.34315 0 12C0 17.6569 0 20.4853 1.75736 22.2426C3.51472 24 6.34315 24 12 24C17.6569 24 20.4853 24 22.2426 22.2426C24 20.4853 24 17.6569 24 12C24 6.34315 24 3.51472 22.2426 1.75736C20.4853 0 17.6569 0 12 0C6.34315 0 3.51472 0 1.75736 1.75736ZM12 4C7.5827 4 4 7.58196 4 11.9984C4 13.3782 4.35013 14.6767 4.96489 15.8123C5.40458 16.6142 6.48346 16.6386 7.1145 15.9752L12.0122 10.8139L16.8774 15.9792C17.5043 16.6468 18.5873 16.6264 19.027 15.8205C19.6499 14.6848 20 13.3823 20 11.9984C20 7.58196 16.4173 4 12 4ZM12.0127 13.0086L10.4453 14.6164H13.5598L12.0127 13.0086ZM7.01339 18.2579C8.38133 19.3487 10.1157 20 12.0007 20C13.8857 20 15.62 19.3487 16.9879 18.2579L14.6796 15.8075H9.32179L7.01339 18.2579Z" fill="currentColor"/>
</svg>