<svg xmlns="http://www.w3.org/2000/svg" width="40" height="40" viewBox="0 0 40 40" fill="none">
  <g clip-path="url(#clip0_1093_12430)" id='ark-logo'>
    <path fill-rule="evenodd" clip-rule="evenodd" d="M0.875 19.875C0.875 9.17684 9.55184 0.5 20.25 0.5C30.9482 0.5 39.625 9.17684 39.625 19.875C39.625 23.2274 38.777 26.3826 37.2684 29.1336C36.2036 31.0859 33.5808 31.1352 32.0623 29.5181L20.2796 17.0057L8.41794 29.5083C6.88963 31.1155 4.27672 31.0563 3.21183 29.1139C1.72296 26.3629 0.875 23.2176 0.875 19.875ZM36.2824 19.875C36.2824 11.0207 29.1043 3.84256 20.25 3.84256C11.3957 3.84256 4.21756 11.0207 4.21756 19.875C4.21756 21.6597 4.5035 22.9711 5.0458 24.2824C5.49936 25.3868 6.99809 25.4262 7.64885 24.4303L20.2796 4.83842L32.8413 24.4599C33.4822 25.4656 34.9908 25.4262 35.4443 24.3219C35.9866 23.0006 36.2824 21.6695 36.2824 19.875Z" fill="currentColor"/>
    <path fill-rule="evenodd" clip-rule="evenodd" d="M16.4824 26.215L20.2785 22.3203L24.0254 26.215H16.4824Z" fill="currentColor"/>
    <path d="M8.1709 35.0295C11.4839 37.672 15.6843 39.2496 20.2495 39.2496C24.8147 39.2496 29.015 37.672 32.328 35.0295L26.7374 29.0938H13.7615L8.1709 35.0295Z" fill="currentColor"/>
  </g>
  <defs>
    <clipPath id="clip0_1093_12430">
      <rect width="38.75" height="38.75" fill="currentColor" transform="translate(0.875 0.5)"/>
    </clipPath>
  </defs>
</svg>