<svg width="148" height="18" viewBox="0 0 148 18" fill="none" xmlns="http://www.w3.org/2000/svg">
<g clip-path="url(#clip0_806_9138)">
<path fill-rule="evenodd" clip-rule="evenodd" d="M0.255859 9C0.255859 4.03053 4.28639 0 9.25586 0C14.2253 0 18.2559 4.03053 18.2559 9C18.2559 10.5573 17.862 12.0229 17.1612 13.3008C16.6665 14.2076 15.4482 14.2305 14.7429 13.4794L9.2696 7.66718L3.75968 13.4748C3.04975 14.2214 1.83601 14.1939 1.34136 13.2916C0.649753 12.0137 0.255859 10.5527 0.255859 9ZM16.7032 9C16.7032 4.88702 13.3688 1.55267 9.25586 1.55267C5.14288 1.55267 1.80853 4.88702 1.80853 9C1.80853 9.82901 1.94136 10.4382 2.19326 11.0473C2.40395 11.5603 3.10013 11.5786 3.40242 11.116L9.2696 2.01527L15.1047 11.1298C15.4024 11.5969 16.1032 11.5786 16.3139 11.0656C16.5658 10.4519 16.7032 9.83359 16.7032 9Z" fill="#058751"/>
<path fill-rule="evenodd" clip-rule="evenodd" d="M7.50635 11.945L9.26971 10.1359L11.0102 11.945H7.50635Z" fill="#058751"/>
<path d="M3.64502 16.0397C5.18395 17.2672 7.1351 18 9.25571 18C11.3763 18 13.3275 17.2672 14.8664 16.0397L12.2694 13.2824H6.24197L3.64502 16.0397Z" fill="#058751"/>
</g>
<path d="M35.2934 14.6L34.7059 12.9625H29.7559L29.1684 14.6H26.2559L30.2559 4.09999H34.2059L38.2059 14.6H35.2934ZM30.5059 10.85H33.9559L32.4934 6.74999H31.9809L30.5059 10.85Z" fill="currentColor"/>
<path fill-rule="evenodd" clip-rule="evenodd" d="M50.0684 14.6H47.2812L45.6685 11.6125H42.5312V14.6H39.7061V4.09999H45.3936C48.231 4.09999 49.7812 5.38747 49.7812 7.93752C49.7812 9.38747 49.0938 10.4375 48.0811 11.0375L50.0684 14.6ZM42.4561 6.39998V9.39998H44.9995C46.0762 9.39998 46.6562 8.87929 46.6562 7.89998C46.6562 6.92067 46.0762 6.39998 44.9995 6.39998H42.4561Z" fill="currentColor"/>
<path d="M59.4809 14.6H62.3934L57.8434 8.76249L62.1809 4.09999H59.0184L54.5684 8.83749H54.3809V4.09999H51.5684V14.6H54.3809V12.225L56.0684 10.4625H56.2559L59.4809 14.6Z" fill="currentColor"/>
<path d="M69.6931 14.6C66.2556 14.6 63.8931 12.4555 63.8931 9.34999C63.8931 6.2328 66.2556 4.09999 69.6931 4.09999C72.0931 4.09999 74.5306 5.08437 74.9931 8.13124H72.3056C71.9056 6.92421 70.9431 6.38515 69.6931 6.38515C67.9931 6.38515 66.6931 7.59218 66.6931 9.34999C66.6931 11.1078 67.9931 12.3148 69.6931 12.3148C70.9431 12.3148 71.9056 11.7641 72.3056 10.5453H74.9931C74.5306 13.6039 72.1056 14.6 69.6931 14.6Z" fill="#058751"/>
<path fill-rule="evenodd" clip-rule="evenodd" d="M82.3306 14.6C78.8307 14.6 76.4932 12.4555 76.4932 9.34999C76.4932 6.2328 78.8307 4.09999 82.3306 4.09999C85.8182 4.09999 88.1557 6.2328 88.1557 9.34999C88.1557 12.4555 85.8182 14.6 82.3306 14.6ZM82.2933 12.3734C83.9934 12.3734 85.3309 11.2133 85.3309 9.40858C85.3309 7.59218 83.9934 6.44374 82.2933 6.44374C80.5809 6.44374 79.2559 7.59218 79.2559 9.40858C79.2559 11.2133 80.5809 12.3734 82.2933 12.3734Z" fill="#058751"/>
<path d="M89.6558 4.09999V14.6H92.4058V7.99999H92.6683L97.1433 14.6H100.331V4.09999H97.5808V10.7H97.3308L92.9183 4.09999H89.6558Z" fill="#058751"/>
<path d="M101.831 4.09999V14.6H104.581V7.99999H104.843L109.318 14.6H112.506V4.09999H109.756V10.7H109.506L105.093 4.09999H101.831Z" fill="#058751"/>
<path d="M114.006 4.09999V14.6H123.056V12.3125H116.831V10.325H122.831V8.36249H116.831V6.38749H123.056V4.09999H114.006Z" fill="#058751"/>
<path d="M124.556 8.99999C124.556 12.3125 126.919 14.6 130.356 14.6C132.769 14.6 135.194 13.5375 135.656 10.275H132.969C132.569 11.575 131.606 12.1625 130.356 12.1625C128.656 12.1625 127.356 10.875 127.356 8.99999C127.356 7.12499 128.656 5.83749 130.356 5.83749C131.606 5.83749 132.569 6.41249 132.969 7.69999H135.656C135.194 4.44999 132.756 3.39999 130.356 3.39999C126.919 3.39999 124.556 5.67499 124.556 8.99999Z" fill="#058751"/>
<path d="M147.744 6.44999V4.09999H137.156V6.44999H141.044V14.6H143.856V6.44999H147.744Z" fill="#058751"/>
<defs>
<clipPath id="clip0_806_9138">
<rect width="18" height="18" fill="white" transform="translate(0.255859)"/>
</clipPath>
</defs>
</svg>
