<svg xmlns="http://www.w3.org/2000/svg" width="171" height="17" viewBox="0 0 171 17" fill="none">
  <g clip-path="url(#clip0_1093_12434)">
    <path d="M12.5984 15.375L11.7906 13.1234H4.98437L4.17656 15.375H0.171875L5.67187 0.9375H11.1031L16.6031 15.375H12.5984ZM6.01562 10.2188H10.7594L8.74844 4.58125H8.04375L6.01562 10.2188ZM33.0888 15.375H29.256L27.0388 11.2672H22.7248V15.375H18.8404V0.9375H26.6607C30.5623 0.9375 32.6935 2.70781 32.6935 6.21406C32.6935 8.20781 31.7482 9.65156 30.356 10.4766L33.0888 15.375ZM22.7248 4.16875V8.32812H26.4201C27.9841 8.32812 28.8263 7.60625 28.8263 6.24844C28.8263 4.89063 27.9841 4.16875 26.4201 4.16875H22.7248ZM50.4075 15.375H46.4028L41.9684 9.68594H41.7106L39.3903 12.1094V15.375H35.5231V0.9375H39.3903V7.45156H39.6481L45.7669 0.9375H50.1153L44.1512 7.34844L50.4075 15.375Z" fill="#00FF97" id='ark'/>
    <path d="M60.1449 15.8561C55.4184 15.8561 52.1699 12.7107 52.1699 8.15605C52.1699 3.58418 55.4184 0.456055 60.1449 0.456055C63.4449 0.456055 66.7965 1.8998 67.4324 6.36855H63.7371C63.1871 4.59824 61.8637 3.80762 60.1449 3.80762C57.8074 3.80762 56.0199 5.57793 56.0199 8.15605C56.0199 10.7342 57.8074 12.5045 60.1449 12.5045C61.8637 12.5045 63.1871 11.6967 63.7371 9.90918H67.4324C66.7965 14.3951 63.4621 15.8561 60.1449 15.8561ZM77.7653 15.8561C72.9529 15.8561 69.7388 12.7107 69.7388 8.15605C69.7388 3.58418 72.9529 0.456055 77.7653 0.456055C82.5607 0.456055 85.7748 3.58418 85.7748 8.15605C85.7748 12.7107 82.5607 15.8561 77.7653 15.8561ZM77.7653 12.5045C80.1029 12.5045 81.942 10.8029 81.942 8.15605C81.942 5.49199 80.1029 3.80762 77.7653 3.80762C75.4107 3.80762 73.5888 5.49199 73.5888 8.15605C73.5888 10.8029 75.4107 12.5045 77.7653 12.5045ZM88.2704 15.3748V0.937305H92.7563L98.8235 10.0123H99.1673V0.937305H102.949V15.3748H98.5657L92.4126 6.2998H92.0517V15.3748H88.2704ZM105.698 15.3748V0.937305H110.184L116.251 10.0123H116.595V0.937305H120.376V15.3748H115.994L109.84 6.2998H109.48V15.3748H105.698ZM123.126 15.3748V0.937305H135.57V4.08262H127.01V6.79824H135.26V9.49668H127.01V12.2295H135.57V15.3748H123.126ZM145.854 15.8561C141.128 15.8561 137.879 12.7107 137.879 8.15605C137.879 3.58418 141.128 0.456055 145.854 0.456055C149.154 0.456055 152.506 1.8998 153.141 6.36855H149.446C148.896 4.59824 147.572 3.80762 145.854 3.80762C143.516 3.80762 141.729 5.57793 141.729 8.15605C141.729 10.7342 143.516 12.5045 145.854 12.5045C147.572 12.5045 148.896 11.6967 149.446 9.90918H153.141C152.506 14.3951 149.171 15.8561 145.854 15.8561ZM169.574 0.937305V4.16855H164.228V15.3748H160.361V4.16855H155.015V0.937305H169.574Z" fill="white" id='connect' />
  </g>
  <defs>
    <clipPath id="clip0_1093_12434">
      <rect width="170.5" height="16.5" fill="white" transform="translate(0 0.25)"/>
    </clipPath>
  </defs>
</svg>