<svg width="24" height="24" viewBox="0 0 24 24" fill="none" xmlns="http://www.w3.org/2000/svg">
<path d="M1.75736 1.75736C0 3.51472 0 6.34315 0 12C0 17.6569 0 20.4853 1.75736 22.2426C3.51472 24 6.34315 24 12 24C17.6569 24 20.4853 24 22.2426 22.2426C24 20.4853 24 17.6569 24 12C24 6.34315 24 3.51472 22.2426 1.75736C20.4853 0 17.6569 0 12 0C6.34315 0 3.51472 0 1.75736 1.75736Z" fill="currentColor"/>
<path fill-rule="evenodd" clip-rule="evenodd" d="M4 11.9977C4 7.58128 7.5827 3.99927 12 3.99927C16.4173 3.99927 20 7.58128 20 11.9977C20 13.3817 19.6499 14.6842 19.027 15.8199C18.5873 16.6259 17.5043 16.6462 16.8774 15.9786L12.0122 10.8132L7.1145 15.9746C6.48346 16.6381 5.40458 16.6136 4.96489 15.8118C4.35013 14.6761 4 13.3776 4 11.9977ZM18.6198 11.9977C18.6198 8.34245 15.656 5.37916 12 5.37916C8.34402 5.37916 5.38015 8.34245 5.38015 11.9977C5.38015 12.7345 5.49822 13.2759 5.72214 13.8172C5.90941 14.2731 6.52824 14.2894 6.79695 13.8783L12.0122 5.79027L17.199 13.8905C17.4636 14.3057 18.0865 14.2894 18.2738 13.8335C18.4977 13.2881 18.6198 12.7386 18.6198 11.9977Z" fill="white"/>
<path fill-rule="evenodd" clip-rule="evenodd" d="M10.4452 14.6165L12.0127 13.0087L13.5598 14.6165H10.4452Z" fill="white"/>
<path d="M7.0127 18.2571C8.38064 19.348 10.115 19.9993 12 19.9993C13.885 19.9993 15.6193 19.348 16.9873 18.2571L14.6789 15.8067H9.3211L7.0127 18.2571Z" fill="white"/>
</svg>
