<svg xmlns="http://www.w3.org/2000/svg" width="16" height="16" viewBox="0 0 16 16" fill="none">
    <path d="M7.33268 7.99967C7.33268 8.36786 7.63116 8.66634 7.99935 8.66634C8.36754 8.66634 8.66602 8.36786 8.66602 7.99967C8.66602 7.63148 8.36754 7.33301 7.99935 7.33301C7.63116 7.33301 7.33268 7.63148 7.33268 7.99967Z" fill="currentColor" stroke="currentColor" stroke-width="2" stroke-linecap="round" stroke-linejoin="round"/>
    <path d="M7.33268 12.6667C7.33268 13.0349 7.63116 13.3333 7.99935 13.3333C8.36754 13.3333 8.66602 13.0349 8.66602 12.6667C8.66602 12.2985 8.36754 12 7.99935 12C7.63116 12 7.33268 12.2985 7.33268 12.6667Z" fill="currentColor" stroke="currentColor" stroke-width="2" stroke-linecap="round" stroke-linejoin="round"/>
    <path d="M7.33268 3.33366C7.33268 3.70185 7.63116 4.00033 7.99935 4.00033C8.36754 4.00033 8.66602 3.70185 8.66602 3.33366C8.66602 2.96547 8.36754 2.66699 7.99935 2.66699C7.63116 2.66699 7.33268 2.96547 7.33268 3.33366Z" fill="currentColor" stroke="currentColor" stroke-width="2" stroke-linecap="round" stroke-linejoin="round"/>
</svg>