<svg xmlns="http://www.w3.org/2000/svg" width="40" height="40" viewBox="0 0 40 40" fill="none">
    <path d="M11.7968 35.4101H28.0523C29.7599 35.4101 30.7811 34.4726 30.7811 32.6646V32.2293C30.7979 27.6088 25.876 23.8588 23.7164 21.8164C23.1137 21.2472 22.7956 20.7283 22.7956 19.9749C22.7956 19.2216 23.1137 18.7193 23.7164 18.1333C25.8593 16.0575 30.7811 12.5418 30.7811 7.73713V7.33542C30.7811 5.52734 29.7599 4.58984 28.0523 4.58984H11.7968C10.1226 4.58984 9.2019 5.52734 9.2019 7.1847V7.73713C9.2019 12.5418 14.1238 16.0575 16.2834 18.1333C16.886 18.7193 17.2041 19.2216 17.2041 19.9749C17.2041 20.7283 16.886 21.2472 16.2834 21.8164C14.1238 23.8588 9.2019 27.6088 9.2019 32.2293V32.8153C9.2019 34.4726 10.1226 35.4101 11.7968 35.4101ZM12.4162 9.59542H27.5836C28.2198 9.59542 28.3202 10.0976 27.9519 10.7841C26.4452 13.4961 21.3726 17.8488 19.9999 17.8488C18.6271 17.8488 13.5546 13.5296 12.0479 10.7841C11.6795 10.0976 11.78 9.59542 12.4162 9.59542Z" fill="white"/>
</svg>
