<svg viewBox="0 0 16 16" fill="none" xmlns="http://www.w3.org/2000/svg">
<path d="M7.99996 2.66663V3.33329M12 10.6666H13.3333M9.33329 10.6666H7.99996V13.3333M7.99996 5.99996V7.99996M7.99996 7.99996H8.00663M7.99996 7.99996H10.6733M10.6666 13.3333H13.3333M2.66663 7.99996H5.33329M13.3333 7.99996H13.34M3.33329 5.33329H4.66663C4.84344 5.33329 5.01301 5.26305 5.13803 5.13803C5.26305 5.01301 5.33329 4.84344 5.33329 4.66663V3.33329C5.33329 3.15648 5.26305 2.98691 5.13803 2.86189C5.01301 2.73686 4.84344 2.66663 4.66663 2.66663H3.33329C3.15648 2.66663 2.98691 2.73686 2.86189 2.86189C2.73686 2.98691 2.66663 3.15648 2.66663 3.33329V4.66663C2.66663 4.84344 2.73686 5.01301 2.86189 5.13803C2.98691 5.26305 3.15648 5.33329 3.33329 5.33329ZM11.3333 5.33329H12.6666C12.8434 5.33329 13.013 5.26305 13.138 5.13803C13.2631 5.01301 13.3333 4.84344 13.3333 4.66663V3.33329C13.3333 3.15648 13.2631 2.98691 13.138 2.86189C13.013 2.73686 12.8434 2.66663 12.6666 2.66663H11.3333C11.1565 2.66663 10.9869 2.73686 10.8619 2.86189C10.7369 2.98691 10.6666 3.15648 10.6666 3.33329V4.66663C10.6666 4.84344 10.7369 5.01301 10.8619 5.13803C10.9869 5.26305 11.1565 5.33329 11.3333 5.33329ZM3.33329 13.3333H4.66663C4.84344 13.3333 5.01301 13.2631 5.13803 13.138C5.26305 13.013 5.33329 12.8434 5.33329 12.6666V11.3333C5.33329 11.1565 5.26305 10.9869 5.13803 10.8619C5.01301 10.7369 4.84344 10.6666 4.66663 10.6666H3.33329C3.15648 10.6666 2.98691 10.7369 2.86189 10.8619C2.73686 10.9869 2.66663 11.1565 2.66663 11.3333V12.6666C2.66663 12.8434 2.73686 13.013 2.86189 13.138C2.98691 13.2631 3.15648 13.3333 3.33329 13.3333Z" stroke="currentColor" stroke-width="1.33333" stroke-linecap="round" stroke-linejoin="round"/>
</svg>
