<svg width="306" height="200" viewBox="0 0 306 200" fill="none" xmlns="http://www.w3.org/2000/svg">
<g clip-path="url(#clip0_11657_2133)">
<g filter="url(#filter0_dddd_11657_2133)">
<rect x="70" y="51.0581" width="120" height="120" rx="16" transform="rotate(-15 70 51.0581)" fill="white"/>
<path d="M135.203 62.5747L136.238 66.4384M170.808 102.728L178.536 100.657M155.353 106.869L147.626 108.939L151.767 124.394M140.379 81.8932L143.485 93.4843M143.485 93.4843L143.523 93.474M143.485 93.4843L158.978 89.3329M167.222 120.253L182.677 116.112M112.575 101.767L128.03 97.6255M174.394 85.2021L174.433 85.1918M112.298 85.2765L120.025 83.2059C121.05 82.9313 121.924 82.261 122.454 81.3422C122.984 80.4235 123.128 79.3317 122.854 78.3069L120.783 70.5795C120.508 69.5548 119.838 68.6811 118.919 68.1507C118.001 67.6203 116.909 67.4765 115.884 67.7511L108.157 69.8217C107.132 70.0962 106.258 70.7666 105.728 71.6854C105.197 72.6041 105.054 73.6959 105.328 74.7206L107.399 82.448C107.673 83.4728 108.344 84.3464 109.263 84.8769C110.181 85.4073 111.273 85.551 112.298 85.2765ZM158.662 72.8532L166.39 70.7826C167.414 70.508 168.288 69.8376 168.818 68.9189C169.349 68.0002 169.493 66.9083 169.218 65.8836L167.148 58.1562C166.873 57.1315 166.203 56.2578 165.284 55.7274C164.365 55.197 163.273 55.0532 162.249 55.3278L154.521 57.3983C153.496 57.6729 152.623 58.3433 152.092 59.262C151.562 60.1808 151.418 61.2726 151.693 62.2973L153.763 70.0247C154.038 71.0494 154.708 71.9231 155.627 72.4536C156.546 72.984 157.638 73.1277 158.662 72.8532ZM124.721 131.641L132.448 129.57C133.473 129.296 134.347 128.625 134.877 127.707C135.408 126.788 135.551 125.696 135.277 124.671L133.206 116.944C132.932 115.919 132.261 115.046 131.343 114.515C130.424 113.985 129.332 113.841 128.307 114.116L120.58 116.186C119.555 116.461 118.682 117.131 118.151 118.05C117.621 118.969 117.477 120.06 117.752 121.085L119.822 128.812C120.097 129.837 120.767 130.711 121.686 131.241C122.605 131.772 123.696 131.915 124.721 131.641Z" stroke="#222222" stroke-width="8" stroke-linecap="round" stroke-linejoin="round"/>
</g>
<path fill-rule="evenodd" clip-rule="evenodd" d="M174.188 139.218C175.182 138.849 177.144 139.075 177.661 140.197C178.103 141.154 178.482 142.768 178.502 142.424C178.552 141.66 178.453 140.007 178.786 139.143C179.029 138.513 179.505 137.921 180.207 137.712C180.798 137.534 181.491 137.471 182.105 137.598C182.753 137.73 183.434 138.192 183.689 138.631C184.439 139.922 184.452 142.565 184.487 142.424C184.619 141.861 184.632 139.878 185.073 139.143C185.365 138.656 186.102 138.221 186.496 138.151C187.105 138.043 187.855 138.01 188.493 138.134C189.009 138.236 189.707 138.847 189.895 139.143C190.349 139.856 190.604 141.869 190.68 142.578C190.713 142.87 190.834 141.763 191.287 141.053C192.128 139.729 195.107 139.472 195.219 142.377C195.273 143.731 195.26 143.669 195.26 144.581C195.26 145.649 195.235 146.296 195.177 147.07C195.115 147.897 194.937 149.772 194.678 150.679C194.5 151.302 193.91 152.705 193.326 153.546C193.326 153.546 191.101 156.135 190.858 157.299C190.616 158.465 190.697 158.474 190.647 159.298C190.6 160.125 190.898 161.21 190.898 161.21C190.898 161.21 189.239 161.425 188.342 161.28C187.532 161.152 186.529 159.54 186.27 159.047C185.914 158.368 185.154 158.499 184.858 159C184.394 159.793 183.389 161.216 182.683 161.305C181.297 161.479 178.426 161.367 176.178 161.347C176.178 161.347 176.561 159.253 175.708 158.534C175.076 157.995 173.989 156.91 173.338 156.338L171.615 154.43C171.029 153.685 169.539 152.506 169.04 150.318C168.599 148.38 168.642 147.429 169.117 146.652C169.597 145.863 170.505 145.432 170.886 145.357C171.317 145.27 172.319 145.277 172.698 145.486C173.16 145.741 173.347 145.815 173.709 146.296C174.186 146.932 174.355 147.24 174.15 146.546C173.993 146.004 173.483 145.314 173.251 144.537C173.026 143.789 172.421 142.584 172.464 141.376C172.481 140.918 172.678 139.779 174.188 139.218Z" fill="white"/>
<path fill-rule="evenodd" clip-rule="evenodd" d="M174.188 139.218C175.182 138.849 177.144 139.075 177.661 140.197C178.103 141.154 178.482 142.768 178.502 142.424C178.552 141.66 178.453 140.007 178.786 139.143C179.029 138.513 179.505 137.921 180.207 137.712C180.798 137.534 181.491 137.471 182.105 137.598C182.753 137.73 183.434 138.192 183.689 138.631C184.439 139.922 184.452 142.565 184.487 142.424C184.619 141.861 184.632 139.878 185.073 139.143C185.365 138.656 186.102 138.221 186.496 138.151C187.105 138.043 187.855 138.01 188.493 138.134C189.009 138.236 189.707 138.847 189.895 139.143C190.349 139.856 190.604 141.869 190.68 142.578C190.713 142.87 190.834 141.763 191.287 141.053C192.128 139.729 195.107 139.472 195.219 142.377C195.273 143.731 195.26 143.669 195.26 144.581C195.26 145.649 195.235 146.296 195.177 147.07C195.115 147.897 194.937 149.772 194.678 150.679C194.5 151.302 193.91 152.705 193.326 153.546C193.326 153.546 191.101 156.135 190.858 157.299C190.616 158.465 190.697 158.474 190.647 159.298C190.6 160.125 190.898 161.21 190.898 161.21C190.898 161.21 189.239 161.425 188.342 161.28C187.532 161.152 186.529 159.54 186.27 159.047C185.914 158.368 185.154 158.499 184.858 159C184.394 159.793 183.389 161.216 182.683 161.305C181.297 161.479 178.426 161.367 176.178 161.347C176.178 161.347 176.561 159.253 175.708 158.534C175.076 157.995 173.989 156.91 173.338 156.338L171.615 154.43C171.029 153.685 169.539 152.506 169.04 150.318C168.599 148.38 168.642 147.429 169.117 146.652C169.597 145.863 170.505 145.432 170.886 145.357C171.317 145.27 172.319 145.277 172.698 145.486C173.16 145.741 173.347 145.815 173.709 146.296C174.186 146.932 174.355 147.24 174.15 146.546C173.993 146.004 173.483 145.314 173.251 144.537C173.026 143.789 172.421 142.584 172.464 141.376C172.481 140.918 172.678 139.779 174.188 139.218Z" stroke="black" stroke-width="2" stroke-linejoin="round"/>
<path d="M188.673 155.164V147.999" stroke="black" stroke-width="2" stroke-linecap="round"/>
<path d="M184.498 155.188L184.465 147.994" stroke="black" stroke-width="2" stroke-linecap="round"/>
<path d="M180.363 148.06L180.407 155.156" stroke="black" stroke-width="2" stroke-linecap="round"/>
</g>
<defs>
<filter id="filter0_dddd_11657_2133" x="43.592" y="18.5918" width="199.785" height="248.786" filterUnits="userSpaceOnUse" color-interpolation-filters="sRGB">
<feFlood flood-opacity="0" result="BackgroundImageFix"/>
<feColorMatrix in="SourceAlpha" type="matrix" values="0 0 0 0 0 0 0 0 0 0 0 0 0 0 0 0 0 0 127 0" result="hardAlpha"/>
<feOffset dy="5"/>
<feGaussianBlur stdDeviation="5"/>
<feColorMatrix type="matrix" values="0 0 0 0 0 0 0 0 0 0 0 0 0 0 0 0 0 0 0.1 0"/>
<feBlend mode="normal" in2="BackgroundImageFix" result="effect1_dropShadow_11657_2133"/>
<feColorMatrix in="SourceAlpha" type="matrix" values="0 0 0 0 0 0 0 0 0 0 0 0 0 0 0 0 0 0 127 0" result="hardAlpha"/>
<feOffset dy="18"/>
<feGaussianBlur stdDeviation="9"/>
<feColorMatrix type="matrix" values="0 0 0 0 0 0 0 0 0 0 0 0 0 0 0 0 0 0 0.09 0"/>
<feBlend mode="normal" in2="effect1_dropShadow_11657_2133" result="effect2_dropShadow_11657_2133"/>
<feColorMatrix in="SourceAlpha" type="matrix" values="0 0 0 0 0 0 0 0 0 0 0 0 0 0 0 0 0 0 127 0" result="hardAlpha"/>
<feOffset dy="42"/>
<feGaussianBlur stdDeviation="12.5"/>
<feColorMatrix type="matrix" values="0 0 0 0 0 0 0 0 0 0 0 0 0 0 0 0 0 0 0.05 0"/>
<feBlend mode="normal" in2="effect2_dropShadow_11657_2133" result="effect3_dropShadow_11657_2133"/>
<feColorMatrix in="SourceAlpha" type="matrix" values="0 0 0 0 0 0 0 0 0 0 0 0 0 0 0 0 0 0 127 0" result="hardAlpha"/>
<feOffset dy="74"/>
<feGaussianBlur stdDeviation="15"/>
<feColorMatrix type="matrix" values="0 0 0 0 0 0 0 0 0 0 0 0 0 0 0 0 0 0 0.01 0"/>
<feBlend mode="normal" in2="effect3_dropShadow_11657_2133" result="effect4_dropShadow_11657_2133"/>
<feBlend mode="normal" in="SourceGraphic" in2="effect4_dropShadow_11657_2133" result="shape"/>
</filter>
<clipPath id="clip0_11657_2133">
<rect width="306" height="200" rx="16" fill="white"/>
</clipPath>
</defs>
</svg>
