<svg viewBox="0 0 22 22" fill="none" xmlns="http://www.w3.org/2000/svg">
<g id="refresh-cw" clip-path="url(#clip0_9969_37489)">
<path id="Vector" d="M21.084 3.66699V9.16699H15.584" stroke="currentColor" stroke-width="2" stroke-linecap="round" stroke-linejoin="round"/>
<path id="Vector_2" d="M0.916016 18.333V12.833H6.41602" stroke="currentColor" stroke-width="2" stroke-linecap="round" stroke-linejoin="round"/>
<path id="Vector_3" d="M3.21685 8.24978C3.68175 6.936 4.47189 5.7614 5.51353 4.83558C6.55517 3.90977 7.81436 3.2629 9.17361 2.95535C10.5329 2.64781 11.9479 2.6896 13.2866 3.07683C14.6253 3.46406 15.8442 4.18411 16.8294 5.16978L21.0827 9.16645M0.916016 12.8331L5.16935 16.8298C6.15453 17.8155 7.37336 18.5355 8.71209 18.9227C10.0508 19.31 11.4658 19.3518 12.8251 19.0442C14.1843 18.7367 15.4435 18.0898 16.4852 17.164C17.5268 16.2382 18.3169 15.0636 18.7819 13.7498" stroke="currentColor" stroke-width="2" stroke-linecap="round" stroke-linejoin="round"/>
</g>
<defs>
<clipPath id="clip0_9969_37489">
<rect width="22" height="22" fill="white"/>
</clipPath>
</defs>
</svg>
