<svg width="21" height="20" viewBox="0 0 21 20" fill="none" xmlns="http://www.w3.org/2000/svg">
<path d="M3.38848 11.5491L2.4996 12.0637C2.29544 12.1816 2.14647 12.3758 2.08546 12.6035C2.02445 12.8312 2.05639 13.0738 2.17426 13.278L3.49693 15.5695C3.61481 15.7737 3.80895 15.9226 4.03666 15.9836C4.26437 16.0447 4.50699 16.0127 4.71115 15.8948L5.61071 15.3775C5.8791 15.2227 6.18351 15.1411 6.49337 15.1411C6.80324 15.1411 7.10765 15.2227 7.37604 15.3775L7.39382 15.3873C7.66369 15.542 7.88798 15.7651 8.04405 16.0341C8.20012 16.3032 8.28244 16.6087 8.28271 16.9197V17.9997C8.28271 18.2355 8.37636 18.4616 8.54306 18.6283C8.70975 18.795 8.93585 18.8886 9.17159 18.8886H11.8383C12.074 18.8886 12.3001 18.795 12.4668 18.6283C12.6335 18.4616 12.7271 18.2355 12.7271 17.9997V16.9171C12.7271 16.6068 12.8088 16.3021 12.9641 16.0335C13.1194 15.7649 13.3427 15.542 13.6116 15.3873L13.6303 15.3766C13.8987 15.2218 14.2031 15.1402 14.5129 15.1402C14.8228 15.1402 15.1272 15.2218 15.3956 15.3766L16.2916 15.894C16.4958 16.0118 16.7384 16.0438 16.9661 15.9828C17.1938 15.9217 17.3879 15.7728 17.5058 15.5686L18.8285 13.2771C18.8866 13.1758 18.9241 13.0641 18.939 12.9483C18.9539 12.8325 18.9459 12.7149 18.9153 12.6023C18.8848 12.4896 18.8324 12.3841 18.761 12.2917C18.6897 12.1992 18.6009 12.1218 18.4996 12.0637L17.6107 11.5491C17.34 11.3934 17.1152 11.1689 16.9591 10.8984C16.803 10.6279 16.7211 10.3209 16.7218 10.0086V9.98995C16.721 9.67773 16.8028 9.37086 16.9589 9.10047C17.115 8.83008 17.3399 8.6058 17.6107 8.4504L18.4996 7.93573C18.7037 7.81785 18.8527 7.6237 18.9137 7.39599C18.9747 7.16829 18.9428 6.92567 18.8249 6.72151L17.5005 4.42995C17.3826 4.2258 17.1885 4.07683 16.9608 4.01582C16.733 3.95481 16.4904 3.98675 16.2863 4.10462L15.3885 4.62195C15.1201 4.7768 14.8157 4.85832 14.5058 4.85832C14.196 4.85832 13.8915 4.7768 13.6232 4.62195L13.6107 4.61306C13.3408 4.4584 13.1165 4.23527 12.9605 3.96621C12.8044 3.69714 12.7221 3.39167 12.7218 3.08062V1.99973C12.7218 1.76398 12.6282 1.53789 12.4615 1.37119C12.2948 1.20449 12.0687 1.11084 11.8329 1.11084H9.16626C8.93051 1.11084 8.70442 1.20449 8.53772 1.37119C8.37102 1.53789 8.27737 1.76398 8.27737 1.99973V3.14995C8.27698 3.43952 8.20039 3.72388 8.05528 3.97447C7.91017 4.22506 7.70166 4.43303 7.45071 4.57751L7.31471 4.65573C7.06425 4.80012 6.78024 4.87613 6.49115 4.87613C6.20206 4.87613 5.91805 4.80012 5.6676 4.65573L4.71293 4.10462C4.50877 3.98675 4.26615 3.95481 4.03844 4.01582C3.81073 4.07683 3.61658 4.2258 3.49871 4.42995L2.17604 6.72151C2.05802 6.92545 2.02581 7.16791 2.08648 7.39559C2.14715 7.62328 2.29574 7.81755 2.4996 7.93573L3.38848 8.4504C3.65923 8.60608 3.88403 8.83055 4.04013 9.10106C4.19622 9.37157 4.27806 9.67852 4.27737 9.99084V10.0095C4.27818 10.3217 4.19638 10.6286 4.04026 10.899C3.88415 11.1694 3.65928 11.3937 3.38848 11.5491ZM10.4996 7.33306C11.027 7.33306 11.5426 7.48946 11.9811 7.78248C12.4196 8.07549 12.7614 8.49197 12.9633 8.97924C13.1651 9.46651 13.2179 10.0027 13.115 10.52C13.0121 11.0373 12.7582 11.5124 12.3852 11.8853C12.0123 12.2583 11.5371 12.5123 11.0198 12.6152C10.5026 12.7181 9.96638 12.6652 9.47911 12.4634C8.99184 12.2616 8.57536 11.9198 8.28234 11.4812C7.98933 11.0427 7.83293 10.5271 7.83293 9.99973C7.83293 9.29249 8.11388 8.61421 8.61398 8.11411C9.11407 7.61401 9.79235 7.33306 10.4996 7.33306Z" fill="currentColor"/>
</svg>
