<svg width="294" height="382" viewBox="0 0 294 382" fill="none" xmlns="http://www.w3.org/2000/svg">
<path d="M29.7373 31.8H264.262V161.92C264.262 163.254 263.425 164.534 261.934 165.477C260.443 166.42 258.421 166.95 256.312 166.95H37.6873C35.5788 166.95 33.5567 166.42 32.0658 165.477C30.5749 164.534 29.7373 163.254 29.7373 161.92V31.8Z" fill="url(#paint0_linear_11471_865)"/>
<path d="M29.7373 31.8H264.262V7.95C264.262 5.84153 263.425 3.81941 261.934 2.3285C260.443 0.837581 258.421 0 256.312 0H37.6873C35.5788 0 33.5567 0.837581 32.0658 2.3285C30.5749 3.81941 29.7373 5.84153 29.7373 7.95V31.8Z" fill="#737373"/>
<path d="M78.4311 15.9C78.4311 15.1138 78.6642 14.3453 79.101 13.6916C79.5378 13.0379 80.1586 12.5285 80.8849 12.2276C81.6112 11.9267 82.4105 11.848 83.1816 12.0014C83.9526 12.1547 84.6609 12.5333 85.2169 13.0892C85.7728 13.6452 86.1514 14.3535 86.3047 15.1245C86.4581 15.8956 86.3794 16.6949 86.0785 17.4212C85.7776 18.1475 85.2682 18.7683 84.6145 19.2051C83.9608 19.6419 83.1923 19.875 82.4061 19.875C81.3519 19.875 80.3408 19.4562 79.5953 18.7107C78.8499 17.9653 78.4311 16.9542 78.4311 15.9ZM62.5311 15.9C62.5311 15.1138 62.7642 14.3453 63.201 13.6916C63.6378 13.0379 64.2586 12.5285 64.9849 12.2276C65.7112 11.9267 66.5105 11.848 67.2816 12.0014C68.0526 12.1547 68.7609 12.5333 69.3169 13.0892C69.8728 13.6452 70.2514 14.3535 70.4047 15.1245C70.5581 15.8956 70.4794 16.6949 70.1785 17.4212C69.8776 18.1475 69.3682 18.7683 68.7145 19.2051C68.0608 19.6419 67.2923 19.875 66.5061 19.875C65.4519 19.875 64.4408 19.4562 63.6954 18.7107C62.9499 17.9653 62.5311 16.9542 62.5311 15.9ZM46.6311 15.9C46.6311 15.1138 46.8642 14.3453 47.301 13.6916C47.7378 13.0379 48.3586 12.5285 49.0849 12.2276C49.8112 11.9267 50.6105 11.848 51.3816 12.0014C52.1526 12.1547 52.8609 12.5333 53.4169 13.0892C53.9728 13.6452 54.3514 14.3535 54.5047 15.1245C54.6581 15.8956 54.5794 16.6949 54.2785 17.4212C53.9776 18.1475 53.4682 18.7683 52.8145 19.2051C52.1608 19.6419 51.3923 19.875 50.6061 19.875C49.5519 19.875 48.5408 19.4562 47.7954 18.7107C47.0499 17.9653 46.6311 16.9542 46.6311 15.9Z" fill="#424242"/>
<rect x="1.05615" y="174.984" width="167.953" height="60.5732" rx="8.25998" transform="rotate(-9.87826 1.05615 174.984)" fill="#0B7248"/>
<rect x="0.583984" y="172.272" width="167.953" height="57.8199" rx="8.25998" transform="rotate(-9.87826 0.583984 172.272)" fill="url(#paint1_linear_11471_865)"/>
<path d="M68.6227 197.664C67.3695 197.882 66.226 197.863 65.1921 197.607C64.1553 197.335 63.2908 196.848 62.5986 196.147C61.9036 195.43 61.4473 194.495 61.2298 193.342L64.5255 192.768C64.6969 193.56 65.0993 194.186 65.7328 194.645C66.3797 195.086 67.1832 195.223 68.1434 195.056C68.9735 194.911 69.5986 194.601 70.0188 194.125C70.4362 193.634 70.5868 193.054 70.4706 192.387C70.3488 191.687 70.0341 191.18 69.5267 190.866C69.0355 190.549 68.4106 190.331 67.652 190.211C66.8934 190.092 66.0831 189.965 65.2212 189.83C63.8235 189.604 62.7125 189.193 61.8879 188.599C61.0797 188.002 60.5721 187.11 60.3652 185.921C60.1732 184.915 60.259 184.012 60.6226 183.21C60.9996 182.39 61.5853 181.71 62.3799 181.169C63.1716 180.612 64.129 180.235 65.2519 180.04C66.3912 179.842 67.4275 179.871 68.361 180.127C69.3107 180.381 70.0934 180.832 70.7092 181.479C71.3413 182.124 71.7614 182.948 71.9697 183.951L68.6252 184.533C68.504 183.934 68.1759 183.446 67.6409 183.07C67.1193 182.674 66.4597 182.546 65.6622 182.685C64.9759 182.788 64.4279 183.059 64.0182 183.499C63.622 183.921 63.482 184.465 63.5982 185.132C63.6974 185.702 63.9558 186.126 64.3734 186.406C64.7881 186.669 65.3245 186.86 65.9827 186.981C66.6408 187.101 67.3913 187.222 68.2341 187.343C69.1314 187.489 69.964 187.696 70.7318 187.965C71.4997 188.233 72.1519 188.656 72.6884 189.234C73.2221 189.795 73.5768 190.58 73.7525 191.589C73.9083 192.484 73.825 193.354 73.5025 194.198C73.18 195.042 72.6123 195.778 71.7994 196.406C70.9836 197.018 69.9247 197.437 68.6227 197.664ZM77.2303 195.863L74.1695 178.286L77.2943 177.742L78.5697 185.065C78.8604 184.327 79.3149 183.712 79.9332 183.218C80.5651 182.706 81.3285 182.372 82.2236 182.216C83.721 181.955 84.9587 182.226 85.9368 183.028C86.9312 183.827 87.5871 185.138 87.9045 186.961L89.0948 193.797L85.9944 194.337L84.8551 187.794C84.6738 186.753 84.3233 185.992 83.8038 185.512C83.3006 185.03 82.6014 184.866 81.7063 185.022C80.8274 185.175 80.1489 185.612 79.6707 186.333C79.2087 187.05 79.0741 187.962 79.2669 189.069L80.3551 195.319L77.2303 195.863ZM91.3315 178.995C90.7618 179.094 90.2601 179.005 89.8263 178.729C89.4087 178.449 89.1546 178.049 89.0639 177.528C88.9732 177.008 89.0785 176.553 89.3799 176.165C89.6947 175.758 90.1369 175.505 90.7066 175.406C91.2762 175.307 91.7698 175.397 92.1873 175.676C92.6184 175.937 92.8792 176.327 92.9699 176.848C93.0606 177.369 92.9485 177.833 92.6337 178.24C92.3352 178.644 91.9011 178.896 91.3315 178.995ZM92.205 193.255L90.0964 181.147L93.2212 180.602L95.3298 192.711L92.205 193.255ZM99.1528 192.045L97.4991 182.549L95.8391 182.838L95.3842 180.226L97.0443 179.937L96.7977 178.521C96.5426 177.056 96.7274 175.951 97.3521 175.205C97.9931 174.456 98.9483 173.971 100.218 173.75L101.56 173.516L102.024 176.177L101.169 176.326C100.632 176.419 100.268 176.592 100.077 176.843C99.8862 177.094 99.8346 177.472 99.9225 177.977L100.169 179.393L102.781 178.938L103.236 181.55L100.624 182.005L102.278 191.501L99.1528 192.045ZM112.76 189.676C111.49 189.897 110.419 189.765 109.547 189.28C108.674 188.794 108.1 187.762 107.825 186.184L106.907 180.911L104.832 181.272L104.377 178.66L106.452 178.298L106.253 174.988L109.012 174.507L109.577 177.754L112.848 177.185L113.303 179.797L110.032 180.366L110.954 185.664C111.056 186.25 111.249 186.635 111.533 186.821C111.83 186.987 112.288 187.016 112.907 186.909L114.42 186.645L114.884 189.306L112.76 189.676Z" fill="url(#paint2_linear_11471_865)"/>
<g filter="url(#filter0_dddd_11471_865)">
<rect x="92.9219" y="198.186" width="195.2" height="70.4" rx="9.6" transform="rotate(5.479 92.9219 198.186)" fill="#0B7248"/>
<rect x="93.2273" y="195" width="195.2" height="67.2" rx="9.6" transform="rotate(5.479 93.2273 195)" fill="url(#paint3_linear_11471_865)"/>
<path d="M170.397 245.311L179.661 225.947L183.789 226.343L189.204 247.115L185.305 246.741L184.145 241.943L176.318 241.192L174.239 245.68L170.397 245.311ZM177.597 238.422L183.416 238.98L181.292 230.357L177.597 238.422ZM191.703 247.355L193.682 226.714L197.352 227.066L195.372 247.707L191.703 247.355ZM205.457 248.674C203.967 248.531 202.807 248.054 201.978 247.241C201.15 246.429 200.824 245.096 201.002 243.242L201.596 237.049L199.159 236.816L199.454 233.748L201.89 233.982L202.686 230.21L205.926 230.521L205.56 234.334L209.401 234.702L209.107 237.77L205.266 237.401L204.669 243.622C204.603 244.31 204.7 244.802 204.961 245.097C205.243 245.375 205.748 245.548 206.474 245.618L208.251 245.789L207.952 248.913L205.457 248.674Z" fill="url(#paint4_linear_11471_865)"/>
</g>
<g filter="url(#filter1_ddddd_11471_865)">
<rect x="123.538" y="85.0473" width="104.975" height="109.973" rx="14.9964" transform="rotate(-19.9089 123.538 85.0473)" fill="#0B7248"/>
<rect x="121.835" y="80.3472" width="104.975" height="104.975" rx="14.9964" transform="rotate(-19.9089 121.835 80.3472)" fill="url(#paint5_linear_11471_865)"/>
<rect x="127.8" y="84.6488" width="94.1137" height="94.1137" rx="12.8" transform="rotate(-19.9089 127.8 84.6488)" fill="url(#paint6_linear_11471_865)"/>
<rect x="135.467" y="87.3771" width="83.4326" height="83.4326" rx="9.29061" transform="rotate(-19.9089 135.467 87.3771)" fill="url(#paint7_linear_11471_865)"/>
<path d="M195.857 123.77C192.868 124.853 190.072 125.148 187.469 124.655C184.856 124.134 182.558 122.941 180.575 121.075C178.581 119.182 177.038 116.726 175.945 113.709C174.852 110.691 174.465 107.817 174.784 105.086C175.102 102.355 176.098 99.9524 177.772 97.8789C179.445 95.8055 181.777 94.2275 184.766 93.1449C188.319 91.858 191.545 91.6944 194.445 92.6539C197.362 93.575 199.68 95.5268 201.398 98.5092L195.434 100.669C194.485 99.1946 193.241 98.2257 191.701 97.7624C190.18 97.2608 188.432 97.3674 186.458 98.0824C183.723 99.0731 181.917 100.78 181.04 103.203C180.163 105.626 180.312 108.459 181.486 111.702C182.661 114.945 184.36 117.216 186.586 118.516C188.8 119.787 191.276 119.927 194.011 118.936C195.985 118.221 197.411 117.227 198.289 115.952C199.185 114.638 199.541 113.154 199.356 111.498L205.32 109.338C205.859 112.588 205.298 115.487 203.637 118.034C202.004 120.571 199.411 122.483 195.857 123.77Z" fill="url(#paint8_linear_11471_865)"/>
</g>
<defs>
<filter id="filter0_dddd_11471_865" x="42.272" y="191.072" width="250.791" height="162.157" filterUnits="userSpaceOnUse" color-interpolation-filters="sRGB">
<feFlood flood-opacity="0" result="BackgroundImageFix"/>
<feColorMatrix in="SourceAlpha" type="matrix" values="0 0 0 0 0 0 0 0 0 0 0 0 0 0 0 0 0 0 127 0" result="hardAlpha"/>
<feOffset dx="-1.6" dy="3.2"/>
<feGaussianBlur stdDeviation="4"/>
<feColorMatrix type="matrix" values="0 0 0 0 0.0470588 0 0 0 0 0.360784 0 0 0 0 0.239216 0 0 0 0.1 0"/>
<feBlend mode="normal" in2="BackgroundImageFix" result="effect1_dropShadow_11471_865"/>
<feColorMatrix in="SourceAlpha" type="matrix" values="0 0 0 0 0 0 0 0 0 0 0 0 0 0 0 0 0 0 127 0" result="hardAlpha"/>
<feOffset dx="-6.4" dy="11.2"/>
<feGaussianBlur stdDeviation="6.4"/>
<feColorMatrix type="matrix" values="0 0 0 0 0.0470588 0 0 0 0 0.360784 0 0 0 0 0.239216 0 0 0 0.09 0"/>
<feBlend mode="normal" in2="effect1_dropShadow_11471_865" result="effect2_dropShadow_11471_865"/>
<feColorMatrix in="SourceAlpha" type="matrix" values="0 0 0 0 0 0 0 0 0 0 0 0 0 0 0 0 0 0 127 0" result="hardAlpha"/>
<feOffset dx="-14.4" dy="27.2"/>
<feGaussianBlur stdDeviation="8.8"/>
<feColorMatrix type="matrix" values="0 0 0 0 0.0470588 0 0 0 0 0.360784 0 0 0 0 0.239216 0 0 0 0.05 0"/>
<feBlend mode="normal" in2="effect2_dropShadow_11471_865" result="effect3_dropShadow_11471_865"/>
<feColorMatrix in="SourceAlpha" type="matrix" values="0 0 0 0 0 0 0 0 0 0 0 0 0 0 0 0 0 0 127 0" result="hardAlpha"/>
<feOffset dx="-24" dy="46.4"/>
<feGaussianBlur stdDeviation="10.4"/>
<feColorMatrix type="matrix" values="0 0 0 0 0.0470588 0 0 0 0 0.360784 0 0 0 0 0.239216 0 0 0 0.01 0"/>
<feBlend mode="normal" in2="effect3_dropShadow_11471_865" result="effect4_dropShadow_11471_865"/>
<feBlend mode="normal" in="SourceGraphic" in2="effect4_dropShadow_11471_865" result="shape"/>
</filter>
<filter id="filter1_ddddd_11471_865" x="7.6415" y="40.807" width="263.839" height="340.235" filterUnits="userSpaceOnUse" color-interpolation-filters="sRGB">
<feFlood flood-opacity="0" result="BackgroundImageFix"/>
<feColorMatrix in="SourceAlpha" type="matrix" values="0 0 0 0 0 0 0 0 0 0 0 0 0 0 0 0 0 0 127 0" result="hardAlpha"/>
<feOffset dx="-3.2" dy="6.4"/>
<feGaussianBlur stdDeviation="7.2"/>
<feColorMatrix type="matrix" values="0 0 0 0 0.0470588 0 0 0 0 0.172549 0 0 0 0 0.12549 0 0 0 0.42 0"/>
<feBlend mode="normal" in2="BackgroundImageFix" result="effect1_dropShadow_11471_865"/>
<feColorMatrix in="SourceAlpha" type="matrix" values="0 0 0 0 0 0 0 0 0 0 0 0 0 0 0 0 0 0 127 0" result="hardAlpha"/>
<feOffset dx="-11.2" dy="24"/>
<feGaussianBlur stdDeviation="13.6"/>
<feColorMatrix type="matrix" values="0 0 0 0 0.0470588 0 0 0 0 0.172549 0 0 0 0 0.12549 0 0 0 0.36 0"/>
<feBlend mode="normal" in2="effect1_dropShadow_11471_865" result="effect2_dropShadow_11471_865"/>
<feColorMatrix in="SourceAlpha" type="matrix" values="0 0 0 0 0 0 0 0 0 0 0 0 0 0 0 0 0 0 127 0" result="hardAlpha"/>
<feOffset dx="-25.6" dy="54.4"/>
<feGaussianBlur stdDeviation="17.6"/>
<feColorMatrix type="matrix" values="0 0 0 0 0.0470588 0 0 0 0 0.172549 0 0 0 0 0.12549 0 0 0 0.21 0"/>
<feBlend mode="normal" in2="effect2_dropShadow_11471_865" result="effect3_dropShadow_11471_865"/>
<feColorMatrix in="SourceAlpha" type="matrix" values="0 0 0 0 0 0 0 0 0 0 0 0 0 0 0 0 0 0 127 0" result="hardAlpha"/>
<feOffset dx="-46.4" dy="96"/>
<feGaussianBlur stdDeviation="21.6"/>
<feColorMatrix type="matrix" values="0 0 0 0 0.0470588 0 0 0 0 0.172549 0 0 0 0 0.12549 0 0 0 0.06 0"/>
<feBlend mode="normal" in2="effect3_dropShadow_11471_865" result="effect4_dropShadow_11471_865"/>
<feColorMatrix in="SourceAlpha" type="matrix" values="0 0 0 0 0 0 0 0 0 0 0 0 0 0 0 0 0 0 127 0" result="hardAlpha"/>
<feOffset dx="-72" dy="150.4"/>
<feGaussianBlur stdDeviation="23.2"/>
<feColorMatrix type="matrix" values="0 0 0 0 0.0470588 0 0 0 0 0.172549 0 0 0 0 0.12549 0 0 0 0.01 0"/>
<feBlend mode="normal" in2="effect4_dropShadow_11471_865" result="effect5_dropShadow_11471_865"/>
<feBlend mode="normal" in="SourceGraphic" in2="effect5_dropShadow_11471_865" result="shape"/>
</filter>
<linearGradient id="paint0_linear_11471_865" x1="61.0239" y1="178.275" x2="109.032" y2="-2.23461" gradientUnits="userSpaceOnUse">
<stop stop-color="#424242"/>
<stop offset="1" stop-color="#525252"/>
</linearGradient>
<linearGradient id="paint1_linear_11471_865" x1="49.8988" y1="246.568" x2="49.7191" y2="182.734" gradientUnits="userSpaceOnUse">
<stop offset="0.095" stop-color="#058751"/>
<stop offset="0.955" stop-color="#01B86C"/>
</linearGradient>
<linearGradient id="paint2_linear_11471_865" x1="77.5321" y1="212.782" x2="76.2255" y2="158.101" gradientUnits="userSpaceOnUse">
<stop stop-color="#B2FFDD"/>
<stop offset="1" stop-color="#FAFAFA"/>
</linearGradient>
<linearGradient id="paint3_linear_11471_865" x1="150.542" y1="281.35" x2="150.334" y2="207.16" gradientUnits="userSpaceOnUse">
<stop offset="0.095" stop-color="#058751"/>
<stop offset="0.955" stop-color="#01B86C"/>
</linearGradient>
<linearGradient id="paint4_linear_11471_865" x1="177.702" y1="265.389" x2="198.174" y2="206.436" gradientUnits="userSpaceOnUse">
<stop stop-color="#B2FFDD"/>
<stop offset="1" stop-color="#FAFAFA"/>
</linearGradient>
<linearGradient id="paint5_linear_11471_865" x1="152.658" y1="215.235" x2="151.71" y2="99.3482" gradientUnits="userSpaceOnUse">
<stop offset="0.095" stop-color="#058751"/>
<stop offset="0.955" stop-color="#01B86C"/>
</linearGradient>
<linearGradient id="paint6_linear_11471_865" x1="198.599" y1="187.746" x2="143.59" y2="79.7527" gradientUnits="userSpaceOnUse">
<stop stop-color="#01B86C"/>
<stop offset="0.322807" stop-color="#058751"/>
<stop offset="1" stop-color="#01B86C"/>
</linearGradient>
<linearGradient id="paint7_linear_11471_865" x1="185.669" y1="165.571" x2="152.104" y2="131.81" gradientUnits="userSpaceOnUse">
<stop stop-color="#0B5C3C"/>
<stop offset="1" stop-color="#0A7147"/>
</linearGradient>
<linearGradient id="paint8_linear_11471_865" x1="197.667" y1="155.043" x2="204.174" y2="64.0031" gradientUnits="userSpaceOnUse">
<stop stop-color="#B2FFDD"/>
<stop offset="1" stop-color="#FAFAFA"/>
</linearGradient>
</defs>
</svg>
