<svg width="320" height="403" viewBox="0 0 320 403" fill="none" xmlns="http://www.w3.org/2000/svg">
<path d="M43.345 52.4993H275.657V181.392C275.657 182.714 274.828 183.981 273.351 184.915C271.874 185.849 269.871 186.374 267.782 186.374H51.22C49.1314 186.374 47.1284 185.849 45.6515 184.915C44.1747 183.981 43.345 182.714 43.345 181.392V52.4993Z" fill="url(#paint0_linear_11471_913)"/>
<path d="M43.345 52.5H275.657V28.875C275.657 26.7864 274.828 24.7834 273.351 23.3065C271.874 21.8297 269.871 21 267.782 21H51.22C49.1314 21 47.1283 21.8297 45.6515 23.3065C44.1746 24.7834 43.345 26.7864 43.345 28.875V52.5Z" fill="#737373"/>
<path d="M91.5786 36.7493C91.5786 35.9705 91.8096 35.2092 92.2422 34.5617C92.6749 33.9142 93.2898 33.4095 94.0093 33.1115C94.7288 32.8135 95.5205 32.7355 96.2843 32.8874C97.0481 33.0393 97.7497 33.4144 98.3004 33.965C98.851 34.5157 99.226 35.2173 99.378 35.9811C99.5299 36.7449 99.4519 37.5366 99.1539 38.2561C98.8558 38.9756 98.3512 39.5905 97.7037 40.0232C97.0562 40.4558 96.2949 40.6868 95.5161 40.6868C94.4718 40.6868 93.4703 40.2719 92.7319 39.5335C91.9935 38.7951 91.5786 37.7936 91.5786 36.7493ZM75.8286 36.7493C75.8286 35.9705 76.0596 35.2092 76.4922 34.5617C76.9249 33.9142 77.5398 33.4095 78.2593 33.1115C78.9788 32.8135 79.7705 32.7355 80.5343 32.8874C81.2981 33.0393 81.9997 33.4144 82.5504 33.965C83.101 34.5157 83.476 35.2173 83.628 35.9811C83.7799 36.7449 83.7019 37.5366 83.4039 38.2561C83.1058 38.9756 82.6012 39.5905 81.9537 40.0232C81.3062 40.4558 80.5449 40.6868 79.7661 40.6868C78.7218 40.6868 77.7203 40.2719 76.9819 39.5335C76.2435 38.7951 75.8286 37.7936 75.8286 36.7493ZM60.0786 36.7493C60.0786 35.9705 60.3096 35.2092 60.7422 34.5617C61.1749 33.9142 61.7898 33.4095 62.5093 33.1115C63.2288 32.8135 64.0205 32.7355 64.7843 32.8874C65.5481 33.0393 66.2497 33.4144 66.8003 33.965C67.351 34.5157 67.726 35.2173 67.878 35.9811C68.0299 36.7449 67.9519 37.5366 67.6539 38.2561C67.3558 38.9756 66.8512 39.5905 66.2037 40.0232C65.5562 40.4558 64.7949 40.6868 64.0161 40.6868C62.9718 40.6868 61.9703 40.2719 61.2319 39.5335C60.4935 38.7951 60.0786 37.7936 60.0786 36.7493Z" fill="#424242"/>
<rect x="14.0562" y="195.984" width="167.953" height="60.5732" rx="8" transform="rotate(-9.87826 14.0562 195.984)" fill="url(#paint1_linear_11471_913)"/>
<rect x="13.584" y="193.272" width="167.953" height="57.8199" rx="8" transform="rotate(-9.87826 13.584 193.272)" fill="url(#paint2_linear_11471_913)"/>
<path d="M81.6227 218.664C80.3695 218.882 79.226 218.863 78.1921 218.607C77.1553 218.335 76.2908 217.848 75.5986 217.147C74.9036 216.43 74.4473 215.495 74.2298 214.342L77.5255 213.768C77.6969 214.56 78.0993 215.186 78.7328 215.646C79.3797 216.086 80.1832 216.223 81.1434 216.056C81.9735 215.911 82.5986 215.601 83.0188 215.126C83.4362 214.634 83.5868 214.054 83.4706 213.387C83.3488 212.687 83.0341 212.18 82.5267 211.866C82.0355 211.549 81.4106 211.331 80.652 211.212C79.8934 211.092 79.0831 210.965 78.2212 210.83C76.8235 210.604 75.7125 210.194 74.8879 209.599C74.0797 209.002 73.5721 208.11 73.3652 206.922C73.1732 205.915 73.259 205.012 73.6226 204.211C73.9996 203.39 74.5853 202.71 75.3799 202.169C76.1716 201.612 77.129 201.236 78.2519 201.04C79.3912 200.842 80.4275 200.871 81.361 201.128C82.3107 201.381 83.0934 201.832 83.7092 202.479C84.3413 203.124 84.7614 203.948 84.9697 204.951L81.6252 205.534C81.504 204.934 81.1759 204.446 80.6409 204.07C80.1193 203.675 79.4597 203.546 78.6622 203.685C77.9759 203.788 77.4279 204.059 77.0182 204.5C76.622 204.921 76.482 205.465 76.5982 206.132C76.6974 206.702 76.9558 207.126 77.3734 207.406C77.7881 207.669 78.3245 207.861 78.9827 207.981C79.6408 208.101 80.3913 208.222 81.2341 208.343C82.1314 208.489 82.964 208.696 83.7318 208.965C84.4997 209.234 85.1519 209.657 85.6884 210.234C86.2221 210.795 86.5768 211.58 86.7525 212.589C86.9083 213.484 86.825 214.354 86.5025 215.198C86.18 216.042 85.6123 216.778 84.7994 217.406C83.9836 218.018 82.9247 218.437 81.6227 218.664ZM90.2303 216.863L87.1695 199.286L90.2943 198.742L91.5697 206.066C91.8604 205.327 92.3149 204.712 92.9332 204.218C93.5651 203.706 94.3285 203.372 95.2236 203.216C96.721 202.955 97.9587 203.226 98.9368 204.028C99.9312 204.828 100.587 206.139 100.905 207.961L102.095 214.797L98.9944 215.337L97.8551 208.794C97.6738 207.753 97.3233 206.992 96.8038 206.512C96.3006 206.03 95.6014 205.867 94.7063 206.022C93.8274 206.176 93.1489 206.612 92.6707 207.333C92.2087 208.05 92.0741 208.963 92.2669 210.069L93.3551 216.319L90.2303 216.863ZM104.331 199.995C103.762 200.094 103.26 200.005 102.826 199.729C102.409 199.449 102.155 199.049 102.064 198.528C101.973 198.008 102.079 197.553 102.38 197.166C102.695 196.759 103.137 196.505 103.707 196.406C104.276 196.307 104.77 196.397 105.187 196.677C105.618 196.937 105.879 197.328 105.97 197.848C106.061 198.369 105.949 198.833 105.634 199.24C105.335 199.644 104.901 199.896 104.331 199.995ZM105.205 214.255L103.096 202.147L106.221 201.603L108.33 213.711L105.205 214.255ZM112.153 213.046L110.499 203.549L108.839 203.838L108.384 201.226L110.044 200.937L109.798 199.521C109.543 198.056 109.727 196.951 110.352 196.205C110.993 195.456 111.948 194.971 113.218 194.75L114.56 194.516L115.024 197.177L114.169 197.326C113.632 197.42 113.268 197.592 113.077 197.843C112.886 198.094 112.835 198.472 112.923 198.977L113.169 200.393L115.781 199.938L116.236 202.55L113.624 203.005L115.278 212.501L112.153 213.046ZM125.76 210.676C124.49 210.897 123.419 210.765 122.547 210.28C121.674 209.795 121.1 208.763 120.825 207.184L119.907 201.911L117.832 202.272L117.377 199.66L119.452 199.299L119.253 195.988L122.012 195.508L122.577 198.754L125.848 198.185L126.303 200.797L123.032 201.367L123.954 206.664C124.056 207.25 124.249 207.636 124.533 207.821C124.83 207.987 125.288 208.017 125.907 207.909L127.42 207.645L127.884 210.306L125.76 210.676Z" fill="url(#paint3_linear_11471_913)"/>
<g filter="url(#filter0_dddd_11471_913)">
<rect x="105.922" y="219.186" width="195.2" height="70.4" rx="9" transform="rotate(5.479 105.922 219.186)" fill="url(#paint4_linear_11471_913)"/>
<rect x="106.227" y="216" width="195.2" height="67.2" rx="9" transform="rotate(5.479 106.227 216)" fill="url(#paint5_linear_11471_913)"/>
<path d="M183.397 266.311L192.661 246.947L196.789 247.343L202.204 268.115L198.305 267.741L197.145 262.943L189.318 262.192L187.239 266.68L183.397 266.311ZM190.597 259.422L196.416 259.98L194.292 251.357L190.597 259.422ZM204.703 268.355L206.682 247.714L210.352 248.066L208.372 268.707L204.703 268.355ZM218.457 269.674C216.967 269.531 215.807 269.054 214.978 268.241C214.15 267.429 213.824 266.096 214.002 264.242L214.596 258.049L212.159 257.816L212.454 254.748L214.89 254.982L215.686 251.21L218.926 251.521L218.56 255.334L222.401 255.702L222.107 258.77L218.266 258.401L217.669 264.622C217.603 265.31 217.7 265.802 217.961 266.097C218.243 266.375 218.748 266.548 219.474 266.618L221.251 266.789L220.952 269.913L218.457 269.674Z" fill="url(#paint6_linear_11471_913)"/>
</g>
<g filter="url(#filter1_ddddd_11471_913)">
<rect x="136.538" y="106.048" width="104.975" height="109.973" rx="15" transform="rotate(-19.9089 136.538 106.048)" fill="url(#paint7_linear_11471_913)"/>
<rect x="134.835" y="101.347" width="104.975" height="104.975" rx="15" transform="rotate(-19.9089 134.835 101.347)" fill="url(#paint8_linear_11471_913)"/>
<rect x="140.8" y="105.649" width="94.1137" height="94.1137" rx="12" transform="rotate(-19.9089 140.8 105.649)" fill="url(#paint9_linear_11471_913)"/>
<rect x="147.467" y="108.377" width="83.4326" height="83.4326" rx="9" transform="rotate(-19.9089 147.467 108.377)" fill="url(#paint10_linear_11471_913)"/>
<path d="M193.361 149.809L193.466 116.277L199.557 114.071L221.11 139.759L215.357 141.842L210.506 135.848L198.958 140.03L199.029 147.756L193.361 149.809ZM198.907 135.264L207.494 132.154L198.721 121.407L198.907 135.264Z" fill="url(#paint11_linear_11471_913)"/>
</g>
<defs>
<filter id="filter0_dddd_11471_913" x="55.2176" y="212.018" width="250.9" height="162.266" filterUnits="userSpaceOnUse" color-interpolation-filters="sRGB">
<feFlood flood-opacity="0" result="BackgroundImageFix"/>
<feColorMatrix in="SourceAlpha" type="matrix" values="0 0 0 0 0 0 0 0 0 0 0 0 0 0 0 0 0 0 127 0" result="hardAlpha"/>
<feOffset dx="-1.6" dy="3.2"/>
<feGaussianBlur stdDeviation="4"/>
<feColorMatrix type="matrix" values="0 0 0 0 0.0470588 0 0 0 0 0.360784 0 0 0 0 0.239216 0 0 0 0.1 0"/>
<feBlend mode="normal" in2="BackgroundImageFix" result="effect1_dropShadow_11471_913"/>
<feColorMatrix in="SourceAlpha" type="matrix" values="0 0 0 0 0 0 0 0 0 0 0 0 0 0 0 0 0 0 127 0" result="hardAlpha"/>
<feOffset dx="-6.4" dy="11.2"/>
<feGaussianBlur stdDeviation="6.4"/>
<feColorMatrix type="matrix" values="0 0 0 0 0.0470588 0 0 0 0 0.360784 0 0 0 0 0.239216 0 0 0 0.09 0"/>
<feBlend mode="normal" in2="effect1_dropShadow_11471_913" result="effect2_dropShadow_11471_913"/>
<feColorMatrix in="SourceAlpha" type="matrix" values="0 0 0 0 0 0 0 0 0 0 0 0 0 0 0 0 0 0 127 0" result="hardAlpha"/>
<feOffset dx="-14.4" dy="27.2"/>
<feGaussianBlur stdDeviation="8.8"/>
<feColorMatrix type="matrix" values="0 0 0 0 0.0470588 0 0 0 0 0.360784 0 0 0 0 0.239216 0 0 0 0.05 0"/>
<feBlend mode="normal" in2="effect2_dropShadow_11471_913" result="effect3_dropShadow_11471_913"/>
<feColorMatrix in="SourceAlpha" type="matrix" values="0 0 0 0 0 0 0 0 0 0 0 0 0 0 0 0 0 0 127 0" result="hardAlpha"/>
<feOffset dx="-24" dy="46.4"/>
<feGaussianBlur stdDeviation="10.4"/>
<feColorMatrix type="matrix" values="0 0 0 0 0.0470588 0 0 0 0 0.360784 0 0 0 0 0.239216 0 0 0 0.01 0"/>
<feBlend mode="normal" in2="effect3_dropShadow_11471_913" result="effect4_dropShadow_11471_913"/>
<feBlend mode="normal" in="SourceGraphic" in2="effect4_dropShadow_11471_913" result="shape"/>
</filter>
<filter id="filter1_ddddd_11471_913" x="20.6425" y="61.8083" width="263.837" height="340.233" filterUnits="userSpaceOnUse" color-interpolation-filters="sRGB">
<feFlood flood-opacity="0" result="BackgroundImageFix"/>
<feColorMatrix in="SourceAlpha" type="matrix" values="0 0 0 0 0 0 0 0 0 0 0 0 0 0 0 0 0 0 127 0" result="hardAlpha"/>
<feOffset dx="-3.2" dy="6.4"/>
<feGaussianBlur stdDeviation="7.2"/>
<feColorMatrix type="matrix" values="0 0 0 0 0.0470588 0 0 0 0 0.172549 0 0 0 0 0.12549 0 0 0 0.42 0"/>
<feBlend mode="normal" in2="BackgroundImageFix" result="effect1_dropShadow_11471_913"/>
<feColorMatrix in="SourceAlpha" type="matrix" values="0 0 0 0 0 0 0 0 0 0 0 0 0 0 0 0 0 0 127 0" result="hardAlpha"/>
<feOffset dx="-11.2" dy="24"/>
<feGaussianBlur stdDeviation="13.6"/>
<feColorMatrix type="matrix" values="0 0 0 0 0.0470588 0 0 0 0 0.172549 0 0 0 0 0.12549 0 0 0 0.36 0"/>
<feBlend mode="normal" in2="effect1_dropShadow_11471_913" result="effect2_dropShadow_11471_913"/>
<feColorMatrix in="SourceAlpha" type="matrix" values="0 0 0 0 0 0 0 0 0 0 0 0 0 0 0 0 0 0 127 0" result="hardAlpha"/>
<feOffset dx="-25.6" dy="54.4"/>
<feGaussianBlur stdDeviation="17.6"/>
<feColorMatrix type="matrix" values="0 0 0 0 0.0470588 0 0 0 0 0.172549 0 0 0 0 0.12549 0 0 0 0.21 0"/>
<feBlend mode="normal" in2="effect2_dropShadow_11471_913" result="effect3_dropShadow_11471_913"/>
<feColorMatrix in="SourceAlpha" type="matrix" values="0 0 0 0 0 0 0 0 0 0 0 0 0 0 0 0 0 0 127 0" result="hardAlpha"/>
<feOffset dx="-46.4" dy="96"/>
<feGaussianBlur stdDeviation="21.6"/>
<feColorMatrix type="matrix" values="0 0 0 0 0.0470588 0 0 0 0 0.172549 0 0 0 0 0.12549 0 0 0 0.06 0"/>
<feBlend mode="normal" in2="effect3_dropShadow_11471_913" result="effect4_dropShadow_11471_913"/>
<feColorMatrix in="SourceAlpha" type="matrix" values="0 0 0 0 0 0 0 0 0 0 0 0 0 0 0 0 0 0 127 0" result="hardAlpha"/>
<feOffset dx="-72" dy="150.4"/>
<feGaussianBlur stdDeviation="23.2"/>
<feColorMatrix type="matrix" values="0 0 0 0 0.0470588 0 0 0 0 0.172549 0 0 0 0 0.12549 0 0 0 0.01 0"/>
<feBlend mode="normal" in2="effect4_dropShadow_11471_913" result="effect5_dropShadow_11471_913"/>
<feBlend mode="normal" in="SourceGraphic" in2="effect5_dropShadow_11471_913" result="shape"/>
</filter>
<linearGradient id="paint0_linear_11471_913" x1="74.3364" y1="197.593" x2="121.891" y2="18.7857" gradientUnits="userSpaceOnUse">
<stop stop-color="#424242"/>
<stop offset="1" stop-color="#525252"/>
</linearGradient>
<linearGradient id="paint1_linear_11471_913" x1="113.593" y1="242.649" x2="101.86" y2="206.383" gradientUnits="userSpaceOnUse">
<stop stop-color="#073769"/>
<stop offset="1" stop-color="#154A82"/>
</linearGradient>
<linearGradient id="paint2_linear_11471_913" x1="121.735" y1="259.536" x2="120.992" y2="202.616" gradientUnits="userSpaceOnUse">
<stop stop-color="#4381C0"/>
<stop offset="0.322807" stop-color="#235B95"/>
<stop offset="1" stop-color="#4381C0"/>
</linearGradient>
<linearGradient id="paint3_linear_11471_913" x1="90.5321" y1="233.782" x2="89.2255" y2="179.101" gradientUnits="userSpaceOnUse">
<stop stop-color="#E6EFF9"/>
<stop offset="1" stop-color="#FAFAFA"/>
</linearGradient>
<linearGradient id="paint4_linear_11471_913" x1="221.607" y1="273.421" x2="207.97" y2="231.272" gradientUnits="userSpaceOnUse">
<stop stop-color="#073769"/>
<stop offset="1" stop-color="#154A82"/>
</linearGradient>
<linearGradient id="paint5_linear_11471_913" x1="231.748" y1="296.382" x2="232.657" y2="228.476" gradientUnits="userSpaceOnUse">
<stop stop-color="#4381C0"/>
<stop offset="0.322807" stop-color="#235B95"/>
<stop offset="1" stop-color="#4381C0"/>
</linearGradient>
<linearGradient id="paint6_linear_11471_913" x1="190.702" y1="286.389" x2="211.174" y2="227.436" gradientUnits="userSpaceOnUse">
<stop stop-color="#E6EFF9"/>
<stop offset="1" stop-color="#FAFAFA"/>
</linearGradient>
<linearGradient id="paint7_linear_11471_913" x1="198.751" y1="190.77" x2="162.453" y2="152.147" gradientUnits="userSpaceOnUse">
<stop stop-color="#073769"/>
<stop offset="1" stop-color="#154A82"/>
</linearGradient>
<linearGradient id="paint8_linear_11471_913" x1="183.667" y1="223.956" x2="169.094" y2="119.606" gradientUnits="userSpaceOnUse">
<stop stop-color="#4381C0"/>
<stop offset="0.322807" stop-color="#235B95"/>
<stop offset="1" stop-color="#4381C0"/>
</linearGradient>
<linearGradient id="paint9_linear_11471_913" x1="211.599" y1="208.746" x2="156.59" y2="100.753" gradientUnits="userSpaceOnUse">
<stop stop-color="#235B95"/>
<stop offset="0.322807" stop-color="#4381C0"/>
<stop offset="1" stop-color="#235B95"/>
</linearGradient>
<linearGradient id="paint10_linear_11471_913" x1="196.914" y1="172.653" x2="169.485" y2="142.077" gradientUnits="userSpaceOnUse">
<stop stop-color="#154A82"/>
<stop offset="1" stop-color="#235B95"/>
</linearGradient>
<linearGradient id="paint11_linear_11471_913" x1="210.204" y1="176.21" x2="218.711" y2="86.298" gradientUnits="userSpaceOnUse">
<stop stop-color="#E6EFF9"/>
<stop offset="1" stop-color="#FAFAFA"/>
</linearGradient>
</defs>
</svg>
