<svg width="320" height="403" viewBox="0 0 320 403" fill="none" xmlns="http://www.w3.org/2000/svg">
<path d="M42.7373 52.8H277.262V182.92C277.262 184.254 276.425 185.534 274.934 186.477C273.443 187.42 271.421 187.95 269.312 187.95H50.6873C48.5788 187.95 46.5567 187.42 45.0658 186.477C43.5749 185.534 42.7373 184.254 42.7373 182.92V52.8Z" fill="url(#paint0_linear_11471_864)"/>
<path d="M42.7373 52.8H277.262V28.95C277.262 26.8415 276.425 24.8194 274.934 23.3285C273.443 21.8376 271.421 21 269.312 21H50.6873C48.5788 21 46.5567 21.8376 45.0658 23.3285C43.5749 24.8194 42.7373 26.8415 42.7373 28.95V52.8Z" fill="#737373"/>
<path d="M91.4311 36.9C91.4311 36.1138 91.6642 35.3453 92.101 34.6916C92.5378 34.0379 93.1586 33.5285 93.8849 33.2276C94.6112 32.9267 95.4105 32.848 96.1816 33.0014C96.9526 33.1547 97.6609 33.5333 98.2169 34.0892C98.7728 34.6452 99.1514 35.3535 99.3047 36.1245C99.4581 36.8956 99.3794 37.6949 99.0785 38.4212C98.7776 39.1475 98.2682 39.7683 97.6145 40.2051C96.9608 40.6419 96.1923 40.875 95.4061 40.875C94.3519 40.875 93.3408 40.4562 92.5953 39.7107C91.8499 38.9653 91.4311 37.9542 91.4311 36.9ZM75.5311 36.9C75.5311 36.1138 75.7642 35.3453 76.201 34.6916C76.6378 34.0379 77.2586 33.5285 77.9849 33.2276C78.7112 32.9267 79.5105 32.848 80.2816 33.0014C81.0526 33.1547 81.7609 33.5333 82.3169 34.0892C82.8728 34.6452 83.2514 35.3535 83.4047 36.1245C83.5581 36.8956 83.4794 37.6949 83.1785 38.4212C82.8776 39.1475 82.3682 39.7683 81.7145 40.2051C81.0608 40.6419 80.2923 40.875 79.5061 40.875C78.4519 40.875 77.4408 40.4562 76.6954 39.7107C75.9499 38.9653 75.5311 37.9542 75.5311 36.9ZM59.6311 36.9C59.6311 36.1138 59.8642 35.3453 60.301 34.6916C60.7378 34.0379 61.3586 33.5285 62.0849 33.2276C62.8112 32.9267 63.6105 32.848 64.3816 33.0014C65.1526 33.1547 65.8609 33.5333 66.4169 34.0892C66.9728 34.6452 67.3514 35.3535 67.5047 36.1245C67.6581 36.8956 67.5794 37.6949 67.2785 38.4212C66.9776 39.1475 66.4682 39.7683 65.8145 40.2051C65.1608 40.6419 64.3923 40.875 63.6061 40.875C62.5519 40.875 61.5408 40.4562 60.7954 39.7107C60.0499 38.9653 59.6311 37.9542 59.6311 36.9Z" fill="#424242"/>
<rect x="14.0562" y="195.984" width="167.953" height="60.5732" rx="8.25998" transform="rotate(-9.87826 14.0562 195.984)" fill="#0B7248"/>
<rect x="13.584" y="193.272" width="167.953" height="57.8199" rx="8.25998" transform="rotate(-9.87826 13.584 193.272)" fill="url(#paint1_linear_11471_864)"/>
<path d="M81.6227 218.664C80.3695 218.882 79.226 218.863 78.1921 218.607C77.1553 218.335 76.2908 217.848 75.5986 217.147C74.9036 216.43 74.4473 215.495 74.2298 214.342L77.5255 213.768C77.6969 214.56 78.0993 215.186 78.7328 215.645C79.3797 216.086 80.1832 216.223 81.1434 216.056C81.9735 215.911 82.5986 215.601 83.0188 215.125C83.4362 214.634 83.5868 214.054 83.4706 213.387C83.3488 212.687 83.0341 212.18 82.5267 211.866C82.0355 211.549 81.4106 211.331 80.652 211.211C79.8934 211.092 79.0831 210.965 78.2212 210.83C76.8235 210.604 75.7125 210.193 74.8879 209.599C74.0797 209.002 73.5721 208.11 73.3652 206.921C73.1732 205.915 73.259 205.012 73.6226 204.21C73.9996 203.39 74.5853 202.71 75.3799 202.169C76.1716 201.612 77.129 201.235 78.2519 201.04C79.3912 200.842 80.4275 200.871 81.361 201.127C82.3107 201.381 83.0934 201.832 83.7092 202.479C84.3413 203.124 84.7614 203.948 84.9697 204.951L81.6252 205.533C81.504 204.934 81.1759 204.446 80.6409 204.07C80.1193 203.674 79.4597 203.546 78.6622 203.685C77.9759 203.788 77.4279 204.059 77.0182 204.499C76.622 204.921 76.482 205.465 76.5982 206.132C76.6974 206.702 76.9558 207.126 77.3734 207.406C77.7881 207.669 78.3245 207.86 78.9827 207.981C79.6408 208.101 80.3913 208.222 81.2341 208.343C82.1314 208.489 82.964 208.696 83.7318 208.965C84.4997 209.233 85.1519 209.656 85.6884 210.234C86.2221 210.795 86.5768 211.58 86.7525 212.589C86.9083 213.484 86.825 214.354 86.5025 215.198C86.18 216.042 85.6123 216.778 84.7994 217.406C83.9836 218.018 82.9247 218.437 81.6227 218.664ZM90.2303 216.863L87.1695 199.286L90.2943 198.742L91.5697 206.065C91.8604 205.327 92.3149 204.712 92.9332 204.218C93.5651 203.706 94.3285 203.372 95.2236 203.216C96.721 202.955 97.9587 203.226 98.9368 204.028C99.9312 204.827 100.587 206.138 100.905 207.961L102.095 214.797L98.9944 215.337L97.8551 208.794C97.6738 207.753 97.3233 206.992 96.8038 206.512C96.3006 206.03 95.6014 205.866 94.7063 206.022C93.8274 206.175 93.1489 206.612 92.6707 207.333C92.2087 208.05 92.0741 208.962 92.2669 210.069L93.3551 216.319L90.2303 216.863ZM104.331 199.995C103.762 200.094 103.26 200.005 102.826 199.729C102.409 199.449 102.155 199.049 102.064 198.528C101.973 198.008 102.079 197.553 102.38 197.165C102.695 196.758 103.137 196.505 103.707 196.406C104.276 196.307 104.77 196.397 105.187 196.676C105.618 196.937 105.879 197.327 105.97 197.848C106.061 198.369 105.949 198.833 105.634 199.24C105.335 199.644 104.901 199.896 104.331 199.995ZM105.205 214.255L103.096 202.147L106.221 201.602L108.33 213.711L105.205 214.255ZM112.153 213.045L110.499 203.549L108.839 203.838L108.384 201.226L110.044 200.937L109.798 199.521C109.543 198.056 109.727 196.951 110.352 196.205C110.993 195.456 111.948 194.971 113.218 194.75L114.56 194.516L115.024 197.177L114.169 197.326C113.632 197.419 113.268 197.592 113.077 197.843C112.886 198.094 112.835 198.472 112.923 198.977L113.169 200.393L115.781 199.938L116.236 202.55L113.624 203.005L115.278 212.501L112.153 213.045ZM125.76 210.676C124.49 210.897 123.419 210.765 122.547 210.28C121.674 209.794 121.1 208.762 120.825 207.184L119.907 201.911L117.832 202.272L117.377 199.66L119.452 199.298L119.253 195.988L122.012 195.507L122.577 198.754L125.848 198.185L126.303 200.797L123.032 201.366L123.954 206.664C124.056 207.25 124.249 207.635 124.533 207.821C124.83 207.987 125.288 208.016 125.907 207.909L127.42 207.645L127.884 210.306L125.76 210.676Z" fill="url(#paint2_linear_11471_864)"/>
<g filter="url(#filter0_dddd_11471_864)">
<rect x="105.922" y="219.186" width="195.2" height="70.4" rx="9.6" transform="rotate(5.479 105.922 219.186)" fill="#0B7248"/>
<rect x="106.227" y="216" width="195.2" height="67.2" rx="9.6" transform="rotate(5.479 106.227 216)" fill="url(#paint3_linear_11471_864)"/>
<path d="M183.397 266.311L192.661 246.947L196.789 247.343L202.204 268.115L198.305 267.741L197.145 262.943L189.318 262.192L187.239 266.68L183.397 266.311ZM190.597 259.422L196.416 259.98L194.292 251.357L190.597 259.422ZM204.703 268.355L206.682 247.714L210.352 248.066L208.372 268.707L204.703 268.355ZM218.457 269.674C216.967 269.531 215.807 269.054 214.978 268.241C214.15 267.429 213.824 266.096 214.002 264.242L214.596 258.049L212.159 257.816L212.454 254.748L214.89 254.982L215.686 251.21L218.926 251.521L218.56 255.334L222.401 255.702L222.107 258.77L218.266 258.401L217.669 264.622C217.603 265.31 217.7 265.802 217.961 266.097C218.243 266.375 218.748 266.548 219.474 266.618L221.251 266.789L220.952 269.913L218.457 269.674Z" fill="url(#paint4_linear_11471_864)"/>
</g>
<g filter="url(#filter1_ddddd_11471_864)">
<rect x="136.538" y="106.047" width="104.975" height="109.973" rx="14.9964" transform="rotate(-19.9089 136.538 106.047)" fill="#0B7248"/>
<rect x="134.835" y="101.347" width="104.975" height="104.975" rx="14.9964" transform="rotate(-19.9089 134.835 101.347)" fill="url(#paint5_linear_11471_864)"/>
<rect x="140.8" y="105.649" width="94.1137" height="94.1137" rx="12.8" transform="rotate(-19.9089 140.8 105.649)" fill="url(#paint6_linear_11471_864)"/>
<rect x="148.467" y="108.377" width="83.4326" height="83.4326" rx="9.29061" transform="rotate(-19.9089 148.467 108.377)" fill="url(#paint7_linear_11471_864)"/>
<path d="M193.361 149.809L193.466 116.276L199.557 114.07L221.11 139.759L215.357 141.842L210.506 135.847L198.958 140.03L199.029 147.756L193.361 149.809ZM198.907 135.264L207.494 132.154L198.721 121.407L198.907 135.264Z" fill="url(#paint8_linear_11471_864)"/>
</g>
<defs>
<filter id="filter0_dddd_11471_864" x="55.272" y="212.072" width="250.791" height="162.157" filterUnits="userSpaceOnUse" color-interpolation-filters="sRGB">
<feFlood flood-opacity="0" result="BackgroundImageFix"/>
<feColorMatrix in="SourceAlpha" type="matrix" values="0 0 0 0 0 0 0 0 0 0 0 0 0 0 0 0 0 0 127 0" result="hardAlpha"/>
<feOffset dx="-1.6" dy="3.2"/>
<feGaussianBlur stdDeviation="4"/>
<feColorMatrix type="matrix" values="0 0 0 0 0.0470588 0 0 0 0 0.360784 0 0 0 0 0.239216 0 0 0 0.1 0"/>
<feBlend mode="normal" in2="BackgroundImageFix" result="effect1_dropShadow_11471_864"/>
<feColorMatrix in="SourceAlpha" type="matrix" values="0 0 0 0 0 0 0 0 0 0 0 0 0 0 0 0 0 0 127 0" result="hardAlpha"/>
<feOffset dx="-6.4" dy="11.2"/>
<feGaussianBlur stdDeviation="6.4"/>
<feColorMatrix type="matrix" values="0 0 0 0 0.0470588 0 0 0 0 0.360784 0 0 0 0 0.239216 0 0 0 0.09 0"/>
<feBlend mode="normal" in2="effect1_dropShadow_11471_864" result="effect2_dropShadow_11471_864"/>
<feColorMatrix in="SourceAlpha" type="matrix" values="0 0 0 0 0 0 0 0 0 0 0 0 0 0 0 0 0 0 127 0" result="hardAlpha"/>
<feOffset dx="-14.4" dy="27.2"/>
<feGaussianBlur stdDeviation="8.8"/>
<feColorMatrix type="matrix" values="0 0 0 0 0.0470588 0 0 0 0 0.360784 0 0 0 0 0.239216 0 0 0 0.05 0"/>
<feBlend mode="normal" in2="effect2_dropShadow_11471_864" result="effect3_dropShadow_11471_864"/>
<feColorMatrix in="SourceAlpha" type="matrix" values="0 0 0 0 0 0 0 0 0 0 0 0 0 0 0 0 0 0 127 0" result="hardAlpha"/>
<feOffset dx="-24" dy="46.4"/>
<feGaussianBlur stdDeviation="10.4"/>
<feColorMatrix type="matrix" values="0 0 0 0 0.0470588 0 0 0 0 0.360784 0 0 0 0 0.239216 0 0 0 0.01 0"/>
<feBlend mode="normal" in2="effect3_dropShadow_11471_864" result="effect4_dropShadow_11471_864"/>
<feBlend mode="normal" in="SourceGraphic" in2="effect4_dropShadow_11471_864" result="shape"/>
</filter>
<filter id="filter1_ddddd_11471_864" x="20.6415" y="61.807" width="263.839" height="340.235" filterUnits="userSpaceOnUse" color-interpolation-filters="sRGB">
<feFlood flood-opacity="0" result="BackgroundImageFix"/>
<feColorMatrix in="SourceAlpha" type="matrix" values="0 0 0 0 0 0 0 0 0 0 0 0 0 0 0 0 0 0 127 0" result="hardAlpha"/>
<feOffset dx="-3.2" dy="6.4"/>
<feGaussianBlur stdDeviation="7.2"/>
<feColorMatrix type="matrix" values="0 0 0 0 0.0470588 0 0 0 0 0.172549 0 0 0 0 0.12549 0 0 0 0.42 0"/>
<feBlend mode="normal" in2="BackgroundImageFix" result="effect1_dropShadow_11471_864"/>
<feColorMatrix in="SourceAlpha" type="matrix" values="0 0 0 0 0 0 0 0 0 0 0 0 0 0 0 0 0 0 127 0" result="hardAlpha"/>
<feOffset dx="-11.2" dy="24"/>
<feGaussianBlur stdDeviation="13.6"/>
<feColorMatrix type="matrix" values="0 0 0 0 0.0470588 0 0 0 0 0.172549 0 0 0 0 0.12549 0 0 0 0.36 0"/>
<feBlend mode="normal" in2="effect1_dropShadow_11471_864" result="effect2_dropShadow_11471_864"/>
<feColorMatrix in="SourceAlpha" type="matrix" values="0 0 0 0 0 0 0 0 0 0 0 0 0 0 0 0 0 0 127 0" result="hardAlpha"/>
<feOffset dx="-25.6" dy="54.4"/>
<feGaussianBlur stdDeviation="17.6"/>
<feColorMatrix type="matrix" values="0 0 0 0 0.0470588 0 0 0 0 0.172549 0 0 0 0 0.12549 0 0 0 0.21 0"/>
<feBlend mode="normal" in2="effect2_dropShadow_11471_864" result="effect3_dropShadow_11471_864"/>
<feColorMatrix in="SourceAlpha" type="matrix" values="0 0 0 0 0 0 0 0 0 0 0 0 0 0 0 0 0 0 127 0" result="hardAlpha"/>
<feOffset dx="-46.4" dy="96"/>
<feGaussianBlur stdDeviation="21.6"/>
<feColorMatrix type="matrix" values="0 0 0 0 0.0470588 0 0 0 0 0.172549 0 0 0 0 0.12549 0 0 0 0.06 0"/>
<feBlend mode="normal" in2="effect3_dropShadow_11471_864" result="effect4_dropShadow_11471_864"/>
<feColorMatrix in="SourceAlpha" type="matrix" values="0 0 0 0 0 0 0 0 0 0 0 0 0 0 0 0 0 0 127 0" result="hardAlpha"/>
<feOffset dx="-72" dy="150.4"/>
<feGaussianBlur stdDeviation="23.2"/>
<feColorMatrix type="matrix" values="0 0 0 0 0.0470588 0 0 0 0 0.172549 0 0 0 0 0.12549 0 0 0 0.01 0"/>
<feBlend mode="normal" in2="effect4_dropShadow_11471_864" result="effect5_dropShadow_11471_864"/>
<feBlend mode="normal" in="SourceGraphic" in2="effect5_dropShadow_11471_864" result="shape"/>
</filter>
<linearGradient id="paint0_linear_11471_864" x1="74.0239" y1="199.275" x2="122.032" y2="18.7654" gradientUnits="userSpaceOnUse">
<stop stop-color="#424242"/>
<stop offset="1" stop-color="#525252"/>
</linearGradient>
<linearGradient id="paint1_linear_11471_864" x1="62.8988" y1="267.568" x2="62.7191" y2="203.734" gradientUnits="userSpaceOnUse">
<stop offset="0.095" stop-color="#058751"/>
<stop offset="0.955" stop-color="#01B86C"/>
</linearGradient>
<linearGradient id="paint2_linear_11471_864" x1="90.5321" y1="233.782" x2="89.2255" y2="179.101" gradientUnits="userSpaceOnUse">
<stop stop-color="#B2FFDD"/>
<stop offset="1" stop-color="#FAFAFA"/>
</linearGradient>
<linearGradient id="paint3_linear_11471_864" x1="163.542" y1="302.35" x2="163.334" y2="228.16" gradientUnits="userSpaceOnUse">
<stop offset="0.095" stop-color="#058751"/>
<stop offset="0.955" stop-color="#01B86C"/>
</linearGradient>
<linearGradient id="paint4_linear_11471_864" x1="190.702" y1="286.389" x2="211.174" y2="227.436" gradientUnits="userSpaceOnUse">
<stop stop-color="#B2FFDD"/>
<stop offset="1" stop-color="#FAFAFA"/>
</linearGradient>
<linearGradient id="paint5_linear_11471_864" x1="165.658" y1="236.235" x2="164.71" y2="120.348" gradientUnits="userSpaceOnUse">
<stop offset="0.095" stop-color="#058751"/>
<stop offset="0.955" stop-color="#01B86C"/>
</linearGradient>
<linearGradient id="paint6_linear_11471_864" x1="211.599" y1="208.746" x2="156.59" y2="100.753" gradientUnits="userSpaceOnUse">
<stop stop-color="#01B86C"/>
<stop offset="0.322807" stop-color="#058751"/>
<stop offset="1" stop-color="#01B86C"/>
</linearGradient>
<linearGradient id="paint7_linear_11471_864" x1="198.669" y1="186.571" x2="165.104" y2="152.81" gradientUnits="userSpaceOnUse">
<stop stop-color="#0B5C3C"/>
<stop offset="1" stop-color="#0A7147"/>
</linearGradient>
<linearGradient id="paint8_linear_11471_864" x1="210.204" y1="176.21" x2="218.711" y2="86.2978" gradientUnits="userSpaceOnUse">
<stop stop-color="#B2FFDD"/>
<stop offset="1" stop-color="#FAFAFA"/>
</linearGradient>
</defs>
</svg>
