<svg width="294" height="382" viewBox="0 0 294 382" fill="none" xmlns="http://www.w3.org/2000/svg">
<path d="M30.345 31.4993H262.657V160.392C262.657 161.714 261.828 162.981 260.351 163.915C258.874 164.849 256.871 165.374 254.782 165.374H38.22C36.1314 165.374 34.1284 164.849 32.6515 163.915C31.1747 162.981 30.345 161.714 30.345 160.392V31.4993Z" fill="url(#paint0_linear_11440_30957)"/>
<path d="M30.345 31.5H262.657V7.875C262.657 5.78642 261.828 3.78338 260.351 2.30653C258.874 0.829679 256.871 0 254.782 0H38.22C36.1314 0 34.1283 0.829679 32.6515 2.30653C31.1746 3.78338 30.345 5.78642 30.345 7.875V31.5Z" fill="#737373"/>
<path d="M78.5786 15.7493C78.5786 14.9705 78.8096 14.2092 79.2422 13.5617C79.6749 12.9142 80.2898 12.4095 81.0093 12.1115C81.7288 11.8135 82.5205 11.7355 83.2843 11.8874C84.0481 12.0393 84.7497 12.4144 85.3004 12.965C85.851 13.5157 86.226 14.2173 86.378 14.9811C86.5299 15.7449 86.4519 16.5366 86.1539 17.2561C85.8558 17.9756 85.3512 18.5905 84.7037 19.0232C84.0562 19.4558 83.2949 19.6868 82.5161 19.6868C81.4718 19.6868 80.4703 19.2719 79.7319 18.5335C78.9935 17.7951 78.5786 16.7936 78.5786 15.7493ZM62.8286 15.7493C62.8286 14.9705 63.0596 14.2092 63.4922 13.5617C63.9249 12.9142 64.5398 12.4095 65.2593 12.1115C65.9788 11.8135 66.7705 11.7355 67.5343 11.8874C68.2981 12.0393 68.9997 12.4144 69.5504 12.965C70.101 13.5157 70.476 14.2173 70.628 14.9811C70.7799 15.7449 70.7019 16.5366 70.4039 17.2561C70.1058 17.9756 69.6012 18.5905 68.9537 19.0232C68.3062 19.4558 67.5449 19.6868 66.7661 19.6868C65.7218 19.6868 64.7203 19.2719 63.9819 18.5335C63.2435 17.7951 62.8286 16.7936 62.8286 15.7493ZM47.0786 15.7493C47.0786 14.9705 47.3096 14.2092 47.7422 13.5617C48.1749 12.9142 48.7898 12.4095 49.5093 12.1115C50.2288 11.8135 51.0205 11.7355 51.7843 11.8874C52.5481 12.0393 53.2497 12.4144 53.8003 12.965C54.351 13.5157 54.726 14.2173 54.878 14.9811C55.0299 15.7449 54.9519 16.5366 54.6539 17.2561C54.3558 17.9756 53.8512 18.5905 53.2037 19.0232C52.5562 19.4558 51.7949 19.6868 51.0161 19.6868C49.9718 19.6868 48.9703 19.2719 48.2319 18.5335C47.4935 17.7951 47.0786 16.7936 47.0786 15.7493Z" fill="#424242"/>
<rect x="1.05615" y="174.984" width="167.953" height="60.5732" rx="8" transform="rotate(-9.87826 1.05615 174.984)" fill="url(#paint1_linear_11440_30957)"/>
<rect x="0.583984" y="172.272" width="167.953" height="57.8199" rx="8" transform="rotate(-9.87826 0.583984 172.272)" fill="url(#paint2_linear_11440_30957)"/>
<path d="M68.6227 197.664C67.3695 197.882 66.226 197.863 65.1921 197.607C64.1553 197.335 63.2908 196.848 62.5986 196.147C61.9036 195.43 61.4473 194.495 61.2298 193.342L64.5255 192.768C64.6969 193.56 65.0993 194.186 65.7328 194.646C66.3797 195.086 67.1832 195.223 68.1434 195.056C68.9735 194.911 69.5986 194.601 70.0188 194.126C70.4362 193.634 70.5868 193.054 70.4706 192.387C70.3488 191.687 70.0341 191.18 69.5267 190.866C69.0355 190.549 68.4106 190.331 67.652 190.212C66.8934 190.092 66.0831 189.965 65.2212 189.83C63.8235 189.604 62.7125 189.194 61.8879 188.599C61.0797 188.002 60.5721 187.11 60.3652 185.922C60.1732 184.915 60.259 184.012 60.6226 183.211C60.9996 182.39 61.5853 181.71 62.3799 181.169C63.1716 180.612 64.129 180.236 65.2519 180.04C66.3912 179.842 67.4275 179.871 68.361 180.128C69.3107 180.381 70.0934 180.832 70.7092 181.479C71.3413 182.124 71.7614 182.948 71.9697 183.951L68.6252 184.534C68.504 183.934 68.1759 183.446 67.6409 183.07C67.1193 182.675 66.4597 182.546 65.6622 182.685C64.9759 182.788 64.4279 183.059 64.0182 183.5C63.622 183.921 63.482 184.465 63.5982 185.132C63.6974 185.702 63.9558 186.126 64.3734 186.406C64.7881 186.669 65.3245 186.861 65.9827 186.981C66.6408 187.101 67.3913 187.222 68.2341 187.343C69.1314 187.489 69.964 187.696 70.7318 187.965C71.4997 188.234 72.1519 188.657 72.6884 189.234C73.2221 189.795 73.5768 190.58 73.7525 191.589C73.9083 192.484 73.825 193.354 73.5025 194.198C73.18 195.042 72.6123 195.778 71.7994 196.406C70.9836 197.018 69.9247 197.437 68.6227 197.664ZM77.2303 195.863L74.1695 178.286L77.2943 177.742L78.5697 185.066C78.8604 184.327 79.3149 183.712 79.9332 183.218C80.5651 182.706 81.3285 182.372 82.2236 182.216C83.721 181.955 84.9587 182.226 85.9368 183.028C86.9312 183.828 87.5871 185.139 87.9045 186.961L89.0948 193.797L85.9944 194.337L84.8551 187.794C84.6738 186.753 84.3233 185.992 83.8038 185.512C83.3006 185.03 82.6014 184.867 81.7063 185.022C80.8274 185.176 80.1489 185.612 79.6707 186.333C79.2087 187.05 79.0741 187.963 79.2669 189.069L80.3551 195.319L77.2303 195.863ZM91.3315 178.995C90.7618 179.094 90.2601 179.005 89.8263 178.729C89.4087 178.449 89.1546 178.049 89.0639 177.528C88.9732 177.008 89.0785 176.553 89.3799 176.166C89.6947 175.759 90.1369 175.505 90.7066 175.406C91.2762 175.307 91.7698 175.397 92.1873 175.677C92.6184 175.937 92.8792 176.328 92.9699 176.848C93.0606 177.369 92.9485 177.833 92.6337 178.24C92.3352 178.644 91.9011 178.896 91.3315 178.995ZM92.205 193.255L90.0964 181.147L93.2212 180.603L95.3298 192.711L92.205 193.255ZM99.1528 192.046L97.4991 182.549L95.8391 182.838L95.3842 180.226L97.0443 179.937L96.7977 178.521C96.5426 177.056 96.7274 175.951 97.3521 175.205C97.9931 174.456 98.9483 173.971 100.218 173.75L101.56 173.516L102.024 176.177L101.169 176.326C100.632 176.42 100.268 176.592 100.077 176.843C99.8862 177.094 99.8346 177.472 99.9225 177.977L100.169 179.393L102.781 178.938L103.236 181.55L100.624 182.005L102.278 191.501L99.1528 192.046ZM112.76 189.676C111.49 189.897 110.419 189.765 109.547 189.28C108.674 188.795 108.1 187.763 107.825 186.184L106.907 180.911L104.832 181.272L104.377 178.66L106.452 178.299L106.253 174.988L109.012 174.508L109.577 177.754L112.848 177.185L113.303 179.797L110.032 180.367L110.954 185.664C111.056 186.25 111.249 186.636 111.533 186.821C111.83 186.987 112.288 187.017 112.907 186.909L114.42 186.645L114.884 189.306L112.76 189.676Z" fill="url(#paint3_linear_11440_30957)"/>
<g filter="url(#filter0_dddd_11440_30957)">
<rect x="92.9219" y="198.186" width="195.2" height="70.4" rx="9" transform="rotate(5.479 92.9219 198.186)" fill="url(#paint4_linear_11440_30957)"/>
<rect x="93.2273" y="195" width="195.2" height="67.2" rx="9" transform="rotate(5.479 93.2273 195)" fill="url(#paint5_linear_11440_30957)"/>
<path d="M153.057 243.681C151.051 243.489 149.334 242.88 147.909 241.856C146.502 240.834 145.443 239.508 144.732 237.877C144.041 236.229 143.794 234.383 143.99 232.338C144.186 230.293 144.779 228.537 145.769 227.069C146.779 225.584 148.072 224.474 149.647 223.738C151.241 223.004 153.041 222.733 155.048 222.925C157.036 223.116 158.743 223.723 160.168 224.747C161.594 225.771 162.652 227.107 163.342 228.755C164.035 230.384 164.283 232.22 164.087 234.265C163.891 236.311 163.297 238.076 162.306 239.563C161.316 241.03 160.024 242.131 158.43 242.865C156.836 243.6 155.045 243.872 153.057 243.681ZM153.374 240.384C155.285 240.567 156.865 240.083 158.113 238.929C159.381 237.778 160.12 236.103 160.331 233.905C160.542 231.707 160.135 229.923 159.109 228.551C158.102 227.182 156.643 226.405 154.732 226.222C152.821 226.039 151.231 226.523 149.964 227.674C148.696 228.826 147.957 230.5 147.746 232.698C147.535 234.896 147.942 236.681 148.968 238.052C149.994 239.423 151.462 240.201 153.374 240.384ZM165.673 250.909L167.642 230.382L170.91 230.696L171.117 232.77C171.636 232.183 172.291 231.687 173.082 231.28C173.892 230.876 174.9 230.731 176.104 230.847C177.442 230.975 178.605 231.415 179.594 232.165C180.583 232.916 181.329 233.884 181.832 235.071C182.336 236.257 182.519 237.567 182.381 239C182.244 240.434 181.815 241.685 181.095 242.754C180.377 243.804 179.462 244.603 178.348 245.152C177.236 245.682 176.012 245.883 174.674 245.754C173.604 245.652 172.686 245.361 171.922 244.883C171.158 244.405 170.562 243.778 170.135 243.004L169.343 251.261L165.673 250.909ZM174.208 242.469C175.374 242.581 176.376 242.282 177.216 241.572C178.056 240.861 178.535 239.885 178.654 238.643C178.773 237.401 178.489 236.341 177.802 235.465C177.114 234.589 176.188 234.095 175.022 233.983C173.837 233.87 172.824 234.178 171.982 234.907C171.161 235.619 170.692 236.596 170.572 237.839C170.453 239.081 170.728 240.139 171.396 241.013C172.086 241.87 173.023 242.356 174.208 242.469ZM190.756 246.95C189.265 246.807 188.105 246.329 187.277 245.517C186.448 244.704 186.123 243.371 186.3 241.517L186.894 235.325L184.458 235.091L184.752 232.024L187.189 232.257L187.984 228.486L191.224 228.796L190.858 232.609L194.7 232.978L194.406 236.045L190.564 235.677L189.967 241.898C189.901 242.586 189.999 243.077 190.26 243.373C190.542 243.65 191.046 243.824 191.772 243.894L193.55 244.064L193.25 247.189L190.756 246.95ZM200.04 231.262C199.371 231.198 198.836 230.944 198.435 230.501C198.053 230.059 197.892 229.532 197.95 228.921C198.009 228.309 198.267 227.832 198.724 227.491C199.202 227.131 199.776 226.984 200.445 227.048C201.113 227.112 201.639 227.365 202.021 227.807C202.424 228.231 202.596 228.749 202.537 229.361C202.479 229.972 202.21 230.458 201.732 230.817C201.273 231.178 200.709 231.326 200.04 231.262ZM196.63 247.513L197.994 233.294L201.663 233.646L200.299 247.865L196.63 247.513ZM210.92 249.231C209.544 249.099 208.332 248.665 207.283 247.928C206.255 247.192 205.468 246.239 204.925 245.069C204.402 243.88 204.212 242.551 204.353 241.079C204.494 239.607 204.943 238.348 205.699 237.302C206.457 236.237 207.411 235.441 208.561 234.915C209.73 234.39 211.002 234.194 212.378 234.326C213.735 234.456 214.928 234.889 215.957 235.624C217.005 236.361 217.79 237.324 218.313 238.512C218.856 239.683 219.058 241.004 218.916 242.476C218.775 243.947 218.326 245.216 217.568 246.281C216.831 247.329 215.878 248.115 214.709 248.64C213.54 249.164 212.277 249.361 210.92 249.231ZM211.225 246.049C212.18 246.141 213.046 245.867 213.821 245.227C214.598 244.569 215.054 243.533 215.189 242.118C215.325 240.704 215.073 239.609 214.434 238.834C213.796 238.04 213.01 237.598 212.073 237.508C211.098 237.415 210.223 237.697 209.446 238.356C208.69 238.997 208.244 240.025 208.108 241.439C207.973 242.853 208.214 243.957 208.832 244.749C209.472 245.524 210.269 245.957 211.225 246.049ZM221.515 249.9L222.879 235.681L226.119 235.991L226.175 238.427C226.695 237.628 227.39 237.02 228.259 236.602C229.148 236.186 230.156 236.032 231.283 236.14C233.042 236.308 234.355 236.994 235.224 238.196C236.092 239.398 236.424 241.069 236.218 243.21L235.448 251.237L231.779 250.885L232.516 243.202C232.633 241.978 232.474 241.018 232.04 240.321C231.605 239.623 230.862 239.224 229.811 239.123C228.779 239.024 227.894 239.306 227.155 239.968C226.436 240.632 226.014 241.613 225.889 242.913L225.185 250.252L221.515 249.9Z" fill="url(#paint6_linear_11440_30957)"/>
</g>
<g filter="url(#filter1_ddddd_11440_30957)">
<rect x="123.538" y="85.0476" width="104.975" height="109.973" rx="15" transform="rotate(-19.9089 123.538 85.0476)" fill="url(#paint7_linear_11440_30957)"/>
<rect x="121.835" y="80.3474" width="104.975" height="104.975" rx="15" transform="rotate(-19.9089 121.835 80.3474)" fill="url(#paint8_linear_11440_30957)"/>
<rect x="127.8" y="84.6489" width="94.1137" height="94.1137" rx="12" transform="rotate(-19.9089 127.8 84.6489)" fill="url(#paint9_linear_11440_30957)"/>
<rect x="134.467" y="87.3772" width="83.4326" height="83.4326" rx="9" transform="rotate(-19.9089 134.467 87.3772)" fill="url(#paint10_linear_11440_30957)"/>
<path d="M195.857 123.771C192.868 124.853 190.072 125.148 187.469 124.655C184.856 124.134 182.558 122.941 180.575 121.076C178.581 119.182 177.038 116.726 175.945 113.709C174.852 110.691 174.465 107.817 174.784 105.086C175.102 102.355 176.098 99.9525 177.772 97.8791C179.445 95.8057 181.777 94.2277 184.766 93.1451C188.319 91.8582 191.545 91.6945 194.445 92.6541C197.362 93.5752 199.68 95.527 201.398 98.5093L195.434 100.669C194.485 99.1948 193.241 98.2259 191.701 97.7626C190.18 97.261 188.432 97.3676 186.458 98.0826C183.723 99.0732 181.917 100.78 181.04 103.203C180.163 105.626 180.312 108.459 181.486 111.702C182.661 114.945 184.36 117.216 186.586 118.516C188.8 119.787 191.276 119.927 194.011 118.937C195.985 118.222 197.411 117.227 198.289 115.952C199.185 114.638 199.541 113.154 199.356 111.498L205.32 109.338C205.859 112.588 205.298 115.487 203.637 118.034C202.004 120.572 199.411 122.484 195.857 123.771Z" fill="url(#paint11_linear_11440_30957)"/>
</g>
<defs>
<filter id="filter0_dddd_11440_30957" x="42.2176" y="191.018" width="250.9" height="162.266" filterUnits="userSpaceOnUse" color-interpolation-filters="sRGB">
<feFlood flood-opacity="0" result="BackgroundImageFix"/>
<feColorMatrix in="SourceAlpha" type="matrix" values="0 0 0 0 0 0 0 0 0 0 0 0 0 0 0 0 0 0 127 0" result="hardAlpha"/>
<feOffset dx="-1.6" dy="3.2"/>
<feGaussianBlur stdDeviation="4"/>
<feColorMatrix type="matrix" values="0 0 0 0 0.0470588 0 0 0 0 0.360784 0 0 0 0 0.239216 0 0 0 0.1 0"/>
<feBlend mode="normal" in2="BackgroundImageFix" result="effect1_dropShadow_11440_30957"/>
<feColorMatrix in="SourceAlpha" type="matrix" values="0 0 0 0 0 0 0 0 0 0 0 0 0 0 0 0 0 0 127 0" result="hardAlpha"/>
<feOffset dx="-6.4" dy="11.2"/>
<feGaussianBlur stdDeviation="6.4"/>
<feColorMatrix type="matrix" values="0 0 0 0 0.0470588 0 0 0 0 0.360784 0 0 0 0 0.239216 0 0 0 0.09 0"/>
<feBlend mode="normal" in2="effect1_dropShadow_11440_30957" result="effect2_dropShadow_11440_30957"/>
<feColorMatrix in="SourceAlpha" type="matrix" values="0 0 0 0 0 0 0 0 0 0 0 0 0 0 0 0 0 0 127 0" result="hardAlpha"/>
<feOffset dx="-14.4" dy="27.2"/>
<feGaussianBlur stdDeviation="8.8"/>
<feColorMatrix type="matrix" values="0 0 0 0 0.0470588 0 0 0 0 0.360784 0 0 0 0 0.239216 0 0 0 0.05 0"/>
<feBlend mode="normal" in2="effect2_dropShadow_11440_30957" result="effect3_dropShadow_11440_30957"/>
<feColorMatrix in="SourceAlpha" type="matrix" values="0 0 0 0 0 0 0 0 0 0 0 0 0 0 0 0 0 0 127 0" result="hardAlpha"/>
<feOffset dx="-24" dy="46.4"/>
<feGaussianBlur stdDeviation="10.4"/>
<feColorMatrix type="matrix" values="0 0 0 0 0.0470588 0 0 0 0 0.360784 0 0 0 0 0.239216 0 0 0 0.01 0"/>
<feBlend mode="normal" in2="effect3_dropShadow_11440_30957" result="effect4_dropShadow_11440_30957"/>
<feBlend mode="normal" in="SourceGraphic" in2="effect4_dropShadow_11440_30957" result="shape"/>
</filter>
<filter id="filter1_ddddd_11440_30957" x="7.64248" y="40.8083" width="263.837" height="340.233" filterUnits="userSpaceOnUse" color-interpolation-filters="sRGB">
<feFlood flood-opacity="0" result="BackgroundImageFix"/>
<feColorMatrix in="SourceAlpha" type="matrix" values="0 0 0 0 0 0 0 0 0 0 0 0 0 0 0 0 0 0 127 0" result="hardAlpha"/>
<feOffset dx="-3.2" dy="6.4"/>
<feGaussianBlur stdDeviation="7.2"/>
<feColorMatrix type="matrix" values="0 0 0 0 0.0470588 0 0 0 0 0.172549 0 0 0 0 0.12549 0 0 0 0.42 0"/>
<feBlend mode="normal" in2="BackgroundImageFix" result="effect1_dropShadow_11440_30957"/>
<feColorMatrix in="SourceAlpha" type="matrix" values="0 0 0 0 0 0 0 0 0 0 0 0 0 0 0 0 0 0 127 0" result="hardAlpha"/>
<feOffset dx="-11.2" dy="24"/>
<feGaussianBlur stdDeviation="13.6"/>
<feColorMatrix type="matrix" values="0 0 0 0 0.0470588 0 0 0 0 0.172549 0 0 0 0 0.12549 0 0 0 0.36 0"/>
<feBlend mode="normal" in2="effect1_dropShadow_11440_30957" result="effect2_dropShadow_11440_30957"/>
<feColorMatrix in="SourceAlpha" type="matrix" values="0 0 0 0 0 0 0 0 0 0 0 0 0 0 0 0 0 0 127 0" result="hardAlpha"/>
<feOffset dx="-25.6" dy="54.4"/>
<feGaussianBlur stdDeviation="17.6"/>
<feColorMatrix type="matrix" values="0 0 0 0 0.0470588 0 0 0 0 0.172549 0 0 0 0 0.12549 0 0 0 0.21 0"/>
<feBlend mode="normal" in2="effect2_dropShadow_11440_30957" result="effect3_dropShadow_11440_30957"/>
<feColorMatrix in="SourceAlpha" type="matrix" values="0 0 0 0 0 0 0 0 0 0 0 0 0 0 0 0 0 0 127 0" result="hardAlpha"/>
<feOffset dx="-46.4" dy="96"/>
<feGaussianBlur stdDeviation="21.6"/>
<feColorMatrix type="matrix" values="0 0 0 0 0.0470588 0 0 0 0 0.172549 0 0 0 0 0.12549 0 0 0 0.06 0"/>
<feBlend mode="normal" in2="effect3_dropShadow_11440_30957" result="effect4_dropShadow_11440_30957"/>
<feColorMatrix in="SourceAlpha" type="matrix" values="0 0 0 0 0 0 0 0 0 0 0 0 0 0 0 0 0 0 127 0" result="hardAlpha"/>
<feOffset dx="-72" dy="150.4"/>
<feGaussianBlur stdDeviation="23.2"/>
<feColorMatrix type="matrix" values="0 0 0 0 0.0470588 0 0 0 0 0.172549 0 0 0 0 0.12549 0 0 0 0.01 0"/>
<feBlend mode="normal" in2="effect4_dropShadow_11440_30957" result="effect5_dropShadow_11440_30957"/>
<feBlend mode="normal" in="SourceGraphic" in2="effect5_dropShadow_11440_30957" result="shape"/>
</filter>
<linearGradient id="paint0_linear_11440_30957" x1="61.3364" y1="176.593" x2="108.891" y2="-2.21425" gradientUnits="userSpaceOnUse">
<stop stop-color="#424242"/>
<stop offset="1" stop-color="#525252"/>
</linearGradient>
<linearGradient id="paint1_linear_11440_30957" x1="100.593" y1="221.649" x2="88.8601" y2="185.383" gradientUnits="userSpaceOnUse">
<stop stop-color="#073769"/>
<stop offset="1" stop-color="#154A82"/>
</linearGradient>
<linearGradient id="paint2_linear_11440_30957" x1="108.735" y1="238.536" x2="107.992" y2="181.616" gradientUnits="userSpaceOnUse">
<stop stop-color="#4381C0"/>
<stop offset="0.322807" stop-color="#235B95"/>
<stop offset="1" stop-color="#4381C0"/>
</linearGradient>
<linearGradient id="paint3_linear_11440_30957" x1="77.5321" y1="212.782" x2="76.2255" y2="158.101" gradientUnits="userSpaceOnUse">
<stop stop-color="#E6EFF9"/>
<stop offset="1" stop-color="#FAFAFA"/>
</linearGradient>
<linearGradient id="paint4_linear_11440_30957" x1="208.607" y1="252.421" x2="194.97" y2="210.272" gradientUnits="userSpaceOnUse">
<stop stop-color="#073769"/>
<stop offset="1" stop-color="#154A82"/>
</linearGradient>
<linearGradient id="paint5_linear_11440_30957" x1="218.748" y1="275.382" x2="219.657" y2="207.476" gradientUnits="userSpaceOnUse">
<stop stop-color="#4381C0"/>
<stop offset="0.322807" stop-color="#235B95"/>
<stop offset="1" stop-color="#4381C0"/>
</linearGradient>
<linearGradient id="paint6_linear_11440_30957" x1="163.43" y1="263.705" x2="175.914" y2="201.038" gradientUnits="userSpaceOnUse">
<stop stop-color="#E6EFF9"/>
<stop offset="1" stop-color="#FAFAFA"/>
</linearGradient>
<linearGradient id="paint7_linear_11440_30957" x1="185.751" y1="169.77" x2="149.453" y2="131.147" gradientUnits="userSpaceOnUse">
<stop stop-color="#073769"/>
<stop offset="1" stop-color="#154A82"/>
</linearGradient>
<linearGradient id="paint8_linear_11440_30957" x1="170.667" y1="202.956" x2="156.094" y2="98.6057" gradientUnits="userSpaceOnUse">
<stop stop-color="#4381C0"/>
<stop offset="0.322807" stop-color="#235B95"/>
<stop offset="1" stop-color="#4381C0"/>
</linearGradient>
<linearGradient id="paint9_linear_11440_30957" x1="198.599" y1="187.746" x2="143.59" y2="79.7528" gradientUnits="userSpaceOnUse">
<stop stop-color="#235B95"/>
<stop offset="0.322807" stop-color="#4381C0"/>
<stop offset="1" stop-color="#235B95"/>
</linearGradient>
<linearGradient id="paint10_linear_11440_30957" x1="183.914" y1="151.653" x2="156.485" y2="121.077" gradientUnits="userSpaceOnUse">
<stop stop-color="#154A82"/>
<stop offset="1" stop-color="#235B95"/>
</linearGradient>
<linearGradient id="paint11_linear_11440_30957" x1="197.667" y1="155.043" x2="204.174" y2="64.0033" gradientUnits="userSpaceOnUse">
<stop stop-color="#E6EFF9"/>
<stop offset="1" stop-color="#FAFAFA"/>
</linearGradient>
</defs>
</svg>
