<svg width="320" height="403" viewBox="0 0 320 403" fill="none" xmlns="http://www.w3.org/2000/svg">
<path d="M42 53H278V183.939C278 185.281 277.157 186.568 275.657 187.518C274.157 188.467 272.122 189 270 189H50C47.8783 189 45.8434 188.467 44.3431 187.518C42.8429 186.568 42 185.281 42 183.939V53Z" fill="url(#paint0_linear_11471_889)"/>
<path d="M42 53H278V29C278 26.8783 277.157 24.8434 275.657 23.3431C274.157 21.8428 272.122 21 270 21H50C47.8783 21 45.8434 21.8428 44.3431 23.3431C42.8428 24.8434 42 26.8783 42 29V53Z" fill="#B6D7F8"/>
<path d="M91 37C91 36.2089 91.2346 35.4355 91.6741 34.7777C92.1137 34.1199 92.7383 33.6073 93.4692 33.3045C94.2001 33.0018 95.0044 32.9225 95.7803 33.0769C96.5563 33.2312 97.269 33.6122 97.8284 34.1716C98.3878 34.731 98.7688 35.4437 98.9232 36.2197C99.0775 36.9956 98.9982 37.7999 98.6955 38.5308C98.3927 39.2617 97.8801 39.8863 97.2223 40.3259C96.5645 40.7654 95.7911 41 95 41C93.9391 41 92.9217 40.5786 92.1716 39.8284C91.4214 39.0783 91 38.0609 91 37ZM75 37C75 36.2089 75.2346 35.4355 75.6741 34.7777C76.1137 34.1199 76.7383 33.6073 77.4692 33.3045C78.2001 33.0018 79.0044 32.9225 79.7803 33.0769C80.5563 33.2312 81.269 33.6122 81.8284 34.1716C82.3878 34.731 82.7688 35.4437 82.9232 36.2197C83.0775 36.9956 82.9982 37.7999 82.6955 38.5308C82.3927 39.2617 81.8801 39.8863 81.2223 40.3259C80.5645 40.7654 79.7911 41 79 41C77.9391 41 76.9217 40.5786 76.1716 39.8284C75.4214 39.0783 75 38.0609 75 37ZM59 37C59 36.2089 59.2346 35.4355 59.6741 34.7777C60.1137 34.1199 60.7383 33.6073 61.4692 33.3045C62.2001 33.0018 63.0044 32.9225 63.7803 33.0769C64.5563 33.2312 65.269 33.6122 65.8284 34.1716C66.3878 34.731 66.7688 35.4437 66.9232 36.2197C67.0775 36.9956 66.9982 37.7999 66.6955 38.5308C66.3927 39.2617 65.8801 39.8863 65.2223 40.3259C64.5645 40.7654 63.7911 41 63 41C61.9391 41 60.9217 40.5786 60.1716 39.8284C59.4214 39.0783 59 38.0609 59 37Z" fill="#5CA4EC"/>
<rect x="14.0562" y="195.984" width="167.953" height="60.5732" rx="8" transform="rotate(-9.87826 14.0562 195.984)" fill="url(#paint1_linear_11471_889)"/>
<rect x="13.584" y="193.272" width="167.953" height="57.8199" rx="8" transform="rotate(-9.87826 13.584 193.272)" fill="url(#paint2_linear_11471_889)"/>
<path d="M81.6227 218.664C80.3695 218.882 79.226 218.863 78.1921 218.607C77.1553 218.335 76.2908 217.848 75.5986 217.147C74.9036 216.43 74.4473 215.495 74.2298 214.342L77.5255 213.768C77.6969 214.56 78.0993 215.186 78.7328 215.645C79.3797 216.086 80.1832 216.223 81.1434 216.056C81.9735 215.911 82.5986 215.601 83.0188 215.125C83.4362 214.634 83.5868 214.054 83.4706 213.387C83.3488 212.687 83.0341 212.18 82.5267 211.866C82.0355 211.549 81.4106 211.331 80.652 211.211C79.8934 211.092 79.0831 210.965 78.2212 210.83C76.8235 210.604 75.7125 210.193 74.8879 209.599C74.0797 209.002 73.5721 208.109 73.3652 206.921C73.1732 205.915 73.259 205.011 73.6226 204.21C73.9996 203.39 74.5853 202.71 75.3799 202.169C76.1716 201.612 77.129 201.235 78.2519 201.04C79.3912 200.841 80.4275 200.871 81.361 201.127C82.3107 201.381 83.0934 201.832 83.7092 202.479C84.3413 203.124 84.7614 203.948 84.9697 204.951L81.6252 205.533C81.504 204.934 81.1759 204.446 80.6409 204.07C80.1193 203.674 79.4597 203.546 78.6622 203.685C77.9759 203.788 77.4279 204.059 77.0182 204.499C76.622 204.921 76.482 205.465 76.5982 206.132C76.6974 206.702 76.9558 207.126 77.3734 207.406C77.7881 207.669 78.3245 207.86 78.9827 207.981C79.6408 208.101 80.3913 208.222 81.2341 208.343C82.1314 208.489 82.964 208.696 83.7318 208.965C84.4997 209.233 85.1519 209.656 85.6884 210.234C86.2221 210.795 86.5768 211.58 86.7525 212.589C86.9083 213.484 86.825 214.354 86.5025 215.198C86.18 216.042 85.6123 216.778 84.7994 217.406C83.9836 218.018 82.9247 218.437 81.6227 218.664ZM90.2303 216.863L87.1695 199.286L90.2943 198.742L91.5697 206.065C91.8604 205.327 92.3149 204.712 92.9332 204.218C93.5651 203.706 94.3285 203.372 95.2236 203.216C96.721 202.955 97.9587 203.226 98.9368 204.028C99.9312 204.827 100.587 206.138 100.905 207.961L102.095 214.797L98.9944 215.337L97.8551 208.794C97.6738 207.752 97.3233 206.992 96.8038 206.512C96.3006 206.03 95.6014 205.866 94.7063 206.022C93.8274 206.175 93.1489 206.612 92.6707 207.333C92.2087 208.05 92.0741 208.962 92.2669 210.069L93.3551 216.319L90.2303 216.863ZM104.331 199.995C103.762 200.094 103.26 200.005 102.826 199.729C102.409 199.449 102.155 199.049 102.064 198.528C101.973 198.007 102.079 197.553 102.38 197.165C102.695 196.758 103.137 196.505 103.707 196.406C104.276 196.307 104.77 196.397 105.187 196.676C105.618 196.937 105.879 197.327 105.97 197.848C106.061 198.369 105.949 198.833 105.634 199.24C105.335 199.644 104.901 199.895 104.331 199.995ZM105.205 214.255L103.096 202.147L106.221 201.602L108.33 213.711L105.205 214.255ZM112.153 213.045L110.499 203.549L108.839 203.838L108.384 201.226L110.044 200.937L109.798 199.521C109.543 198.056 109.727 196.951 110.352 196.205C110.993 195.456 111.948 194.971 113.218 194.75L114.56 194.516L115.024 197.177L114.169 197.326C113.632 197.419 113.268 197.592 113.077 197.843C112.886 198.094 112.835 198.472 112.923 198.977L113.169 200.393L115.781 199.938L116.236 202.55L113.624 203.005L115.278 212.501L112.153 213.045ZM125.76 210.676C124.49 210.897 123.419 210.765 122.547 210.28C121.674 209.794 121.1 208.762 120.825 207.184L119.907 201.911L117.832 202.272L117.377 199.66L119.452 199.298L119.253 195.988L122.012 195.507L122.577 198.754L125.848 198.185L126.303 200.797L123.032 201.366L123.954 206.664C124.056 207.25 124.249 207.635 124.533 207.821C124.83 207.987 125.288 208.016 125.907 207.909L127.42 207.645L127.884 210.306L125.76 210.676Z" fill="url(#paint3_linear_11471_889)"/>
<g filter="url(#filter0_dddd_11471_889)">
<rect x="105.922" y="219.186" width="195.2" height="70.4" rx="9" transform="rotate(5.479 105.922 219.186)" fill="url(#paint4_linear_11471_889)"/>
<rect x="106.227" y="216" width="195.2" height="67.2" rx="9" transform="rotate(5.479 106.227 216)" fill="url(#paint5_linear_11471_889)"/>
<path d="M183.397 266.311L192.661 246.947L196.789 247.343L202.204 268.115L198.305 267.741L197.145 262.943L189.318 262.192L187.239 266.68L183.397 266.311ZM190.597 259.422L196.416 259.98L194.292 251.357L190.597 259.422ZM204.703 268.355L206.682 247.714L210.352 248.066L208.372 268.707L204.703 268.355ZM218.457 269.674C216.967 269.531 215.807 269.054 214.978 268.241C214.15 267.429 213.824 266.096 214.002 264.242L214.596 258.049L212.159 257.816L212.454 254.748L214.89 254.982L215.686 251.21L218.926 251.521L218.56 255.334L222.401 255.702L222.107 258.77L218.266 258.401L217.669 264.622C217.603 265.31 217.7 265.802 217.961 266.097C218.243 266.375 218.748 266.548 219.474 266.618L221.251 266.789L220.952 269.913L218.457 269.674Z" fill="url(#paint6_linear_11471_889)"/>
</g>
<g filter="url(#filter1_ddddd_11471_889)">
<rect x="136.538" y="106.047" width="104.975" height="109.973" rx="15" transform="rotate(-19.9089 136.538 106.047)" fill="url(#paint7_linear_11471_889)"/>
<rect x="134.835" y="101.347" width="104.975" height="104.975" rx="15" transform="rotate(-19.9089 134.835 101.347)" fill="url(#paint8_linear_11471_889)"/>
<rect x="140.8" y="105.649" width="94.1137" height="94.1137" rx="12" transform="rotate(-19.9089 140.8 105.649)" fill="url(#paint9_linear_11471_889)"/>
<rect x="147.467" y="108.377" width="83.4326" height="83.4326" rx="9" transform="rotate(-19.9089 147.467 108.377)" fill="url(#paint10_linear_11471_889)"/>
<path d="M208.857 144.77C205.868 145.853 203.072 146.148 200.469 145.655C197.856 145.134 195.558 143.941 193.575 142.075C191.581 140.182 190.038 137.726 188.945 134.709C187.852 131.691 187.465 128.817 187.784 126.086C188.102 123.355 189.098 120.952 190.772 118.879C192.445 116.805 194.777 115.227 197.766 114.145C201.319 112.858 204.545 112.694 207.445 113.654C210.362 114.575 212.68 116.527 214.398 119.509L208.434 121.669C207.485 120.195 206.241 119.226 204.701 118.762C203.18 118.261 201.432 118.367 199.458 119.082C196.723 120.073 194.917 121.78 194.04 124.203C193.163 126.626 193.312 129.459 194.486 132.702C195.661 135.945 197.36 138.216 199.586 139.515C201.8 140.787 204.276 140.927 207.011 139.936C208.985 139.221 210.411 138.226 211.289 136.952C212.185 135.638 212.541 134.154 212.356 132.498L218.32 130.338C218.859 133.588 218.298 136.487 216.637 139.034C215.004 141.571 212.411 143.483 208.857 144.77Z" fill="url(#paint11_linear_11471_889)"/>
</g>
<defs>
<filter id="filter0_dddd_11471_889" x="54.0176" y="212.818" width="252.7" height="162.266" filterUnits="userSpaceOnUse" color-interpolation-filters="sRGB">
<feFlood flood-opacity="0" result="BackgroundImageFix"/>
<feColorMatrix in="SourceAlpha" type="matrix" values="0 0 0 0 0 0 0 0 0 0 0 0 0 0 0 0 0 0 127 0" result="hardAlpha"/>
<feOffset dx="-2" dy="3"/>
<feGaussianBlur stdDeviation="3.5"/>
<feColorMatrix type="matrix" values="0 0 0 0 0.0470588 0 0 0 0 0.164706 0 0 0 0 0.352941 0 0 0 0.1 0"/>
<feBlend mode="normal" in2="BackgroundImageFix" result="effect1_dropShadow_11471_889"/>
<feColorMatrix in="SourceAlpha" type="matrix" values="0 0 0 0 0 0 0 0 0 0 0 0 0 0 0 0 0 0 127 0" result="hardAlpha"/>
<feOffset dx="-6" dy="12"/>
<feGaussianBlur stdDeviation="6.5"/>
<feColorMatrix type="matrix" values="0 0 0 0 0.0470588 0 0 0 0 0.164706 0 0 0 0 0.352941 0 0 0 0.09 0"/>
<feBlend mode="normal" in2="effect1_dropShadow_11471_889" result="effect2_dropShadow_11471_889"/>
<feColorMatrix in="SourceAlpha" type="matrix" values="0 0 0 0 0 0 0 0 0 0 0 0 0 0 0 0 0 0 127 0" result="hardAlpha"/>
<feOffset dx="-14" dy="26"/>
<feGaussianBlur stdDeviation="9"/>
<feColorMatrix type="matrix" values="0 0 0 0 0.0470588 0 0 0 0 0.164706 0 0 0 0 0.352941 0 0 0 0.05 0"/>
<feBlend mode="normal" in2="effect2_dropShadow_11471_889" result="effect3_dropShadow_11471_889"/>
<feColorMatrix in="SourceAlpha" type="matrix" values="0 0 0 0 0 0 0 0 0 0 0 0 0 0 0 0 0 0 127 0" result="hardAlpha"/>
<feOffset dx="-25" dy="47"/>
<feGaussianBlur stdDeviation="10.5"/>
<feColorMatrix type="matrix" values="0 0 0 0 0.0470588 0 0 0 0 0.164706 0 0 0 0 0.352941 0 0 0 0.01 0"/>
<feBlend mode="normal" in2="effect3_dropShadow_11471_889" result="effect4_dropShadow_11471_889"/>
<feBlend mode="normal" in="SourceGraphic" in2="effect4_dropShadow_11471_889" result="shape"/>
</filter>
<filter id="filter1_ddddd_11471_889" x="21.0425" y="60.808" width="263.437" height="341.433" filterUnits="userSpaceOnUse" color-interpolation-filters="sRGB">
<feFlood flood-opacity="0" result="BackgroundImageFix"/>
<feColorMatrix in="SourceAlpha" type="matrix" values="0 0 0 0 0 0 0 0 0 0 0 0 0 0 0 0 0 0 127 0" result="hardAlpha"/>
<feOffset dx="-3" dy="6"/>
<feGaussianBlur stdDeviation="7.5"/>
<feColorMatrix type="matrix" values="0 0 0 0 0.0352941 0 0 0 0 0.0627451 0 0 0 0 0.145098 0 0 0 0.42 0"/>
<feBlend mode="normal" in2="BackgroundImageFix" result="effect1_dropShadow_11471_889"/>
<feColorMatrix in="SourceAlpha" type="matrix" values="0 0 0 0 0 0 0 0 0 0 0 0 0 0 0 0 0 0 127 0" result="hardAlpha"/>
<feOffset dx="-11" dy="24"/>
<feGaussianBlur stdDeviation="13.5"/>
<feColorMatrix type="matrix" values="0 0 0 0 0.0352941 0 0 0 0 0.0627451 0 0 0 0 0.145098 0 0 0 0.36 0"/>
<feBlend mode="normal" in2="effect1_dropShadow_11471_889" result="effect2_dropShadow_11471_889"/>
<feColorMatrix in="SourceAlpha" type="matrix" values="0 0 0 0 0 0 0 0 0 0 0 0 0 0 0 0 0 0 127 0" result="hardAlpha"/>
<feOffset dx="-26" dy="54"/>
<feGaussianBlur stdDeviation="18"/>
<feColorMatrix type="matrix" values="0 0 0 0 0.0352941 0 0 0 0 0.0627451 0 0 0 0 0.145098 0 0 0 0.21 0"/>
<feBlend mode="normal" in2="effect2_dropShadow_11471_889" result="effect3_dropShadow_11471_889"/>
<feColorMatrix in="SourceAlpha" type="matrix" values="0 0 0 0 0 0 0 0 0 0 0 0 0 0 0 0 0 0 127 0" result="hardAlpha"/>
<feOffset dx="-46" dy="96"/>
<feGaussianBlur stdDeviation="21.5"/>
<feColorMatrix type="matrix" values="0 0 0 0 0.0352941 0 0 0 0 0.0627451 0 0 0 0 0.145098 0 0 0 0.06 0"/>
<feBlend mode="normal" in2="effect3_dropShadow_11471_889" result="effect4_dropShadow_11471_889"/>
<feColorMatrix in="SourceAlpha" type="matrix" values="0 0 0 0 0 0 0 0 0 0 0 0 0 0 0 0 0 0 127 0" result="hardAlpha"/>
<feOffset dx="-71" dy="150"/>
<feGaussianBlur stdDeviation="23.5"/>
<feColorMatrix type="matrix" values="0 0 0 0 0.0352941 0 0 0 0 0.0627451 0 0 0 0 0.145098 0 0 0 0.01 0"/>
<feBlend mode="normal" in2="effect4_dropShadow_11471_889" result="effect5_dropShadow_11471_889"/>
<feBlend mode="normal" in="SourceGraphic" in2="effect5_dropShadow_11471_889" result="shape"/>
</filter>
<linearGradient id="paint0_linear_11471_889" x1="30" y1="233.292" x2="99.9184" y2="8.55044" gradientUnits="userSpaceOnUse">
<stop stop-color="#B6D7F8"/>
<stop offset="1" stop-color="#E6EFF9"/>
</linearGradient>
<linearGradient id="paint1_linear_11471_889" x1="113.593" y1="242.649" x2="101.86" y2="206.383" gradientUnits="userSpaceOnUse">
<stop stop-color="#073769"/>
<stop offset="1" stop-color="#154A82"/>
</linearGradient>
<linearGradient id="paint2_linear_11471_889" x1="121.735" y1="259.536" x2="120.992" y2="202.616" gradientUnits="userSpaceOnUse">
<stop stop-color="#4381C0"/>
<stop offset="0.322807" stop-color="#235B95"/>
<stop offset="1" stop-color="#4381C0"/>
</linearGradient>
<linearGradient id="paint3_linear_11471_889" x1="90.5321" y1="233.782" x2="89.2255" y2="179.101" gradientUnits="userSpaceOnUse">
<stop stop-color="#E6EFF9"/>
<stop offset="1" stop-color="#FAFAFA"/>
</linearGradient>
<linearGradient id="paint4_linear_11471_889" x1="221.607" y1="273.421" x2="207.97" y2="231.272" gradientUnits="userSpaceOnUse">
<stop stop-color="#073769"/>
<stop offset="1" stop-color="#154A82"/>
</linearGradient>
<linearGradient id="paint5_linear_11471_889" x1="231.748" y1="296.382" x2="232.657" y2="228.476" gradientUnits="userSpaceOnUse">
<stop stop-color="#4381C0"/>
<stop offset="0.322807" stop-color="#235B95"/>
<stop offset="1" stop-color="#4381C0"/>
</linearGradient>
<linearGradient id="paint6_linear_11471_889" x1="190.702" y1="286.389" x2="211.174" y2="227.436" gradientUnits="userSpaceOnUse">
<stop stop-color="#E6EFF9"/>
<stop offset="1" stop-color="#FAFAFA"/>
</linearGradient>
<linearGradient id="paint7_linear_11471_889" x1="198.751" y1="190.769" x2="162.453" y2="152.146" gradientUnits="userSpaceOnUse">
<stop stop-color="#073769"/>
<stop offset="1" stop-color="#154A82"/>
</linearGradient>
<linearGradient id="paint8_linear_11471_889" x1="183.667" y1="223.956" x2="169.094" y2="119.605" gradientUnits="userSpaceOnUse">
<stop stop-color="#4381C0"/>
<stop offset="0.322807" stop-color="#235B95"/>
<stop offset="1" stop-color="#4381C0"/>
</linearGradient>
<linearGradient id="paint9_linear_11471_889" x1="211.599" y1="208.746" x2="156.59" y2="100.753" gradientUnits="userSpaceOnUse">
<stop stop-color="#235B95"/>
<stop offset="0.322807" stop-color="#4381C0"/>
<stop offset="1" stop-color="#235B95"/>
</linearGradient>
<linearGradient id="paint10_linear_11471_889" x1="196.914" y1="172.652" x2="169.485" y2="142.077" gradientUnits="userSpaceOnUse">
<stop stop-color="#154A82"/>
<stop offset="1" stop-color="#235B95"/>
</linearGradient>
<linearGradient id="paint11_linear_11471_889" x1="210.667" y1="176.043" x2="217.174" y2="85.003" gradientUnits="userSpaceOnUse">
<stop stop-color="#E6EFF9"/>
<stop offset="1" stop-color="#FAFAFA"/>
</linearGradient>
</defs>
</svg>
