<svg width="294" height="382" viewBox="0 0 294 382" fill="none" xmlns="http://www.w3.org/2000/svg">
<path d="M29 32H265V162.939C265 164.281 264.157 165.568 262.657 166.518C261.157 167.467 259.122 168 257 168H37C34.8783 168 32.8434 167.467 31.3431 166.518C29.8429 165.568 29 164.281 29 162.939V32Z" fill="url(#paint0_linear_11471_890)"/>
<path d="M29 32H265V8C265 5.87827 264.157 3.84343 262.657 2.34314C261.157 0.842849 259.122 0 257 0H37C34.8783 0 32.8434 0.842849 31.3431 2.34314C29.8428 3.84343 29 5.87827 29 8V32Z" fill="#B6D7F8"/>
<path d="M78 16C78 15.2089 78.2346 14.4355 78.6741 13.7777C79.1137 13.1199 79.7383 12.6073 80.4692 12.3045C81.2001 12.0018 82.0044 11.9225 82.7803 12.0769C83.5563 12.2312 84.269 12.6122 84.8284 13.1716C85.3878 13.731 85.7688 14.4437 85.9232 15.2197C86.0775 15.9956 85.9982 16.7999 85.6955 17.5308C85.3927 18.2617 84.8801 18.8863 84.2223 19.3259C83.5645 19.7654 82.7911 20 82 20C80.9391 20 79.9217 19.5786 79.1716 18.8284C78.4214 18.0783 78 17.0609 78 16ZM62 16C62 15.2089 62.2346 14.4355 62.6741 13.7777C63.1137 13.1199 63.7383 12.6073 64.4692 12.3045C65.2001 12.0018 66.0044 11.9225 66.7803 12.0769C67.5563 12.2312 68.269 12.6122 68.8284 13.1716C69.3878 13.731 69.7688 14.4437 69.9232 15.2197C70.0775 15.9956 69.9982 16.7999 69.6955 17.5308C69.3927 18.2617 68.8801 18.8863 68.2223 19.3259C67.5645 19.7654 66.7911 20 66 20C64.9391 20 63.9217 19.5786 63.1716 18.8284C62.4214 18.0783 62 17.0609 62 16ZM46 16C46 15.2089 46.2346 14.4355 46.6741 13.7777C47.1137 13.1199 47.7383 12.6073 48.4692 12.3045C49.2001 12.0018 50.0044 11.9225 50.7803 12.0769C51.5563 12.2312 52.269 12.6122 52.8284 13.1716C53.3878 13.731 53.7688 14.4437 53.9232 15.2197C54.0775 15.9956 53.9982 16.7999 53.6955 17.5308C53.3927 18.2617 52.8801 18.8863 52.2223 19.3259C51.5645 19.7654 50.7911 20 50 20C48.9391 20 47.9217 19.5786 47.1716 18.8284C46.4214 18.0783 46 17.0609 46 16Z" fill="#5CA4EC"/>
<rect x="1.05615" y="174.984" width="167.953" height="60.5732" rx="8" transform="rotate(-9.87826 1.05615 174.984)" fill="url(#paint1_linear_11471_890)"/>
<rect x="0.583984" y="172.272" width="167.953" height="57.8199" rx="8" transform="rotate(-9.87826 0.583984 172.272)" fill="url(#paint2_linear_11471_890)"/>
<path d="M68.6227 197.664C67.3695 197.882 66.226 197.863 65.1921 197.607C64.1553 197.335 63.2908 196.848 62.5986 196.147C61.9036 195.43 61.4473 194.495 61.2298 193.342L64.5255 192.768C64.6969 193.56 65.0993 194.186 65.7328 194.645C66.3797 195.086 67.1832 195.223 68.1434 195.056C68.9735 194.911 69.5986 194.601 70.0188 194.125C70.4362 193.634 70.5868 193.054 70.4706 192.387C70.3488 191.687 70.0341 191.18 69.5267 190.866C69.0355 190.549 68.4106 190.331 67.652 190.211C66.8934 190.092 66.0831 189.965 65.2212 189.83C63.8235 189.604 62.7125 189.193 61.8879 188.599C61.0797 188.002 60.5721 187.109 60.3652 185.921C60.1732 184.915 60.259 184.011 60.6226 183.21C60.9996 182.39 61.5853 181.71 62.3799 181.169C63.1716 180.612 64.129 180.235 65.2519 180.04C66.3912 179.841 67.4275 179.871 68.361 180.127C69.3107 180.381 70.0934 180.832 70.7092 181.479C71.3413 182.124 71.7614 182.948 71.9697 183.951L68.6252 184.533C68.504 183.934 68.1759 183.446 67.6409 183.07C67.1193 182.674 66.4597 182.546 65.6622 182.685C64.9759 182.788 64.4279 183.059 64.0182 183.499C63.622 183.921 63.482 184.465 63.5982 185.132C63.6974 185.702 63.9558 186.126 64.3734 186.406C64.7881 186.669 65.3245 186.86 65.9827 186.981C66.6408 187.101 67.3913 187.222 68.2341 187.343C69.1314 187.489 69.964 187.696 70.7318 187.965C71.4997 188.233 72.1519 188.656 72.6884 189.234C73.2221 189.795 73.5768 190.58 73.7525 191.589C73.9083 192.484 73.825 193.354 73.5025 194.198C73.18 195.042 72.6123 195.778 71.7994 196.406C70.9836 197.018 69.9247 197.437 68.6227 197.664ZM77.2303 195.863L74.1695 178.286L77.2943 177.742L78.5697 185.065C78.8604 184.327 79.3149 183.712 79.9332 183.218C80.5651 182.706 81.3285 182.372 82.2236 182.216C83.721 181.955 84.9587 182.226 85.9368 183.028C86.9312 183.827 87.5871 185.138 87.9045 186.961L89.0948 193.797L85.9944 194.337L84.8551 187.794C84.6738 186.752 84.3233 185.992 83.8038 185.512C83.3006 185.03 82.6014 184.866 81.7063 185.022C80.8274 185.175 80.1489 185.612 79.6707 186.333C79.2087 187.05 79.0741 187.962 79.2669 189.069L80.3551 195.319L77.2303 195.863ZM91.3315 178.995C90.7618 179.094 90.2601 179.005 89.8263 178.729C89.4087 178.449 89.1546 178.049 89.0639 177.528C88.9732 177.007 89.0785 176.553 89.3799 176.165C89.6947 175.758 90.1369 175.505 90.7066 175.406C91.2762 175.307 91.7698 175.397 92.1873 175.676C92.6184 175.937 92.8792 176.327 92.9699 176.848C93.0606 177.369 92.9485 177.833 92.6337 178.24C92.3352 178.644 91.9011 178.895 91.3315 178.995ZM92.205 193.255L90.0964 181.147L93.2212 180.602L95.3298 192.711L92.205 193.255ZM99.1528 192.045L97.4991 182.549L95.8391 182.838L95.3842 180.226L97.0443 179.937L96.7977 178.521C96.5426 177.056 96.7274 175.951 97.3521 175.205C97.9931 174.456 98.9483 173.971 100.218 173.75L101.56 173.516L102.024 176.177L101.169 176.326C100.632 176.419 100.268 176.592 100.077 176.843C99.8862 177.094 99.8346 177.472 99.9225 177.977L100.169 179.393L102.781 178.938L103.236 181.55L100.624 182.005L102.278 191.501L99.1528 192.045ZM112.76 189.676C111.49 189.897 110.419 189.765 109.547 189.28C108.674 188.794 108.1 187.762 107.825 186.184L106.907 180.911L104.832 181.272L104.377 178.66L106.452 178.298L106.253 174.988L109.012 174.507L109.577 177.754L112.848 177.185L113.303 179.797L110.032 180.366L110.954 185.664C111.056 186.25 111.249 186.635 111.533 186.821C111.83 186.987 112.288 187.016 112.907 186.909L114.42 186.645L114.884 189.306L112.76 189.676Z" fill="url(#paint3_linear_11471_890)"/>
<g filter="url(#filter0_dddd_11471_890)">
<rect x="92.9219" y="198.186" width="195.2" height="70.4" rx="9" transform="rotate(5.479 92.9219 198.186)" fill="url(#paint4_linear_11471_890)"/>
<rect x="93.2273" y="195" width="195.2" height="67.2" rx="9" transform="rotate(5.479 93.2273 195)" fill="url(#paint5_linear_11471_890)"/>
<path d="M170.397 245.311L179.661 225.947L183.789 226.343L189.204 247.115L185.305 246.741L184.145 241.943L176.318 241.192L174.239 245.68L170.397 245.311ZM177.597 238.422L183.416 238.98L181.292 230.357L177.597 238.422ZM191.703 247.355L193.682 226.714L197.352 227.066L195.372 247.707L191.703 247.355ZM205.457 248.674C203.967 248.531 202.807 248.054 201.978 247.241C201.15 246.429 200.824 245.096 201.002 243.242L201.596 237.049L199.159 236.816L199.454 233.748L201.89 233.982L202.686 230.21L205.926 230.521L205.56 234.334L209.401 234.702L209.107 237.77L205.266 237.401L204.669 243.622C204.603 244.31 204.7 244.802 204.961 245.097C205.243 245.375 205.748 245.548 206.474 245.618L208.251 245.789L207.952 248.913L205.457 248.674Z" fill="url(#paint6_linear_11471_890)"/>
</g>
<g filter="url(#filter1_ddddd_11471_890)">
<rect x="123.538" y="85.0472" width="104.975" height="109.973" rx="15" transform="rotate(-19.9089 123.538 85.0472)" fill="url(#paint7_linear_11471_890)"/>
<rect x="121.835" y="80.3472" width="104.975" height="104.975" rx="15" transform="rotate(-19.9089 121.835 80.3472)" fill="url(#paint8_linear_11471_890)"/>
<rect x="127.8" y="84.6488" width="94.1137" height="94.1137" rx="12" transform="rotate(-19.9089 127.8 84.6488)" fill="url(#paint9_linear_11471_890)"/>
<rect x="134.467" y="87.3771" width="83.4326" height="83.4326" rx="9" transform="rotate(-19.9089 134.467 87.3771)" fill="url(#paint10_linear_11471_890)"/>
<path d="M195.857 123.77C192.868 124.853 190.072 125.148 187.469 124.655C184.856 124.134 182.558 122.941 180.575 121.075C178.581 119.182 177.038 116.726 175.945 113.709C174.852 110.691 174.465 107.817 174.784 105.086C175.102 102.355 176.098 99.9523 177.772 97.8789C179.445 95.8055 181.777 94.2274 184.766 93.1448C188.319 91.858 191.545 91.6943 194.445 92.6538C197.362 93.575 199.68 95.5267 201.398 98.5091L195.434 100.669C194.485 99.1946 193.241 98.2256 191.701 97.7624C190.18 97.2607 188.432 97.3674 186.458 98.0823C183.723 99.073 181.917 100.78 181.04 103.203C180.163 105.626 180.312 108.459 181.486 111.702C182.661 114.945 184.36 117.216 186.586 118.515C188.8 119.787 191.276 119.927 194.011 118.936C195.985 118.221 197.411 117.226 198.289 115.952C199.185 114.638 199.541 113.154 199.356 111.498L205.32 109.338C205.859 112.588 205.298 115.487 203.637 118.034C202.004 120.571 199.411 122.483 195.857 123.77Z" fill="url(#paint11_linear_11471_890)"/>
</g>
<defs>
<filter id="filter0_dddd_11471_890" x="42.2176" y="191.018" width="250.9" height="162.266" filterUnits="userSpaceOnUse" color-interpolation-filters="sRGB">
<feFlood flood-opacity="0" result="BackgroundImageFix"/>
<feColorMatrix in="SourceAlpha" type="matrix" values="0 0 0 0 0 0 0 0 0 0 0 0 0 0 0 0 0 0 127 0" result="hardAlpha"/>
<feOffset dx="-1.6" dy="3.2"/>
<feGaussianBlur stdDeviation="4"/>
<feColorMatrix type="matrix" values="0 0 0 0 0.0470588 0 0 0 0 0.360784 0 0 0 0 0.239216 0 0 0 0.1 0"/>
<feBlend mode="normal" in2="BackgroundImageFix" result="effect1_dropShadow_11471_890"/>
<feColorMatrix in="SourceAlpha" type="matrix" values="0 0 0 0 0 0 0 0 0 0 0 0 0 0 0 0 0 0 127 0" result="hardAlpha"/>
<feOffset dx="-6.4" dy="11.2"/>
<feGaussianBlur stdDeviation="6.4"/>
<feColorMatrix type="matrix" values="0 0 0 0 0.0470588 0 0 0 0 0.360784 0 0 0 0 0.239216 0 0 0 0.09 0"/>
<feBlend mode="normal" in2="effect1_dropShadow_11471_890" result="effect2_dropShadow_11471_890"/>
<feColorMatrix in="SourceAlpha" type="matrix" values="0 0 0 0 0 0 0 0 0 0 0 0 0 0 0 0 0 0 127 0" result="hardAlpha"/>
<feOffset dx="-14.4" dy="27.2"/>
<feGaussianBlur stdDeviation="8.8"/>
<feColorMatrix type="matrix" values="0 0 0 0 0.0470588 0 0 0 0 0.360784 0 0 0 0 0.239216 0 0 0 0.05 0"/>
<feBlend mode="normal" in2="effect2_dropShadow_11471_890" result="effect3_dropShadow_11471_890"/>
<feColorMatrix in="SourceAlpha" type="matrix" values="0 0 0 0 0 0 0 0 0 0 0 0 0 0 0 0 0 0 127 0" result="hardAlpha"/>
<feOffset dx="-24" dy="46.4"/>
<feGaussianBlur stdDeviation="10.4"/>
<feColorMatrix type="matrix" values="0 0 0 0 0.0470588 0 0 0 0 0.360784 0 0 0 0 0.239216 0 0 0 0.01 0"/>
<feBlend mode="normal" in2="effect3_dropShadow_11471_890" result="effect4_dropShadow_11471_890"/>
<feBlend mode="normal" in="SourceGraphic" in2="effect4_dropShadow_11471_890" result="shape"/>
</filter>
<filter id="filter1_ddddd_11471_890" x="7.64248" y="40.808" width="263.837" height="340.233" filterUnits="userSpaceOnUse" color-interpolation-filters="sRGB">
<feFlood flood-opacity="0" result="BackgroundImageFix"/>
<feColorMatrix in="SourceAlpha" type="matrix" values="0 0 0 0 0 0 0 0 0 0 0 0 0 0 0 0 0 0 127 0" result="hardAlpha"/>
<feOffset dx="-3.2" dy="6.4"/>
<feGaussianBlur stdDeviation="7.2"/>
<feColorMatrix type="matrix" values="0 0 0 0 0.0470588 0 0 0 0 0.172549 0 0 0 0 0.12549 0 0 0 0.42 0"/>
<feBlend mode="normal" in2="BackgroundImageFix" result="effect1_dropShadow_11471_890"/>
<feColorMatrix in="SourceAlpha" type="matrix" values="0 0 0 0 0 0 0 0 0 0 0 0 0 0 0 0 0 0 127 0" result="hardAlpha"/>
<feOffset dx="-11.2" dy="24"/>
<feGaussianBlur stdDeviation="13.6"/>
<feColorMatrix type="matrix" values="0 0 0 0 0.0470588 0 0 0 0 0.172549 0 0 0 0 0.12549 0 0 0 0.36 0"/>
<feBlend mode="normal" in2="effect1_dropShadow_11471_890" result="effect2_dropShadow_11471_890"/>
<feColorMatrix in="SourceAlpha" type="matrix" values="0 0 0 0 0 0 0 0 0 0 0 0 0 0 0 0 0 0 127 0" result="hardAlpha"/>
<feOffset dx="-25.6" dy="54.4"/>
<feGaussianBlur stdDeviation="17.6"/>
<feColorMatrix type="matrix" values="0 0 0 0 0.0470588 0 0 0 0 0.172549 0 0 0 0 0.12549 0 0 0 0.21 0"/>
<feBlend mode="normal" in2="effect2_dropShadow_11471_890" result="effect3_dropShadow_11471_890"/>
<feColorMatrix in="SourceAlpha" type="matrix" values="0 0 0 0 0 0 0 0 0 0 0 0 0 0 0 0 0 0 127 0" result="hardAlpha"/>
<feOffset dx="-46.4" dy="96"/>
<feGaussianBlur stdDeviation="21.6"/>
<feColorMatrix type="matrix" values="0 0 0 0 0.0470588 0 0 0 0 0.172549 0 0 0 0 0.12549 0 0 0 0.06 0"/>
<feBlend mode="normal" in2="effect3_dropShadow_11471_890" result="effect4_dropShadow_11471_890"/>
<feColorMatrix in="SourceAlpha" type="matrix" values="0 0 0 0 0 0 0 0 0 0 0 0 0 0 0 0 0 0 127 0" result="hardAlpha"/>
<feOffset dx="-72" dy="150.4"/>
<feGaussianBlur stdDeviation="23.2"/>
<feColorMatrix type="matrix" values="0 0 0 0 0.0470588 0 0 0 0 0.172549 0 0 0 0 0.12549 0 0 0 0.01 0"/>
<feBlend mode="normal" in2="effect4_dropShadow_11471_890" result="effect5_dropShadow_11471_890"/>
<feBlend mode="normal" in="SourceGraphic" in2="effect5_dropShadow_11471_890" result="shape"/>
</filter>
<linearGradient id="paint0_linear_11471_890" x1="17" y1="212.292" x2="86.9184" y2="-12.4496" gradientUnits="userSpaceOnUse">
<stop stop-color="#B6D7F8"/>
<stop offset="1" stop-color="#E6EFF9"/>
</linearGradient>
<linearGradient id="paint1_linear_11471_890" x1="100.593" y1="221.649" x2="88.8601" y2="185.383" gradientUnits="userSpaceOnUse">
<stop stop-color="#073769"/>
<stop offset="1" stop-color="#154A82"/>
</linearGradient>
<linearGradient id="paint2_linear_11471_890" x1="108.735" y1="238.536" x2="107.992" y2="181.616" gradientUnits="userSpaceOnUse">
<stop stop-color="#4381C0"/>
<stop offset="0.322807" stop-color="#235B95"/>
<stop offset="1" stop-color="#4381C0"/>
</linearGradient>
<linearGradient id="paint3_linear_11471_890" x1="77.5321" y1="212.782" x2="76.2255" y2="158.101" gradientUnits="userSpaceOnUse">
<stop stop-color="#E6EFF9"/>
<stop offset="1" stop-color="#FAFAFA"/>
</linearGradient>
<linearGradient id="paint4_linear_11471_890" x1="208.607" y1="252.421" x2="194.97" y2="210.272" gradientUnits="userSpaceOnUse">
<stop stop-color="#073769"/>
<stop offset="1" stop-color="#154A82"/>
</linearGradient>
<linearGradient id="paint5_linear_11471_890" x1="218.748" y1="275.382" x2="219.657" y2="207.476" gradientUnits="userSpaceOnUse">
<stop stop-color="#4381C0"/>
<stop offset="0.322807" stop-color="#235B95"/>
<stop offset="1" stop-color="#4381C0"/>
</linearGradient>
<linearGradient id="paint6_linear_11471_890" x1="177.702" y1="265.389" x2="198.174" y2="206.436" gradientUnits="userSpaceOnUse">
<stop stop-color="#E6EFF9"/>
<stop offset="1" stop-color="#FAFAFA"/>
</linearGradient>
<linearGradient id="paint7_linear_11471_890" x1="185.751" y1="169.769" x2="149.453" y2="131.146" gradientUnits="userSpaceOnUse">
<stop stop-color="#073769"/>
<stop offset="1" stop-color="#154A82"/>
</linearGradient>
<linearGradient id="paint8_linear_11471_890" x1="170.667" y1="202.956" x2="156.094" y2="98.6055" gradientUnits="userSpaceOnUse">
<stop stop-color="#4381C0"/>
<stop offset="0.322807" stop-color="#235B95"/>
<stop offset="1" stop-color="#4381C0"/>
</linearGradient>
<linearGradient id="paint9_linear_11471_890" x1="198.599" y1="187.746" x2="143.59" y2="79.7527" gradientUnits="userSpaceOnUse">
<stop stop-color="#235B95"/>
<stop offset="0.322807" stop-color="#4381C0"/>
<stop offset="1" stop-color="#235B95"/>
</linearGradient>
<linearGradient id="paint10_linear_11471_890" x1="183.914" y1="151.652" x2="156.485" y2="121.077" gradientUnits="userSpaceOnUse">
<stop stop-color="#154A82"/>
<stop offset="1" stop-color="#235B95"/>
</linearGradient>
<linearGradient id="paint11_linear_11471_890" x1="197.667" y1="155.043" x2="204.174" y2="64.003" gradientUnits="userSpaceOnUse">
<stop stop-color="#E6EFF9"/>
<stop offset="1" stop-color="#FAFAFA"/>
</linearGradient>
</defs>
</svg>
