<svg xmlns="http://www.w3.org/2000/svg" width="20" height="20" viewBox="0 0 20 20" fill="none">
    <path d="M15.6667 1.83301H4.33335C3.39993 1.83301 2.93322 1.83301 2.5767 2.01466C2.2631 2.17445 2.00813 2.42942 1.84834 2.74302C1.66669 3.09954 1.66669 3.56625 1.66669 8.49967V15.4997C1.66669 16.4331 1.66669 16.8998 1.84834 17.2563C2.00813 17.5699 2.2631 17.8249 2.5767 17.9847C2.93322 18.1663 3.39993 18.1663 4.33335 18.1663H15.6667C16.6001 18.1663 17.0668 18.1663 17.4233 17.9847C17.7369 17.8249 17.9919 17.5699 18.1517 17.2563C18.3334 16.8998 18.3334 16.4331 18.3334 15.4997V8.49967C18.3334 3.56625 18.3334 3.09954 18.1517 2.74302C17.9919 2.42942 17.7369 2.17445 17.4233 2.01466C17.0668 1.83301 16.6001 1.83301 15.6667 1.83301Z" stroke="currentColor" stroke-width="1.5" stroke-linecap="round" stroke-linejoin="round"/>
    <path d="M10 9.99935H10.0042M14.1667 9.99935H14.1708M5.83333 9.99935H5.8375M10.2083 9.99935C10.2083 10.1144 10.1151 10.2077 10 10.2077C9.88494 10.2077 9.79167 10.1144 9.79167 9.99935C9.79167 9.88429 9.88494 9.79102 10 9.79102C10.1151 9.79102 10.2083 9.88429 10.2083 9.99935ZM14.375 9.99935C14.375 10.1144 14.2817 10.2077 14.1667 10.2077C14.0516 10.2077 13.9583 10.1144 13.9583 9.99935C13.9583 9.88429 14.0516 9.79102 14.1667 9.79102C14.2817 9.79102 14.375 9.88429 14.375 9.99935ZM6.04167 9.99935C6.04167 10.1144 5.94839 10.2077 5.83333 10.2077C5.71827 10.2077 5.625 10.1144 5.625 9.99935C5.625 9.88429 5.71827 9.79102 5.83333 9.79102C5.94839 9.79102 6.04167 9.88429 6.04167 9.99935Z" stroke="currentColor" stroke-width="2.5" stroke-linecap="round" stroke-linejoin="round"/>
</svg>