<svg xmlns="http://www.w3.org/2000/svg" width="18" height="18" viewBox="0 0 18 18" fill="none">
    <path d="M8.24961 4.4115V14.43C8.24939 14.7409 8.13947 15.0417 7.93922 15.2794C7.73897 15.5172 7.46123 15.6766 7.15494 15.7297C6.84866 15.7827 6.53347 15.726 6.2649 15.5695C5.99634 15.413 5.79164 15.1667 5.68686 14.874L4.07661 10.2615M4.07661 10.2615C3.44002 9.99083 2.9165 9.50929 2.59463 8.897C2.27277 8.28471 2.17233 7.58001 2.31031 6.90217C2.4483 6.22434 2.81623 5.61499 3.35185 5.17725C3.88747 4.73951 4.55787 4.50026 5.24961 4.5H6.62361C9.69861 4.5 12.3424 3.5745 13.4996 2.25V12.75C12.3424 11.4255 9.69936 10.5 6.62361 10.5H5.24961C4.84658 10.5006 4.4476 10.419 4.07661 10.2615ZM13.4996 9.75C14.0963 9.75 14.6686 9.51295 15.0906 9.09099C15.5126 8.66903 15.7496 8.09674 15.7496 7.5C15.7496 6.90326 15.5126 6.33097 15.0906 5.90901C14.6686 5.48705 14.0963 5.25 13.4996 5.25V9.75Z" stroke="currentColor" stroke-width="1.5" stroke-linecap="round" stroke-linejoin="round"/>
</svg>