<svg width="20" height="20" viewBox="0 0 20 20" fill="none" xmlns="http://www.w3.org/2000/svg">
<g id="support">
<path id="Vector" d="M15.3033 4.69667L12.3567 7.64333M15.3033 4.69667C13.8968 3.29014 11.9891 2.5 10 2.5C8.01088 2.5 6.10319 3.29014 4.69667 4.69667M15.3033 4.69667C16.7099 6.10319 17.5 8.01088 17.5 10C17.5 10.9849 17.306 11.9602 16.9291 12.8701C16.5522 13.7801 15.9998 14.6069 15.3033 15.3033M12.3567 7.64333C11.7315 7.01821 10.8841 6.66667 10 6.66667C9.11594 6.66667 8.26845 7.01821 7.64333 7.64333M12.3567 7.64333C12.9818 8.26845 13.3333 9.11594 13.3333 10C13.3333 10.8841 12.9818 11.7315 12.3567 12.3567M12.3567 12.3567L15.3033 15.3033M12.3567 12.3567C11.7315 12.9818 10.8841 13.3333 10 13.3333C9.11594 13.3333 8.26845 12.9818 7.64333 12.3567M15.3033 15.3033C14.6069 15.9998 13.7801 16.5522 12.8701 16.9291C11.9602 17.306 10.9849 17.5 10 17.5C9.01509 17.5 8.03982 17.306 7.12987 16.9291C6.21993 16.5522 5.39311 15.9998 4.69667 15.3033M7.64333 7.64333L4.69667 4.69667M7.64333 7.64333C7.01821 8.26845 6.66667 9.11594 6.66667 10C6.66667 10.8841 7.01821 11.7315 7.64333 12.3567M4.69667 4.69667C3.29014 6.10319 2.5 8.01088 2.5 10C2.5 10.9849 2.69399 11.9602 3.0709 12.8701C3.44781 13.7801 4.00023 14.6069 4.69667 15.3033M7.64333 12.3567L4.69667 15.3033" stroke="currentColor" stroke-width="1.5" stroke-linecap="round" stroke-linejoin="round"/>
</g>
</svg>
