<svg viewBox="0 0 32 32" fill="none" xmlns="http://www.w3.org/2000/svg">
<g id="revote-svgrepo-com 1">
<path id="Vector 224" d="M4 16V12.25C4 10.1567 4 9.10998 4.25836 8.25829C4.84006 6.34068 6.34068 4.84006 8.25829 4.25836C9.10998 4 10.1567 4 12.25 4H16C21.6569 4 24.4853 4 26.2426 5.75736C28 7.51472 28 10.3431 28 16C28 21.6569 28 24.4853 26.2426 26.2426C24.4853 28 21.6569 28 16 28C10.3431 28 7.51472 28 5.75736 26.2426C4 24.4853 4 21.6569 4 16Z" stroke="currentColor" stroke-width="2.09366"/>
<path id="Icon" d="M13 13H21M21 13L19 11M21 13L19 15" stroke="currentColor" stroke-width="2" stroke-linecap="round" stroke-linejoin="round"/>
<path id="Icon_2" d="M19 19H11M11 19L13 17M11 19L13 21" stroke="currentColor" stroke-width="2" stroke-linecap="round" stroke-linejoin="round"/>
</g>
</svg>
