<svg width="316" height="315" viewBox="0 0 316 315" fill="none" xmlns="http://www.w3.org/2000/svg">
  <path
    d="M41.845 52.1721H274.157V181.065C274.157 182.386 273.328 183.654 271.851 184.588C270.374 185.522 268.371 186.047 266.282 186.047H49.72C47.6314 186.047 45.6284 185.522 44.1515 184.588C42.6747 183.654 41.845 182.386 41.845 181.065V52.1721Z"
    fill="url(#paint0_linear_10566_29843)" />
  <path
    d="M41.845 52.1729H274.157V28.5479C274.157 26.4593 273.328 24.4562 271.851 22.9794C270.374 21.5025 268.371 20.6729 266.282 20.6729H49.72C47.6314 20.6729 45.6283 21.5025 44.1515 22.9794C42.6746 24.4562 41.845 26.4593 41.845 28.5479V52.1729Z"
    fill="#B6D7F8" />
  <path
    d="M90.0786 36.4221C90.0786 35.6434 90.3096 34.8821 90.7422 34.2346C91.1749 33.587 91.7898 33.0824 92.5093 32.7844C93.2288 32.4864 94.0205 32.4083 94.7843 32.5603C95.5481 32.7122 96.2497 33.0872 96.8004 33.6379C97.351 34.1886 97.726 34.8902 97.878 35.654C98.0299 36.4178 97.9519 37.2095 97.6539 37.929C97.3558 38.6485 96.8512 39.2634 96.2037 39.696C95.5562 40.1287 94.7949 40.3596 94.0161 40.3596C92.9718 40.3596 91.9703 39.9448 91.2319 39.2064C90.4935 38.4679 90.0786 37.4664 90.0786 36.4221ZM74.3286 36.4221C74.3286 35.6434 74.5596 34.8821 74.9922 34.2346C75.4249 33.587 76.0398 33.0824 76.7593 32.7844C77.4788 32.4864 78.2705 32.4083 79.0343 32.5603C79.7981 32.7122 80.4997 33.0872 81.0504 33.6379C81.601 34.1886 81.976 34.8902 82.128 35.654C82.2799 36.4178 82.2019 37.2095 81.9039 37.929C81.6058 38.6485 81.1012 39.2634 80.4537 39.696C79.8062 40.1287 79.0449 40.3596 78.2661 40.3596C77.2218 40.3596 76.2203 39.9448 75.4819 39.2064C74.7435 38.4679 74.3286 37.4664 74.3286 36.4221ZM58.5786 36.4221C58.5786 35.6434 58.8096 34.8821 59.2422 34.2346C59.6749 33.587 60.2898 33.0824 61.0093 32.7844C61.7288 32.4864 62.5205 32.4083 63.2843 32.5603C64.0481 32.7122 64.7497 33.0872 65.3003 33.6379C65.851 34.1886 66.226 34.8902 66.378 35.654C66.5299 36.4178 66.4519 37.2095 66.1539 37.929C65.8558 38.6485 65.3512 39.2634 64.7037 39.696C64.0562 40.1287 63.2949 40.3596 62.5161 40.3596C61.4718 40.3596 60.4703 39.9448 59.7319 39.2064C58.9935 38.4679 58.5786 37.4664 58.5786 36.4221Z"
    fill="#5CA4EC" />
  <path
    d="M254.632 136.72C254.632 189.938 211.49 233.08 158.272 233.08C105.054 233.08 61.912 189.938 61.912 136.72C61.912 83.5021 105.054 40.3604 158.272 40.3604C211.49 40.3604 254.632 83.5021 254.632 136.72Z"
    fill="url(#paint1_linear_10566_29843)" />
  <path
    d="M158.272 46.3835C108.38 46.3835 67.9348 86.8289 67.9348 136.721C67.9348 167.164 82.9939 194.091 106.069 210.457H78.8648C75.1626 210.457 72.1615 213.458 72.1615 217.16V260.943C72.1615 264.645 75.1626 267.646 78.8648 267.646H239.496C243.198 267.646 246.199 264.645 246.199 260.943V217.16C246.199 213.458 243.198 210.457 239.496 210.457H210.475C233.55 194.091 248.609 167.164 248.609 136.721C248.609 86.8289 208.164 46.3835 158.272 46.3835Z"
    fill="url(#paint2_linear_10566_29843)" />
  <path
    d="M79.2493 220.774C79.2493 218.013 81.4878 215.774 84.2493 215.774H233.324C236.086 215.774 238.324 218.013 238.324 220.774V256.449C238.324 259.211 236.086 261.449 233.324 261.449H84.2493C81.4878 261.449 79.2493 259.211 79.2493 256.449V220.774Z"
    fill="url(#paint3_linear_10566_29843)" />
  <path
    d="M121.56 241.564C121.861 241.738 122.125 241.97 122.336 242.246C122.548 242.522 122.704 242.838 122.794 243.175C122.884 243.512 122.907 243.863 122.862 244.209C122.817 244.555 122.704 244.889 122.531 245.191C122.357 245.493 122.126 245.758 121.85 245.97C121.575 246.182 121.26 246.338 120.925 246.428C120.59 246.518 120.24 246.54 119.896 246.494C119.552 246.448 119.22 246.334 118.92 246.159L115.803 244.35C115.252 244.03 114.564 244.432 114.564 245.073V248.687C114.564 249.391 114.286 250.066 113.791 250.563C113.296 251.061 112.624 251.34 111.924 251.34C111.224 251.34 110.553 251.061 110.057 250.563C109.562 250.066 109.284 249.391 109.284 248.687V245.073C109.284 244.432 108.596 244.03 108.045 244.35L104.928 246.159C104.322 246.509 103.603 246.603 102.928 246.42C102.253 246.238 101.677 245.793 101.328 245.185C100.978 244.577 100.883 243.854 101.063 243.175C101.243 242.496 101.684 241.917 102.289 241.564L105.399 239.759C105.952 239.438 105.952 238.633 105.399 238.312L102.289 236.507C101.684 236.155 101.243 235.575 101.063 234.896C100.883 234.218 100.978 233.495 101.328 232.886C101.677 232.278 102.253 231.834 102.928 231.651C103.603 231.469 104.322 231.563 104.928 231.913L108.045 233.721C108.596 234.041 109.284 233.64 109.284 232.998V229.384C109.284 228.68 109.562 228.006 110.057 227.508C110.553 227.01 111.224 226.731 111.924 226.731C112.624 226.731 113.296 227.01 113.791 227.508C114.286 228.006 114.564 228.68 114.564 229.384V232.998C114.564 233.64 115.252 234.041 115.803 233.721L118.92 231.913C119.526 231.563 120.245 231.469 120.92 231.651C121.595 231.834 122.171 232.278 122.52 232.886C122.87 233.495 122.965 234.218 122.785 234.896C122.605 235.575 122.164 236.155 121.56 236.507L118.449 238.312C117.896 238.633 117.896 239.438 118.449 239.759L121.56 241.564Z"
    fill="#073769" />
  <path
    d="M151.991 241.564C152.292 241.738 152.556 241.97 152.767 242.246C152.979 242.522 153.134 242.838 153.225 243.175C153.315 243.512 153.338 243.863 153.293 244.209C153.248 244.555 153.135 244.889 152.962 245.191C152.788 245.493 152.557 245.758 152.281 245.97C152.006 246.182 151.691 246.338 151.356 246.428C151.021 246.518 150.671 246.54 150.327 246.494C149.983 246.448 149.651 246.334 149.351 246.159L146.234 244.35C145.683 244.03 144.995 244.432 144.995 245.073V248.687C144.995 249.391 144.717 250.066 144.222 250.563C143.727 251.061 143.055 251.34 142.355 251.34C141.655 251.34 140.983 251.061 140.488 250.563C139.993 250.066 139.715 249.391 139.715 248.687V245.073C139.715 244.432 139.027 244.03 138.476 244.35L135.359 246.159C134.753 246.509 134.034 246.603 133.359 246.42C132.684 246.238 132.108 245.793 131.759 245.185C131.409 244.577 131.314 243.854 131.494 243.175C131.674 242.496 132.115 241.917 132.72 241.564L135.83 239.759C136.383 239.438 136.383 238.633 135.83 238.312L132.72 236.507C132.115 236.155 131.674 235.575 131.494 234.896C131.314 234.218 131.409 233.495 131.759 232.886C132.108 232.278 132.684 231.834 133.359 231.651C134.034 231.469 134.753 231.563 135.359 231.913L138.476 233.721C139.027 234.041 139.715 233.64 139.715 232.998V229.384C139.715 228.68 139.993 228.006 140.488 227.508C140.983 227.01 141.655 226.731 142.355 226.731C143.055 226.731 143.727 227.01 144.222 227.508C144.717 228.006 144.995 228.68 144.995 229.384V232.998C144.995 233.64 145.683 234.041 146.234 233.721L149.351 231.913C149.957 231.563 150.676 231.469 151.351 231.651C152.026 231.834 152.602 232.278 152.951 232.886C153.301 233.495 153.396 234.218 153.216 234.896C153.036 235.575 152.595 236.155 151.991 236.507L148.88 238.312C148.327 238.633 148.327 239.438 148.88 239.759L151.991 241.564Z"
    fill="#073769" />
  <path
    d="M182.422 241.564C182.723 241.738 182.986 241.97 183.198 242.246C183.41 242.522 183.565 242.838 183.656 243.175C183.746 243.512 183.769 243.863 183.724 244.209C183.679 244.555 183.566 244.889 183.393 245.191C183.219 245.493 182.988 245.758 182.712 245.97C182.437 246.182 182.122 246.338 181.787 246.428C181.451 246.518 181.102 246.54 180.758 246.494C180.414 246.448 180.082 246.334 179.782 246.159L176.665 244.35C176.114 244.03 175.426 244.432 175.426 245.073V248.687C175.426 249.391 175.148 250.066 174.653 250.563C174.158 251.061 173.486 251.34 172.786 251.34C172.086 251.34 171.414 251.061 170.919 250.563C170.424 250.066 170.146 249.391 170.146 248.687V245.073C170.146 244.432 169.458 244.03 168.907 244.35L165.79 246.159C165.184 246.509 164.465 246.603 163.79 246.42C163.115 246.238 162.539 245.793 162.19 245.185C161.84 244.577 161.745 243.854 161.925 243.175C162.105 242.496 162.546 241.917 163.15 241.564L166.261 239.759C166.814 239.438 166.814 238.633 166.261 238.312L163.15 236.507C162.546 236.155 162.105 235.575 161.925 234.896C161.745 234.218 161.84 233.495 162.19 232.886C162.539 232.278 163.115 231.834 163.79 231.651C164.465 231.469 165.184 231.563 165.79 231.913L168.907 233.721C169.458 234.041 170.146 233.64 170.146 232.998V229.384C170.146 228.68 170.424 228.006 170.919 227.508C171.414 227.01 172.086 226.731 172.786 226.731C173.486 226.731 174.158 227.01 174.653 227.508C175.148 228.006 175.426 228.68 175.426 229.384V232.998C175.426 233.64 176.114 234.041 176.665 233.721L179.782 231.913C180.388 231.563 181.107 231.469 181.782 231.651C182.457 231.834 183.033 232.278 183.382 232.886C183.732 233.495 183.827 234.218 183.647 234.896C183.467 235.575 183.026 236.155 182.422 236.507L179.311 238.312C178.758 238.633 178.758 239.438 179.311 239.759L182.422 241.564Z"
    fill="#073769" />
  <path
    d="M212.852 241.564C213.153 241.738 213.417 241.97 213.629 242.246C213.841 242.522 213.996 242.838 214.087 243.175C214.177 243.512 214.2 243.863 214.155 244.209C214.11 244.555 213.997 244.889 213.824 245.191C213.65 245.493 213.419 245.758 213.143 245.97C212.868 246.182 212.553 246.338 212.218 246.428C211.882 246.518 211.533 246.54 211.189 246.494C210.845 246.448 210.513 246.334 210.213 246.159L207.096 244.35C206.545 244.03 205.857 244.432 205.857 245.073V248.687C205.857 249.391 205.579 250.066 205.084 250.563C204.589 251.061 203.917 251.34 203.217 251.34C202.517 251.34 201.845 251.061 201.35 250.563C200.855 250.066 200.577 249.391 200.577 248.687V245.073C200.577 244.432 199.889 244.03 199.338 244.35L196.221 246.159C195.615 246.509 194.896 246.603 194.221 246.42C193.546 246.238 192.97 245.793 192.621 245.185C192.271 244.577 192.176 243.854 192.356 243.175C192.536 242.496 192.977 241.917 193.581 241.564L196.692 239.759C197.245 239.438 197.245 238.633 196.692 238.312L193.581 236.507C192.977 236.155 192.536 235.575 192.356 234.896C192.176 234.218 192.271 233.495 192.621 232.886C192.97 232.278 193.546 231.834 194.221 231.651C194.896 231.469 195.615 231.563 196.221 231.913L199.338 233.721C199.889 234.041 200.577 233.64 200.577 232.998V229.384C200.577 228.68 200.855 228.006 201.35 227.508C201.845 227.01 202.517 226.731 203.217 226.731C203.917 226.731 204.589 227.01 205.084 227.508C205.579 228.006 205.857 228.68 205.857 229.384V232.998C205.857 233.64 206.545 234.041 207.096 233.721L210.213 231.913C210.819 231.563 211.538 231.469 212.213 231.651C212.888 231.834 213.464 232.278 213.813 232.886C214.163 233.495 214.258 234.218 214.078 234.896C213.898 235.575 213.457 236.155 212.852 236.507L209.742 238.312C209.189 238.633 209.189 239.438 209.742 239.759L212.852 241.564Z"
    fill="#073769" />
  <path
    d="M123.405 241.069C123.705 241.241 123.969 241.47 124.18 241.744C124.391 242.017 124.546 242.329 124.636 242.662C124.726 242.995 124.749 243.342 124.704 243.684C124.659 244.026 124.547 244.356 124.374 244.655C124.201 244.953 123.97 245.215 123.695 245.425C123.42 245.635 123.107 245.788 122.772 245.877C122.438 245.966 122.089 245.988 121.746 245.943C121.403 245.897 121.072 245.785 120.772 245.611L118.134 244.094C117.375 243.657 116.428 244.205 116.428 245.081V248.111C116.428 248.806 116.151 249.473 115.657 249.965C115.163 250.457 114.494 250.733 113.795 250.733C113.097 250.733 112.427 250.457 111.934 249.965C111.44 249.473 111.162 248.806 111.162 248.111V245.081C111.162 244.205 110.215 243.657 109.457 244.094L106.818 245.611C106.214 245.957 105.496 246.05 104.823 245.87C104.15 245.689 103.576 245.25 103.227 244.649C102.878 244.047 102.784 243.333 102.963 242.662C103.143 241.991 103.582 241.418 104.185 241.069L106.815 239.557C107.576 239.119 107.576 238.021 106.815 237.584L104.185 236.071C103.582 235.722 103.143 235.15 102.963 234.479C102.784 233.808 102.878 233.093 103.227 232.492C103.576 231.89 104.15 231.451 104.823 231.271C105.496 231.09 106.214 231.183 106.818 231.529L109.457 233.047C110.215 233.483 111.162 232.935 111.162 232.06V229.03C111.162 228.334 111.44 227.667 111.934 227.175C112.427 226.684 113.097 226.407 113.795 226.407C114.494 226.407 115.163 226.684 115.657 227.175C116.151 227.667 116.428 228.334 116.428 229.03V232.06C116.428 232.935 117.375 233.483 118.134 233.047L120.772 231.529C121.377 231.183 122.095 231.09 122.768 231.271C123.441 231.451 124.015 231.89 124.363 232.492C124.712 233.093 124.807 233.808 124.627 234.479C124.448 235.15 124.008 235.722 123.405 236.071L120.775 237.584C120.014 238.021 120.014 239.119 120.775 239.557L123.405 241.069Z"
    fill="url(#paint4_linear_10566_29843)" />
  <path
    d="M153.756 241.069C154.057 241.241 154.32 241.47 154.531 241.744C154.742 242.017 154.897 242.329 154.987 242.662C155.077 242.995 155.1 243.342 155.055 243.684C155.01 244.026 154.898 244.356 154.725 244.655C154.552 244.953 154.321 245.215 154.046 245.425C153.772 245.635 153.458 245.788 153.123 245.877C152.789 245.966 152.44 245.988 152.097 245.943C151.754 245.897 151.423 245.785 151.124 245.611L148.485 244.094C147.726 243.657 146.779 244.205 146.779 245.081V248.111C146.779 248.806 146.502 249.473 146.008 249.965C145.514 250.457 144.845 250.733 144.146 250.733C143.448 250.733 142.778 250.457 142.285 249.965C141.791 249.473 141.514 248.806 141.514 248.111V245.081C141.514 244.205 140.567 243.657 139.808 244.094L137.169 245.611C136.565 245.957 135.847 246.05 135.174 245.87C134.501 245.689 133.927 245.25 133.578 244.649C133.23 244.047 133.135 243.333 133.314 242.662C133.494 241.991 133.933 241.418 134.536 241.069L137.166 239.557C137.927 239.119 137.927 238.021 137.166 237.584L134.536 236.071C133.933 235.722 133.494 235.15 133.314 234.479C133.135 233.808 133.23 233.093 133.578 232.492C133.927 231.89 134.501 231.451 135.174 231.271C135.847 231.09 136.565 231.183 137.169 231.529L139.808 233.047C140.567 233.483 141.514 232.935 141.514 232.06V229.03C141.514 228.334 141.791 227.667 142.285 227.175C142.778 226.684 143.448 226.407 144.146 226.407C144.845 226.407 145.514 226.684 146.008 227.175C146.502 227.667 146.779 228.334 146.779 229.03V232.06C146.779 232.935 147.726 233.483 148.485 233.047L151.124 231.529C151.728 231.183 152.446 231.09 153.119 231.271C153.792 231.451 154.366 231.89 154.715 232.492C155.063 233.093 155.158 233.808 154.978 234.479C154.799 235.15 154.359 235.722 153.756 236.071L151.126 237.584C150.365 238.021 150.365 239.119 151.126 239.557L153.756 241.069Z"
    fill="url(#paint5_linear_10566_29843)" />
  <path
    d="M184.106 241.069C184.406 241.241 184.669 241.47 184.88 241.744C185.092 242.017 185.247 242.329 185.337 242.662C185.426 242.995 185.45 243.342 185.405 243.684C185.36 244.026 185.247 244.356 185.074 244.655C184.901 244.953 184.67 245.215 184.396 245.425C184.121 245.635 183.807 245.788 183.473 245.877C183.138 245.966 182.789 245.988 182.446 245.943C182.103 245.897 181.772 245.785 181.473 245.611L178.834 244.094C178.075 243.657 177.129 244.205 177.129 245.081V248.111C177.129 248.806 176.851 249.473 176.357 249.965C175.864 250.457 175.194 250.733 174.496 250.733C173.797 250.733 173.128 250.457 172.634 249.965C172.14 249.473 171.863 248.806 171.863 248.111V245.081C171.863 244.205 170.916 243.657 170.157 244.094L167.519 245.611C166.914 245.957 166.196 246.05 165.523 245.87C164.85 245.689 164.276 245.25 163.927 244.649C163.579 244.047 163.484 243.333 163.664 242.662C163.843 241.991 164.283 241.418 164.886 241.069L167.516 239.557C168.277 239.119 168.277 238.021 167.516 237.584L164.886 236.071C164.283 235.722 163.843 235.15 163.664 234.479C163.484 233.808 163.579 233.093 163.927 232.492C164.276 231.89 164.85 231.451 165.523 231.271C166.196 231.09 166.914 231.183 167.519 231.529L170.157 233.047C170.916 233.483 171.863 232.935 171.863 232.06V229.03C171.863 228.334 172.14 227.667 172.634 227.175C173.128 226.684 173.797 226.407 174.496 226.407C175.194 226.407 175.864 226.684 176.357 227.175C176.851 227.667 177.129 228.334 177.129 229.03V232.06C177.129 232.935 178.075 233.483 178.834 233.047L181.473 231.529C182.077 231.183 182.795 231.09 183.468 231.271C184.141 231.451 184.715 231.89 185.064 232.492C185.413 233.093 185.507 233.808 185.328 234.479C185.148 235.15 184.709 235.722 184.106 236.071L181.476 237.584C180.715 238.021 180.715 239.119 181.476 239.557L184.106 241.069Z"
    fill="url(#paint6_linear_10566_29843)" />
  <path
    d="M214.457 241.069C214.757 241.241 215.02 241.47 215.231 241.744C215.443 242.017 215.598 242.329 215.688 242.662C215.778 242.995 215.801 243.342 215.756 243.684C215.711 244.026 215.598 244.356 215.425 244.655C215.252 244.953 215.022 245.215 214.747 245.425C214.472 245.635 214.158 245.788 213.824 245.877C213.489 245.966 213.14 245.988 212.797 245.943C212.454 245.897 212.123 245.785 211.824 245.611L209.185 244.094C208.427 243.657 207.48 244.205 207.48 245.081V248.111C207.48 248.806 207.202 249.473 206.708 249.965C206.215 250.457 205.545 250.733 204.847 250.733C204.148 250.733 203.479 250.457 202.985 249.965C202.491 249.473 202.214 248.806 202.214 248.111V245.081C202.214 244.205 201.267 243.657 200.508 244.094L197.87 245.611C197.265 245.957 196.547 246.05 195.874 245.87C195.201 245.689 194.627 245.25 194.279 244.649C193.93 244.047 193.835 243.333 194.015 242.662C194.194 241.991 194.634 241.418 195.237 241.069L197.867 239.557C198.628 239.119 198.628 238.021 197.867 237.584L195.237 236.071C194.634 235.722 194.194 235.15 194.015 234.479C193.835 233.808 193.93 233.093 194.279 232.492C194.627 231.89 195.201 231.451 195.874 231.271C196.547 231.09 197.265 231.183 197.87 231.529L200.508 233.047C201.267 233.483 202.214 232.935 202.214 232.06V229.03C202.214 228.334 202.491 227.667 202.985 227.175C203.479 226.684 204.148 226.407 204.847 226.407C205.545 226.407 206.215 226.684 206.708 227.175C207.202 227.667 207.48 228.334 207.48 229.03V232.06C207.48 232.935 208.427 233.483 209.185 233.047L211.824 231.529C212.428 231.183 213.146 231.09 213.819 231.271C214.492 231.451 215.066 231.89 215.415 232.492C215.764 233.093 215.858 233.808 215.679 234.479C215.499 235.15 215.06 235.722 214.457 236.071L211.827 237.584C211.066 238.021 211.066 239.119 211.827 239.557L214.457 241.069Z"
    fill="url(#paint7_linear_10566_29843)" />
  <circle cx="158.271" cy="136.72" r="66.2473" fill="url(#paint8_linear_10566_29843)" />
  <circle cx="158.271" cy="136.719" r="60.2248" fill="url(#paint9_linear_10566_29843)" />
  <path
    d="M128.106 119.326C128.106 117.45 129.627 115.93 131.502 115.93L166.348 115.929C167.737 115.929 168.862 114.804 168.862 113.415V107.439C168.862 106.065 169.69 104.827 170.959 104.301C172.228 103.775 173.689 104.066 174.66 105.037L188.245 118.622C189.572 119.949 189.572 122.099 188.245 123.426L174.66 137.011C173.689 137.982 172.228 138.273 170.959 137.747C169.69 137.221 168.862 135.983 168.862 134.609V128.632C168.862 127.244 167.737 126.118 166.348 126.118L131.503 126.118C129.627 126.118 128.106 124.598 128.106 122.722L128.106 119.326Z"
    fill="#073769" />
  <path
    d="M148.484 168.572C148.484 169.946 147.657 171.185 146.387 171.71C145.118 172.236 143.658 171.945 142.686 170.974L131.854 160.142C131.816 160.103 131.763 160.082 131.709 160.082C131.595 160.082 131.503 159.989 131.503 159.876C131.503 159.821 131.481 159.769 131.442 159.73L129.101 157.389C127.775 156.062 127.775 153.912 129.101 152.586L131.442 150.244C131.481 150.206 131.503 150.153 131.503 150.099C131.503 149.985 131.595 149.893 131.708 149.893C131.763 149.893 131.815 149.871 131.854 149.832L142.686 139C143.658 138.029 145.118 137.738 146.387 138.264C147.657 138.79 148.484 140.028 148.484 141.402V148.217C148.484 149.142 149.234 149.893 150.16 149.893L185.844 149.893C187.719 149.893 189.24 151.413 189.24 153.289V156.685C189.24 158.561 187.719 160.082 185.844 160.082H150.16C149.234 160.082 148.484 160.832 148.484 161.758V168.572Z"
    fill="#073769" />
  <path
    d="M128.106 117.651C128.106 115.775 129.627 114.255 131.502 114.255L166.348 114.254C167.737 114.254 168.862 113.129 168.862 111.741L168.862 105.764C168.862 104.39 169.69 103.152 170.959 102.626C172.228 102.1 173.689 102.391 174.66 103.362L188.245 116.948C189.572 118.274 189.572 120.424 188.245 121.751L174.66 135.336C173.689 136.307 172.228 136.598 170.959 136.072C169.69 135.546 168.862 134.308 168.862 132.934L168.862 126.957C168.862 125.569 167.737 124.443 166.348 124.443L131.503 124.444C129.627 124.444 128.106 122.923 128.106 121.047L128.106 117.651Z"
    fill="url(#paint10_linear_10566_29843)" />
  <path
    d="M148.484 166.898C148.484 168.271 147.657 169.51 146.387 170.036C145.118 170.561 143.658 170.271 142.686 169.299L131.854 158.467C131.816 158.429 131.763 158.407 131.709 158.407C131.595 158.407 131.503 158.315 131.503 158.201C131.503 158.146 131.481 158.094 131.442 158.055L129.101 155.714C127.775 154.388 127.775 152.237 129.101 150.911L131.442 148.57C131.481 148.531 131.503 148.479 131.503 148.424C131.503 148.31 131.595 148.218 131.708 148.218C131.763 148.218 131.815 148.196 131.854 148.158L142.686 137.326C143.658 136.354 145.118 136.064 146.387 136.589C147.657 137.115 148.484 138.354 148.484 139.727L148.484 146.542C148.484 147.468 149.234 148.218 150.16 148.218L185.844 148.218C187.719 148.218 189.24 149.739 189.24 151.614L189.24 155.011C189.24 156.886 187.719 158.407 185.844 158.407L150.16 158.407C149.234 158.407 148.484 159.157 148.484 160.083L148.484 166.898Z"
    fill="url(#paint11_linear_10566_29843)" />
  <defs>
    <linearGradient id="paint0_linear_10566_29843" x1="30.0325" y1="229.647" x2="98.8584" y2="8.41708"
      gradientUnits="userSpaceOnUse">
      <stop stop-color="#B6D7F8" />
      <stop offset="1" stop-color="#E6EFF9" />
    </linearGradient>
    <linearGradient id="paint1_linear_10566_29843" x1="180.94" y1="264.816" x2="167.596" y2="217.603"
      gradientUnits="userSpaceOnUse">
      <stop stop-color="#154A82" />
      <stop offset="1" stop-color="#235B95" />
    </linearGradient>
    <linearGradient id="paint2_linear_10566_29843" x1="120.985" y1="330.697" x2="118.539" y2="86.4417"
      gradientUnits="userSpaceOnUse">
      <stop stop-color="#4381C0" />
      <stop offset="0.322807" stop-color="#235B95" />
      <stop offset="1" stop-color="#4381C0" />
    </linearGradient>
    <linearGradient id="paint3_linear_10566_29843" x1="173.525" y1="250.962" x2="166.228" y2="222.633"
      gradientUnits="userSpaceOnUse">
      <stop stop-color="#073769" />
      <stop offset="1" stop-color="#154A82" />
    </linearGradient>
    <linearGradient id="paint4_linear_10566_29843" x1="108.256" y1="258.361" x2="120.23" y2="218.565"
      gradientUnits="userSpaceOnUse">
      <stop stop-color="#E6EFF9" />
      <stop offset="1" stop-color="#FAFAFA" />
    </linearGradient>
    <linearGradient id="paint5_linear_10566_29843" x1="138.607" y1="258.361" x2="150.581" y2="218.565"
      gradientUnits="userSpaceOnUse">
      <stop stop-color="#E6EFF9" />
      <stop offset="1" stop-color="#FAFAFA" />
    </linearGradient>
    <linearGradient id="paint6_linear_10566_29843" x1="168.956" y1="258.361" x2="180.93" y2="218.565"
      gradientUnits="userSpaceOnUse">
      <stop stop-color="#E6EFF9" />
      <stop offset="1" stop-color="#FAFAFA" />
    </linearGradient>
    <linearGradient id="paint7_linear_10566_29843" x1="199.307" y1="258.361" x2="211.281" y2="218.565"
      gradientUnits="userSpaceOnUse">
      <stop stop-color="#E6EFF9" />
      <stop offset="1" stop-color="#FAFAFA" />
    </linearGradient>
    <linearGradient id="paint8_linear_10566_29843" x1="191.696" y1="215.615" x2="114.254" y2="63.5799"
      gradientUnits="userSpaceOnUse">
      <stop stop-color="#235B95" />
      <stop offset="0.322807" stop-color="#4381C0" />
      <stop offset="1" stop-color="#235B95" />
    </linearGradient>
    <linearGradient id="paint9_linear_10566_29843" x1="169.431" y1="169.287" x2="129.833" y2="125.146"
      gradientUnits="userSpaceOnUse">
      <stop stop-color="#154A82" />
      <stop offset="1" stop-color="#235B95" />
    </linearGradient>
    <linearGradient id="paint10_linear_10566_29843" x1="208.409" y1="127.967" x2="120.217" y2="85.0608"
      gradientUnits="userSpaceOnUse">
      <stop stop-color="#E6EFF9" />
      <stop offset="1" stop-color="#FAFAFA" />
    </linearGradient>
    <linearGradient id="paint11_linear_10566_29843" x1="208.409" y1="161.93" x2="120.217" y2="119.024"
      gradientUnits="userSpaceOnUse">
      <stop stop-color="#E6EFF9" />
      <stop offset="1" stop-color="#FAFAFA" />
    </linearGradient>
  </defs>
</svg>