<svg width="315" height="315" viewBox="0 0 315 315" fill="none" xmlns="http://www.w3.org/2000/svg">
<path d="M41.345 52.1722H273.657V181.065C273.657 182.386 272.828 183.654 271.351 184.588C269.874 185.522 267.871 186.047 265.782 186.047H49.22C47.1314 186.047 45.1284 185.522 43.6515 184.588C42.1747 183.654 41.345 182.386 41.345 181.065V52.1722Z" fill="url(#paint0_linear_330_1173)"/>
<path d="M41.345 52.1729H273.657V28.5479C273.657 26.4593 272.828 24.4562 271.351 22.9794C269.874 21.5025 267.871 20.6729 265.782 20.6729H49.22C47.1314 20.6729 45.1283 21.5025 43.6515 22.9794C42.1746 24.4562 41.345 26.4593 41.345 28.5479V52.1729Z" fill="#B2FFDD"/>
<path d="M89.5786 36.4222C89.5786 35.6434 89.8096 34.8821 90.2422 34.2346C90.6749 33.5871 91.2898 33.0825 92.0093 32.7844C92.7288 32.4864 93.5205 32.4084 94.2843 32.5603C95.0481 32.7123 95.7497 33.0873 96.3004 33.638C96.851 34.1886 97.226 34.8902 97.378 35.654C97.5299 36.4178 97.4519 37.2095 97.1539 37.929C96.8558 38.6485 96.3512 39.2634 95.7037 39.6961C95.0562 40.1287 94.2949 40.3597 93.5161 40.3597C92.4718 40.3597 91.4703 39.9448 90.7319 39.2064C89.9935 38.468 89.5786 37.4665 89.5786 36.4222ZM73.8286 36.4222C73.8286 35.6434 74.0596 34.8821 74.4922 34.2346C74.9249 33.5871 75.5398 33.0825 76.2593 32.7844C76.9788 32.4864 77.7705 32.4084 78.5343 32.5603C79.2981 32.7123 79.9997 33.0873 80.5504 33.638C81.101 34.1886 81.476 34.8902 81.628 35.654C81.7799 36.4178 81.7019 37.2095 81.4039 37.929C81.1058 38.6485 80.6012 39.2634 79.9537 39.6961C79.3062 40.1287 78.5449 40.3597 77.7661 40.3597C76.7218 40.3597 75.7203 39.9448 74.9819 39.2064C74.2435 38.468 73.8286 37.4665 73.8286 36.4222ZM58.0786 36.4222C58.0786 35.6434 58.3096 34.8821 58.7422 34.2346C59.1749 33.5871 59.7898 33.0825 60.5093 32.7844C61.2288 32.4864 62.0205 32.4084 62.7843 32.5603C63.5481 32.7123 64.2497 33.0873 64.8003 33.638C65.351 34.1886 65.726 34.8902 65.878 35.654C66.0299 36.4178 65.9519 37.2095 65.6539 37.929C65.3558 38.6485 64.8512 39.2634 64.2037 39.6961C63.5562 40.1287 62.7949 40.3597 62.0161 40.3597C60.9718 40.3597 59.9703 39.9448 59.2319 39.2064C58.4935 38.468 58.0786 37.4665 58.0786 36.4222Z" fill="#34F4A2"/>
<path d="M254.132 136.72C254.132 189.938 210.99 233.08 157.772 233.08C104.554 233.08 61.412 189.938 61.412 136.72C61.412 83.5021 104.554 40.3604 157.772 40.3604C210.99 40.3604 254.132 83.5021 254.132 136.72Z" fill="url(#paint1_linear_330_1173)"/>
<path d="M157.772 46.3836C107.88 46.3836 67.4348 86.829 67.4348 136.721C67.4348 167.164 82.4939 194.091 105.569 210.457H78.3648C74.6626 210.457 71.6615 213.458 71.6615 217.16V260.943C71.6615 264.645 74.6626 267.646 78.3648 267.646H238.996C242.698 267.646 245.699 264.645 245.699 260.943V217.16C245.699 213.458 242.698 210.457 238.996 210.457H209.975C233.05 194.091 248.109 167.164 248.109 136.721C248.109 86.829 207.664 46.3836 157.772 46.3836Z" fill="url(#paint2_linear_330_1173)"/>
<path d="M78.7493 220.802C78.7493 218.025 81.0001 215.774 83.7767 215.774H232.797C235.573 215.774 237.824 218.025 237.824 220.802V256.422C237.824 259.199 235.573 261.449 232.797 261.449H83.7767C81.0001 261.449 78.7493 259.199 78.7493 256.422V220.802Z" fill="url(#paint3_linear_330_1173)"/>
<path d="M121.06 241.564C121.361 241.738 121.625 241.97 121.836 242.246C122.048 242.522 122.204 242.838 122.294 243.175C122.384 243.512 122.407 243.863 122.362 244.209C122.317 244.555 122.204 244.889 122.031 245.191C121.857 245.493 121.626 245.758 121.35 245.97C121.075 246.182 120.76 246.338 120.425 246.428C120.09 246.518 119.74 246.54 119.396 246.494C119.052 246.448 118.72 246.334 118.42 246.159L115.303 244.35C114.752 244.03 114.064 244.432 114.064 245.073V248.687C114.064 249.391 113.786 250.066 113.291 250.563C112.796 251.061 112.124 251.34 111.424 251.34C110.724 251.34 110.053 251.061 109.557 250.563C109.062 250.066 108.784 249.391 108.784 248.687V245.073C108.784 244.432 108.096 244.03 107.545 244.35L104.428 246.159C103.822 246.509 103.103 246.603 102.428 246.42C101.753 246.238 101.177 245.793 100.828 245.185C100.478 244.577 100.383 243.854 100.563 243.175C100.743 242.496 101.184 241.917 101.789 241.564L104.899 239.759C105.452 239.438 105.452 238.633 104.899 238.313L101.789 236.507C101.184 236.155 100.743 235.575 100.563 234.897C100.383 234.218 100.478 233.495 100.828 232.886C101.177 232.278 101.753 231.834 102.428 231.651C103.103 231.469 103.822 231.563 104.428 231.913L107.545 233.721C108.096 234.041 108.784 233.64 108.784 232.998V229.384C108.784 228.681 109.062 228.006 109.557 227.508C110.053 227.011 110.724 226.731 111.424 226.731C112.124 226.731 112.796 227.011 113.291 227.508C113.786 228.006 114.064 228.681 114.064 229.384V232.998C114.064 233.64 114.752 234.041 115.303 233.721L118.42 231.913C119.026 231.563 119.745 231.469 120.42 231.651C121.095 231.834 121.671 232.278 122.02 232.886C122.37 233.495 122.465 234.218 122.285 234.897C122.105 235.575 121.664 236.155 121.06 236.507L117.949 238.313C117.396 238.633 117.396 239.438 117.949 239.759L121.06 241.564Z" fill="#0B5C3C"/>
<path d="M151.491 241.564C151.792 241.738 152.056 241.97 152.267 242.246C152.479 242.522 152.634 242.838 152.725 243.175C152.815 243.512 152.838 243.863 152.793 244.209C152.748 244.555 152.635 244.889 152.462 245.191C152.288 245.493 152.057 245.758 151.781 245.97C151.506 246.182 151.191 246.338 150.856 246.428C150.521 246.518 150.171 246.54 149.827 246.494C149.483 246.448 149.151 246.334 148.851 246.159L145.734 244.35C145.183 244.03 144.495 244.432 144.495 245.073V248.687C144.495 249.391 144.217 250.066 143.722 250.563C143.227 251.061 142.555 251.34 141.855 251.34C141.155 251.34 140.483 251.061 139.988 250.563C139.493 250.066 139.215 249.391 139.215 248.687V245.073C139.215 244.432 138.527 244.03 137.976 244.35L134.859 246.159C134.253 246.509 133.534 246.603 132.859 246.42C132.184 246.238 131.608 245.793 131.259 245.185C130.909 244.577 130.814 243.854 130.994 243.175C131.174 242.496 131.615 241.917 132.22 241.564L135.33 239.759C135.883 239.438 135.883 238.633 135.33 238.313L132.22 236.507C131.615 236.155 131.174 235.575 130.994 234.897C130.814 234.218 130.909 233.495 131.259 232.886C131.608 232.278 132.184 231.834 132.859 231.651C133.534 231.469 134.253 231.563 134.859 231.913L137.976 233.721C138.527 234.041 139.215 233.64 139.215 232.998V229.384C139.215 228.681 139.493 228.006 139.988 227.508C140.483 227.011 141.155 226.731 141.855 226.731C142.555 226.731 143.227 227.011 143.722 227.508C144.217 228.006 144.495 228.681 144.495 229.384V232.998C144.495 233.64 145.183 234.041 145.734 233.721L148.851 231.913C149.457 231.563 150.176 231.469 150.851 231.651C151.526 231.834 152.102 232.278 152.451 232.886C152.801 233.495 152.896 234.218 152.716 234.897C152.536 235.575 152.095 236.155 151.491 236.507L148.38 238.313C147.827 238.633 147.827 239.438 148.38 239.759L151.491 241.564Z" fill="#0B5C3C"/>
<path d="M181.922 241.564C182.223 241.738 182.486 241.97 182.698 242.246C182.91 242.522 183.065 242.838 183.156 243.175C183.246 243.512 183.269 243.863 183.224 244.209C183.179 244.555 183.066 244.889 182.893 245.191C182.719 245.493 182.488 245.758 182.212 245.97C181.937 246.182 181.622 246.338 181.287 246.428C180.951 246.518 180.602 246.54 180.258 246.494C179.914 246.448 179.582 246.334 179.282 246.159L176.165 244.35C175.614 244.03 174.926 244.432 174.926 245.073V248.687C174.926 249.391 174.648 250.066 174.153 250.563C173.658 251.061 172.986 251.34 172.286 251.34C171.586 251.34 170.914 251.061 170.419 250.563C169.924 250.066 169.646 249.391 169.646 248.687V245.073C169.646 244.432 168.958 244.03 168.407 244.35L165.29 246.159C164.684 246.509 163.965 246.603 163.29 246.42C162.615 246.238 162.039 245.793 161.69 245.185C161.34 244.577 161.245 243.854 161.425 243.175C161.605 242.496 162.046 241.917 162.65 241.564L165.761 239.759C166.314 239.438 166.314 238.633 165.761 238.313L162.65 236.507C162.046 236.155 161.605 235.575 161.425 234.897C161.245 234.218 161.34 233.495 161.69 232.886C162.039 232.278 162.615 231.834 163.29 231.651C163.965 231.469 164.684 231.563 165.29 231.913L168.407 233.721C168.958 234.041 169.646 233.64 169.646 232.998V229.384C169.646 228.681 169.924 228.006 170.419 227.508C170.914 227.011 171.586 226.731 172.286 226.731C172.986 226.731 173.658 227.011 174.153 227.508C174.648 228.006 174.926 228.681 174.926 229.384V232.998C174.926 233.64 175.614 234.041 176.165 233.721L179.282 231.913C179.888 231.563 180.607 231.469 181.282 231.651C181.957 231.834 182.533 232.278 182.882 232.886C183.232 233.495 183.327 234.218 183.147 234.897C182.967 235.575 182.526 236.155 181.922 236.507L178.811 238.313C178.258 238.633 178.258 239.438 178.811 239.759L181.922 241.564Z" fill="#0B5C3C"/>
<path d="M212.352 241.564C212.653 241.738 212.917 241.97 213.129 242.246C213.341 242.522 213.496 242.838 213.587 243.175C213.677 243.512 213.7 243.863 213.655 244.209C213.61 244.555 213.497 244.889 213.324 245.191C213.15 245.493 212.919 245.758 212.643 245.97C212.368 246.182 212.053 246.338 211.718 246.428C211.382 246.518 211.033 246.54 210.689 246.494C210.345 246.448 210.013 246.334 209.713 246.159L206.596 244.35C206.045 244.03 205.357 244.432 205.357 245.073V248.687C205.357 249.391 205.079 250.066 204.584 250.563C204.089 251.061 203.417 251.34 202.717 251.34C202.017 251.34 201.345 251.061 200.85 250.563C200.355 250.066 200.077 249.391 200.077 248.687V245.073C200.077 244.432 199.389 244.03 198.838 244.35L195.721 246.159C195.115 246.509 194.396 246.603 193.721 246.42C193.046 246.238 192.47 245.793 192.121 245.185C191.771 244.577 191.676 243.854 191.856 243.175C192.036 242.496 192.477 241.917 193.081 241.564L196.192 239.759C196.745 239.438 196.745 238.633 196.192 238.313L193.081 236.507C192.477 236.155 192.036 235.575 191.856 234.897C191.676 234.218 191.771 233.495 192.121 232.886C192.47 232.278 193.046 231.834 193.721 231.651C194.396 231.469 195.115 231.563 195.721 231.913L198.838 233.721C199.389 234.041 200.077 233.64 200.077 232.998V229.384C200.077 228.681 200.355 228.006 200.85 227.508C201.345 227.011 202.017 226.731 202.717 226.731C203.417 226.731 204.089 227.011 204.584 227.508C205.079 228.006 205.357 228.681 205.357 229.384V232.998C205.357 233.64 206.045 234.041 206.596 233.721L209.713 231.913C210.319 231.563 211.038 231.469 211.713 231.651C212.388 231.834 212.964 232.278 213.313 232.886C213.663 233.495 213.758 234.218 213.578 234.897C213.398 235.575 212.957 236.155 212.352 236.507L209.242 238.313C208.689 238.633 208.689 239.438 209.242 239.759L212.352 241.564Z" fill="#0B5C3C"/>
<path d="M122.905 241.069C123.205 241.241 123.469 241.47 123.68 241.744C123.891 242.017 124.046 242.329 124.136 242.662C124.226 242.995 124.249 243.342 124.204 243.684C124.159 244.026 124.047 244.356 123.874 244.655C123.701 244.953 123.47 245.215 123.195 245.425C122.92 245.635 122.607 245.788 122.272 245.877C121.938 245.966 121.589 245.988 121.246 245.943C120.903 245.897 120.572 245.785 120.272 245.611L117.634 244.094C116.875 243.657 115.928 244.205 115.928 245.081V248.111C115.928 248.806 115.651 249.473 115.157 249.965C114.663 250.457 113.994 250.733 113.295 250.733C112.597 250.733 111.927 250.457 111.434 249.965C110.94 249.473 110.662 248.806 110.662 248.111V245.081C110.662 244.205 109.715 243.657 108.957 244.094L106.318 245.611C105.714 245.957 104.996 246.05 104.323 245.87C103.65 245.689 103.076 245.25 102.727 244.649C102.378 244.047 102.284 243.333 102.463 242.662C102.643 241.991 103.082 241.418 103.685 241.069L106.315 239.557C107.076 239.119 107.076 238.021 106.315 237.584L103.685 236.071C103.082 235.722 102.643 235.15 102.463 234.479C102.284 233.808 102.378 233.093 102.727 232.492C103.076 231.89 103.65 231.451 104.323 231.271C104.996 231.09 105.714 231.183 106.318 231.529L108.957 233.047C109.715 233.483 110.662 232.935 110.662 232.06V229.03C110.662 228.334 110.94 227.667 111.434 227.175C111.927 226.684 112.597 226.407 113.295 226.407C113.994 226.407 114.663 226.684 115.157 227.175C115.651 227.667 115.928 228.334 115.928 229.03V232.06C115.928 232.935 116.875 233.483 117.634 233.047L120.272 231.529C120.877 231.183 121.595 231.09 122.268 231.271C122.941 231.451 123.515 231.89 123.863 232.492C124.212 233.093 124.307 233.808 124.127 234.479C123.948 235.15 123.508 235.722 122.905 236.071L120.275 237.584C119.514 238.021 119.514 239.119 120.275 239.557L122.905 241.069Z" fill="url(#paint4_linear_330_1173)"/>
<path d="M153.256 241.069C153.557 241.241 153.82 241.47 154.031 241.744C154.242 242.017 154.397 242.329 154.487 242.662C154.577 242.995 154.6 243.342 154.555 243.684C154.51 244.026 154.398 244.356 154.225 244.655C154.052 244.953 153.821 245.215 153.546 245.425C153.272 245.635 152.958 245.788 152.623 245.877C152.289 245.966 151.94 245.988 151.597 245.943C151.254 245.897 150.923 245.785 150.624 245.611L147.985 244.094C147.226 243.657 146.279 244.205 146.279 245.081V248.111C146.279 248.806 146.002 249.473 145.508 249.965C145.014 250.457 144.345 250.733 143.646 250.733C142.948 250.733 142.278 250.457 141.785 249.965C141.291 249.473 141.014 248.806 141.014 248.111V245.081C141.014 244.205 140.067 243.657 139.308 244.094L136.669 245.611C136.065 245.957 135.347 246.05 134.674 245.87C134.001 245.689 133.427 245.25 133.078 244.649C132.73 244.047 132.635 243.333 132.814 242.662C132.994 241.991 133.433 241.418 134.036 241.069L136.666 239.557C137.427 239.119 137.427 238.021 136.666 237.584L134.036 236.071C133.433 235.722 132.994 235.15 132.814 234.479C132.635 233.808 132.73 233.093 133.078 232.492C133.427 231.89 134.001 231.451 134.674 231.271C135.347 231.09 136.065 231.183 136.669 231.529L139.308 233.047C140.067 233.483 141.014 232.935 141.014 232.06V229.03C141.014 228.334 141.291 227.667 141.785 227.175C142.278 226.684 142.948 226.407 143.646 226.407C144.345 226.407 145.014 226.684 145.508 227.175C146.002 227.667 146.279 228.334 146.279 229.03V232.06C146.279 232.935 147.226 233.483 147.985 233.047L150.624 231.529C151.228 231.183 151.946 231.09 152.619 231.271C153.292 231.451 153.866 231.89 154.215 232.492C154.563 233.093 154.658 233.808 154.478 234.479C154.299 235.15 153.859 235.722 153.256 236.071L150.626 237.584C149.865 238.021 149.865 239.119 150.626 239.557L153.256 241.069Z" fill="url(#paint5_linear_330_1173)"/>
<path d="M183.606 241.069C183.906 241.241 184.169 241.47 184.38 241.744C184.592 242.017 184.747 242.329 184.837 242.662C184.926 242.995 184.95 243.342 184.905 243.684C184.86 244.026 184.747 244.356 184.574 244.655C184.401 244.953 184.17 245.215 183.896 245.425C183.621 245.635 183.307 245.788 182.973 245.877C182.638 245.966 182.289 245.988 181.946 245.943C181.603 245.897 181.272 245.785 180.973 245.611L178.334 244.094C177.575 243.657 176.629 244.205 176.629 245.081V248.111C176.629 248.806 176.351 249.473 175.857 249.965C175.364 250.457 174.694 250.733 173.996 250.733C173.297 250.733 172.628 250.457 172.134 249.965C171.64 249.473 171.363 248.806 171.363 248.111V245.081C171.363 244.205 170.416 243.657 169.657 244.094L167.019 245.611C166.414 245.957 165.696 246.05 165.023 245.87C164.35 245.689 163.776 245.25 163.427 244.649C163.079 244.047 162.984 243.333 163.164 242.662C163.343 241.991 163.783 241.418 164.386 241.069L167.016 239.557C167.777 239.119 167.777 238.021 167.016 237.584L164.386 236.071C163.783 235.722 163.343 235.15 163.164 234.479C162.984 233.808 163.079 233.093 163.427 232.492C163.776 231.89 164.35 231.451 165.023 231.271C165.696 231.09 166.414 231.183 167.019 231.529L169.657 233.047C170.416 233.483 171.363 232.935 171.363 232.06V229.03C171.363 228.334 171.64 227.667 172.134 227.175C172.628 226.684 173.297 226.407 173.996 226.407C174.694 226.407 175.364 226.684 175.857 227.175C176.351 227.667 176.629 228.334 176.629 229.03V232.06C176.629 232.935 177.575 233.483 178.334 233.047L180.973 231.529C181.577 231.183 182.295 231.09 182.968 231.271C183.641 231.451 184.215 231.89 184.564 232.492C184.913 233.093 185.007 233.808 184.828 234.479C184.648 235.15 184.209 235.722 183.606 236.071L180.976 237.584C180.215 238.021 180.215 239.119 180.976 239.557L183.606 241.069Z" fill="url(#paint6_linear_330_1173)"/>
<path d="M213.957 241.069C214.257 241.241 214.52 241.47 214.731 241.744C214.943 242.017 215.098 242.329 215.188 242.662C215.278 242.995 215.301 243.342 215.256 243.684C215.211 244.026 215.098 244.356 214.925 244.655C214.752 244.953 214.522 245.215 214.247 245.425C213.972 245.635 213.658 245.788 213.324 245.877C212.989 245.966 212.64 245.988 212.297 245.943C211.954 245.897 211.623 245.785 211.324 245.611L208.685 244.094C207.927 243.657 206.98 244.205 206.98 245.081V248.111C206.98 248.806 206.702 249.473 206.208 249.965C205.715 250.457 205.045 250.733 204.347 250.733C203.648 250.733 202.979 250.457 202.485 249.965C201.991 249.473 201.714 248.806 201.714 248.111V245.081C201.714 244.205 200.767 243.657 200.008 244.094L197.37 245.611C196.765 245.957 196.047 246.05 195.374 245.87C194.701 245.689 194.127 245.25 193.779 244.649C193.43 244.047 193.335 243.333 193.515 242.662C193.694 241.991 194.134 241.418 194.737 241.069L197.367 239.557C198.128 239.119 198.128 238.021 197.367 237.584L194.737 236.071C194.134 235.722 193.694 235.15 193.515 234.479C193.335 233.808 193.43 233.093 193.779 232.492C194.127 231.89 194.701 231.451 195.374 231.271C196.047 231.09 196.765 231.183 197.37 231.529L200.008 233.047C200.767 233.483 201.714 232.935 201.714 232.06V229.03C201.714 228.334 201.991 227.667 202.485 227.175C202.979 226.684 203.648 226.407 204.347 226.407C205.045 226.407 205.715 226.684 206.208 227.175C206.702 227.667 206.98 228.334 206.98 229.03V232.06C206.98 232.935 207.927 233.483 208.685 233.047L211.324 231.529C211.928 231.183 212.646 231.09 213.319 231.271C213.992 231.451 214.566 231.89 214.915 232.492C215.264 233.093 215.358 233.808 215.179 234.479C214.999 235.15 214.56 235.722 213.957 236.071L211.327 237.584C210.566 238.021 210.566 239.119 211.327 239.557L213.957 241.069Z" fill="url(#paint7_linear_330_1173)"/>
<circle cx="157.771" cy="136.72" r="66.2473" fill="url(#paint8_linear_330_1173)"/>
<circle cx="157.771" cy="136.719" r="60.2248" fill="url(#paint9_linear_330_1173)"/>
<path d="M127.606 119.326C127.606 117.45 129.127 115.93 131.002 115.93L165.848 115.929C167.237 115.929 168.362 114.804 168.362 113.415V107.439C168.362 106.065 169.19 104.827 170.459 104.301C171.728 103.775 173.189 104.066 174.16 105.037L187.745 118.622C189.072 119.949 189.072 122.099 187.745 123.426L174.16 137.011C173.189 137.982 171.728 138.273 170.459 137.747C169.19 137.221 168.362 135.983 168.362 134.609V128.632C168.362 127.244 167.237 126.118 165.848 126.118L131.003 126.118C129.127 126.118 127.606 124.598 127.606 122.722L127.606 119.326Z" fill="#0B5C3C"/>
<path d="M147.984 168.572C147.984 169.946 147.157 171.185 145.887 171.71C144.618 172.236 143.158 171.945 142.186 170.974L131.354 160.142C131.316 160.103 131.263 160.082 131.209 160.082C131.095 160.082 131.003 159.989 131.003 159.876C131.003 159.821 130.981 159.769 130.942 159.73L128.601 157.389C127.275 156.062 127.275 153.912 128.601 152.586L130.942 150.244C130.981 150.206 131.003 150.153 131.003 150.099C131.003 149.985 131.095 149.893 131.208 149.893C131.263 149.893 131.315 149.871 131.354 149.832L142.186 139C143.158 138.029 144.618 137.738 145.887 138.264C147.157 138.79 147.984 140.028 147.984 141.402V148.217C147.984 149.142 148.734 149.893 149.66 149.893L185.344 149.893C187.219 149.893 188.74 151.413 188.74 153.289V156.685C188.74 158.561 187.219 160.082 185.344 160.082H149.66C148.734 160.082 147.984 160.832 147.984 161.758V168.572Z" fill="#0B5C3C"/>
<path d="M127.606 117.651C127.606 115.775 129.127 114.255 131.002 114.255L165.848 114.254C167.237 114.254 168.362 113.129 168.362 111.741L168.362 105.764C168.362 104.39 169.19 103.152 170.459 102.626C171.728 102.1 173.189 102.391 174.16 103.362L187.745 116.948C189.072 118.274 189.072 120.424 187.745 121.751L174.16 135.336C173.189 136.307 171.728 136.598 170.459 136.072C169.19 135.547 168.362 134.308 168.362 132.934L168.362 126.957C168.362 125.569 167.237 124.443 165.848 124.443L131.003 124.444C129.127 124.444 127.606 122.923 127.606 121.047L127.606 117.651Z" fill="url(#paint10_linear_330_1173)"/>
<path d="M147.984 166.898C147.984 168.272 147.157 169.51 145.887 170.036C144.618 170.561 143.158 170.271 142.186 169.299L131.354 158.468C131.316 158.429 131.263 158.407 131.209 158.407C131.095 158.407 131.003 158.315 131.003 158.201C131.003 158.146 130.981 158.094 130.942 158.055L128.601 155.714C127.275 154.388 127.275 152.237 128.601 150.911L130.942 148.57C130.981 148.531 131.003 148.479 131.003 148.424C131.003 148.31 131.095 148.218 131.208 148.218C131.263 148.218 131.315 148.196 131.354 148.158L142.186 137.326C143.158 136.355 144.618 136.064 145.887 136.59C147.157 137.115 147.984 138.354 147.984 139.727L147.984 146.542C147.984 147.468 148.734 148.218 149.66 148.218L185.344 148.218C187.219 148.218 188.74 149.739 188.74 151.615L188.74 155.011C188.74 156.887 187.219 158.407 185.344 158.407L149.66 158.407C148.734 158.407 147.984 159.157 147.984 160.083L147.984 166.898Z" fill="url(#paint11_linear_330_1173)"/>
<defs>
<linearGradient id="paint0_linear_330_1173" x1="29.5325" y1="229.647" x2="98.3584" y2="8.41714" gradientUnits="userSpaceOnUse">
<stop stop-color="#B2FFDD"/>
<stop offset="1" stop-color="#EEFFF7"/>
</linearGradient>
<linearGradient id="paint1_linear_330_1173" x1="180.44" y1="264.816" x2="167.096" y2="217.603" gradientUnits="userSpaceOnUse">
<stop stop-color="#0B5C3C"/>
<stop offset="1" stop-color="#0A7147"/>
</linearGradient>
<linearGradient id="paint2_linear_330_1173" x1="120.485" y1="330.697" x2="118.039" y2="86.4417" gradientUnits="userSpaceOnUse">
<stop stop-color="#01B86C"/>
<stop offset="0.322807" stop-color="#058751"/>
<stop offset="1" stop-color="#01B86C"/>
</linearGradient>
<linearGradient id="paint3_linear_330_1173" x1="174.465" y1="258.581" x2="164.764" y2="224.6" gradientUnits="userSpaceOnUse">
<stop stop-color="#0B5C3C"/>
<stop offset="1" stop-color="#0A7147"/>
</linearGradient>
<linearGradient id="paint4_linear_330_1173" x1="107.756" y1="258.361" x2="119.73" y2="218.565" gradientUnits="userSpaceOnUse">
<stop stop-color="#B2FFDD"/>
<stop offset="1" stop-color="#FAFAFA"/>
</linearGradient>
<linearGradient id="paint5_linear_330_1173" x1="138.107" y1="258.361" x2="150.081" y2="218.565" gradientUnits="userSpaceOnUse">
<stop stop-color="#B2FFDD"/>
<stop offset="1" stop-color="#FAFAFA"/>
</linearGradient>
<linearGradient id="paint6_linear_330_1173" x1="168.456" y1="258.361" x2="180.43" y2="218.565" gradientUnits="userSpaceOnUse">
<stop stop-color="#B2FFDD"/>
<stop offset="1" stop-color="#FAFAFA"/>
</linearGradient>
<linearGradient id="paint7_linear_330_1173" x1="198.807" y1="258.361" x2="210.781" y2="218.565" gradientUnits="userSpaceOnUse">
<stop stop-color="#B2FFDD"/>
<stop offset="1" stop-color="#FAFAFA"/>
</linearGradient>
<linearGradient id="paint8_linear_330_1173" x1="191.196" y1="215.615" x2="113.754" y2="63.58" gradientUnits="userSpaceOnUse">
<stop stop-color="#01B86C"/>
<stop offset="0.322807" stop-color="#058751"/>
<stop offset="1" stop-color="#01B86C"/>
</linearGradient>
<linearGradient id="paint9_linear_330_1173" x1="168.931" y1="169.287" x2="129.333" y2="125.146" gradientUnits="userSpaceOnUse">
<stop stop-color="#0B5C3C"/>
<stop offset="1" stop-color="#0A7147"/>
</linearGradient>
<linearGradient id="paint10_linear_330_1173" x1="207.909" y1="127.967" x2="119.717" y2="85.0609" gradientUnits="userSpaceOnUse">
<stop stop-color="#B2FFDD"/>
<stop offset="1" stop-color="#FAFAFA"/>
</linearGradient>
<linearGradient id="paint11_linear_330_1173" x1="207.909" y1="161.93" x2="119.717" y2="119.024" gradientUnits="userSpaceOnUse">
<stop stop-color="#B2FFDD"/>
<stop offset="1" stop-color="#FAFAFA"/>
</linearGradient>
</defs>
</svg>
