<svg xmlns="http://www.w3.org/2000/svg" width="18" height="19" viewBox="0 0 18 19" fill="none">
    <path d="M9 6.5875C7.39148 6.5875 6.0875 7.89147 6.0875 9.5C6.0875 11.1086 7.39148 12.4125 9 12.4125C10.6086 12.4125 11.9125 11.1086 11.9125 9.5C11.9125 7.89147 10.6086 6.5875 9 6.5875ZM7.4125 9.5C7.4125 8.62328 8.12328 7.9125 9 7.9125C9.87672 7.9125 10.5875 8.62328 10.5875 9.5C10.5875 10.3767 9.87672 11.0875 9 11.0875C8.12328 11.0875 7.4125 10.3767 7.4125 9.5Z" fill="currentColor" stroke="currentColor" stroke-width="0.2"/>
    <mask id="path-2-outside-1_7467_52092" maskUnits="userSpaceOnUse" x="0.367188" y="0.4375" width="17" height="18" fill="black">
        <rect fill="white" x="0.367188" y="0.4375" width="17" height="18"/>
        <path fill-rule="evenodd" clip-rule="evenodd" d="M8.98188 1.4375C8.64858 1.43749 8.37025 1.43749 8.14181 1.45308C7.90398 1.46931 7.67936 1.50429 7.46156 1.5945C6.9562 1.80383 6.55468 2.20534 6.34535 2.71072C6.23637 2.97382 6.20686 3.25109 6.19559 3.55247C6.18653 3.79474 6.06426 3.99688 5.88382 4.10106C5.70338 4.20523 5.46719 4.21005 5.25285 4.09676C4.98621 3.95583 4.73132 3.84274 4.44898 3.80557C3.90665 3.73417 3.35817 3.88114 2.9242 4.21414C2.73718 4.35765 2.59456 4.5347 2.4616 4.73255C2.33387 4.92261 2.19473 5.16361 2.02806 5.4523L2.00912 5.48511C1.84244 5.77379 1.7033 6.01478 1.60257 6.22042C1.49771 6.4345 1.41569 6.64654 1.38491 6.88026C1.31351 7.42259 1.46048 7.97107 1.79348 8.40508C1.96682 8.6309 2.19215 8.79515 2.44748 8.95557C2.65282 9.08458 2.76677 9.29157 2.76675 9.5C2.76674 9.70835 2.6528 9.91535 2.44748 10.0443C2.19212 10.2048 1.96676 10.369 1.79341 10.5949C1.46041 11.0289 1.31345 11.5773 1.38484 12.1197C1.41561 12.3534 1.49764 12.5655 1.6025 12.7795C1.70323 12.9852 1.84237 13.2261 2.00904 13.5148L2.02799 13.5477C2.19466 13.8364 2.33379 14.0773 2.46152 14.2674C2.59448 14.4652 2.7371 14.6423 2.92412 14.7858C3.3581 15.1188 3.90658 15.2658 4.4489 15.1944C4.73123 15.1572 4.98611 15.0442 5.25273 14.9032C5.4671 14.7899 5.70332 14.7947 5.88378 14.899C6.06425 15.0031 6.18653 15.2052 6.19559 15.4476C6.20686 15.7489 6.23638 16.0262 6.34535 16.2893C6.55468 16.7947 6.9562 17.1962 7.46156 17.4055C7.67936 17.4958 7.90398 17.5307 8.14181 17.5469C8.37025 17.5625 8.64858 17.5625 8.98188 17.5625H9.01976C9.35313 17.5625 9.63138 17.5625 9.85991 17.5469C10.0977 17.5307 10.3224 17.4958 10.5402 17.4055C11.0455 17.1962 11.4471 16.7947 11.6564 16.2893C11.7654 16.0262 11.7948 15.7489 11.8061 15.4475C11.8152 15.2052 11.9374 15.0031 12.1179 14.8989C12.2983 14.7947 12.5346 14.7899 12.7489 14.9032C13.0155 15.0441 13.2704 15.1572 13.5528 15.1943C14.0951 15.2657 14.6436 15.1188 15.0775 14.7858C15.2646 14.6422 15.4071 14.4652 15.5401 14.2674C15.6678 14.0773 15.807 13.8364 15.9736 13.5477L15.9926 13.5148C16.1592 13.2261 16.2984 12.9851 16.3992 12.7795C16.504 12.5654 16.586 12.3534 16.6168 12.1197C16.6882 11.5773 16.5412 11.0288 16.2082 10.5948C16.0349 10.3689 15.8095 10.2048 15.5542 10.0443C15.3489 9.91535 15.2349 9.70835 15.2349 9.49992C15.2349 9.29157 15.3489 9.08465 15.5541 8.95565C15.8096 8.79523 16.035 8.63105 16.2083 8.40508C16.5413 7.97112 16.6883 7.42264 16.6169 6.88031C16.5861 6.6466 16.5041 6.43456 16.3992 6.22048C16.2985 6.01485 16.1594 5.77387 15.9927 5.48521L15.9738 5.45239C15.807 5.16369 15.6679 4.92266 15.5402 4.7326C15.4072 4.53475 15.2646 4.3577 15.0776 4.21419C14.6436 3.8812 14.0952 3.73423 13.5528 3.80563C13.2705 3.8428 13.0156 3.95587 12.749 4.09679C12.5346 4.21009 12.2984 4.20527 12.1179 4.10108C11.9375 3.9969 11.8152 3.79473 11.8061 3.55243C11.7948 3.25106 11.7654 2.9738 11.6564 2.71072C11.4471 2.20534 11.0455 1.80383 10.5402 1.5945C10.3224 1.50429 10.0977 1.46931 9.85991 1.45308C9.63138 1.43749 9.35313 1.43749 9.01976 1.4375H8.98188ZM7.89206 2.63386C7.94995 2.60989 8.03786 2.58779 8.21838 2.57547C8.40401 2.56281 8.64371 2.5625 9.00086 2.5625C9.35801 2.5625 9.5977 2.56281 9.78325 2.57547C9.96385 2.58779 10.0518 2.60989 10.1096 2.63386C10.3393 2.72902 10.5219 2.91152 10.617 3.14124C10.647 3.2137 10.6719 3.32665 10.6819 3.59448C10.7041 4.18876 11.0109 4.76097 11.5554 5.07536C12.0999 5.38976 12.7489 5.3693 13.2747 5.09141C13.5116 4.96618 13.6219 4.93124 13.6996 4.921C13.9461 4.88855 14.1954 4.95535 14.3927 5.10671C14.4424 5.14484 14.5055 5.20992 14.6064 5.36012C14.7102 5.51452 14.8303 5.72195 15.0089 6.03125C15.1875 6.34056 15.3071 6.54829 15.3889 6.71535C15.4685 6.87787 15.4933 6.96505 15.5015 7.02715C15.534 7.27366 15.4671 7.52298 15.3158 7.72023C15.268 7.78246 15.1827 7.86049 14.9556 8.00307C14.4522 8.3195 14.11 8.8712 14.1099 9.49992C14.1099 10.1287 14.4521 10.6805 14.9556 10.9969C15.1826 11.1395 15.2679 11.2175 15.3157 11.2797C15.4671 11.477 15.5339 11.7263 15.5014 11.9728C15.4932 12.0349 15.4684 12.1221 15.3888 12.2846C15.307 12.4516 15.1874 12.6594 15.0088 12.9687C14.8302 13.278 14.7102 13.4854 14.6064 13.6399C14.5054 13.79 14.4423 13.8551 14.3926 13.8932C14.1954 14.0446 13.9461 14.1114 13.6995 14.079C13.6218 14.0687 13.5115 14.0337 13.2746 13.9086C12.7488 13.6306 12.0999 13.6102 11.5553 13.9246C11.0109 14.239 10.7041 14.8112 10.6819 15.4055C10.6719 15.6733 10.647 15.7863 10.617 15.8588C10.5219 16.0884 10.3393 16.271 10.1096 16.3662C10.0518 16.3901 9.96385 16.4122 9.78325 16.4245C9.5977 16.4372 9.35801 16.4375 9.00086 16.4375C8.64371 16.4375 8.40401 16.4372 8.21838 16.4245C8.03786 16.4122 7.94995 16.3901 7.89206 16.3662C7.66241 16.271 7.47986 16.0884 7.38471 15.8588C7.3547 15.7863 7.32982 15.6733 7.3198 15.4055C7.29758 14.8113 6.99083 14.239 6.44628 13.9246C5.90174 13.6102 5.25282 13.6307 4.72704 13.9086C4.49009 14.0338 4.37983 14.0688 4.30207 14.079C4.05555 14.1115 3.80624 14.0446 3.60899 13.8933C3.55929 13.8552 3.49619 13.7901 3.39525 13.6399C3.29149 13.4855 3.17138 13.2781 2.9928 12.9688C2.81422 12.6594 2.69464 12.4517 2.61281 12.2847C2.5332 12.1222 2.50839 12.0349 2.50022 11.9728C2.46776 11.7263 2.53457 11.477 2.68593 11.2797C2.73368 11.2176 2.81906 11.1395 3.04601 10.9969C3.54954 10.6806 3.89172 10.1288 3.89175 9.50008C3.89179 8.8712 3.54959 8.31942 3.04601 8.003C2.81912 7.86042 2.73374 7.7824 2.686 7.72018C2.53464 7.52293 2.46784 7.27362 2.50029 7.0271C2.50847 6.96501 2.53328 6.87781 2.61288 6.7153C2.69471 6.54823 2.81429 6.34051 2.99287 6.0312C3.17145 5.7219 3.29156 5.51447 3.39533 5.36007C3.49627 5.20987 3.55937 5.14479 3.60905 5.10667C3.80632 4.9553 4.05563 4.8885 4.30214 4.92095C4.3799 4.93119 4.49018 4.96612 4.72715 5.09138C5.2529 5.36926 5.90179 5.38972 6.44631 5.07534C6.99084 4.76096 7.29758 4.18878 7.3198 3.59452C7.32982 3.32667 7.3547 3.2137 7.38471 3.14124C7.47986 2.91152 7.66241 2.72902 7.89206 2.63386Z"/>
    </mask>
    <path fill-rule="evenodd" clip-rule="evenodd" d="M8.98188 1.4375C8.64858 1.43749 8.37025 1.43749 8.14181 1.45308C7.90398 1.46931 7.67936 1.50429 7.46156 1.5945C6.9562 1.80383 6.55468 2.20534 6.34535 2.71072C6.23637 2.97382 6.20686 3.25109 6.19559 3.55247C6.18653 3.79474 6.06426 3.99688 5.88382 4.10106C5.70338 4.20523 5.46719 4.21005 5.25285 4.09676C4.98621 3.95583 4.73132 3.84274 4.44898 3.80557C3.90665 3.73417 3.35817 3.88114 2.9242 4.21414C2.73718 4.35765 2.59456 4.5347 2.4616 4.73255C2.33387 4.92261 2.19473 5.16361 2.02806 5.4523L2.00912 5.48511C1.84244 5.77379 1.7033 6.01478 1.60257 6.22042C1.49771 6.4345 1.41569 6.64654 1.38491 6.88026C1.31351 7.42259 1.46048 7.97107 1.79348 8.40508C1.96682 8.6309 2.19215 8.79515 2.44748 8.95557C2.65282 9.08458 2.76677 9.29157 2.76675 9.5C2.76674 9.70835 2.6528 9.91535 2.44748 10.0443C2.19212 10.2048 1.96676 10.369 1.79341 10.5949C1.46041 11.0289 1.31345 11.5773 1.38484 12.1197C1.41561 12.3534 1.49764 12.5655 1.6025 12.7795C1.70323 12.9852 1.84237 13.2261 2.00904 13.5148L2.02799 13.5477C2.19466 13.8364 2.33379 14.0773 2.46152 14.2674C2.59448 14.4652 2.7371 14.6423 2.92412 14.7858C3.3581 15.1188 3.90658 15.2658 4.4489 15.1944C4.73123 15.1572 4.98611 15.0442 5.25273 14.9032C5.4671 14.7899 5.70332 14.7947 5.88378 14.899C6.06425 15.0031 6.18653 15.2052 6.19559 15.4476C6.20686 15.7489 6.23638 16.0262 6.34535 16.2893C6.55468 16.7947 6.9562 17.1962 7.46156 17.4055C7.67936 17.4958 7.90398 17.5307 8.14181 17.5469C8.37025 17.5625 8.64858 17.5625 8.98188 17.5625H9.01976C9.35313 17.5625 9.63138 17.5625 9.85991 17.5469C10.0977 17.5307 10.3224 17.4958 10.5402 17.4055C11.0455 17.1962 11.4471 16.7947 11.6564 16.2893C11.7654 16.0262 11.7948 15.7489 11.8061 15.4475C11.8152 15.2052 11.9374 15.0031 12.1179 14.8989C12.2983 14.7947 12.5346 14.7899 12.7489 14.9032C13.0155 15.0441 13.2704 15.1572 13.5528 15.1943C14.0951 15.2657 14.6436 15.1188 15.0775 14.7858C15.2646 14.6422 15.4071 14.4652 15.5401 14.2674C15.6678 14.0773 15.807 13.8364 15.9736 13.5477L15.9926 13.5148C16.1592 13.2261 16.2984 12.9851 16.3992 12.7795C16.504 12.5654 16.586 12.3534 16.6168 12.1197C16.6882 11.5773 16.5412 11.0288 16.2082 10.5948C16.0349 10.3689 15.8095 10.2048 15.5542 10.0443C15.3489 9.91535 15.2349 9.70835 15.2349 9.49992C15.2349 9.29157 15.3489 9.08465 15.5541 8.95565C15.8096 8.79523 16.035 8.63105 16.2083 8.40508C16.5413 7.97112 16.6883 7.42264 16.6169 6.88031C16.5861 6.6466 16.5041 6.43456 16.3992 6.22048C16.2985 6.01485 16.1594 5.77387 15.9927 5.48521L15.9738 5.45239C15.807 5.16369 15.6679 4.92266 15.5402 4.7326C15.4072 4.53475 15.2646 4.3577 15.0776 4.21419C14.6436 3.8812 14.0952 3.73423 13.5528 3.80563C13.2705 3.8428 13.0156 3.95587 12.749 4.09679C12.5346 4.21009 12.2984 4.20527 12.1179 4.10108C11.9375 3.9969 11.8152 3.79473 11.8061 3.55243C11.7948 3.25106 11.7654 2.9738 11.6564 2.71072C11.4471 2.20534 11.0455 1.80383 10.5402 1.5945C10.3224 1.50429 10.0977 1.46931 9.85991 1.45308C9.63138 1.43749 9.35313 1.43749 9.01976 1.4375H8.98188ZM7.89206 2.63386C7.94995 2.60989 8.03786 2.58779 8.21838 2.57547C8.40401 2.56281 8.64371 2.5625 9.00086 2.5625C9.35801 2.5625 9.5977 2.56281 9.78325 2.57547C9.96385 2.58779 10.0518 2.60989 10.1096 2.63386C10.3393 2.72902 10.5219 2.91152 10.617 3.14124C10.647 3.2137 10.6719 3.32665 10.6819 3.59448C10.7041 4.18876 11.0109 4.76097 11.5554 5.07536C12.0999 5.38976 12.7489 5.3693 13.2747 5.09141C13.5116 4.96618 13.6219 4.93124 13.6996 4.921C13.9461 4.88855 14.1954 4.95535 14.3927 5.10671C14.4424 5.14484 14.5055 5.20992 14.6064 5.36012C14.7102 5.51452 14.8303 5.72195 15.0089 6.03125C15.1875 6.34056 15.3071 6.54829 15.3889 6.71535C15.4685 6.87787 15.4933 6.96505 15.5015 7.02715C15.534 7.27366 15.4671 7.52298 15.3158 7.72023C15.268 7.78246 15.1827 7.86049 14.9556 8.00307C14.4522 8.3195 14.11 8.8712 14.1099 9.49992C14.1099 10.1287 14.4521 10.6805 14.9556 10.9969C15.1826 11.1395 15.2679 11.2175 15.3157 11.2797C15.4671 11.477 15.5339 11.7263 15.5014 11.9728C15.4932 12.0349 15.4684 12.1221 15.3888 12.2846C15.307 12.4516 15.1874 12.6594 15.0088 12.9687C14.8302 13.278 14.7102 13.4854 14.6064 13.6399C14.5054 13.79 14.4423 13.8551 14.3926 13.8932C14.1954 14.0446 13.9461 14.1114 13.6995 14.079C13.6218 14.0687 13.5115 14.0337 13.2746 13.9086C12.7488 13.6306 12.0999 13.6102 11.5553 13.9246C11.0109 14.239 10.7041 14.8112 10.6819 15.4055C10.6719 15.6733 10.647 15.7863 10.617 15.8588C10.5219 16.0884 10.3393 16.271 10.1096 16.3662C10.0518 16.3901 9.96385 16.4122 9.78325 16.4245C9.5977 16.4372 9.35801 16.4375 9.00086 16.4375C8.64371 16.4375 8.40401 16.4372 8.21838 16.4245C8.03786 16.4122 7.94995 16.3901 7.89206 16.3662C7.66241 16.271 7.47986 16.0884 7.38471 15.8588C7.3547 15.7863 7.32982 15.6733 7.3198 15.4055C7.29758 14.8113 6.99083 14.239 6.44628 13.9246C5.90174 13.6102 5.25282 13.6307 4.72704 13.9086C4.49009 14.0338 4.37983 14.0688 4.30207 14.079C4.05555 14.1115 3.80624 14.0446 3.60899 13.8933C3.55929 13.8552 3.49619 13.7901 3.39525 13.6399C3.29149 13.4855 3.17138 13.2781 2.9928 12.9688C2.81422 12.6594 2.69464 12.4517 2.61281 12.2847C2.5332 12.1222 2.50839 12.0349 2.50022 11.9728C2.46776 11.7263 2.53457 11.477 2.68593 11.2797C2.73368 11.2176 2.81906 11.1395 3.04601 10.9969C3.54954 10.6806 3.89172 10.1288 3.89175 9.50008C3.89179 8.8712 3.54959 8.31942 3.04601 8.003C2.81912 7.86042 2.73374 7.7824 2.686 7.72018C2.53464 7.52293 2.46784 7.27362 2.50029 7.0271C2.50847 6.96501 2.53328 6.87781 2.61288 6.7153C2.69471 6.54823 2.81429 6.34051 2.99287 6.0312C3.17145 5.7219 3.29156 5.51447 3.39533 5.36007C3.49627 5.20987 3.55937 5.14479 3.60905 5.10667C3.80632 4.9553 4.05563 4.8885 4.30214 4.92095C4.3799 4.93119 4.49018 4.96612 4.72715 5.09138C5.2529 5.36926 5.90179 5.38972 6.44631 5.07534C6.99084 4.76096 7.29758 4.18878 7.3198 3.59452C7.32982 3.32667 7.3547 3.2137 7.38471 3.14124C7.47986 2.91152 7.66241 2.72902 7.89206 2.63386Z" fill="currentColor"/>
    <path fill-rule="evenodd" clip-rule="evenodd" d="M8.98188 1.4375C8.64858 1.43749 8.37025 1.43749 8.14181 1.45308C7.90398 1.46931 7.67936 1.50429 7.46156 1.5945C6.9562 1.80383 6.55468 2.20534 6.34535 2.71072C6.23637 2.97382 6.20686 3.25109 6.19559 3.55247C6.18653 3.79474 6.06426 3.99688 5.88382 4.10106C5.70338 4.20523 5.46719 4.21005 5.25285 4.09676C4.98621 3.95583 4.73132 3.84274 4.44898 3.80557C3.90665 3.73417 3.35817 3.88114 2.9242 4.21414C2.73718 4.35765 2.59456 4.5347 2.4616 4.73255C2.33387 4.92261 2.19473 5.16361 2.02806 5.4523L2.00912 5.48511C1.84244 5.77379 1.7033 6.01478 1.60257 6.22042C1.49771 6.4345 1.41569 6.64654 1.38491 6.88026C1.31351 7.42259 1.46048 7.97107 1.79348 8.40508C1.96682 8.6309 2.19215 8.79515 2.44748 8.95557C2.65282 9.08458 2.76677 9.29157 2.76675 9.5C2.76674 9.70835 2.6528 9.91535 2.44748 10.0443C2.19212 10.2048 1.96676 10.369 1.79341 10.5949C1.46041 11.0289 1.31345 11.5773 1.38484 12.1197C1.41561 12.3534 1.49764 12.5655 1.6025 12.7795C1.70323 12.9852 1.84237 13.2261 2.00904 13.5148L2.02799 13.5477C2.19466 13.8364 2.33379 14.0773 2.46152 14.2674C2.59448 14.4652 2.7371 14.6423 2.92412 14.7858C3.3581 15.1188 3.90658 15.2658 4.4489 15.1944C4.73123 15.1572 4.98611 15.0442 5.25273 14.9032C5.4671 14.7899 5.70332 14.7947 5.88378 14.899C6.06425 15.0031 6.18653 15.2052 6.19559 15.4476C6.20686 15.7489 6.23638 16.0262 6.34535 16.2893C6.55468 16.7947 6.9562 17.1962 7.46156 17.4055C7.67936 17.4958 7.90398 17.5307 8.14181 17.5469C8.37025 17.5625 8.64858 17.5625 8.98188 17.5625H9.01976C9.35313 17.5625 9.63138 17.5625 9.85991 17.5469C10.0977 17.5307 10.3224 17.4958 10.5402 17.4055C11.0455 17.1962 11.4471 16.7947 11.6564 16.2893C11.7654 16.0262 11.7948 15.7489 11.8061 15.4475C11.8152 15.2052 11.9374 15.0031 12.1179 14.8989C12.2983 14.7947 12.5346 14.7899 12.7489 14.9032C13.0155 15.0441 13.2704 15.1572 13.5528 15.1943C14.0951 15.2657 14.6436 15.1188 15.0775 14.7858C15.2646 14.6422 15.4071 14.4652 15.5401 14.2674C15.6678 14.0773 15.807 13.8364 15.9736 13.5477L15.9926 13.5148C16.1592 13.2261 16.2984 12.9851 16.3992 12.7795C16.504 12.5654 16.586 12.3534 16.6168 12.1197C16.6882 11.5773 16.5412 11.0288 16.2082 10.5948C16.0349 10.3689 15.8095 10.2048 15.5542 10.0443C15.3489 9.91535 15.2349 9.70835 15.2349 9.49992C15.2349 9.29157 15.3489 9.08465 15.5541 8.95565C15.8096 8.79523 16.035 8.63105 16.2083 8.40508C16.5413 7.97112 16.6883 7.42264 16.6169 6.88031C16.5861 6.6466 16.5041 6.43456 16.3992 6.22048C16.2985 6.01485 16.1594 5.77387 15.9927 5.48521L15.9738 5.45239C15.807 5.16369 15.6679 4.92266 15.5402 4.7326C15.4072 4.53475 15.2646 4.3577 15.0776 4.21419C14.6436 3.8812 14.0952 3.73423 13.5528 3.80563C13.2705 3.8428 13.0156 3.95587 12.749 4.09679C12.5346 4.21009 12.2984 4.20527 12.1179 4.10108C11.9375 3.9969 11.8152 3.79473 11.8061 3.55243C11.7948 3.25106 11.7654 2.9738 11.6564 2.71072C11.4471 2.20534 11.0455 1.80383 10.5402 1.5945C10.3224 1.50429 10.0977 1.46931 9.85991 1.45308C9.63138 1.43749 9.35313 1.43749 9.01976 1.4375H8.98188ZM7.89206 2.63386C7.94995 2.60989 8.03786 2.58779 8.21838 2.57547C8.40401 2.56281 8.64371 2.5625 9.00086 2.5625C9.35801 2.5625 9.5977 2.56281 9.78325 2.57547C9.96385 2.58779 10.0518 2.60989 10.1096 2.63386C10.3393 2.72902 10.5219 2.91152 10.617 3.14124C10.647 3.2137 10.6719 3.32665 10.6819 3.59448C10.7041 4.18876 11.0109 4.76097 11.5554 5.07536C12.0999 5.38976 12.7489 5.3693 13.2747 5.09141C13.5116 4.96618 13.6219 4.93124 13.6996 4.921C13.9461 4.88855 14.1954 4.95535 14.3927 5.10671C14.4424 5.14484 14.5055 5.20992 14.6064 5.36012C14.7102 5.51452 14.8303 5.72195 15.0089 6.03125C15.1875 6.34056 15.3071 6.54829 15.3889 6.71535C15.4685 6.87787 15.4933 6.96505 15.5015 7.02715C15.534 7.27366 15.4671 7.52298 15.3158 7.72023C15.268 7.78246 15.1827 7.86049 14.9556 8.00307C14.4522 8.3195 14.11 8.8712 14.1099 9.49992C14.1099 10.1287 14.4521 10.6805 14.9556 10.9969C15.1826 11.1395 15.2679 11.2175 15.3157 11.2797C15.4671 11.477 15.5339 11.7263 15.5014 11.9728C15.4932 12.0349 15.4684 12.1221 15.3888 12.2846C15.307 12.4516 15.1874 12.6594 15.0088 12.9687C14.8302 13.278 14.7102 13.4854 14.6064 13.6399C14.5054 13.79 14.4423 13.8551 14.3926 13.8932C14.1954 14.0446 13.9461 14.1114 13.6995 14.079C13.6218 14.0687 13.5115 14.0337 13.2746 13.9086C12.7488 13.6306 12.0999 13.6102 11.5553 13.9246C11.0109 14.239 10.7041 14.8112 10.6819 15.4055C10.6719 15.6733 10.647 15.7863 10.617 15.8588C10.5219 16.0884 10.3393 16.271 10.1096 16.3662C10.0518 16.3901 9.96385 16.4122 9.78325 16.4245C9.5977 16.4372 9.35801 16.4375 9.00086 16.4375C8.64371 16.4375 8.40401 16.4372 8.21838 16.4245C8.03786 16.4122 7.94995 16.3901 7.89206 16.3662C7.66241 16.271 7.47986 16.0884 7.38471 15.8588C7.3547 15.7863 7.32982 15.6733 7.3198 15.4055C7.29758 14.8113 6.99083 14.239 6.44628 13.9246C5.90174 13.6102 5.25282 13.6307 4.72704 13.9086C4.49009 14.0338 4.37983 14.0688 4.30207 14.079C4.05555 14.1115 3.80624 14.0446 3.60899 13.8933C3.55929 13.8552 3.49619 13.7901 3.39525 13.6399C3.29149 13.4855 3.17138 13.2781 2.9928 12.9688C2.81422 12.6594 2.69464 12.4517 2.61281 12.2847C2.5332 12.1222 2.50839 12.0349 2.50022 11.9728C2.46776 11.7263 2.53457 11.477 2.68593 11.2797C2.73368 11.2176 2.81906 11.1395 3.04601 10.9969C3.54954 10.6806 3.89172 10.1288 3.89175 9.50008C3.89179 8.8712 3.54959 8.31942 3.04601 8.003C2.81912 7.86042 2.73374 7.7824 2.686 7.72018C2.53464 7.52293 2.46784 7.27362 2.50029 7.0271C2.50847 6.96501 2.53328 6.87781 2.61288 6.7153C2.69471 6.54823 2.81429 6.34051 2.99287 6.0312C3.17145 5.7219 3.29156 5.51447 3.39533 5.36007C3.49627 5.20987 3.55937 5.14479 3.60905 5.10667C3.80632 4.9553 4.05563 4.8885 4.30214 4.92095C4.3799 4.93119 4.49018 4.96612 4.72715 5.09138C5.2529 5.36926 5.90179 5.38972 6.44631 5.07534C6.99084 4.76096 7.29758 4.18878 7.3198 3.59452C7.32982 3.32667 7.3547 3.2137 7.38471 3.14124C7.47986 2.91152 7.66241 2.72902 7.89206 2.63386Z" stroke="currentColor" stroke-width="0.4" mask="url(#path-2-outside-1_7467_52092)"/>
</svg>