<svg width="318" height="318" viewBox="0 0 318 318" fill="none" xmlns="http://www.w3.org/2000/svg">
<path d="M41.7373 52.6688H276.262V182.789C276.262 184.123 275.425 185.402 273.934 186.346C272.443 187.289 270.421 187.819 268.312 187.819H49.6873C47.5788 187.819 45.5567 187.289 44.0658 186.346C42.5749 185.402 41.7373 184.123 41.7373 182.789V52.6688Z" fill="url(#paint0_linear_330_1195)"/>
<path d="M41.7373 52.6688H276.262V28.8188C276.262 26.7103 275.425 24.6882 273.934 23.1973C272.443 21.7064 270.421 20.8688 268.312 20.8688H49.6873C47.5788 20.8688 45.5567 21.7064 44.0658 23.1973C42.5749 24.6882 41.7373 26.7103 41.7373 28.8188V52.6688Z" fill="#737373"/>
<path d="M90.4311 36.7688C90.4311 35.9826 90.6642 35.2141 91.101 34.5604C91.5378 33.9067 92.1586 33.3972 92.8849 33.0964C93.6112 32.7955 94.4105 32.7168 95.1816 32.8701C95.9526 33.0235 96.6609 33.4021 97.2169 33.958C97.7728 34.5139 98.1514 35.2222 98.3047 35.9933C98.4581 36.7644 98.3794 37.5636 98.0785 38.29C97.7776 39.0163 97.2682 39.6371 96.6145 40.0738C95.9608 40.5106 95.1923 40.7438 94.4061 40.7438C93.3519 40.7438 92.3408 40.325 91.5953 39.5795C90.8499 38.8341 90.4311 37.823 90.4311 36.7688ZM74.5311 36.7688C74.5311 35.9826 74.7642 35.2141 75.201 34.5604C75.6378 33.9067 76.2586 33.3972 76.9849 33.0964C77.7112 32.7955 78.5105 32.7168 79.2816 32.8701C80.0526 33.0235 80.7609 33.4021 81.3169 33.958C81.8728 34.5139 82.2514 35.2222 82.4047 35.9933C82.5581 36.7644 82.4794 37.5636 82.1785 38.29C81.8776 39.0163 81.3682 39.6371 80.7145 40.0738C80.0608 40.5106 79.2923 40.7438 78.5061 40.7438C77.4519 40.7438 76.4408 40.325 75.6954 39.5795C74.9499 38.8341 74.5311 37.823 74.5311 36.7688ZM58.6311 36.7688C58.6311 35.9826 58.8642 35.2141 59.301 34.5604C59.7378 33.9067 60.3586 33.3972 61.0849 33.0964C61.8112 32.7955 62.6105 32.7168 63.3816 32.8701C64.1526 33.0235 64.8609 33.4021 65.4169 33.958C65.9728 34.5139 66.3514 35.2222 66.5047 35.9933C66.6581 36.7644 66.5794 37.5636 66.2785 38.29C65.9776 39.0163 65.4682 39.6371 64.8145 40.0738C64.1608 40.5106 63.3923 40.7438 62.6061 40.7438C61.5519 40.7438 60.5408 40.325 59.7954 39.5795C59.0499 38.8341 58.6311 37.823 58.6311 36.7688Z" fill="#424242"/>
<path d="M261.521 138.021C261.521 191.746 217.969 235.299 164.244 235.299C110.519 235.299 66.9663 191.746 66.9663 138.021C66.9663 84.2964 110.519 40.7438 164.244 40.7438C217.969 40.7438 261.521 84.2964 261.521 138.021Z" fill="url(#paint1_linear_330_1195)"/>
<path d="M164.046 46.8258C113.678 46.8258 72.8479 87.6564 72.8479 138.023C72.8479 168.757 88.0504 195.94 111.346 212.462H83.8819C80.1446 212.462 77.1148 215.492 77.1148 219.229V263.428C77.1148 267.166 80.1446 270.196 83.8819 270.196H246.043C249.78 270.196 252.81 267.166 252.81 263.428V219.229C252.81 215.492 249.78 212.462 246.043 212.462H216.745C240.041 195.94 255.243 168.757 255.243 138.023C255.243 87.6564 214.413 46.8258 164.046 46.8258Z" fill="url(#paint2_linear_330_1195)"/>
<path d="M101.362 85.4625C101.721 84.8823 102.161 84.2128 102.682 83.475M133.162 62.6063C122.71 64.5508 114.451 70.5579 108.815 76.2197" stroke="#0ADD84" stroke-width="5.9625" stroke-linecap="round"/>
<path d="M82.6799 222.905C82.6799 220.102 84.9522 217.83 87.7553 217.83H241.375C244.178 217.83 246.45 220.102 246.45 222.905V258.865C246.45 261.668 244.178 263.94 241.375 263.94H87.7553C84.9522 263.94 82.6799 261.668 82.6799 258.865V222.905Z" fill="url(#paint3_linear_330_1195)"/>
<path d="M127.183 243.863C127.487 244.038 127.753 244.272 127.967 244.551C128.181 244.83 128.337 245.149 128.429 245.489C128.52 245.829 128.543 246.184 128.497 246.533C128.452 246.883 128.338 247.219 128.163 247.524C127.988 247.829 127.754 248.097 127.476 248.311C127.198 248.525 126.881 248.682 126.542 248.773C126.203 248.864 125.85 248.886 125.503 248.84C125.156 248.793 124.821 248.678 124.518 248.501L121.371 246.675C120.815 246.353 120.12 246.758 120.12 247.405V251.054C120.12 251.764 119.84 252.445 119.34 252.948C118.84 253.45 118.162 253.732 117.455 253.732C116.749 253.732 116.071 253.45 115.571 252.948C115.071 252.445 114.79 251.764 114.79 251.054V247.405C114.79 246.758 114.096 246.353 113.54 246.675L110.393 248.501C109.781 248.855 109.055 248.95 108.373 248.765C107.692 248.581 107.111 248.133 106.758 247.518C106.405 246.904 106.309 246.174 106.491 245.489C106.673 244.804 107.118 244.219 107.728 243.863L110.869 242.04C111.427 241.717 111.427 240.904 110.869 240.58L107.728 238.758C107.118 238.402 106.673 237.817 106.491 237.132C106.309 236.447 106.405 235.717 106.758 235.103C107.111 234.488 107.692 234.04 108.373 233.856C109.055 233.671 109.781 233.766 110.393 234.119L113.54 235.945C114.096 236.268 114.79 235.863 114.79 235.215V231.567C114.79 230.857 115.071 230.175 115.571 229.673C116.071 229.171 116.749 228.889 117.455 228.889C118.162 228.889 118.84 229.171 119.34 229.673C119.84 230.175 120.12 230.857 120.12 231.567V235.215C120.12 235.863 120.815 236.268 121.371 235.945L124.518 234.119C125.13 233.766 125.856 233.671 126.537 233.856C127.219 234.04 127.8 234.488 128.153 235.103C128.505 235.717 128.602 236.447 128.42 237.132C128.238 237.817 127.793 238.402 127.183 238.758L124.042 240.58C123.484 240.904 123.484 241.717 124.042 242.04L127.183 243.863Z" fill="#0B5C3C"/>
<path d="M157.903 243.863C158.207 244.038 158.474 244.272 158.688 244.551C158.901 244.83 159.058 245.149 159.149 245.489C159.24 245.829 159.264 246.184 159.218 246.533C159.173 246.883 159.059 247.219 158.884 247.524C158.709 247.829 158.475 248.097 158.197 248.311C157.919 248.525 157.601 248.682 157.263 248.773C156.924 248.864 156.571 248.886 156.224 248.84C155.876 248.793 155.542 248.678 155.239 248.501L152.092 246.675C151.535 246.353 150.841 246.758 150.841 247.405V251.054C150.841 251.764 150.56 252.445 150.061 252.948C149.561 253.45 148.883 253.732 148.176 253.732C147.469 253.732 146.792 253.45 146.292 252.948C145.792 252.445 145.511 251.764 145.511 251.054V247.405C145.511 246.758 144.817 246.353 144.26 246.675L141.114 248.501C140.502 248.855 139.776 248.95 139.094 248.765C138.413 248.581 137.832 248.133 137.479 247.518C137.126 246.904 137.03 246.174 137.212 245.489C137.394 244.804 137.839 244.219 138.449 243.863L141.589 242.04C142.147 241.717 142.147 240.904 141.589 240.58L138.449 238.758C137.839 238.402 137.394 237.817 137.212 237.132C137.03 236.447 137.126 235.717 137.479 235.103C137.832 234.488 138.413 234.04 139.094 233.856C139.776 233.671 140.502 233.766 141.114 234.119L144.26 235.945C144.817 236.268 145.511 235.863 145.511 235.215V231.567C145.511 230.857 145.792 230.175 146.292 229.673C146.792 229.171 147.469 228.889 148.176 228.889C148.883 228.889 149.561 229.171 150.061 229.673C150.56 230.175 150.841 230.857 150.841 231.567V235.215C150.841 235.863 151.535 236.268 152.092 235.945L155.239 234.119C155.85 233.766 156.577 233.671 157.258 233.856C157.94 234.04 158.52 234.488 158.873 235.103C159.226 235.717 159.322 236.447 159.14 237.132C158.959 237.817 158.514 238.402 157.903 238.758L154.763 240.58C154.205 240.904 154.205 241.717 154.763 242.04L157.903 243.863Z" fill="#0B5C3C"/>
<path d="M188.624 243.863C188.928 244.038 189.195 244.272 189.408 244.551C189.622 244.83 189.779 245.149 189.87 245.489C189.961 245.829 189.985 246.184 189.939 246.533C189.893 246.883 189.78 247.219 189.605 247.524C189.429 247.829 189.196 248.097 188.918 248.311C188.64 248.525 188.322 248.682 187.984 248.773C187.645 248.864 187.292 248.886 186.945 248.84C186.597 248.793 186.262 248.678 185.959 248.501L182.813 246.675C182.256 246.353 181.562 246.758 181.562 247.405V251.054C181.562 251.764 181.281 252.445 180.781 252.948C180.282 253.45 179.604 253.732 178.897 253.732C178.19 253.732 177.512 253.45 177.013 252.948C176.513 252.445 176.232 251.764 176.232 251.054V247.405C176.232 246.758 175.538 246.353 174.981 246.675L171.835 248.501C171.223 248.855 170.496 248.95 169.815 248.765C169.133 248.581 168.553 248.133 168.2 247.518C167.847 246.904 167.751 246.174 167.933 245.489C168.114 244.804 168.559 244.219 169.17 243.863L172.31 242.04C172.868 241.717 172.868 240.904 172.31 240.58L169.17 238.758C168.559 238.402 168.114 237.817 167.933 237.132C167.751 236.447 167.847 235.717 168.2 235.103C168.553 234.488 169.133 234.04 169.815 233.856C170.496 233.671 171.223 233.766 171.835 234.119L174.981 235.945C175.538 236.268 176.232 235.863 176.232 235.215V231.567C176.232 230.857 176.513 230.175 177.013 229.673C177.512 229.171 178.19 228.889 178.897 228.889C179.604 228.889 180.282 229.171 180.781 229.673C181.281 230.175 181.562 230.857 181.562 231.567V235.215C181.562 235.863 182.256 236.268 182.813 235.945L185.959 234.119C186.571 233.766 187.298 233.671 187.979 233.856C188.66 234.04 189.241 234.488 189.594 235.103C189.947 235.717 190.043 236.447 189.861 237.132C189.679 237.817 189.235 238.402 188.624 238.758L185.484 240.58C184.926 240.904 184.926 241.717 185.484 242.04L188.624 243.863Z" fill="#0B5C3C"/>
<path d="M219.345 243.863C219.649 244.038 219.915 244.272 220.129 244.551C220.343 244.83 220.5 245.149 220.591 245.489C220.682 245.829 220.705 246.184 220.66 246.533C220.614 246.883 220.501 247.219 220.325 247.524C220.15 247.829 219.917 248.097 219.639 248.311C219.36 248.525 219.043 248.682 218.704 248.773C218.366 248.864 218.013 248.886 217.665 248.84C217.318 248.793 216.983 248.678 216.68 248.501L213.533 246.675C212.977 246.353 212.283 246.758 212.283 247.405V251.054C212.283 251.764 212.002 252.445 211.502 252.948C211.002 253.45 210.324 253.732 209.618 253.732C208.911 253.732 208.233 253.45 207.733 252.948C207.234 252.445 206.953 251.764 206.953 251.054V247.405C206.953 246.758 206.258 246.353 205.702 246.675L202.555 248.501C201.943 248.855 201.217 248.95 200.536 248.765C199.854 248.581 199.273 248.133 198.921 247.518C198.568 246.904 198.472 246.174 198.653 245.489C198.835 244.804 199.28 244.219 199.89 243.863L203.031 242.04C203.589 241.717 203.589 240.904 203.031 240.58L199.89 238.758C199.28 238.402 198.835 237.817 198.653 237.132C198.472 236.447 198.568 235.717 198.921 235.103C199.273 234.488 199.854 234.04 200.536 233.856C201.217 233.671 201.943 233.766 202.555 234.119L205.702 235.945C206.258 236.268 206.953 235.863 206.953 235.215V231.567C206.953 230.857 207.234 230.175 207.733 229.673C208.233 229.171 208.911 228.889 209.618 228.889C210.324 228.889 211.002 229.171 211.502 229.673C212.002 230.175 212.283 230.857 212.283 231.567V235.215C212.283 235.863 212.977 236.268 213.533 235.945L216.68 234.119C217.292 233.766 218.018 233.671 218.7 233.856C219.381 234.04 219.962 234.488 220.315 235.103C220.668 235.717 220.764 236.447 220.582 237.132C220.4 237.817 219.955 238.402 219.345 238.758L216.204 240.58C215.646 240.904 215.646 241.717 216.204 242.04L219.345 243.863Z" fill="#0B5C3C"/>
<path d="M128.846 243.364C129.149 243.538 129.415 243.769 129.628 244.045C129.842 244.321 129.998 244.636 130.089 244.972C130.18 245.308 130.203 245.659 130.158 246.004C130.112 246.349 129.999 246.682 129.824 246.984C129.649 247.285 129.417 247.55 129.139 247.761C128.862 247.973 128.545 248.128 128.207 248.218C127.87 248.308 127.518 248.33 127.171 248.284C126.825 248.238 126.491 248.124 126.189 247.95L123.525 246.418C122.759 245.977 121.803 246.53 121.803 247.414V250.473C121.803 251.175 121.523 251.848 121.024 252.345C120.526 252.841 119.85 253.12 119.145 253.12C118.44 253.12 117.764 252.841 117.265 252.345C116.767 251.848 116.487 251.175 116.487 250.473V247.414C116.487 246.53 115.531 245.977 114.765 246.418L112.101 247.95C111.491 248.299 110.767 248.393 110.087 248.21C109.407 248.028 108.828 247.585 108.476 246.978C108.124 246.371 108.028 245.649 108.21 244.972C108.391 244.294 108.835 243.716 109.443 243.364L112.098 241.838C112.867 241.396 112.867 240.287 112.098 239.845L109.443 238.318C108.835 237.966 108.391 237.388 108.21 236.711C108.028 236.034 108.124 235.312 108.476 234.705C108.828 234.098 109.407 233.655 110.087 233.472C110.767 233.29 111.491 233.384 112.101 233.733L114.765 235.265C115.531 235.706 116.487 235.153 116.487 234.269V231.21C116.487 230.508 116.767 229.835 117.265 229.338C117.764 228.841 118.44 228.562 119.145 228.562C119.85 228.562 120.526 228.841 121.024 229.338C121.523 229.835 121.803 230.508 121.803 231.21V234.269C121.803 235.153 122.759 235.706 123.525 235.265L126.189 233.733C126.799 233.384 127.523 233.29 128.203 233.472C128.882 233.655 129.462 234.098 129.814 234.705C130.166 235.312 130.261 236.034 130.08 236.711C129.899 237.388 129.455 237.966 128.846 238.318L126.192 239.845C125.423 240.287 125.423 241.396 126.191 241.838L128.846 243.364Z" fill="url(#paint4_linear_330_1195)"/>
<path d="M159.485 243.364C159.788 243.538 160.054 243.769 160.267 244.045C160.48 244.321 160.637 244.636 160.728 244.972C160.818 245.308 160.842 245.659 160.796 246.004C160.751 246.349 160.638 246.682 160.463 246.984C160.288 247.285 160.055 247.55 159.778 247.761C159.5 247.973 159.184 248.128 158.846 248.218C158.508 248.308 158.156 248.33 157.81 248.284C157.463 248.238 157.129 248.124 156.827 247.95L154.164 246.418C153.397 245.977 152.441 246.53 152.441 247.414V250.473C152.441 251.175 152.161 251.848 151.663 252.345C151.165 252.841 150.488 253.12 149.784 253.12C149.079 253.12 148.403 252.841 147.904 252.345C147.406 251.848 147.126 251.175 147.126 250.473V247.414C147.126 246.53 146.17 245.977 145.404 246.418L142.74 247.95C142.13 248.299 141.405 248.393 140.726 248.21C140.046 248.028 139.467 247.585 139.115 246.978C138.763 246.371 138.667 245.649 138.848 244.972C139.03 244.294 139.473 243.716 140.082 243.364L142.737 241.838C143.505 241.396 143.505 240.287 142.737 239.845L140.082 238.318C139.473 237.966 139.03 237.388 138.848 236.711C138.667 236.034 138.763 235.312 139.115 234.705C139.467 234.098 140.046 233.655 140.726 233.472C141.405 233.29 142.13 233.384 142.74 233.733L145.404 235.265C146.17 235.706 147.126 235.153 147.126 234.269V231.21C147.126 230.508 147.406 229.835 147.904 229.338C148.403 228.841 149.079 228.562 149.784 228.562C150.488 228.562 151.165 228.841 151.663 229.338C152.161 229.835 152.441 230.508 152.441 231.21V234.269C152.441 235.153 153.397 235.706 154.163 235.265L156.827 233.733C157.437 233.384 158.162 233.29 158.841 233.472C159.521 233.655 160.1 234.098 160.452 234.705C160.804 235.312 160.9 236.034 160.719 236.711C160.537 237.388 160.094 237.966 159.485 238.318L156.83 239.845C156.062 240.287 156.062 241.396 156.83 241.838L159.485 243.364Z" fill="url(#paint5_linear_330_1195)"/>
<path d="M190.125 243.364C190.428 243.538 190.694 243.769 190.907 244.045C191.12 244.321 191.277 244.636 191.368 244.972C191.458 245.308 191.482 245.659 191.436 246.004C191.391 246.349 191.277 246.682 191.103 246.984C190.928 247.285 190.695 247.55 190.418 247.761C190.14 247.973 189.824 248.128 189.486 248.218C189.148 248.308 188.796 248.33 188.45 248.284C188.103 248.238 187.769 248.124 187.467 247.95L184.803 246.418C184.037 245.977 183.081 246.53 183.081 247.414V250.473C183.081 251.175 182.801 251.848 182.303 252.345C181.804 252.841 181.128 253.12 180.423 253.12C179.719 253.12 179.042 252.841 178.544 252.345C178.046 251.848 177.766 251.175 177.766 250.473V247.414C177.766 246.53 176.81 245.977 176.043 246.418L173.38 247.95C172.77 248.299 172.045 248.393 171.365 248.21C170.686 248.028 170.107 247.585 169.755 246.978C169.403 246.371 169.307 245.649 169.488 244.972C169.67 244.294 170.113 243.716 170.722 243.364L173.377 241.838C174.145 241.396 174.145 240.287 173.377 239.845L170.722 238.318C170.113 237.966 169.67 237.388 169.488 236.711C169.307 236.034 169.403 235.312 169.755 234.705C170.107 234.098 170.686 233.655 171.365 233.472C172.045 233.29 172.77 233.384 173.38 233.733L176.043 235.265C176.81 235.706 177.766 235.153 177.766 234.269V231.21C177.766 230.508 178.046 229.835 178.544 229.338C179.042 228.841 179.719 228.562 180.423 228.562C181.128 228.562 181.804 228.841 182.303 229.338C182.801 229.835 183.081 230.508 183.081 231.21V234.269C183.081 235.153 184.037 235.706 184.803 235.265L187.467 233.733C188.077 233.384 188.802 233.29 189.481 233.472C190.161 233.655 190.74 234.098 191.092 234.705C191.444 235.312 191.54 236.034 191.359 236.711C191.177 237.388 190.734 237.966 190.125 238.318L187.47 239.845C186.702 240.287 186.702 241.396 187.47 241.838L190.125 243.364Z" fill="url(#paint6_linear_330_1195)"/>
<path d="M220.765 243.364C221.068 243.538 221.334 243.769 221.547 244.045C221.76 244.321 221.917 244.636 222.008 244.972C222.098 245.308 222.122 245.659 222.076 246.004C222.031 246.349 221.918 246.682 221.743 246.984C221.568 247.285 221.335 247.55 221.058 247.761C220.78 247.973 220.464 248.128 220.126 248.218C219.788 248.308 219.436 248.33 219.09 248.284C218.743 248.238 218.409 248.124 218.107 247.95L215.444 246.418C214.677 245.977 213.721 246.53 213.721 247.414V250.473C213.721 251.175 213.441 251.848 212.943 252.345C212.445 252.841 211.768 253.12 211.064 253.12C210.359 253.12 209.683 252.841 209.184 252.345C208.686 251.848 208.406 251.175 208.406 250.473V247.414C208.406 246.53 207.45 245.977 206.684 246.418L204.02 247.95C203.41 248.299 202.685 248.393 202.006 248.21C201.326 248.028 200.747 247.585 200.395 246.978C200.043 246.371 199.947 245.649 200.128 244.972C200.31 244.294 200.753 243.716 201.362 243.364L204.017 241.838C204.785 241.396 204.785 240.287 204.017 239.845L201.362 238.318C200.753 237.966 200.31 237.388 200.128 236.711C199.947 236.034 200.043 235.312 200.395 234.705C200.747 234.098 201.326 233.655 202.006 233.472C202.685 233.29 203.41 233.384 204.02 233.733L206.684 235.265C207.45 235.706 208.406 235.153 208.406 234.269V231.21C208.406 230.508 208.686 229.835 209.184 229.338C209.683 228.841 210.359 228.562 211.064 228.562C211.768 228.562 212.445 228.841 212.943 229.338C213.441 229.835 213.721 230.508 213.721 231.21V234.269C213.721 235.153 214.677 235.706 215.444 235.265L218.107 233.733C218.717 233.384 219.442 233.29 220.122 233.472C220.801 233.655 221.38 234.098 221.732 234.705C222.084 235.312 222.18 236.034 221.999 236.711C221.817 237.388 221.374 237.966 220.765 238.318L218.11 239.845C217.342 240.287 217.342 241.396 218.11 241.838L220.765 243.364Z" fill="url(#paint7_linear_330_1195)"/>
<circle cx="164.243" cy="138.022" r="66.8783" fill="url(#paint8_linear_330_1195)"/>
<circle cx="164.243" cy="138.021" r="60.7984" fill="url(#paint9_linear_330_1195)"/>
<path d="M133.791 120.461C133.791 118.568 135.326 117.033 137.22 117.033L172.398 117.032C173.799 117.032 174.935 115.896 174.935 114.495V108.461C174.935 107.074 175.771 105.824 177.052 105.293C178.333 104.762 179.808 105.056 180.788 106.037L194.503 119.751C195.842 121.09 195.842 123.261 194.503 124.6L180.788 138.315C179.808 139.295 178.333 139.588 177.052 139.058C175.771 138.527 174.935 137.277 174.935 135.89V129.856C174.935 128.454 173.799 127.318 172.398 127.318L137.22 127.319C135.326 127.319 133.791 125.784 133.791 123.89L133.791 120.461Z" fill="#0B5C3C"/>
<path d="M154.363 170.177C154.363 171.564 153.528 172.814 152.247 173.345C150.965 173.875 149.491 173.582 148.51 172.601L137.575 161.666C137.536 161.627 137.483 161.605 137.428 161.605C137.313 161.605 137.22 161.512 137.22 161.397C137.22 161.342 137.198 161.289 137.159 161.25L134.795 158.887C133.457 157.548 133.457 155.377 134.795 154.038L137.159 151.674C137.198 151.635 137.22 151.582 137.22 151.527C137.22 151.412 137.313 151.319 137.428 151.319C137.483 151.319 137.536 151.297 137.575 151.258L148.51 140.323C149.491 139.343 150.965 139.049 152.247 139.58C153.528 140.111 154.363 141.361 154.363 142.748V149.628C154.363 150.562 155.121 151.319 156.055 151.319L192.079 151.319C193.972 151.319 195.507 152.854 195.507 154.748V158.177C195.507 160.07 193.972 161.605 192.079 161.605H156.055C155.121 161.605 154.363 162.363 154.363 163.297V170.177Z" fill="#0B5C3C"/>
<path d="M133.791 118.769C133.791 116.876 135.326 115.341 137.22 115.341L172.398 115.34C173.799 115.34 174.935 114.204 174.935 112.803L174.935 106.769C174.935 105.382 175.771 104.132 177.052 103.601C178.333 103.07 179.808 103.364 180.788 104.345L194.503 118.059C195.842 119.398 195.842 121.569 194.503 122.908L180.788 136.623C179.808 137.603 178.333 137.896 177.052 137.366C175.771 136.835 174.935 135.585 174.935 134.198L174.935 128.164C174.935 126.762 173.799 125.626 172.398 125.626L137.22 125.627C135.326 125.627 133.791 124.092 133.791 122.198L133.791 118.769Z" fill="url(#paint10_linear_330_1195)"/>
<path d="M154.363 168.485C154.363 169.872 153.528 171.122 152.247 171.653C150.965 172.184 149.491 171.891 148.51 170.91L137.575 159.975C137.536 159.936 137.483 159.914 137.428 159.914C137.313 159.914 137.22 159.821 137.22 159.706C137.22 159.651 137.198 159.598 137.159 159.559L134.795 157.195C133.457 155.856 133.457 153.685 134.795 152.346L137.159 149.983C137.198 149.944 137.22 149.891 137.22 149.836C137.22 149.721 137.313 149.628 137.428 149.628C137.483 149.628 137.536 149.606 137.575 149.567L148.51 138.632C149.491 137.651 150.965 137.358 152.247 137.889C153.528 138.419 154.363 139.669 154.363 141.056L154.363 147.936C154.363 148.871 155.121 149.628 156.055 149.628L192.079 149.628C193.972 149.628 195.507 151.163 195.507 153.057L195.507 156.485C195.507 158.379 193.972 159.914 192.079 159.914L156.055 159.914C155.121 159.914 154.363 160.671 154.363 161.606L154.363 168.485Z" fill="url(#paint11_linear_330_1195)"/>
<defs>
<linearGradient id="paint0_linear_330_1195" x1="73.0239" y1="199.144" x2="121.032" y2="18.6342" gradientUnits="userSpaceOnUse">
<stop stop-color="#424242"/>
<stop offset="1" stop-color="#525252"/>
</linearGradient>
<linearGradient id="paint1_linear_330_1195" x1="187.128" y1="267.337" x2="173.657" y2="219.675" gradientUnits="userSpaceOnUse">
<stop stop-color="#0B5C3C"/>
<stop offset="1" stop-color="#0A7147"/>
</linearGradient>
<linearGradient id="paint2_linear_330_1195" x1="126.403" y1="333.847" x2="123.934" y2="87.2654" gradientUnits="userSpaceOnUse">
<stop stop-color="#01B86C"/>
<stop offset="0.322807" stop-color="#058751"/>
<stop offset="1" stop-color="#01B86C"/>
</linearGradient>
<linearGradient id="paint3_linear_330_1195" x1="181.22" y1="261.045" x2="171.59" y2="226.64" gradientUnits="userSpaceOnUse">
<stop stop-color="#0B5C3C"/>
<stop offset="1" stop-color="#0A7147"/>
</linearGradient>
<linearGradient id="paint4_linear_330_1195" x1="113.553" y1="260.821" x2="125.641" y2="220.645" gradientUnits="userSpaceOnUse">
<stop stop-color="#B2FFDD"/>
<stop offset="1" stop-color="#FAFAFA"/>
</linearGradient>
<linearGradient id="paint5_linear_330_1195" x1="144.191" y1="260.821" x2="156.279" y2="220.645" gradientUnits="userSpaceOnUse">
<stop stop-color="#B2FFDD"/>
<stop offset="1" stop-color="#FAFAFA"/>
</linearGradient>
<linearGradient id="paint6_linear_330_1195" x1="174.831" y1="260.821" x2="186.919" y2="220.645" gradientUnits="userSpaceOnUse">
<stop stop-color="#B2FFDD"/>
<stop offset="1" stop-color="#FAFAFA"/>
</linearGradient>
<linearGradient id="paint7_linear_330_1195" x1="205.471" y1="260.821" x2="217.559" y2="220.645" gradientUnits="userSpaceOnUse">
<stop stop-color="#B2FFDD"/>
<stop offset="1" stop-color="#FAFAFA"/>
</linearGradient>
<linearGradient id="paint8_linear_330_1195" x1="197.986" y1="217.668" x2="119.806" y2="64.1849" gradientUnits="userSpaceOnUse">
<stop stop-color="#01B86C"/>
<stop offset="0.322807" stop-color="#058751"/>
<stop offset="1" stop-color="#01B86C"/>
</linearGradient>
<linearGradient id="paint9_linear_330_1195" x1="175.509" y1="170.899" x2="135.534" y2="126.337" gradientUnits="userSpaceOnUse">
<stop stop-color="#0B5C3C"/>
<stop offset="1" stop-color="#0A7147"/>
</linearGradient>
<linearGradient id="paint10_linear_330_1195" x1="214.859" y1="129.183" x2="125.827" y2="85.8687" gradientUnits="userSpaceOnUse">
<stop stop-color="#B2FFDD"/>
<stop offset="1" stop-color="#FAFAFA"/>
</linearGradient>
<linearGradient id="paint11_linear_330_1195" x1="214.859" y1="163.47" x2="125.827" y2="120.156" gradientUnits="userSpaceOnUse">
<stop stop-color="#B2FFDD"/>
<stop offset="1" stop-color="#FAFAFA"/>
</linearGradient>
</defs>
</svg>
