<svg width="20" height="20" viewBox="0 0 20 20" xmlns="http://www.w3.org/2000/svg" fill="none">
  <g id="trash">
    <path id="Vector" d="M8.33398 9.16667V14.1667M11.6673 9.16667V14.1667M3.33398 5.83333H16.6673M15.834 5.83333L15.1115 15.9517C15.0816 16.3722 14.8934 16.7657 14.5849 17.053C14.2764 17.3403 13.8705 17.5 13.449 17.5H6.55232C6.13077 17.5 5.72487 17.3403 5.41639 17.053C5.1079 16.7657 4.91975 16.3722 4.88982 15.9517L4.16732 5.83333H15.834ZM12.5007 5.83333V3.33333C12.5007 3.11232 12.4129 2.90036 12.2566 2.74408C12.1003 2.5878 11.8883 2.5 11.6673 2.5H8.33398C8.11297 2.5 7.90101 2.5878 7.74473 2.74408C7.58845 2.90036 7.50065 3.11232 7.50065 3.33333V5.83333H12.5007Z" stroke="currentColor" stroke-width="1.5" stroke-linecap="round" stroke-linejoin="round"/>
  </g>
</svg>
