<svg width="298" height="192" viewBox="0 0 298 192" fill="none" xmlns="http://www.w3.org/2000/svg">
<g clip-path="url(#clip0_11493_12582)">
<path d="M4 -4H16L-64 196H-76L4 -4Z" fill="#EEEEEE"/>
<path d="M28 -4H40L-40 196H-52L28 -4Z" fill="#EEEEEE"/>
<path d="M52 -4H64L-16 196H-28L52 -4Z" fill="#EEEEEE"/>
<path d="M76 -4H88L8 196H-4L76 -4Z" fill="#EEEEEE"/>
<path d="M220 -4H232L152 196H140L220 -4Z" fill="#EEEEEE"/>
<path d="M100 -4H112L32 196H20L100 -4Z" fill="#EEEEEE"/>
<path d="M244 -4H256L176 196H164L244 -4Z" fill="#EEEEEE"/>
<path d="M124 -4H136L56 196H44L124 -4Z" fill="#EEEEEE"/>
<path d="M268 -4H280L200 196H188L268 -4Z" fill="#EEEEEE"/>
<path d="M148 -4H160L80 196H68L148 -4Z" fill="#EEEEEE"/>
<path d="M292 -4H304L224 196H212L292 -4Z" fill="#EEEEEE"/>
<path d="M172 -4H184L104 196H92L172 -4Z" fill="#EEEEEE"/>
<path d="M316 -4H328L248 196H236L316 -4Z" fill="#EEEEEE"/>
<path d="M196 -4H208L128 196H116L196 -4Z" fill="#EEEEEE"/>
<path d="M340 -4H352L272 196H260L340 -4Z" fill="#EEEEEE"/>
<path d="M364 -4H376L296 196H284L364 -4Z" fill="#EEEEEE"/>
</g>
<defs>
<clipPath id="clip0_11493_12582">
<rect width="298" height="192" rx="12" fill="white"/>
</clipPath>
</defs>
</svg>
