<svg xmlns="http://www.w3.org/2000/svg" viewBox="0 0 18 18" fill="none">
    <path d="M13.4786 15.2994H4.52179C4.06244 15.3192 3.60608 15.2164 3.19957 15.0016C2.79304 14.7868 2.45097 14.4678 2.20842 14.0773C1.96587 13.6867 1.83156 13.2386 1.81928 12.779C1.80701 12.3193 1.91722 11.8648 2.13859 11.4618L6.61697 3.6786C6.86524 3.26877 7.21503 2.9299 7.63251 2.69471C8.04997 2.45951 8.52099 2.33594 9.00015 2.33594C9.47931 2.33594 9.95041 2.45951 10.3679 2.69471C10.7853 2.9299 11.1352 3.26877 11.3834 3.6786L15.8618 11.4618C16.0832 11.8648 16.1934 12.3193 16.1811 12.779C16.1688 13.2386 16.0346 13.6867 15.792 14.0773C15.5494 14.4678 15.2073 14.7868 14.8008 15.0016C14.3942 15.2164 13.9379 15.3192 13.4786 15.2994Z" stroke="currentColor" stroke-width="1.3" stroke-linecap="round" stroke-linejoin="round"/>
    <path d="M8.19434 12.3484C8.19434 12.2419 8.21543 12.1364 8.2564 12.0382C8.29737 11.9398 8.35742 11.8506 8.43309 11.7757C8.50869 11.7007 8.59847 11.6414 8.69711 11.6013C8.79582 11.5612 8.90138 11.5411 9.00794 11.542C9.16504 11.5449 9.31782 11.5939 9.44721 11.6831C9.57652 11.7723 9.67674 11.8978 9.73528 12.0436C9.79374 12.1894 9.80793 12.3493 9.7761 12.5031C9.74421 12.657 9.66767 12.7981 9.55607 12.9087C9.44447 13.0193 9.3027 13.0946 9.14855 13.1251C8.9944 13.1556 8.8347 13.14 8.68941 13.0802C8.54404 13.0204 8.41962 12.9191 8.33157 12.7889C8.24351 12.6588 8.19578 12.5056 8.19434 12.3484ZM8.45354 10.3828L8.35274 6.62442C8.34316 6.53408 8.35266 6.44273 8.38074 6.35632C8.40875 6.26989 8.45462 6.19033 8.51538 6.12279C8.57615 6.05525 8.65046 6.00125 8.7334 5.96428C8.81642 5.92731 8.90627 5.9082 8.99714 5.9082C9.088 5.9082 9.17786 5.92731 9.2608 5.96428C9.34382 6.00125 9.41805 6.05525 9.47882 6.12279C9.53958 6.19033 9.58552 6.26989 9.61353 6.35632C9.64154 6.44273 9.65111 6.53408 9.64154 6.62442L9.54794 10.3828C9.54794 10.5279 9.49026 10.6671 9.38766 10.7697C9.28499 10.8723 9.14582 10.93 9.00074 10.93C8.85558 10.93 8.71641 10.8723 8.61381 10.7697C8.51121 10.6671 8.45354 10.5279 8.45354 10.3828Z" fill="currentColor"/>
</svg>
