<svg width="172" height="159" viewBox="0 0 172 159" fill="none" xmlns="http://www.w3.org/2000/svg">
<path d="M160.667 7H11.3333C8.38781 7 6 8.9975 6 11.4615V118.538C6 121.002 8.38781 123 11.3333 123H160.667C163.612 123 166 121.002 166 118.538V11.4615C166 8.9975 163.612 7 160.667 7Z" fill="url(#paint0_linear_571_5583)"/>
<path d="M160.667 7H11.3333C9.91885 7 8.56229 7.5619 7.5621 8.5621C6.5619 9.56229 6 10.9188 6 12.3333V39H166V12.3333C166 10.9188 165.438 9.56229 164.438 8.5621C163.438 7.5619 162.081 7 160.667 7Z" fill="#6F5133"/>
<path d="M47.8781 24.2742C47.8781 23.5675 48.0876 22.8767 48.4802 22.2891C48.8728 21.7015 49.4308 21.2436 50.0837 20.9732C50.7366 20.7027 51.455 20.632 52.1481 20.7698C52.8412 20.9077 53.4778 21.248 53.9775 21.7477C54.4772 22.2474 54.8175 22.884 54.9554 23.5771C55.0933 24.2702 55.0225 24.9886 54.752 25.6415C54.4816 26.2944 54.0237 26.8524 53.4361 27.245C52.8485 27.6376 52.1577 27.8471 51.451 27.8471C50.5034 27.8471 49.5946 27.4707 48.9246 26.8006C48.2545 26.1306 47.8781 25.2218 47.8781 24.2742ZM33.5861 24.2742C33.5861 23.5675 33.7957 22.8767 34.1883 22.2891C34.5809 21.7015 35.1389 21.2436 35.7918 20.9732C36.4446 20.7027 37.1631 20.632 37.8561 20.7698C38.5492 20.9077 39.1859 21.248 39.6856 21.7477C40.1853 22.2474 40.5256 22.884 40.6635 23.5771C40.8013 24.2702 40.7305 24.9886 40.4601 25.6415C40.1897 26.2944 39.7317 26.8524 39.1442 27.245C38.5566 27.6376 37.8658 27.8471 37.1591 27.8471C36.2115 27.8471 35.3027 27.4707 34.6326 26.8006C33.9626 26.1306 33.5861 25.2218 33.5861 24.2742ZM19.2942 24.2742C19.2942 23.5675 19.5038 22.8767 19.8964 22.2891C20.289 21.7015 20.8469 21.2436 21.4998 20.9732C22.1527 20.7027 22.8711 20.632 23.5642 20.7698C24.2573 20.9077 24.894 21.248 25.3937 21.7477C25.8933 22.2474 26.2337 22.884 26.3715 23.5771C26.5094 24.2702 26.4386 24.9886 26.1682 25.6415C25.8977 26.2944 25.4398 26.8524 24.8522 27.245C24.2647 27.6376 23.5738 27.8471 22.8672 27.8471C21.9196 27.8471 21.0108 27.4707 20.3407 26.8006C19.6706 26.1306 19.2942 25.2218 19.2942 24.2742Z" fill="#463923"/>
<path d="M85.9343 147.642C104.748 147.642 120 132.39 120 113.576C120 94.7624 104.748 79.5107 85.9343 79.5107C67.1204 79.5107 51.8687 94.7624 51.8687 113.576C51.8687 132.39 67.1204 147.642 85.9343 147.642Z" fill="#A96B1B"/>
<path d="M85.9343 141.532C101.373 141.532 113.889 129.017 113.889 113.578C113.889 98.1387 101.373 85.623 85.9343 85.623C70.4954 85.623 57.9797 98.1387 57.9797 113.578C57.9797 129.017 70.4954 141.532 85.9343 141.532Z" fill="url(#paint1_linear_571_5583)"/>
<path d="M82.301 98.9521H89.4844V118.221H82.301V98.9521Z" fill="#A46007"/>
<path d="M85.9347 129.012C88.2217 129.012 90.0757 127.158 90.0757 124.871C90.0757 122.583 88.2217 120.729 85.9347 120.729C83.6477 120.729 81.7937 122.583 81.7937 124.871C81.7937 127.158 83.6477 129.012 85.9347 129.012Z" fill="#A46007"/>
<defs>
<linearGradient id="paint0_linear_571_5583" x1="44" y1="155.5" x2="123" y2="6.99999" gradientUnits="userSpaceOnUse">
<stop stop-color="#443D36"/>
<stop offset="1" stop-color="#554230"/>
</linearGradient>
<linearGradient id="paint1_linear_571_5583" x1="85.9343" y1="85.623" x2="85.9343" y2="141.532" gradientUnits="userSpaceOnUse">
<stop stop-color="#FDB022"/>
<stop offset="1" stop-color="#F79009"/>
</linearGradient>
</defs>
</svg>
