<svg width="172" height="159" viewBox="0 0 172 159" fill="none" xmlns="http://www.w3.org/2000/svg">
<path d="M160.451 6.6416H11.0525C8.10565 6.6416 5.7168 8.64981 5.7168 11.1271V118.778C5.7168 121.256 8.10565 123.264 11.0525 123.264H160.451C163.398 123.264 165.787 121.256 165.787 118.778V11.1271C165.787 8.64981 163.398 6.6416 160.451 6.6416Z" fill="url(#paint0_linear_567_4495)"/>
<path d="M160.784 6.71289H10.7191C9.29767 6.71289 7.93447 7.27755 6.92937 8.28264C5.92428 9.28774 5.35962 10.6509 5.35962 12.0724V38.8698H166.144V12.0724C166.144 10.6509 165.579 9.28774 164.574 8.28264C163.569 7.27755 162.206 6.71289 160.784 6.71289Z" fill="#FFD7B2"/>
<path d="M47.8781 22.2742C47.8781 21.5675 48.0876 20.8767 48.4802 20.2891C48.8728 19.7015 49.4308 19.2436 50.0837 18.9732C50.7366 18.7027 51.455 18.632 52.1481 18.7698C52.8412 18.9077 53.4778 19.248 53.9775 19.7477C54.4772 20.2474 54.8175 20.884 54.9554 21.5771C55.0933 22.2702 55.0225 22.9886 54.752 23.6415C54.4816 24.2944 54.0237 24.8524 53.4361 25.245C52.8485 25.6376 52.1577 25.8471 51.451 25.8471C50.5034 25.8471 49.5946 25.4707 48.9246 24.8006C48.2545 24.1306 47.8781 23.2218 47.8781 22.2742ZM33.5861 22.2742C33.5861 21.5675 33.7957 20.8767 34.1883 20.2891C34.5809 19.7015 35.1389 19.2436 35.7918 18.9732C36.4446 18.7027 37.1631 18.632 37.8561 18.7698C38.5492 18.9077 39.1859 19.248 39.6856 19.7477C40.1853 20.2474 40.5256 20.884 40.6635 21.5771C40.8013 22.2702 40.7305 22.9886 40.4601 23.6415C40.1897 24.2944 39.7317 24.8524 39.1442 25.245C38.5566 25.6376 37.8658 25.8471 37.1591 25.8471C36.2115 25.8471 35.3027 25.4707 34.6326 24.8006C33.9626 24.1306 33.5861 23.2218 33.5861 22.2742ZM19.2942 22.2742C19.2942 21.5675 19.5038 20.8767 19.8964 20.2891C20.289 19.7015 20.8469 19.2436 21.4998 18.9732C22.1527 18.7027 22.8711 18.632 23.5642 18.7698C24.2573 18.9077 24.894 19.248 25.3937 19.7477C25.8933 20.2474 26.2337 20.884 26.3715 21.5771C26.5094 22.2702 26.4386 22.9886 26.1682 23.6415C25.8977 24.2944 25.4398 24.8524 24.8522 25.245C24.2647 25.6376 23.5738 25.8471 22.8672 25.8471C21.9196 25.8471 21.0108 25.4707 20.3407 24.8006C19.6706 24.1306 19.2942 23.2218 19.2942 22.2742Z" fill="#F4B87F"/>
<path d="M85.9343 147.642C104.748 147.642 120 132.39 120 113.576C120 94.7624 104.748 79.5107 85.9343 79.5107C67.1204 79.5107 51.8687 94.7624 51.8687 113.576C51.8687 132.39 67.1204 147.642 85.9343 147.642Z" fill="#FFD9A8"/>
<path d="M85.9343 141.532C101.373 141.532 113.889 129.017 113.889 113.578C113.889 98.1387 101.373 85.623 85.9343 85.623C70.4954 85.623 57.9797 98.1387 57.9797 113.578C57.9797 129.017 70.4954 141.532 85.9343 141.532Z" fill="#F79009"/>
<path d="M82.301 98.9521H89.4844V118.221H82.301V98.9521Z" fill="#A46007"/>
<path d="M85.9347 129.012C88.2217 129.012 90.0757 127.158 90.0757 124.871C90.0757 122.583 88.2217 120.729 85.9347 120.729C83.6477 120.729 81.7937 122.583 81.7937 124.871C81.7937 127.158 83.6477 129.012 85.9347 129.012Z" fill="#A46007"/>
<defs>
<linearGradient id="paint0_linear_567_4495" x1="-2.42234" y1="161.245" x2="69.5772" y2="-21.808" gradientUnits="userSpaceOnUse">
<stop stop-color="#FFD7B2"/>
<stop offset="1" stop-color="#FFF6EE"/>
</linearGradient>
</defs>
</svg>