<svg xmlns="http://www.w3.org/2000/svg" width="76" height="76" viewBox="0 0 76 76" fill="none">
  <path d="M38.0473 72.0712C56.8382 72.0712 72.0712 56.8382 72.0712 38.0473C72.0712 19.2564 56.8382 4.02344 38.0473 4.02344C19.2564 4.02344 4.02344 19.2564 4.02344 38.0473C4.02344 56.8382 19.2564 72.0712 38.0473 72.0712Z" fill="#A96B1B"/>
  <path d="M38.0473 65.9685C53.4672 65.9685 65.9675 53.4682 65.9675 38.0482C65.9675 22.6283 53.4672 10.1279 38.0473 10.1279C22.6273 10.1279 10.127 22.6283 10.127 38.0482C10.127 53.4682 22.6273 65.9685 38.0473 65.9685Z" fill="url(#paint0_linear_752_8129)"/>
  <path d="M34.418 23.4409H41.5925V42.6857H34.418V23.4409Z" fill="#A46007"/>
  <path d="M38.0476 53.4633C40.3318 53.4633 42.1835 51.6116 42.1835 49.3273C42.1835 47.0431 40.3318 45.1914 38.0476 45.1914C35.7633 45.1914 33.9116 47.0431 33.9116 49.3273C33.9116 51.6116 35.7633 53.4633 38.0476 53.4633Z" fill="#A46007"/>
  <defs>
    <linearGradient id="paint0_linear_752_8129" x1="38.0472" y1="10.1279" x2="38.0472" y2="65.9685" gradientUnits="userSpaceOnUse">
      <stop stop-color="#FDB022"/>
      <stop offset="1" stop-color="#F79009"/>
    </linearGradient>
  </defs>
</svg>